<svg id="Layer_1" data-name="Layer 1" xmlns="http://www.w3.org/2000/svg" xmlns:xlink="http://www.w3.org/1999/xlink" viewBox="0 0 329.57 205.71"><defs><style>.cls-1,.cls-16{fill:#f1f2f2;}.cls-1,.cls-2,.cls-21,.cls-3,.cls-4,.cls-5,.cls-7{stroke:#231f20;}.cls-1,.cls-10,.cls-11,.cls-12,.cls-13,.cls-14,.cls-15,.cls-16,.cls-2,.cls-3,.cls-4,.cls-5,.cls-6,.cls-7,.cls-8,.cls-9{stroke-linecap:round;stroke-linejoin:round;}.cls-2{fill:#414042;}.cls-3{fill:url(#Fading_Sky);}.cls-12,.cls-13,.cls-15,.cls-4,.cls-7,.cls-8,.cls-9{fill:none;}.cls-5{fill:#be1e2d;}.cls-14,.cls-6{fill:#231f20;}.cls-6{stroke:#a7a9ac;}.cls-10,.cls-11,.cls-14,.cls-15,.cls-6{stroke-width:0.25px;}.cls-7,.cls-8{stroke-width:4px;}.cls-8{stroke:#58595b;}.cls-10,.cls-11,.cls-12,.cls-13,.cls-14,.cls-15,.cls-16,.cls-9{stroke:#414042;}.cls-16,.cls-21,.cls-9{stroke-width:0.5px;}.cls-10{fill:url(#White_Black);}.cls-11{fill:url(#White_Black-2);}.cls-12{stroke-width:2px;}.cls-17{fill:#8dc63f;}.cls-18{fill:#39b54a;opacity:0.61;}.cls-19,.cls-20{fill:#fff200;}.cls-20{opacity:0.5;}.cls-21{fill:#fff;stroke-miterlimit:10;}</style><linearGradient id="Fading_Sky" x1="182.16" y1="113.95" x2="182.16" y2="94.14" gradientUnits="userSpaceOnUse"><stop offset="0" stop-color="#2484c6"/><stop offset="1" stop-color="#2484c6" stop-opacity="0"/></linearGradient><linearGradient id="White_Black" x1="94.46" y1="88.32" x2="98.24" y2="88.32" gradientUnits="userSpaceOnUse"><stop offset="0" stop-color="#fff"/><stop offset="1" stop-color="#231f20"/></linearGradient><linearGradient id="White_Black-2" x1="98.05" y1="87.14" x2="102.68" y2="87.14" xlink:href="#White_Black"/></defs><path class="cls-1" d="M133.89,282.64l.51-29.13,53.34.52V226.85H277L280,251.46l24.62,5.64,1,12.31S266.71,281.62,133.89,282.64Z" transform="translate(-51.22 -112.9)"/><path class="cls-2" d="M52.8,280.37l20.08,37.2L329,318.1s70.54-40.39,46.12-56.87c0,0-219.77,34-323.42,9.57Z" transform="translate(-51.22 -112.9)"/><polygon class="cls-3" points="136.52 113.95 127.43 94.14 236.88 94.44 225.75 113.95 136.52 113.95"/><line class="cls-4" x1="153.53" y1="94.36" x2="166.15" y2="114.06"/><line class="cls-4" x1="181.85" y1="93.83" x2="181.85" y2="113.4"/><line class="cls-4" x1="205.22" y1="94.16" x2="197.53" y2="113.79"/><line class="cls-4" x1="226.8" y1="94.63" x2="220.33" y2="114.27"/><polygon class="cls-5" points="86.31 140 92.43 94.29 110.62 94.44 128.5 139.69 128.96 140.76 86.31 140"/><polygon class="cls-5" points="123.31 94.14 127.59 85.73 236.12 85.73 240.71 94.14 123.31 94.14"/><circle class="cls-6" cx="120.65" cy="156.88" r="6.88"/><circle class="cls-6" cx="142.82" cy="156.58" r="6.88"/><circle class="cls-6" cx="175.84" cy="127.65" r="6.88"/><circle class="cls-6" cx="207.94" cy="127.65" r="6.88"/><circle class="cls-7" cx="187.91" cy="175.29" r="5.73"/><circle class="cls-7" cx="170.48" cy="176.44" r="5.73"/><circle class="cls-7" cx="153.06" cy="177.36" r="5.73"/><circle class="cls-7" cx="135.4" cy="178.27" r="5.73"/><circle class="cls-7" cx="119.12" cy="178.27" r="5.73"/><circle class="cls-7" cx="100.78" cy="178.04" r="5.73"/><circle class="cls-7" cx="84.27" cy="178.04" r="5.73"/><circle class="cls-7" cx="65.01" cy="177.59" r="5.73"/><circle class="cls-7" cx="46.89" cy="176.67" r="5.73"/><circle class="cls-7" cx="8.83" cy="172.08" r="5.73"/><circle class="cls-7" cx="27.63" cy="175.29" r="5.73"/><circle class="cls-7" cx="204.94" cy="174.85" r="5.73"/><circle class="cls-7" cx="222.37" cy="173.54" r="5.73"/><circle class="cls-7" cx="259.06" cy="169.87" r="5.73"/><circle class="cls-7" cx="276.71" cy="168.04" r="5.73"/><circle class="cls-7" cx="293.91" cy="165.97" r="5.73"/><circle class="cls-7" cx="310.88" cy="165.29" r="5.73"/><circle class="cls-7" cx="241.4" cy="172.17" r="5.73"/><path class="cls-8" d="M61.79,294.57S138.07,319,363,293.5" transform="translate(-51.22 -112.9)"/><polyline class="cls-9" points="176.89 162.88 177.2 148.82 196.76 148.52 196.76 161.66"/><polygon class="cls-10" points="96.33 93.83 96.33 86.8 94.46 84.24 95.95 82.78 98.05 85.31 98.24 85.92 98.24 93.87 96.33 93.83"/><polygon class="cls-11" points="100.34 93.82 100.34 85.28 98.05 82.18 99.87 80.41 102.44 83.48 102.67 84.22 102.67 93.87 100.34 93.82"/><line class="cls-12" x1="182.7" y1="1" x2="182.7" y2="84.92"/><polyline class="cls-13" points="183.16 25.76 176.05 25.54 175.82 18.66"/><polygon class="cls-14" points="182.62 18.81 191.19 18.73 182.62 23.62 182.62 18.81"/><polygon class="cls-14" points="183.24 37 191.8 36.92 183.24 41.81 183.24 37"/><path class="cls-15" d="M216,168.47v28.89" transform="translate(-51.22 -112.9)"/><polyline class="cls-9" points="182.24 46.06 175.59 45.94 175.48 40.67"/><rect class="cls-16" x="191.64" y="82.29" width="36.34" height="3.32"/><rect class="cls-14" x="214.69" y="82.06" width="15.82" height="3.55"/><rect class="cls-17" x="215.52" y="82.29" width="2.35" height="3.1"/><ellipse class="cls-18" cx="217.71" cy="83.78" rx="2.77" ry="2.58"/><rect class="cls-19" x="183.79" y="11.09" width="3.67" height="7.45" rx="0.46"/><ellipse class="cls-20" cx="189.47" cy="14.25" rx="7.68" ry="7.91"/><path class="cls-19" d="M226.58,153.31c3.22,0,3.22-5,0-5s-3.22,5,0,5Z" transform="translate(-51.22 -112.9)"/><path class="cls-19" d="M227,132c3.22,0,3.22-5,0-5s-3.22,5,0,5Z" transform="translate(-51.22 -112.9)"/><path class="cls-19" d="M237.36,149.65c3.21,0,3.22-5,0-5s-3.23,5,0,5Z" transform="translate(-51.22 -112.9)"/><path class="cls-19" d="M134.86,253.75c3.22,0,3.22-5,0-5s-3.22,5,0,5Z" transform="translate(-51.22 -112.9)"/><circle class="cls-21" cx="148.42" cy="78.16" r="4.24"/><line class="cls-21" x1="148.42" y1="82.4" x2="148.36" y2="85.67"/></svg>