<svg id="Layer_1" data-name="Layer 1" xmlns="http://www.w3.org/2000/svg" viewBox="0 0 1920 456"><defs><style>.cls-1{fill:#0071bc;}</style></defs><path class="cls-1" d="M1917.09,646.72c-37.3,1.07-72.95-9.22-108.79-16.33s-76.71-10.72-108.66,2.42c-12,5-22.36,12.13-35.81,14.9-26.34,5.43-52.3-7.6-78.68-13-76.8-15.57-154,35-233.3,27-55.81-5.66-104-39.89-159.58-33.41-29.42,3.42-54.12,18-83.59,21.17-42.7,4.58-82.43-15.49-125.23-19.58-70.1-6.69-136.46,29.9-207,26-57.46-3.18-110.22-33-166.89-25.79-34.26,4.35-63.26,21.9-98,23.83-47.34,2.62-88-24.18-135.22-27.61-63.4-4.6-120,33.38-183.66,31.12-32.16-1.15-61.39-12.48-92.4-18.4s-69.91-4.51-88.22,13.52L0,663v417H1920V647.33l-3-.68" transform="translate(0 -624)"/></svg>