<svg id="Layer_1" data-name="Layer 1" xmlns="http://www.w3.org/2000/svg" viewBox="0 0 431.93 69.34"><defs><style>.cls-1{fill:#00aeef;}.cls-2{fill:#fff;}.cls-3{opacity:0.82;}.cls-4{opacity:0.73;}</style></defs><path class="cls-1" d="M0,182v53.25l3.49-2.49a60.69,60.69,0,0,1,6-2.49,64.58,64.58,0,0,1,12.44-3c10.56-1.29,19.85,1.66,23.88,3,7.87,2.58,8.2,4.26,19.91,9.46a159.48,159.48,0,0,0,18.41,7,100.62,100.62,0,0,0,38.32,3.49c6-.64,15.91-3.74,35.83-9.95,18.32-5.72,19.67-6.71,27.86-8.46,12.41-2.65,21.94-3.07,31.35-3.49,12.71-.56,24.2-1.06,38.82,1.5,10.26,1.79,9.62,2.92,27.86,7.46,17.29,4.3,25.94,6.45,35.33,7,17.28.94,31.12-2.74,43.3-6,19.57-5.2,21.91-9.09,33.84-9.95,14.74-1.06,27.15,3.74,35.33,8V194.9a169.06,169.06,0,0,0-21.9-8c-13.78-4-23-6.62-34.33-5-1.48.22-8.12,2.47-21.4,7-16.69,5.66-17.93,6.29-22.89,7.46-9.54,2.27-16.58,3.94-25.38,2.49-5.76-.94-6-2.2-19.41-7.46-11.72-4.61-17.59-6.91-25.38-8.46-9.38-1.87-16.7-1.73-28.86-1.49-9.95.19-17.63,1-21.89,1.49-8.43.93-14.68,2-22.89,3.48-7.94,1.4-14.08,2.49-20.41,4-21.21,5-21.29,9.12-35.83,12a91.59,91.59,0,0,1-35.82-.5c-9.26-1.86-8.8-3.21-27.87-9.46-13.95-4.57-23.34-7.64-35.33-9.45A138.63,138.63,0,0,0,0,182Z" transform="translate(-0.03 -181.33)"/><path class="cls-2" d="M58.53,222.36c-.11,0,0,.39,0,.47C58.7,222.71,58.51,222.26,58.53,222.36Z" transform="translate(-0.03 -181.33)"/><polygon class="cls-2" points="60.28 39.87 60.25 40.05 60.54 39.62 60.28 39.87"/><path class="cls-2" d="M62.21,221.28c-.12-.74-.71.06-1-.21l-.06-.16-.16.56C61.37,221.41,61.93,221,62.21,221.28Z" transform="translate(-0.03 -181.33)"/><path class="cls-2" d="M63,222.94c0-.28.24-.2-.21-.12a.13.13,0,0,1,0,.08A.59.59,0,0,1,63,222.94Z" transform="translate(-0.03 -181.33)"/><path class="cls-2" d="M62.8,222.9c-.18,0,.09.25,0,0Z" transform="translate(-0.03 -181.33)"/><path class="cls-2" d="M63.69,222.89c-.09.07-.19.12-.29.19s.23.26.13.36C63.8,223.36,63.79,223.19,63.69,222.89Z" transform="translate(-0.03 -181.33)"/><path class="cls-2" d="M64,222.43l-.15.08C63.9,222.58,63.93,222.61,64,222.43Z" transform="translate(-0.03 -181.33)"/><path class="cls-2" d="M63.56,222.66l.33-.15c0-.12,0-.35-.15.05C63.81,222.36,63.71,222.54,63.56,222.66Z" transform="translate(-0.03 -181.33)"/><path class="cls-2" d="M63.43,222.53c-.11-.17-.28-.3,0-.5C62.94,222,62.94,222.55,63.43,222.53Z" transform="translate(-0.03 -181.33)"/><path class="cls-2" d="M62.38,220.56l-.18-.23-.2.22C62.1,220.44,62.37,220.78,62.38,220.56Z" transform="translate(-0.03 -181.33)"/><path class="cls-2" d="M65.16,223.62a3.47,3.47,0,0,0,.06-.6l-.23.12C65.06,223.26,65.21,223.4,65.16,223.62Z" transform="translate(-0.03 -181.33)"/><path class="cls-2" d="M65.22,223l.35-.18C65.32,222.74,65.25,222.85,65.22,223Z" transform="translate(-0.03 -181.33)"/><polygon class="cls-2" points="64.22 40.34 63.63 40.77 64.31 40.35 64.22 40.34"/><polygon class="cls-2" points="66.19 42.63 65.93 42.91 66.37 42.49 66.19 42.63"/><path class="cls-2" d="M67,224.13c-.21.24,0,.52-.17.65a1.31,1.31,0,0,0,.68-.32C67.27,224.52,67.11,224.43,67,224.13Z" transform="translate(-0.03 -181.33)"/><path class="cls-2" d="M67.83,224.24a1.34,1.34,0,0,0-.36.22A1.12,1.12,0,0,0,67.83,224.24Z" transform="translate(-0.03 -181.33)"/><path class="cls-2" d="M66,223.06a.7.7,0,0,0,.1.48v-.44Z" transform="translate(-0.03 -181.33)"/><path class="cls-2" d="M66.15,223.09h0l.24.1Z" transform="translate(-0.03 -181.33)"/><path class="cls-2" d="M66,223.05h0S66,223,66,223.05Z" transform="translate(-0.03 -181.33)"/><path class="cls-2" d="M64.93,222.22c.23-.18.66-.34.4-.78C65.13,221.69,65.28,221.94,64.93,222.22Z" transform="translate(-0.03 -181.33)"/><path class="cls-2" d="M66,222.5l-.28-.19c0,.11,0,.29-.13.38Z" transform="translate(-0.03 -181.33)"/><polygon class="cls-2" points="66.18 41.08 65.99 41.16 66.09 41.23 66.18 41.08"/><path class="cls-2" d="M67.44,223.68a.61.61,0,0,1,.52-.07,1.24,1.24,0,0,0-.5-.3C67.4,223.42,67.24,223.63,67.44,223.68Z" transform="translate(-0.03 -181.33)"/><path class="cls-2" d="M66.82,223.35l0,0S66.84,223.28,66.82,223.35Z" transform="translate(-0.03 -181.33)"/><path class="cls-2" d="M69.59,224.21v-.08l0,.07Z" transform="translate(-0.03 -181.33)"/><path class="cls-2" d="M67.46,223.22c-.11-.13-.22-.05-.34.05a.78.78,0,0,1,.34,0C67.5,223.25,67.51,223.21,67.46,223.22Z" transform="translate(-0.03 -181.33)"/><path class="cls-2" d="M68.35,224.21a1.77,1.77,0,0,0-.15-.31C68.22,224.06,68.29,224.31,68.35,224.21Z" transform="translate(-0.03 -181.33)"/><path class="cls-2" d="M66.87,223.46h0C66.86,223.57,66.87,223.53,66.87,223.46Z" transform="translate(-0.03 -181.33)"/><path class="cls-2" d="M66.87,223.46a1.38,1.38,0,0,0,.25-.19,1.1,1.1,0,0,0-.26.06A.57.57,0,0,1,66.87,223.46Z" transform="translate(-0.03 -181.33)"/><path class="cls-2" d="M71.07,221.83c-.17.36-.66.57-.82.06-.41.16-.66,1.46-.65,2.24.07-.16.12-.31.52-.41,0-.24-.52-.74-.13-1,.49,0,.29.26.42.53,0-.53.78-.47,1-1.18l-.46.1C70.93,222.09,71.13,222,71.07,221.83Z" transform="translate(-0.03 -181.33)"/><path class="cls-2" d="M69,223.87h-.14c.12.12.16.3.25.67a.72.72,0,0,0,.43-.34l-.6-.29Z" transform="translate(-0.03 -181.33)"/><path class="cls-2" d="M68.3,223.67c.25-.37.62-.43.59-.94-.39-.11-.39.24-.67.34.63.11-.25.17.1.55a1,1,0,0,1-.36,0,2.17,2.17,0,0,1,.24.29v0h0c0-.06,0-.09,0-.06h0l.08-.14c.15.14,0,.11-.08.14l0,.06h.69A1.13,1.13,0,0,0,68.3,223.67Z" transform="translate(-0.03 -181.33)"/><path class="cls-2" d="M65.9,220.63a.16.16,0,0,1,0,.1C66,220.69,66,220.66,65.9,220.63Z" transform="translate(-0.03 -181.33)"/><path class="cls-2" d="M66.09,221c-.07.05-.15.2-.28.12s0-.2.08-.34c-.12.09-.39.22-.17.49l.06,0a1.43,1.43,0,0,1,.32.86A4,4,0,0,0,66.09,221Z" transform="translate(-0.03 -181.33)"/><path class="cls-2" d="M67.28,222.19l.57,0-.14-.44-.06.22C67.39,221.76,67.37,222,67.28,222.19Z" transform="translate(-0.03 -181.33)"/><polygon class="cls-2" points="69.54 43.1 69.32 43.5 69.83 43.01 69.54 43.1"/><polygon class="cls-2" points="70.22 43.3 70.06 43.66 70.31 43.5 70.22 43.3"/><path class="cls-2" d="M108.3,220.88l.06-.18A.54.54,0,0,0,108.3,220.88Z" transform="translate(-0.03 -181.33)"/><path class="cls-2" d="M107.41,221.48l.09.18C107.48,221.54,107.45,221.47,107.41,221.48Z" transform="translate(-0.03 -181.33)"/><path class="cls-2" d="M87.7,229.22c.19.39.39,1,.42.55l0-.44A.35.35,0,0,1,87.7,229.22Z" transform="translate(-0.03 -181.33)"/><path class="cls-2" d="M100,226.85l-.09-.12-.09.44Z" transform="translate(-0.03 -181.33)"/><path class="cls-2" d="M99.84,225.06l.32.23A.8.8,0,0,0,99.84,225.06Z" transform="translate(-0.03 -181.33)"/><path class="cls-2" d="M112.8,216.58l-.14-.46C112.43,216.32,112.68,216.4,112.8,216.58Z" transform="translate(-0.03 -181.33)"/><path class="cls-2" d="M77.38,226.93a1,1,0,0,0,.43.4C77.63,227,77.54,226.61,77.38,226.93Z" transform="translate(-0.03 -181.33)"/><path class="cls-2" d="M110.64,224.87a.31.31,0,0,0,0-.3C110.57,224.69,110.56,224.8,110.64,224.87Z" transform="translate(-0.03 -181.33)"/><path class="cls-2" d="M78.4,227.49a.91.91,0,0,1-.08-.13.81.81,0,0,1-.51,0C77.94,227.56,78.12,227.73,78.4,227.49Z" transform="translate(-0.03 -181.33)"/><path class="cls-2" d="M133.8,204.41l.07,0S133.84,204.4,133.8,204.41Z" transform="translate(-0.03 -181.33)"/><path class="cls-2" d="M139.85,209.46a.44.44,0,0,1-.2-.07C139.67,209.44,139.72,209.47,139.85,209.46Z" transform="translate(-0.03 -181.33)"/><path class="cls-2" d="M72.9,225.83c-.16,0,0,0,0,0Z" transform="translate(-0.03 -181.33)"/><path class="cls-2" d="M72.79,224a.29.29,0,0,0,.13-.18A.39.39,0,0,1,72.79,224Z" transform="translate(-0.03 -181.33)"/><path class="cls-2" d="M80.56,225.27h0C80.55,225.18,80.56,225.2,80.56,225.27Z" transform="translate(-0.03 -181.33)"/><path class="cls-2" d="M72.75,225.56a.67.67,0,0,0,.14.19A.94.94,0,0,0,72.75,225.56Z" transform="translate(-0.03 -181.33)"/><path class="cls-2" d="M72.71,225.77l-.12-.09C72.55,225.74,72.55,225.79,72.71,225.77Z" transform="translate(-0.03 -181.33)"/><path class="cls-2" d="M73.11,225.88a.45.45,0,0,1-.22-.13s0,.07,0,.08Z" transform="translate(-0.03 -181.33)"/><path class="cls-2" d="M122.43,211.17h0C122.51,211,122.47,211,122.43,211.17Z" transform="translate(-0.03 -181.33)"/><path class="cls-2" d="M92.07,225.13l0,0h0Z" transform="translate(-0.03 -181.33)"/><path class="cls-2" d="M92.61,224.84c-.25.53-.38.45-.54.32l.09,1.27Z" transform="translate(-0.03 -181.33)"/><path class="cls-2" d="M110.31,219.13l-.53-.06c-.07-.78.32-.81-.29-1,.82,1.08-1,1-.2,2.08l-.36-.08c.06,0,0-.1.08-.13-.76-.23.34,1-.26,1.19-.23,0-.46,0-.45-.24l-.17.54c-.12.06-.23-.16-.11-.21l-.51.48v0a4.49,4.49,0,0,1,0,.81c-.26-.07,0-.17-.14-.29l-.15.49a.46.46,0,0,1,0-.77c-1-1-.08.47-1.14.18l.21-.32c-.6-.55-.67-.16-1.23-.4.19.19,1.26.66,1.1,1.15-.15,0-.3,0-.36.35-.24-.42-.36-.22-.58-.07l-.28-.57c-.16.28,0,.56,0,.89-.31.09-.58-.34-.82-.69-.47.11.64.58.16.94-.48-.07-.62.29-1,.81-.35-.11-.08-.38-.24-.52l-.08.57c-.06,0-.09-.15-.11-.23-.15.26.19.62-.11.89.1.71-1-.78-1.2.09-.15-.15,0-.39-.13-.62a4.31,4.31,0,0,0-.77,1.27l-.51-.33c.4.41.1,1.05-.21,1.56a5.42,5.42,0,0,0,.37.49l-.56.43c-.09-.1-.06-.32,0-.6l-.09.17c-.25-.21-.19-.59-.09-1l.27.35a2.79,2.79,0,0,0,.07-1.21.39.39,0,0,1-.16.2.63.63,0,0,0,0-.27c0-.07-.07.08-.14.26l-.23-.69v.29l-.79-.36c-.44.77-.84,1.87-1.73,2.2.2-.53,0-.85,0-1.47.27.64.66-.32,1.1-.22-.23,0-.21-.34-.16-.45l-.74.64c0-.5-.19-.37-.4-.57.2,1-.57.69-.89,1,0-.33,0-.68.44-.6-.44-.75-.55,1.19-1,.54.1,0,.15.05.19-.12-.23.29-.79.05-.65-.24h.1c-.65-.13-2-.07-2.12.76a11.94,11.94,0,0,1,.19-1.18c-.44.93-.89,1.85-1.37,2.77.16-.72-.11-2.48.46-2.85a.47.47,0,0,0-.67,0c.1.11.18,1.07,0,1.13a5,5,0,0,0-.67-1.19c.14.17-.14,1.29-.39,1.23a11,11,0,0,1,.19-1.23l-.74,1.05c.18-.18.13-.94,0-1.27,0,.22-.53-.08-.71,0l.24.29c-.68-.25-.89,1.48-1.6,1.34.12-.22.4-1.39.07-1.58-.24.55-1.11,2.64-1.83,3l-.07-.35-.56.29a28.79,28.79,0,0,1,2.13-3.11c-.23-.3,0-.39-.41-.42-.09-.33.28-.43.39-.44l-.86-.33c-.07.67-.8.56-.86,1.11l1.1-.52c-.06.67-.87,1.79-1.51,1.56-.12-.29.32-1.16.35-1.38-.12.21-.69.32-.72.15l.34-.3c-.31-.32-.75.77-1.06.06-.14-.08-.27-.94-.37-.56a11.34,11.34,0,0,1-.6,3.67,5.11,5.11,0,0,1-.76-1.29c-.12-.64.67-1.32.57-1.87a1,1,0,0,1-.3.43c-.12-.19.19-.55-.17-.54-.2.65-.67-.2-.28.53-.38.12-.32-.22-.72-.28a2.16,2.16,0,0,1-1.08,1.48,1.12,1.12,0,0,0,0-.51c-.67-.23-1-.63-1.58-.81,0-.18-.27-.45-.06-.7-.12.09-.27.29-.47.25-.21-.67.46,0,.37-.72-.13.37-.65.37-1,.53-.1.61.6.3.94.14a2.46,2.46,0,0,1-1.74,1.7c-.6,0-.07-.6-.2-.51-1-.45-1.31,1.14-2,.28-.16-.62.33-1,.38-1.41.49-.05.55.54.84.62l-.27-.36c.19-.13.51-.16.62,0-.12-.54-1.63-.63-2.22-1.32-.2.12-.49.21-.46.45l.27,0c.07.49-.66.4-.42.7-.43.17-1,.48-1.32.09l.13-.61c-.05.17.16.45.36.32-.29.19-.39-1-.88-.36l.16.52c-.43.17-1,.62-1.38.3,0,.63.12,0,.15.73.06-.91,1,.42.93-.59,0,.88.38.51.52,1.31.06-.19,0-.41.3-.19a.92.92,0,0,1,.14-.14l0,0v0s0,0,0,0a.7.7,0,0,1-.06-.35c.33-.37.86-.16,1.13-.32.17.16-.17.19-.13.43l.4-.24c-.13.43.29.89-.28,1l.43.17a.71.71,0,0,0,.78.44c.18.16.68-.3.39,0l.78,0,0,.1c.67.28,1.61-.28,2.18.71a1.09,1.09,0,0,1,.89.12l0,.39c.33-.05.81.61,1,.25.08,1.1,1.42.57,1.92.86l.12-.49a2.46,2.46,0,0,0,1.24-.08l.06-.44c.45-.29.94.5,1.57.56-.07.16-.22.1-.31,0,.58,1.13,1.68-.47,2.24.36a.26.26,0,0,1,.41.06.06.06,0,0,0,0,0h.07c.07.09.13.18.21.27a1.16,1.16,0,0,0-.17-.27,1.2,1.2,0,0,0,.54-.11l0,.49h0c.17.2.18-.2.13-.58a1.11,1.11,0,0,0,.29-.25c.06.79.53-.21.65.64.17-.38,1-.2,1.19-1,0,.11,0,.17-.06.17.2.11.41.23.62,0l0,.61.54-.78c.25.39.36.62,0,1.06.73-.67.58-.23,1.2-.91l0,.39c.21,0,.57-.51.68-.18.44.78,2.3.18,3.55.81-.29-1.15.6.5.61-.41.08.27.27.42.08.67.61-.31,1,.36,1.37-.44.1.27-.09.42,0,.57,0-.06.18-.26.26-.1s-.07.24-.16.37c.67-.12.62-1,.57-1.77.37.33.53.25.67-.3.16.24.39.48,0,.63.22,0,1.44.14,1.33-.5.1.14.32,0,.36-.11a3.27,3.27,0,0,0,1-.22l-.16-.07c0-.79.34-.28.7-.48v.08c1.06.23.29-.37,1.36-.09l-.22-.43c-.31-1,1,.27,1.31-.32l-.29-.17c.1-.43,1.33.91,1.68.88.1.05,0,.17-.08.28,1,.16-.2-.61.24-1,.26.24.3.82.68.68.33.14.43-1.52,1.21-1.26-.25-.16-.48-.32-.37-.62.28-.29,1.47.2,1.28-.68a.34.34,0,0,1,.18.12c.13-.35.58-.87.45-1.34,1.25,1.14.94-1.77,1.89-.58l.64-.65.09.14c.5-.3.42-.71.34-1.12.16,0,.18.17.23.24.83-.31.85-.41.88-1.44l.38.33c0-.35,1.4-.17,1.65-1.12a.36.36,0,0,1,.07.22c.34-1,2.53-.26,1.67-1.88l.2-.72c-.7.36-.38-.69-.82-.73.18-.28,1,0,.72.25l-.1,0c.46.83,1-.32,1.33.21a39.36,39.36,0,0,1,3.88-2.14l-.55-.51.44-.25c.2.07.46.38.15.55.39.24.3-.62.22-.76.74-.13.25.86.43.76l.21-.2-.1,0c0-.38-.13-.65.24-.86.31,0,.37.31.47.27s.07.05.15-.07l.55-.28-.52-.35c.08-.39.51-.3-.09-.69.9.61,2.16-.93,2.55-.78.11-.55.45-.73.87-.91-.15-.05-.53-.59-.13-.71.5,1.25.92.18,1.62.92-.52-.47.92-.59.16-1.24.34,0,.22.45.56.64.51-.78,1.64-.27,2.42-.63,0-.18-.23-.4-.1-.71.22.26.44.51.64.77.14-.11,0-1,.39-.48-.07-.14-.17-.35-.06-.42a8.42,8.42,0,0,0,2.64.13,2.06,2.06,0,0,1,2.13,1.36c0-.4.09-.37.25-.32-.07-.11.19-.39.28-.61a5.44,5.44,0,0,1,.26.91c.48-.49.6.36,1-.08l-.24-.05a1.71,1.71,0,0,0,.66-1,4.29,4.29,0,0,1,.52-1.34c-.44.23-.5-.2-.68-.6s-.47-.78-1.05-.37c-.08-.24.25-.23.25-.47-.34.31-.57.3-.93,0l.08-.08c-1.2-.25-1.61-.75-3-1.13l.08.48c-.29-.08-.34-.22-.48-.35-.35.71.82.08.47.86-.15-.5-.67-.53-1.17-.53s-1,0-1.16-.52c-.46,0,.19.53-.26.57l-.16-.28-.05.4c-.3,0-.51-.35-.57-.6.08,0,.2-.1.27-.14-.47-.28-1.06.33-1.21.26l.47.08c-1.13.51-2.66.64-3.44,1.65l.16.17c-.59.72-.72.05-1.45.63v-.07a.76.76,0,0,1-.45.59c.08-.34-.62-.24-.49-.64-.58.82-.23.52-.32,1.53l-.3-.25c0,.39.07.54-.25.85.14-.46-.53-.34-.4-.91-1.23-.21-.74,1.42-1.73.64.2,1.09,1,.05.9.37.34.18.11.83-.18.9s-1.13-.85-1.74-.42c.07,0,0-.11.09-.14-.37-.07-.25.59-.77.42.18.62-.39.22,0,.9l.46-.52c-.21.38,0,1.35-.75,1.33a1.4,1.4,0,0,1,0-.61c-.28-.09-.2.33-.5.24-.4-.69.58-.61.59-1.34-.35-.17-.33.91-.63.09.36,1.06-.69.29-.63,1.26L121,211c0,.11,0,.39-.15.46l-.14-.65c0,.66-.91.07-1.06.53.66-.48.48.36,1,.45-.45,1.09-1.19-.68-2,.17.09-.15.64-.11.57.21a1.45,1.45,0,0,1-.82-.06c-.54.53.38.33.3.75-.55-.31-.16.41-.3.75l-.3-.38c-.86.26.43.93-.4,1.09l-.15-.72-.21.38-.27-.49c-.1.59-.27.59-.7.73.29.2.49.72.21,1-.38-.06-.17-.45-.54-.06-.1-.31-.23-.69.23-.49-.08-.14-.1-.31-.17-.45-.42-.08-.6.38-.74.5a.3.3,0,0,1,.23,0l-.19,1c-.2-.06-.22-.24-.24-.41-.08.14,0,.38-.18.56-.2-.34-.47-.65-.33-1l-.3.81c-.15-.1-.59-.12-.61-.29-.47.08-.29,1.23-.89,1.34a.43.43,0,0,1,0,.29c-.44.25-1.09.18-1.19,1l-.71-.33c-.24.42.92.39.51,1.08-.26.52-.54-.32-.81-.35,0,.44.14,1.29-.6,1.15C110.07,219.27,110.23,219.27,110.31,219.13Zm-4.12,3.38c0-.13,0-.5.25-.3C106.63,222.74,106.42,222.56,106.19,222.51ZM99,226c.06-.16.19-.1.35.06C99.27,226.16,99.15,226.15,99,226Zm-24.36,0,0,0C74.85,226.27,74.79,226.17,74.65,226Zm-.43-.37a.2.2,0,0,0-.09.18c.07-.1.19-.07.3,0C74.44,225.72,74.4,225.61,74.22,225.66ZM125.57,213l-.15,0C125.53,212.69,125.54,212.83,125.57,213Z" transform="translate(-0.03 -181.33)"/><path class="cls-2" d="M99.85,225.26a1.12,1.12,0,0,1,.08.26A.22.22,0,0,0,99.85,225.26Z" transform="translate(-0.03 -181.33)"/><path class="cls-2" d="M112.83,216.67h0l0-.08Z" transform="translate(-0.03 -181.33)"/><path class="cls-2" d="M83,223.87a.52.52,0,0,1,.14.29A.22.22,0,0,0,83,223.87Z" transform="translate(-0.03 -181.33)"/><path class="cls-2" d="M71.33,225.47h.35c-.16,0-.17-.15-.22-.25C71.43,225.33,71.43,225.5,71.33,225.47Z" transform="translate(-0.03 -181.33)"/><path class="cls-2" d="M69.73,221.68c-.07,0-.1,0-.17,0l-.06.22C69.69,222,69.89,221.84,69.73,221.68Z" transform="translate(-0.03 -181.33)"/><path class="cls-2" d="M71.61,223.87c.12-.39-.12-.34-.36-.35l0,0C71,224,71.32,224,71.61,223.87Z" transform="translate(-0.03 -181.33)"/><path class="cls-2" d="M71.19,223.52a.48.48,0,0,1-.2-.07C70.89,223.65,71.06,223.53,71.19,223.52Z" transform="translate(-0.03 -181.33)"/><path class="cls-2" d="M73.5,225.69c-.07-.14-.25.46-.25.29C73,226.42,74.17,225.64,73.5,225.69Z" transform="translate(-0.03 -181.33)"/><polygon class="cls-2" points="71.88 41.22 71.78 41.72 72.04 41.39 71.88 41.22"/><path class="cls-2" d="M73.48,223.53l-.3-.25a.16.16,0,0,1-.15.12C73.24,223.5,73.44,223.68,73.48,223.53Z" transform="translate(-0.03 -181.33)"/><path class="cls-2" d="M73,223.4a.3.3,0,0,0-.3,0A.7.7,0,0,0,73,223.4Z" transform="translate(-0.03 -181.33)"/><polygon class="cls-2" points="72.4 41.26 72.47 41.39 72.69 41.52 72.4 41.26"/><path class="cls-2" d="M77.21,224.89l.42,0c.09-.15,0-.29-.15-.26S77.2,224.72,77.21,224.89Z" transform="translate(-0.03 -181.33)"/><path class="cls-2" d="M76.47,223.22a.92.92,0,0,1,0,.42l.2-.59Z" transform="translate(-0.03 -181.33)"/><path class="cls-2" d="M77.61,223.43c.09-.15.69-.31.2-.42C77.72,223.17,77.3,223.19,77.61,223.43Z" transform="translate(-0.03 -181.33)"/><polygon class="cls-2" points="83.16 44.34 83.06 44.32 82.86 45.32 83.16 44.34"/><path class="cls-2" d="M88.71,224.11c-.42-.3-.18.61-.55.26-.14.22.3.29.16.48C88.63,224.63,88.76,224.79,88.71,224.11Z" transform="translate(-0.03 -181.33)"/><path class="cls-2" d="M88.32,224.85a1.53,1.53,0,0,0-.16.13A.46.46,0,0,0,88.32,224.85Z" transform="translate(-0.03 -181.33)"/><polygon class="cls-2" points="140.2 29.02 140.23 29.31 140.34 28.96 140.2 29.02"/><path class="cls-2" d="M141,210l-.39.52.5-.35C141.08,210.19,141,210.17,141,210Z" transform="translate(-0.03 -181.33)"/><path class="cls-2" d="M104.91,221.74l0,.15a.22.22,0,0,0,.3.07Z" transform="translate(-0.03 -181.33)"/><polygon class="cls-2" points="108.18 38.82 108.11 38.85 108.57 39.25 108.18 38.82"/><path class="cls-2" d="M110.29,217.51c-.12.07-.16.27-.28.34C110.17,217.58,110.79,218,110.29,217.51Z" transform="translate(-0.03 -181.33)"/><path class="cls-2" d="M255.79,201.94c-.13-.07-.17.35-.21.42C255.83,202.32,255.81,201.83,255.79,201.94Z" transform="translate(-0.03 -181.33)"/><polygon class="cls-2" points="258.32 20.28 258.23 20.43 258.7 20.14 258.32 20.28"/><path class="cls-2" d="M260.52,202.34c.05-.75-.82-.17-1.12-.54v-.18l-.35.49C259.53,202.18,260.26,202,260.52,202.34Z" transform="translate(-0.03 -181.33)"/><path class="cls-2" d="M261.07,204.21c0-.28.33-.13-.22-.18a.45.45,0,0,0,0,.08A.91.91,0,0,1,261.07,204.21Z" transform="translate(-0.03 -181.33)"/><path class="cls-2" d="M260.87,204.11c-.22-.06.05.27,0,0Z" transform="translate(-0.03 -181.33)"/><path class="cls-2" d="M261.91,204.38l-.38.11c0,.17.23.31.09.38C262,204.88,262,204.7,261.91,204.38Z" transform="translate(-0.03 -181.33)"/><path class="cls-2" d="M262.39,204l-.19,0C262.2,204.13,262.23,204.17,262.39,204Z" transform="translate(-0.03 -181.33)"/><path class="cls-2" d="M261.8,204.12l.4-.06c0-.13.1-.34-.17,0C262.14,203.88,262,204,261.8,204.12Z" transform="translate(-0.03 -181.33)"/><path class="cls-2" d="M261.67,204c-.1-.21-.27-.39.12-.5C261.2,203.31,261.09,203.81,261.67,204Z" transform="translate(-0.03 -181.33)"/><path class="cls-2" d="M260.89,201.69l-.15-.28-.28.15C260.6,201.49,260.83,201.9,260.89,201.69Z" transform="translate(-0.03 -181.33)"/><path class="cls-2" d="M263.45,205.53a2.63,2.63,0,0,0,.16-.59l-.28.05C263.39,205.14,263.54,205.33,263.45,205.53Z" transform="translate(-0.03 -181.33)"/><path class="cls-2" d="M263.61,204.94l.42-.07C263.78,204.7,263.67,204.78,263.61,204.94Z" transform="translate(-0.03 -181.33)"/><polygon class="cls-2" points="262.74 22 261.99 22.26 262.84 22.04 262.74 22"/><polygon class="cls-2" points="264.52 24.82 264.19 25.04 264.74 24.74 264.52 24.82"/><path class="cls-2" d="M265.31,206.52c-.26.18-.09.52-.31.6a1.33,1.33,0,0,0,.78-.13C265.56,207,265.41,206.86,265.31,206.52Z" transform="translate(-0.03 -181.33)"/><path class="cls-2" d="M266.21,206.87a1.77,1.77,0,0,0-.43.12A1.23,1.23,0,0,0,266.21,206.87Z" transform="translate(-0.03 -181.33)"/><path class="cls-2" d="M264.51,205.21a.7.7,0,0,0,0,.51l.1-.44Z" transform="translate(-0.03 -181.33)"/><path class="cls-2" d="M264.63,205.26v0l.24.16Z" transform="translate(-0.03 -181.33)"/><path class="cls-2" d="M264.48,205.19l0,0C264.52,205.16,264.52,205.15,264.48,205.19Z" transform="translate(-0.03 -181.33)"/><path class="cls-2" d="M263.43,204.07c.29-.13.79-.16.58-.67C263.74,203.59,263.86,203.88,263.43,204.07Z" transform="translate(-0.03 -181.33)"/><path class="cls-2" d="M264.59,204.64l-.28-.26c0,.1-.06.28-.21.34Z" transform="translate(-0.03 -181.33)"/><polygon class="cls-2" points="264.78 23.28 264.56 23.31 264.66 23.41 264.78 23.28"/><path class="cls-2" d="M265.9,206.21a.7.7,0,0,1,.57.08,1.47,1.47,0,0,0-.46-.44C265.91,205.94,265.71,206.1,265.9,206.21Z" transform="translate(-0.03 -181.33)"/><path class="cls-2" d="M265.31,205.71h0C265.35,205.66,265.34,205.64,265.31,205.71Z" transform="translate(-0.03 -181.33)"/><path class="cls-2" d="M268,207.37l0-.08-.05.05Z" transform="translate(-0.03 -181.33)"/><path class="cls-2" d="M266,205.76c-.09-.16-.23-.12-.37,0a1.07,1.07,0,0,1,.36.14S266.07,205.77,266,205.76Z" transform="translate(-0.03 -181.33)"/><path class="cls-2" d="M266.75,207a1.31,1.31,0,0,0-.09-.34C266.65,206.81,266.67,207.07,266.75,207Z" transform="translate(-0.03 -181.33)"/><path class="cls-2" d="M265.34,205.83h0C265.3,205.94,265.32,205.9,265.34,205.83Z" transform="translate(-0.03 -181.33)"/><path class="cls-2" d="M265.34,205.83a1,1,0,0,0,.31-.12.76.76,0,0,0-.3,0A.53.53,0,0,1,265.34,205.83Z" transform="translate(-0.03 -181.33)"/><path class="cls-2" d="M270.16,205.52c-.27.29-.84.33-.89-.23-.48,0-1,1.22-1.21,2,.11-.14.2-.27.64-.24,0-.25-.37-.89.1-1,.52.13.24.36.31.67.13-.53.94-.19,1.29-.83l-.51-.07C270,205.72,270.19,205.68,270.16,205.52Z" transform="translate(-0.03 -181.33)"/><path class="cls-2" d="M267.52,206.86l-.15-.05a1.33,1.33,0,0,1,.11.73.69.69,0,0,0,.53-.2l-.56-.47Z" transform="translate(-0.03 -181.33)"/><path class="cls-2" d="M266.82,206.44c.34-.29.74-.25.82-.76-.39-.22-.46.13-.79.14.65.3-.3.09,0,.58a1.57,1.57,0,0,1-.38-.11,2,2,0,0,1,.19.36v0h0c0-.06,0-.09,0-.05h0l.11-.12c.12.19,0,.12-.11.12l0,.05h0l.71.19A1.18,1.18,0,0,0,266.82,206.44Z" transform="translate(-0.03 -181.33)"/><path class="cls-2" d="M264.78,202.75a.29.29,0,0,1,0,.1C264.82,202.82,264.85,202.8,264.78,202.75Z" transform="translate(-0.03 -181.33)"/><path class="cls-2" d="M264.93,203.12c-.08,0-.2.16-.33,0s.09-.18.15-.31c-.15.05-.47.1-.27.44l.07,0a1.37,1.37,0,0,1,.2,1A3.51,3.51,0,0,0,264.93,203.12Z" transform="translate(-0.03 -181.33)"/><path class="cls-2" d="M266,204.69l.63.13-.07-.49-.1.2C266.21,204.28,266.14,204.56,266,204.69Z" transform="translate(-0.03 -181.33)"/><polygon class="cls-2" points="267.93 26.25 267.6 26.57 268.25 26.25 267.93 26.25"/><polygon class="cls-2" points="268.58 26.66 268.31 26.96 268.62 26.89 268.58 26.66"/><path class="cls-2" d="M313,209.36l.16-.15A.47.47,0,0,0,313,209.36Z" transform="translate(-0.03 -181.33)"/><path class="cls-2" d="M311.75,209.59v.2C311.8,209.67,311.81,209.59,311.75,209.59Z" transform="translate(-0.03 -181.33)"/><path class="cls-2" d="M287.72,216.57c.27.38.57,1,.55.52l-.08-.44A.43.43,0,0,1,287.72,216.57Z" transform="translate(-0.03 -181.33)"/><path class="cls-2" d="M301.43,213.44l-.09-.12-.14.43Z" transform="translate(-0.03 -181.33)"/><path class="cls-2" d="M301.44,211.63l.37.24A1.18,1.18,0,0,0,301.44,211.63Z" transform="translate(-0.03 -181.33)"/><path class="cls-2" d="M319.83,207.25l.08-.48C319.6,206.86,319.79,207,319.83,207.25Z" transform="translate(-0.03 -181.33)"/><path class="cls-2" d="M275.47,213a1.3,1.3,0,0,0,.4.56C275.73,213.2,275.74,212.75,275.47,213Z" transform="translate(-0.03 -181.33)"/><path class="cls-2" d="M313.45,214a.32.32,0,0,0,.1-.29C313.45,213.78,313.4,213.87,313.45,214Z" transform="translate(-0.03 -181.33)"/><path class="cls-2" d="M276.52,214c0-.06,0-.1-.07-.15a1.24,1.24,0,0,1-.58-.23C276,213.85,276.14,214.09,276.52,214Z" transform="translate(-0.03 -181.33)"/><path class="cls-2" d="M345.49,201l.05.06C345.56,201,345.54,201,345.49,201Z" transform="translate(-0.03 -181.33)"/><path class="cls-2" d="M351.15,207.79a1,1,0,0,1-.29-.09C350.89,207.75,351,207.78,351.15,207.79Z" transform="translate(-0.03 -181.33)"/><path class="cls-2" d="M271,210.13c-.16-.09-.05,0,0,0Z" transform="translate(-0.03 -181.33)"/><path class="cls-2" d="M271.42,208.26a.32.32,0,0,0,.19-.12A.47.47,0,0,1,271.42,208.26Z" transform="translate(-0.03 -181.33)"/><path class="cls-2" d="M279.37,212.38h0C279.37,212.28,279.38,212.3,279.37,212.38Z" transform="translate(-0.03 -181.33)"/><path class="cls-2" d="M270.92,209.81a.78.78,0,0,0,.09.24A.82.82,0,0,0,270.92,209.81Z" transform="translate(-0.03 -181.33)"/><path class="cls-2" d="M270.82,210l-.1-.13C270.66,209.91,270.65,210,270.82,210Z" transform="translate(-0.03 -181.33)"/><path class="cls-2" d="M271.2,210.26a.76.76,0,0,1-.19-.21.09.09,0,0,1,0,.08Z" transform="translate(-0.03 -181.33)"/><path class="cls-2" d="M331.06,204.44h.05C331.13,204.21,331.09,204.27,331.06,204.44Z" transform="translate(-0.03 -181.33)"/><path class="cls-2" d="M292.24,212.08l0,0h0Z" transform="translate(-0.03 -181.33)"/><path class="cls-2" d="M292.84,211.74c-.24.54-.39.48-.59.37l.23,1.25Z" transform="translate(-0.03 -181.33)"/><path class="cls-2" d="M316.05,208.56l-.5-.28c.35-.74.76-.61.24-1.05.26,1.33-1.56.5-1.32,1.83l-.34-.21c.09,0,.08-.09.16-.09-.67-.52-.19,1-.92,1-.26,0-.47-.21-.34-.4l-.46.44a.12.12,0,1,1,0-.24l-.8.27v0a4.15,4.15,0,0,1-.39.76c-.24-.15.08-.16,0-.31l-.4.41a.47.47,0,0,1,.39-.73c-.68-1.25-.32.41-1.37-.2l.39-.25c-.41-.71-.69-.37-1.25-.76.15.23,1.17,1,.74,1.44-.16-.08-.35-.09-.57.22-.08-.47-.32-.31-.64-.23l-.09-.64c-.32.24-.24.56-.4.88-.4,0-.56-.47-.71-.87-.65,0,.55.72-.17,1-.56-.16-.89.15-1.47.62-.39-.16,0-.4-.14-.56l-.26.55c-.08,0-.07-.16-.07-.24-.25.23.06.64-.35.87,0,.71-1-.91-1.46,0-.15-.16,0-.39-.05-.64a4.22,4.22,0,0,0-1.12,1.22l-.56-.36c.43.44,0,1.06-.38,1.57.16.21.3.4.39.49l-.66.41c-.1-.09-.05-.32,0-.59l-.11.16c-.27-.21-.18-.59,0-1l.29.37a2.66,2.66,0,0,0,.17-1.22.46.46,0,0,1-.2.19.41.41,0,0,0,0-.26c0-.07-.08.08-.18.25l-.22-.69v.28l-.93-.36c-.57.77-1,1.87-2.05,2.23.22-.53,0-.85,0-1.47.33.63.77-.33,1.3-.24-.28-.05-.24-.35-.18-.45l-.89.66c0-.51-.22-.37-.48-.56.25,1-.65.72-1,1,0-.34,0-.68.5-.64-.55-.71-.59,1.22-1.13.6.11,0,.17,0,.21-.13-.25.31-.91.1-.77-.2h.11c-.76-.07-2.29.09-2.38.94a10.91,10.91,0,0,1,.11-1.2c-.42,1-.85,1.94-1.29,2.89.1-.73-.38-2.46.23-2.88a.63.63,0,0,0-.78,0c.13.1.33,1.05.16,1.12-.47-.81-.33-.43-.9-1.12.18.16,0,1.3-.3,1.27a8.34,8.34,0,0,1,.07-1.25l-.72,1.13c.18-.2,0-.95-.12-1.27.07.22-.62,0-.81.08l.3.27c-.8-.19-.83,1.57-1.65,1.48.11-.23.29-1.42-.1-1.58-.2.57-1,2.73-1.77,3.11l-.12-.34-.61.31c.47-.82,1.58-2.55,2.11-3.24-.28-.27-.06-.39-.49-.39-.13-.32.26-.45.39-.46l-1-.27c0,.68-.82.59-.85,1.15.39-.19.78-.38,1.16-.59,0,.68-.81,1.86-1.55,1.64-.15-.29.29-1.17.3-1.39-.11.22-.72.35-.76.17l.34-.31c-.33-.3-.77.78-1.12.06-.15-.07-.28-.94-.39-.56a10.7,10.7,0,0,1-.66,3.66,4.69,4.69,0,0,1-.87-1.36c-.11-.65.79-1.27.69-1.83a1,1,0,0,1-.34.41c-.12-.2.22-.53-.15-.55-.26.63-.69-.29-.34.49-.4.07-.32-.24-.73-.37a2,2,0,0,1-1.37,1.27,1.09,1.09,0,0,0,.1-.5c-.71-.39-.94-.87-1.57-1.24,0-.18-.18-.53.1-.71-.15,0-.35.21-.55.1-.05-.73.47.18.56-.59-.23.33-.77.15-1.17.18-.26.57.56.52,1,.46a2.33,2.33,0,0,1-2.3,1c-.66-.2.08-.61-.08-.57-.89-.82-1.71.58-2.15-.52,0-.67.64-.86.81-1.22.53.16.42.75.71.95l-.19-.47c.24,0,.59.06.65.29,0-.57-1.53-1.27-1.95-2.19-.24,0-.58,0-.61.26l.27.12c-.06.5-.79.13-.64.51-.49,0-1.13.1-1.39-.43l.3-.54c-.1.15.05.5.28.46-.34.07-.12-1.17-.82-.7l0,.57c-.49,0-1.26.23-1.5-.21-.21.61.13,0-.05.77.32-.87.91.77,1.12-.24-.24.86.25.64.17,1.48.11-.17.12-.41.36-.08l.19-.08v0s0,0,0,0a.61.61,0,0,1,0-.36c.44-.24.94.18,1.26.12.13.23-.23.12-.26.37l.48-.07c-.25.37.05,1-.57.83l.4.34c.09.39.37.74.7.75.14.23.81,0,.42.13l.85.28-.06.09c.67.55,1.83.36,2.28,1.56a1.65,1.65,0,0,1,1,.41l-.09.39c.4.06.92.87,1.25.56,0,1.15,1.77.91,2.37,1.24l.15-.49a3.22,3.22,0,0,0,1.52,0l.05-.44c.54-.27,1.16.52,1.92.57-.07.16-.26.09-.38,0,.8,1.13,1.94-.54,2.67.24a.32.32,0,0,1,.48,0,.06.06,0,0,0-.05,0h.08a3.08,3.08,0,0,0,.27.24,1.07,1.07,0,0,0-.22-.24,2,2,0,0,0,.61-.16l.08.48h.05c.22.18.18-.23.08-.59a1.28,1.28,0,0,0,.29-.28c.17.78.59-.26.82.57.15-.4,1.11-.3,1.22-1.16,0,.11.07.16,0,.17.24.1.49.19.7,0l.11.61.52-.83c.33.37.47.59.16,1.06.76-.74.62-.29,1.26-1l0,.39c.23,0,.59-.56.74-.24.56.74,2.6,0,4,.59-.34-1.14.67.48.65-.42.1.27.3.41.1.66.67-.31,1.08.35,1.49-.45.1.27-.11.42,0,.57.05-.06.2-.25.29-.1s-.08.24-.18.37c.7-.11.69-1,.67-1.76.39.35.56.28.76-.27.15.24.39.49,0,.63.25,0,1.54.22,1.49-.42.1.16.35,0,.4-.07a4.33,4.33,0,0,0,1.14-.11l-.16-.08c.11-.79.42-.23.84-.38v.08c1.06.43.39-.32,1.45.17l-.12-.47c-.06-1,.95.48,1.46,0l-.25-.24c.25-.39,1.08,1.24,1.42,1.32.08.08-.08.16-.17.24.92.46,0-.64.59-.88.17.31,0,.87.42.86.26.25,1-1.29,1.67-.76-.17-.23-.34-.46-.1-.71.41-.17,1.36.75,1.58-.14a.32.32,0,0,1,.12.18c.29-.27,1-.57,1.1-1,.66,1.56,1.84-1.25,2.17.25l1-.32v.16c.66-.06.8-.48.93-.89.17.07.1.23.11.31,1,.07,1.09,0,1.66-1l.21.46c.14-.33,1.56.38,2.3-.44a.36.36,0,0,1,0,.24c.85-.84,2.84.57,2.67-1.27l.53-.63c-.9.14-.11-.79-.55-1,.29-.21,1,.23.65.46l-.1-.06c.14.94,1.18,0,1.37.56.86-.33,1.77-.56,2.68-.87a10,10,0,0,0,2.58-1.25l-.6-.47.52-.33c.22,0,.52.32.14.57.45.19.37-.72.28-.85.83-.28.27.87.48.73l.24-.26-.11,0c0-.4-.14-.67.26-.95.33-.07.4.26.51.21s.08,0,.16-.1l.57-.36-.56-.3c.07-.4.53-.36-.11-.69.49.26,1,0,1.52-.3s.9-.55,1.06-.44a.88.88,0,0,1,1-.62c-.11-.09-.29-.74.14-.71,0,1.34.75.55,1,1.56-.22-.69,1.09,0,.82-1,.33.18-.07.5.11.86.92-.33,1.79.83,2.91,1,.07-.17,0-.48.28-.66l.3,1c.24,0,.51-.9.71-.19,0-.16,0-.4.14-.41,1.83,1.51,4.58.88,6.05,3.25-.14-.43.06-.39.28-.31-.11-.13.17-.4.23-.63l.61,1c.43-.54.95.37,1.3-.17l-.32,0c.67-.51.16-1.74.6-2.59-.76.59-.63-1.65-1.81-.82-.08-.25.26-.23.26-.47a.57.57,0,0,1-.92,0l.09-.08c-1.17-.36-1.5-.92-2.7-1.65l-.07.48c-.25-.16-.26-.32-.35-.48-.56.56.76.32.2,1,0-1.05-1.93-.71-1.83-1.82-.43-.15,0,.56-.48.41l0-.32-.23.33a.72.72,0,0,1-.22-.79c.06,0,.21,0,.29,0-.26-.46-1.07-.22-1.16-.37l.36.3c-1.27-.09-2.57-.93-4.06-.62l.06.24c-1.07.24-.76-.41-2-.27l0-.05a1.41,1.41,0,0,1-.89.36c.29-.31-.67-.41-.29-.76-.62.32-.73.47-.8.62a5.34,5.34,0,0,1-.29.86l-.29-.29c-.12.4-.07.57-.52.88.28-.48-.58-.36-.28-1a1.19,1.19,0,0,0-1.27.65c-.21.33-.37.56-.92.23.16,1.13,1.12-.09,1,.26.38.16.07.87-.25,1s-1.26-.71-1.92-.17c.07,0,0-.11.09-.16-.41,0-.27.67-.82.56.22.62-.4.27,0,.93l.47-.6c-.2.42.06,1.4-.76,1.45a1.31,1.31,0,0,1,0-.62c-.3-.07-.21.35-.52.27-.42-.66.59-.65.57-1.4-.37-.13-.3,1-.65.14.41,1.06-.67.34-.59,1.28l-.24-.41c0,.1,0,.38-.15.44l-.12-.65c0,.65-.82,0-1,.37.64-.36.42.43.87.57-.58,1-1.05-.83-1.9-.19.1-.12.61,0,.49.33a1.2,1.2,0,0,1-.77-.25c-.64.37.29.42.1.8-.44-.44-.26.36-.52.65l-.17-.45c-.94,0,.11,1-.79.94l.12-.75-.35.3-.09-.55c-.31.54-.49.48-1,.47.21.29.21.85-.18,1-.36-.19,0-.48-.53-.24,0-.33.06-.73.44-.39,0-.15,0-.32,0-.48-.39-.22-.74.15-.94.22a.36.36,0,0,1,.25,0l-.62.89c-.18-.14-.12-.31-.06-.47-.15.1-.2.34-.43.45-.05-.39-.18-.78.11-1.05l-.64.64c-.1-.15-.53-.33-.47-.5-.49-.1-.84,1-1.49.89a.4.4,0,0,1-.16.26c-.56.05-1.15-.27-1.65.4l-.53-.59c-.46.28.7.73-.07,1.2-.53.36-.36-.53-.61-.67-.21.42-.56,1.25-1.23.81C315.73,208.58,315.89,208.65,316.05,208.56Zm-6.17,1.6c.11-.12.29-.48.43-.21C310.27,210.52,310.12,210.28,309.88,210.16Zm-9.49,2.44c.08-.16.23-.1.41.07A.41.41,0,0,1,300.39,212.6ZM272.76,211h0C272.9,211.34,272.86,211.21,272.76,211Zm-.35-.54a.18.18,0,0,0-.15.14c.11-.07.22,0,.32.13C272.63,210.63,272.62,210.51,272.41,210.48Zm62.08-4.61-.16,0C334.44,205.58,334.46,205.72,334.49,205.87Z" transform="translate(-0.03 -181.33)"/><path class="cls-2" d="M301.43,211.84a.79.79,0,0,1,.08.26A.19.19,0,0,0,301.43,211.84Z" transform="translate(-0.03 -181.33)"/><path class="cls-2" d="M319.81,207.34h0v-.09Z" transform="translate(-0.03 -181.33)"/><path class="cls-2" d="M282.07,211.33a.56.56,0,0,1,.13.3A.22.22,0,0,0,282.07,211.33Z" transform="translate(-0.03 -181.33)"/><path class="cls-2" d="M269.48,209.19l.37.13c-.16-.09-.14-.21-.16-.33C269.62,209.08,269.58,209.25,269.48,209.19Z" transform="translate(-0.03 -181.33)"/><path class="cls-2" d="M268.75,204.91c-.08,0-.1-.06-.18,0l-.11.2C268.66,205.18,268.89,205.12,268.75,204.91Z" transform="translate(-0.03 -181.33)"/><path class="cls-2" d="M270.21,207.72c.23-.33,0-.37-.28-.47l0,0C269.56,207.68,269.88,207.7,270.21,207.72Z" transform="translate(-0.03 -181.33)"/><path class="cls-2" d="M269.87,207.23a.67.67,0,0,1-.19-.14C269.52,207.25,269.73,207.18,269.87,207.23Z" transform="translate(-0.03 -181.33)"/><path class="cls-2" d="M271.65,210.22c0-.16-.38.36-.34.19C270.88,210.72,272.37,210.45,271.65,210.22Z" transform="translate(-0.03 -181.33)"/><polygon class="cls-2" points="270.84 25.21 270.61 25.66 270.97 25.44 270.84 25.21"/><path class="cls-2" d="M272.26,208.12l-.24-.37a.18.18,0,0,1-.19.06C272,208,272.17,208.24,272.26,208.12Z" transform="translate(-0.03 -181.33)"/><path class="cls-2" d="M271.83,207.81a.41.41,0,0,0-.32-.14A.87.87,0,0,0,271.83,207.81Z" transform="translate(-0.03 -181.33)"/><polygon class="cls-2" points="271.38 25.45 271.42 25.61 271.62 25.82 271.38 25.45"/><path class="cls-2" d="M275.8,210.94l.46.14c.13-.12.08-.27-.09-.31S275.83,210.76,275.8,210.94Z" transform="translate(-0.03 -181.33)"/><path class="cls-2" d="M275.48,209a.93.93,0,0,1-.07.42l.38-.49Z" transform="translate(-0.03 -181.33)"/><path class="cls-2" d="M276.62,209.66c.13-.12.79,0,.32-.33C276.81,209.45,276.36,209.32,276.62,209.66Z" transform="translate(-0.03 -181.33)"/><polygon class="cls-2" points="282.24 31.82 282.13 31.8 281.9 32.79 282.24 31.82"/><path class="cls-2" d="M288.28,211.4c-.5-.26-.14.62-.59.3-.13.24.37.26.24.47C288.25,211.92,288.41,212.07,288.28,211.4Z" transform="translate(-0.03 -181.33)"/><path class="cls-2" d="M287.93,212.17a.73.73,0,0,0-.17.15A.53.53,0,0,0,287.93,212.17Z" transform="translate(-0.03 -181.33)"/><polygon class="cls-2" points="352.04 27.46 352.25 27.79 352.2 27.39 352.04 27.46"/><path class="cls-2" d="M353,208.37l-.19.63.43-.45C353.12,208.54,353,208.53,353,208.37Z" transform="translate(-0.03 -181.33)"/><path class="cls-2" d="M308.73,209v.15c.08.16.16.16.32.16Z" transform="translate(-0.03 -181.33)"/><polygon class="cls-2" points="313.29 27.32 313.21 27.32 313.47 27.86 313.29 27.32"/><path class="cls-2" d="M316.9,207.06c-.16,0-.31.19-.47.2C316.74,207.07,317.11,207.76,316.9,207.06Z" transform="translate(-0.03 -181.33)"/><path class="cls-2" d="M220.29,196.81c.1,0,0-.39,0-.46C220.16,196.46,220.31,196.92,220.29,196.81Z" transform="translate(-0.03 -181.33)"/><polygon class="cls-2" points="219.07 16.72 219.04 16.55 219 17.01 219.07 16.72"/><path class="cls-2" d="M218,198.49c.4.6.32-.28.62-.13l.09.14-.12-.57C218.38,198.11,218.26,198.6,218,198.49Z" transform="translate(-0.03 -181.33)"/><path class="cls-2" d="M216.75,197.4c.17.23,0,.28.18,0l-.06,0A.31.31,0,0,1,216.75,197.4Z" transform="translate(-0.03 -181.33)"/><path class="cls-2" d="M216.87,197.36c.11-.08-.18-.17,0,0Z" transform="translate(-0.03 -181.33)"/><path class="cls-2" d="M216.45,197.77v-.29c-.11-.13-.25-.09-.26-.22C216.12,197.46,216.23,197.59,216.45,197.77Z" transform="translate(-0.03 -181.33)"/><path class="cls-2" d="M216.58,198.3l0-.13S216.52,198.11,216.58,198.3Z" transform="translate(-0.03 -181.33)"/><path class="cls-2" d="M216.63,197.89l0,.28c.07.09.19.29,0-.11C216.72,198.25,216.65,198.06,216.63,197.89Z" transform="translate(-0.03 -181.33)"/><path class="cls-2" d="M216.77,197.94c.15.09.3.12.28.41C217.27,198.12,217,197.7,216.77,197.94Z" transform="translate(-0.03 -181.33)"/><path class="cls-2" d="M218.29,199.18l.19.14,0-.26C218.47,199.19,218.18,199,218.29,199.18Z" transform="translate(-0.03 -181.33)"/><path class="cls-2" d="M215.45,197.94a6,6,0,0,0,.36.48v-.2A.77.77,0,0,1,215.45,197.94Z" transform="translate(-0.03 -181.33)"/><path class="cls-2" d="M215.81,198.42v.3C216,198.68,215.91,198.56,215.81,198.42Z" transform="translate(-0.03 -181.33)"/><polygon class="cls-2" points="216.92 17.67 216.89 17.06 216.88 17.7 216.92 17.67"/><polygon class="cls-2" points="214.91 16.9 214.8 16.56 214.95 17.09 214.91 16.9"/><path class="cls-2" d="M214.68,198.47c-.11-.28-.33-.38-.37-.56a1.16,1.16,0,0,0,.07.57C214.37,198.34,214.46,198.32,214.68,198.47Z" transform="translate(-0.03 -181.33)"/><path class="cls-2" d="M214.45,198.82c0-.08,0-.2-.07-.34A1.19,1.19,0,0,0,214.45,198.82Z" transform="translate(-0.03 -181.33)"/><path class="cls-2" d="M215.56,198.8c-.06-.07-.21-.27-.33-.31l.28.33Z" transform="translate(-0.03 -181.33)"/><path class="cls-2" d="M215.51,198.83h0l-.13.05Z" transform="translate(-0.03 -181.33)"/><path class="cls-2" d="M215.57,198.79h0S215.6,198.84,215.57,198.79Z" transform="translate(-0.03 -181.33)"/><path class="cls-2" d="M216.4,198.88c0,.25,0,.57.36.79C216.67,199.38,216.47,199.26,216.4,198.88Z" transform="translate(-0.03 -181.33)"/><path class="cls-2" d="M215.92,199.21h.18a.94.94,0,0,1-.19-.34Z" transform="translate(-0.03 -181.33)"/><polygon class="cls-2" points="215.89 18.03 215.88 17.87 215.81 17.88 215.89 18.03"/><path class="cls-2" d="M214.86,199c0,.2,0,.24-.06.3a.33.33,0,0,0,.28,0C215,199.21,214.93,199,214.86,199Z" transform="translate(-0.03 -181.33)"/><path class="cls-2" d="M215.19,199v0S215.23,199,215.19,199Z" transform="translate(-0.03 -181.33)"/><path class="cls-2" d="M214.19,199.69l0,.06,0-.07Z" transform="translate(-0.03 -181.33)"/><path class="cls-2" d="M215.14,199.39c.09,0,.07-.08,0-.21a.21.21,0,0,1-.09.15S215.13,199.42,215.14,199.39Z" transform="translate(-0.03 -181.33)"/><path class="cls-2" d="M214.38,199.09a2.33,2.33,0,0,0,.2.16C214.49,199.14,214.33,199,214.38,199.09Z" transform="translate(-0.03 -181.33)"/><path class="cls-2" d="M215.11,198.92v0C215,198.83,215.07,198.86,215.11,198.92Z" transform="translate(-0.03 -181.33)"/><path class="cls-2" d="M215.11,198.92c0,.07,0,.17.06.26a.35.35,0,0,0,0-.18Z" transform="translate(-0.03 -181.33)"/><path class="cls-2" d="M215.21,202.24c-.15-.37-.16-.76.17-.46a7.54,7.54,0,0,0-1.15-2,1,1,0,0,1,.14.57c.13.18.51.3.57.68s-.21-.06-.38-.2c.29.4.1.75.43,1.39l.06-.31C215.1,202,215.12,202.17,215.21,202.24Z" transform="translate(-0.03 -181.33)"/><path class="cls-2" d="M214.47,199.67l0-.07c-.09,0-.2-.15-.42-.39a1.16,1.16,0,0,0,.13.47l.25-.07Z" transform="translate(-0.03 -181.33)"/><path class="cls-2" d="M214.71,199.48c.18.39.14.62.45,1,.14-.11-.07-.37-.08-.59-.19.24-.05-.24-.35-.35a.34.34,0,0,1,.07-.18l-.22-.09,0,0h0s.06.07,0,0,0,0,0,0l.08.14c-.12,0-.07-.09-.08-.14l0-.06h0l-.11.33C214.56,199.63,214.62,199.58,214.71,199.48Z" transform="translate(-0.03 -181.33)"/><path class="cls-2" d="M217.1,200.54l-.06-.08C217.05,200.52,217.07,200.55,217.1,200.54Z" transform="translate(-0.03 -181.33)"/><path class="cls-2" d="M216.86,200.39c0-.07-.09-.22,0-.22s.11.17.18.29a.51.51,0,0,0-.26-.45l0,.06a1.85,1.85,0,0,1-.62-.49A8.83,8.83,0,0,0,216.86,200.39Z" transform="translate(-0.03 -181.33)"/><path class="cls-2" d="M215.81,200.05l-.1.31.3.25-.12-.19C216.06,200.42,215.89,200.2,215.81,200.05Z" transform="translate(-0.03 -181.33)"/><polygon class="cls-2" points="214.03 18.18 213.85 17.76 214.04 18.38 214.03 18.18"/><polygon class="cls-2" points="213.84 18.33 213.68 17.97 213.72 18.21 213.84 18.33"/><path class="cls-2" d="M197.22,200.31l-.06.11A.24.24,0,0,0,197.22,200.31Z" transform="translate(-0.03 -181.33)"/><path class="cls-2" d="M197.7,200.34l0-.2A.58.58,0,0,0,197.7,200.34Z" transform="translate(-0.03 -181.33)"/><path class="cls-2" d="M208.56,198.21c.07-.38.21-1,0-.56l-.17.41C208.52,198,208.56,198.1,208.56,198.21Z" transform="translate(-0.03 -181.33)"/><path class="cls-2" d="M202.13,198.55v.14l.17-.39Z" transform="translate(-0.03 -181.33)"/><path class="cls-2" d="M201.67,200.29l-.07-.31A1.16,1.16,0,0,0,201.67,200.29Z" transform="translate(-0.03 -181.33)"/><path class="cls-2" d="M194.67,201v.44C194.78,201.41,194.7,201.2,194.67,201Z" transform="translate(-0.03 -181.33)"/><path class="cls-2" d="M212.14,200.13c0-.18,0-.26-.07-.29C212.07,200.09,212.05,200.48,212.14,200.13Z" transform="translate(-0.03 -181.33)"/><path class="cls-2" d="M197.39,195.7a.48.48,0,0,0-.07.26A.37.37,0,0,0,197.39,195.7Z" transform="translate(-0.03 -181.33)"/><path class="cls-2" d="M211.93,199.8v.11c.06-.06.11-.1.14-.07C212.08,199.65,212.07,199.53,211.93,199.8Z" transform="translate(-0.03 -181.33)"/><path class="cls-2" d="M184.7,204l0,0C184.67,204,184.68,204,184.7,204Z" transform="translate(-0.03 -181.33)"/><path class="cls-2" d="M180.94,200.18s.06,0,.1,0S181,200.12,180.94,200.18Z" transform="translate(-0.03 -181.33)"/><path class="cls-2" d="M213.06,199.77s0-.05,0,0Z" transform="translate(-0.03 -181.33)"/><path class="cls-2" d="M213.73,201.36a1.15,1.15,0,0,0,0,.2A1.68,1.68,0,0,1,213.73,201.36Z" transform="translate(-0.03 -181.33)"/><path class="cls-2" d="M210.48,202.14h0C210.46,202.23,210.46,202.21,210.48,202.14Z" transform="translate(-0.03 -181.33)"/><path class="cls-2" d="M213.16,200l-.08-.11A.48.48,0,0,0,213.16,200Z" transform="translate(-0.03 -181.33)"/><path class="cls-2" d="M213.1,199.75l0,0C213.12,199.71,213.11,199.67,213.1,199.75Z" transform="translate(-0.03 -181.33)"/><path class="cls-2" d="M213,199.8s0,0,.06,0l0-.07Z" transform="translate(-0.03 -181.33)"/><path class="cls-2" d="M189.91,200.78l0,0C189.88,200.94,189.9,200.9,189.91,200.78Z" transform="translate(-0.03 -181.33)"/><polygon class="cls-2" points="204.9 20.12 204.92 20.1 204.91 20.09 204.9 20.12"/><path class="cls-2" d="M204.6,201.67c.3-.47.32-.39.35-.25l.41-1.18Z" transform="translate(-0.03 -181.33)"/><path class="cls-2" d="M196.08,200.49l.18.37c-.14.66-.28.45-.1,1-.08-1.36.56-.18.52-1.53l.11.29s0,.06-.06.05c.22.64.12-1,.39-.8a.47.47,0,0,1,.1.46l.2-.34c.06,0,.05.26,0,.23l.31-.1v0a5.57,5.57,0,0,1,.21-.68c.08.2-.05.15,0,.32l.19-.33c.06.35-.1.69-.21.64.12,1.36.15-.34.47.46l-.17.17c.07.77.2.5.35,1,0-.25-.29-1.23-.09-1.56.05.11.11.16.23-.11,0,.49.07.38.2.36l-.06.63a3.09,3.09,0,0,0,.26-.78c.15.07.13.57.12,1,.22.13-.08-.81.21-.9.17.27.33,0,.62-.33.11.24-.08.39-.05.58l.19-.5s0,.17,0,.25c.13-.18.09-.63.29-.78.16-.69.17,1.08.51.32,0,.19-.1.38-.12.63a5.33,5.33,0,0,0,.67-1l.11.45a2.36,2.36,0,0,1,.53-1.43c0-.24,0-.45,0-.55l.36-.27a1.74,1.74,0,0,1-.17.57l.08-.14a1.79,1.79,0,0,1-.24.93v-.4a6.21,6.21,0,0,0-.37,1.13.47.47,0,0,1,.12-.15,1.23,1.23,0,0,0-.08.26c0,.06.06-.07.13-.22l-.1.71.08-.27.22.51c.41-.64.9-1.6,1.39-1.77a7.3,7.3,0,0,0-.45,1.41c.08-.66-.37.19-.52,0,.08.1,0,.38-.07.47l.5-.48c-.15.49,0,.39,0,.61.22-1,.45-.56.68-.8-.1.32-.24.64-.38.5-.05.78.61-1,.59-.36,0,0-.05-.07-.12.09.2-.25.36.06.21.31h-.05c.24.19.81.32,1.18-.46,0,.1-.42.94-.5,1.09.51-.82,1-1.64,1.61-2.43a13.34,13.34,0,0,1-1.25,2.59c0,.13.05.27.28.1a3.65,3.65,0,0,1,.41-1.05,8.3,8.3,0,0,0-.16,1.17c0-.17.56-1.18.65-1.1-.09.15-.48,1-.56,1.12l.74-.9a4.24,4.24,0,0,0-.52,1.17c.07-.21.2.12.31.06l0-.29c.19.29,1-1.26,1.27-1.05-.15.18-.77,1.21-.7,1.41a13,13,0,0,1,2.14-2.48l-.11.31.39-.21c-.56.68-1.83,2.05-2.35,2.57,0,.29-.16.36,0,.42-.11.3-.32.36-.37.35l.25.38c.32-.6.63-.42.9-.91l-.76.37c.32-.6,1.19-1.52,1.41-1.26a8.82,8.82,0,0,1-.77,1.2c.15-.18.49-.23.43-.07l-.3.24c0,.31.7-.62.58,0,0,.08-.22.87,0,.53a23.87,23.87,0,0,1,1.75-3.28,7.29,7.29,0,0,1-.14,1.19c-.17.59-.83,1.18-1,1.69a1.68,1.68,0,0,1,.32-.38c0,.18-.29.49-.09.5.33-.59.31.22.34-.47.24-.1.1.21.31.27a4.19,4.19,0,0,1,1-1.41,2.12,2.12,0,0,0-.15.48c.28.19.35.54.67.64,0,.17.09.4-.05.67.08-.1.18-.32.29-.31.08.63-.26,0-.27.76.11-.38.42-.46.62-.68,0-.61-.31-.18-.54,0a6.12,6.12,0,0,1,.94-2c.21-.19,0,.55.07.43.41.18.34-1.44.59-.85a7.43,7.43,0,0,1,.15,1.45c-.19.22-.31-.32-.43-.3l.16.25c-.06.18-.2.31-.27.16.12.49.8.09,1.25.42a.85.85,0,0,0,0-.59l-.1.09c-.18-.4.06-.62-.11-.79.06-.32,0-.83.27-.64l.23.57c-.06-.17-.23-.31-.22-.12,0-.27.56.69.36-.1l-.27-.35c0-.34-.11-1,.1-.86-.31-.53,0,.08-.37-.54.41.79-.31.09.13.9-.37-.73-.27-.27-.57-.91.06.19.14.36,0,.29l0,.18h0v0h0a1.57,1.57,0,0,1,.13.29c.08.47-.1.49-.11.73-.08-.08,0-.23-.09-.44l0,.37c-.09-.44-.25-.7-.18-1h-.09c-.08-.25-.13-.34-.17-.15,0-.09-.1.5-.06.15a1.07,1.07,0,0,1-.16.27v-.11c-.1-.06-.5.67-.5-.17-.09.09-.21.2-.28,0l.11-.38c-.13.1-.1-.45-.29-.1.34-1-.33-.4-.44-.67l-.24.44c-.11-.09-.3,0-.57,0l-.21.4c-.33.23-.22-.5-.49-.6.1-.14.14-.06.13,0,.22-1-1,.27-.92-.53-.15.1-.18,0-.18-.1h0l0,0a1.13,1.13,0,0,0,0-.26.87.87,0,0,0,0,.26.47.47,0,0,0-.32,0l.19-.44h0c0-.21-.17.16-.3.51a.85.85,0,0,0-.24.2c.28-.73-.34.11-.07-.68-.23.33-.57.07-1,.82.05-.11,0-.16.09-.15s-.11-.26-.29-.08l.21-.58-.54.66a1.35,1.35,0,0,1,.37-1c-.6.53-.37.14-.9.7l.16-.36c-.1,0-.45.41-.38.08.05-.8-1-.48-1.37-1.32-.22,1.15-.12-.57-.4.29,0-.28,0-.45.17-.65-.37.18-.34-.55-.74.13,0-.28.17-.37.18-.54,0,0-.16.21-.15,0s.1-.21.18-.32c-.33,0-.56.79-.76,1.57-.06-.41-.15-.37-.37.12,0-.27,0-.56.18-.61-.1-.06-.57-.52-.7.12,0-.17-.14-.07-.18,0-.22-.07-.24-.14-.48-.12l.05.12c-.21.74-.21.14-.41.2l0-.08c-.35-.6-.22.24-.56-.44l0,.48c-.16,1-.3-.65-.59-.28l.06.28c-.16.34-.25-1.43-.39-1.57s.06-.14.11-.2c-.33-.63-.09.62-.37.75,0-.34.12-.86-.07-.93-.08-.29-.59,1.07-.81.42a1,1,0,0,1,0,.71c-.18.09-.51-1-.68-.17a.52.52,0,0,1,0-.21c-.14.22-.47.37-.54.82-.21-1.66-.84.84-.93-.68l-.45.12v-.15c-.3-.08-.37.29-.42.67-.08-.09,0-.24,0-.32-.45-.25-.5-.18-.73.62l-.11-.49c0,.29-.73-.66-1,0a.88.88,0,0,1,0-.23c-.32.64-1.43-1.08-1.16.71l-.17.5c.4,0,.15.77.38,1-.11.14-.51-.42-.36-.56l0,.08c-.19-.93-.55-.18-.72-.8-.74.26-1.61,0-2.29.26l.34.65-.24.05c-.12-.14-.29-.5-.12-.54-.23-.35-.14.43-.08.58-.43-.15-.2-.84-.3-.82l-.11.11.06.07c0,.32.11.61-.09.66s-.23-.39-.29-.4,0-.07-.08,0l-.31.06.34.48c0,.32-.28.08.1.64-.57-.86-1.15.09-1.38-.16,0,.46-.18.52-.4.56.09.09.37.68.16.67-.43-1.27-.54-.4-1-1.25.36.55-.43.33.09,1.11-.18-.05-.19-.47-.4-.72-.17.61-.86-.05-1.2.23a2.22,2.22,0,0,1,.18.69l-.47-.78c-.05.1.21,1-.1.45.06.13.15.34.11.41-.52-.3-.87,0-1.27.1s-.84.18-1.21-.63c.1.34,0,.38,0,.39a4.23,4.23,0,0,1,0,.67,6.5,6.5,0,0,1-.32-.65c-.09.65-.34,0-.42.65l.11-.11a14.87,14.87,0,0,0,.06,2.63c.22-.83.57,1.26.91,0,.09.19-.05.31,0,.53.08-.41.17-.5.38-.34v.11c.55-.15.83.22,1.53.37l-.14-.45c.14,0,.2.17.29.28,0-.74-.38,0-.39-.77.36.91.9-.18,1.27.84.2,0-.19-.51,0-.56l.13.27-.05-.38c.15,0,.31.37.39.61,0,0-.07.09-.1.12.27.29.44-.25.53-.16l-.24-.12c.44-.42,1.2-.27,1.47-1l-.12-.19c.21-.53.38.12.7-.21v0c0-.24.06-.38.17-.4,0,.28.38.4.36.72.21-.57.05-.4,0-1.27l.2.32c0-.35-.1-.51.05-.68,0,.36.33.47.32.93.71.59.26-1,.9,0-.22-1-.55-.39-.54-.63-.21-.28-.15-.77,0-.73s.72,1.13,1,1c0,0,0,.08,0,.09.21.2.09-.42.39-.08-.16-.61.19,0-.08-.78l-.21.28c.08-.26-.12-1.18.31-.86a1.79,1.79,0,0,1,0,.51c.16.19.09-.2.26,0,.27.74-.28.29-.22.92.2.28.1-.66.34.17-.28-1.06.34,0,.24-.84l.16.45c0-.08,0-.32.05-.33l.11.62c0-.55.47.31.52,0-.31.13-.27-.51-.52-.79.19-.74.65,1.09,1,.72,0,.08-.31-.19-.29-.43a1,1,0,0,1,.41.42c.25-.18-.19-.46-.16-.77.27.52.06-.26.14-.48l.15.46c.41.2-.2-1,.21-.72l.06.68.1-.22.12.54c.06-.44.14-.35.35-.24-.13-.32-.2-.86-.05-.91.17.25.05.46.25.34,0,.31.06.69-.14.28l.06.45c.19.3.28,0,.36,0a.18.18,0,0,1-.11-.09l.16-.73a.89.89,0,0,1,.07.47c.05-.07.05-.29.13-.35a2.52,2.52,0,0,1,.06,1l.2-.48c0,.16.23.43.22.58.2.2.25-.83.52-.56a.36.36,0,0,1,0-.21c.22.06.45.51.63-.06l.21.68c.17-.18-.28-.86,0-1.15s.15.59.24.78c.07-.37.22-1.1.47-.55C196.2,200.53,196.14,200.43,196.08,200.49Zm2.35-.35c-.05.1-.15.41-.17.12C198.33,199.71,198.36,200,198.43,200.14Zm3.86-.6c-.07.14-.11.05-.13-.14C202.22,199.37,202.26,199.4,202.29,199.54Zm10.47.67v0C212.7,200.05,212.72,200.12,212.76,200.21Zm.14.2a.46.46,0,0,0,0-.2c0,.12,0,.13,0,.1C212.85,200.43,212.88,200.52,212.9,200.41ZM188,198.05l.09.1C188,198.32,188,198.19,188,198.05Z" transform="translate(-0.03 -181.33)"/><path class="cls-2" d="M201.72,200.08c0-.08,0-.17,0-.26A.39.39,0,0,0,201.72,200.08Z" transform="translate(-0.03 -181.33)"/><polygon class="cls-2" points="194.64 19.57 194.63 19.57 194.64 19.66 194.64 19.57"/><path class="cls-2" d="M208.73,203.42a.62.62,0,0,1,0-.27C208.69,203.25,208.67,203.35,208.73,203.42Z" transform="translate(-0.03 -181.33)"/><path class="cls-2" d="M213.35,199.44l0,.16s.09.05.13.11C213.4,199.61,213.33,199.46,213.35,199.44Z" transform="translate(-0.03 -181.33)"/><path class="cls-2" d="M215.61,201.66c0-.06,0,0,0-.09l-.11-.19A.17.17,0,0,0,215.61,201.66Z" transform="translate(-0.03 -181.33)"/><path class="cls-2" d="M214,200.9c.16.37.18.21.24.11h0C214.05,200.49,214,200.69,214,200.9Z" transform="translate(-0.03 -181.33)"/><path class="cls-2" d="M214.28,201a.09.09,0,0,1,.08-.05C214.27,200.73,214.3,200.92,214.28,201Z" transform="translate(-0.03 -181.33)"/><path class="cls-2" d="M213,200.11c0,.1-.09-.51,0-.35C212.91,199.25,212.94,200.41,213,200.11Z" transform="translate(-0.03 -181.33)"/><polygon class="cls-2" points="214.57 20.78 214.35 20.33 214.45 20.72 214.57 20.78"/><path class="cls-2" d="M213.72,202l.19.09a.29.29,0,0,1,0-.18C213.8,202,213.67,201.89,213.72,202Z" transform="translate(-0.03 -181.33)"/><path class="cls-2" d="M213.9,201.94a.11.11,0,0,0,.1-.12A.21.21,0,0,0,213.9,201.94Z" transform="translate(-0.03 -181.33)"/><polygon class="cls-2" points="214.41 21 214.33 20.93 214.2 20.93 214.41 21"/><path class="cls-2" d="M212.05,202.05l-.19.11c-.05.17,0,.28.06.22S212.06,202.22,212.05,202.05Z" transform="translate(-0.03 -181.33)"/><path class="cls-2" d="M212.54,203.46a1.25,1.25,0,0,1-.09-.39l0,.62Z" transform="translate(-0.03 -181.33)"/><path class="cls-2" d="M211.87,203.55c0,.17-.42.44-.11.45C211.81,203.84,212.06,203.72,211.87,203.55Z" transform="translate(-0.03 -181.33)"/><polygon class="cls-2" points="209.22 20.44 209.27 20.46 209.75 19.56 209.22 20.44"/><path class="cls-2" d="M206,202.71c.06.3.34-.53.35-.18.16-.19,0-.29.13-.45C206.21,202.25,206.23,202.09,206,202.71Z" transform="translate(-0.03 -181.33)"/><path class="cls-2" d="M206.44,202.08l.13-.11A.81.81,0,0,0,206.44,202.08Z" transform="translate(-0.03 -181.33)"/><polygon class="cls-2" points="180.53 18.29 180.44 18.07 180.48 18.41 180.53 18.29"/><path class="cls-2" d="M180.3,200.36l0-.65-.12.58S180.29,200.21,180.3,200.36Z" transform="translate(-0.03 -181.33)"/><path class="cls-2" d="M198.7,201.47l0-.15c0-.17,0-.19-.09-.22Z" transform="translate(-0.03 -181.33)"/><polygon class="cls-2" points="197.04 19.62 197.07 19.63 197.01 19.05 197.04 19.62"/><path class="cls-2" d="M195.77,201.78c.06,0,.11-.12.16-.1C195.83,201.8,195.68,201.05,195.77,201.78Z" transform="translate(-0.03 -181.33)"/><g class="cls-3"><path class="cls-2" d="M247.8,193.68l-.11-.22h0l0,.07C247.79,193.65,247.83,193.73,247.8,193.68Z" transform="translate(-0.03 -181.33)"/><path class="cls-2" d="M248,194.62l0-.16c0,.14,0,.28,0,.41A2.18,2.18,0,0,0,248,194.62Z" transform="translate(-0.03 -181.33)"/><path class="cls-2" d="M247.7,194.64c0,.7.11-.11.16.13l0,.16,0-.57C247.82,194.46,247.74,194.83,247.7,194.64Z" transform="translate(-0.03 -181.33)"/><path class="cls-2" d="M247.75,193.09c0,.28,0,.24,0,.09v-.07S247.74,193.11,247.75,193.09Z" transform="translate(-0.03 -181.33)"/><path class="cls-2" d="M247.75,193.11s0-.23,0,0Z" transform="translate(-0.03 -181.33)"/><path class="cls-2" d="M247.69,193.26l.06-.24c0-.16,0-.2.06-.31C247.78,192.84,247.74,193,247.69,193.26Z" transform="translate(-0.03 -181.33)"/><path class="cls-2" d="M247.55,193.76l0-.1C247.6,193.6,247.61,193.57,247.55,193.76Z" transform="translate(-0.03 -181.33)"/><path class="cls-2" d="M247.66,193.46l-.07.2c0,.12-.07.34,0-.07C247.58,193.8,247.63,193.6,247.66,193.46Z" transform="translate(-0.03 -181.33)"/><path class="cls-2" d="M247.66,193.57a3.23,3.23,0,0,1-.08.49C247.65,194,247.7,193.47,247.66,193.57Z" transform="translate(-0.03 -181.33)"/><path class="cls-2" d="M247.65,195.37l0,.21.05-.24C247.71,195.46,247.66,195.15,247.65,195.37Z" transform="translate(-0.03 -181.33)"/><path class="cls-2" d="M247.68,192.87l-.19.57.08-.16A2,2,0,0,1,247.68,192.87Z" transform="translate(-0.03 -181.33)"/><path class="cls-2" d="M247.49,193.44l-.13.23S247.44,193.6,247.49,193.44Z" transform="translate(-0.03 -181.33)"/><path class="cls-2" d="M247.36,194.53a5.38,5.38,0,0,0,.2-.51l-.21.52Z" transform="translate(-0.03 -181.33)"/><polygon class="cls-2" points="247.54 11.48 247.7 11.16 247.46 11.64 247.54 11.48"/><path class="cls-2" d="M247.46,192.82c.15-.25.21-.45.3-.6a4.85,4.85,0,0,0-.3.44C247.54,192.56,247.54,192.6,247.46,192.82Z" transform="translate(-0.03 -181.33)"/><path class="cls-2" d="M247.26,192.93l.2-.27A2.67,2.67,0,0,0,247.26,192.93Z" transform="translate(-0.03 -181.33)"/><path class="cls-2" d="M247.32,193.57a4,4,0,0,0,.13-.41l-.15.4Z" transform="translate(-0.03 -181.33)"/><path class="cls-2" d="M247.3,193.57h0l0,0Z" transform="translate(-0.03 -181.33)"/><path class="cls-2" d="M247.32,193.58h0S247.3,193.63,247.32,193.58Z" transform="translate(-0.03 -181.33)"/><path class="cls-2" d="M247.34,194.13a2.16,2.16,0,0,0-.3.8C247.16,194.66,247.18,194.45,247.34,194.13Z" transform="translate(-0.03 -181.33)"/><path class="cls-2" d="M247.14,194.08l0,.12a2.39,2.39,0,0,1,.15-.37A2.2,2.2,0,0,1,247.14,194.08Z" transform="translate(-0.03 -181.33)"/><polygon class="cls-2" points="247.03 12.86 247.11 12.75 247.1 12.71 247.03 12.86"/><path class="cls-2" d="M247.16,193.32c-.11.15-.14.16-.19.17s0,.14,0,.16S247.19,193.32,247.16,193.32Z" transform="translate(-0.03 -181.33)"/><path class="cls-2" d="M247.21,193.48v0S247.18,193.55,247.21,193.48Z" transform="translate(-0.03 -181.33)"/><path class="cls-2" d="M246.67,193.3l0,.07,0-.06Z" transform="translate(-0.03 -181.33)"/><path class="cls-2" d="M247,193.72c0,.09,0,0,.12-.11s-.07,0-.09,0S247,193.74,247,193.72Z" transform="translate(-0.03 -181.33)"/><path class="cls-2" d="M247.09,193.06c0,.08-.06.15-.08.22C247.07,193.16,247.15,193,247.09,193.06Z" transform="translate(-0.03 -181.33)"/><path class="cls-2" d="M247.24,193.39h0C247.28,193.29,247.27,193.33,247.24,193.39Z" transform="translate(-0.03 -181.33)"/><path class="cls-2" d="M247.24,193.39l-.14.22a.57.57,0,0,0,.1-.11Z" transform="translate(-0.03 -181.33)"/><path class="cls-2" d="M245,195.51c.23-.32.52-.57.37-.16a12.35,12.35,0,0,0,1.23-2,1.61,1.61,0,0,1-.38.43,2.17,2.17,0,0,1-.38.79c-.2.1,0-.17.07-.38-.23.44-.53.52-.92,1.12l.24-.14A1.72,1.72,0,0,0,245,195.51Z" transform="translate(-0.03 -181.33)"/><path class="cls-2" d="M246.73,193.48l.05,0a1.87,1.87,0,0,1,.2-.5,1.78,1.78,0,0,0-.3.36l.09.12Z" transform="translate(-0.03 -181.33)"/><path class="cls-2" d="M246.88,193.51a5.45,5.45,0,0,0-.58.91c.1,0,.23-.28.37-.42-.17,0,.15-.18.19-.45a.3.3,0,0,1,.11-.06c0-.06,0-.13,0-.21v0h0c0,.05,0,.08,0,.05h0l-.09.14c0-.1.05-.1.09-.14l0-.06h0l-.22.14C246.77,193.51,246.8,193.52,246.88,193.51Z" transform="translate(-0.03 -181.33)"/><path class="cls-2" d="M246.66,195.78l0-.1S246.64,195.76,246.66,195.78Z" transform="translate(-0.03 -181.33)"/><path class="cls-2" d="M246.68,195.51s.1-.21.12-.15a1.35,1.35,0,0,1-.11.32.86.86,0,0,0,.18-.48l0,.05a2.7,2.7,0,0,1,.14-.74C246.86,194.88,246.77,195.14,246.68,195.51Z" transform="translate(-0.03 -181.33)"/><path class="cls-2" d="M246.66,194.59l-.2.13-.11.37.1-.2C246.48,195,246.58,194.74,246.66,194.59Z" transform="translate(-0.03 -181.33)"/><polygon class="cls-2" points="246.75 11.78 247.01 11.41 246.6 11.91 246.75 11.78"/><polygon class="cls-2" points="246.59 11.75 246.82 11.43 246.66 11.6 246.59 11.75"/><path class="cls-2" d="M237.79,191.72l.05.2Z" transform="translate(-0.03 -181.33)"/><path class="cls-2" d="M237.83,191.64l-.08-.35Z" transform="translate(-0.03 -181.33)"/><path class="cls-2" d="M243.13,189.94c.21-.31.55-.78.25-.45l-.29.33C243.18,189.8,243.17,189.86,243.13,189.94Z" transform="translate(-0.03 -181.33)"/><path class="cls-2" d="M238.87,189.45v.18l.08-.49Z" transform="translate(-0.03 -181.33)"/><path class="cls-2" d="M238.63,191.7v0Z" transform="translate(-0.03 -181.33)"/><path class="cls-2" d="M237.86,193l.24.54Z" transform="translate(-0.03 -181.33)"/><path class="cls-2" d="M245.2,192.09a.5.5,0,0,0,.08-.29C245.16,192,244.94,192.34,245.2,192.09Z" transform="translate(-0.03 -181.33)"/><path class="cls-2" d="M235.82,183.4c0,.14.05.31.09.49A2.14,2.14,0,0,0,235.82,183.4Z" transform="translate(-0.03 -181.33)"/><path class="cls-2" d="M245.15,191.68l0,.1c.08,0,.15,0,.17,0C245.37,191.63,245.4,191.5,245.15,191.68Z" transform="translate(-0.03 -181.33)"/><path class="cls-2" d="M234.31,197l-.05,0S234.31,197,234.31,197Z" transform="translate(-0.03 -181.33)"/><path class="cls-2" d="M230.09,194.65s0,0,0-.06S230.09,194.58,230.09,194.65Z" transform="translate(-0.03 -181.33)"/><path class="cls-2" d="M246.25,192.56s0,0,0,0Z" transform="translate(-0.03 -181.33)"/><path class="cls-2" d="M245.31,194a1.1,1.1,0,0,0-.14.15A1.12,1.12,0,0,1,245.31,194Z" transform="translate(-0.03 -181.33)"/><path class="cls-2" d="M243,193.33h0C242.92,193.39,242.93,193.38,243,193.33Z" transform="translate(-0.03 -181.33)"/><path class="cls-2" d="M246.16,192.74a1.12,1.12,0,0,0,.05-.13A.59.59,0,0,0,246.16,192.74Z" transform="translate(-0.03 -181.33)"/><path class="cls-2" d="M246.28,192.58v0C246.33,192.57,246.36,192.54,246.28,192.58Z" transform="translate(-0.03 -181.33)"/><path class="cls-2" d="M246.19,192.54s0,0,0,.07a.1.1,0,0,1,0-.05Z" transform="translate(-0.03 -181.33)"/><path class="cls-2" d="M236.13,193.06l0,0C236.21,193.18,236.2,193.15,236.13,193.06Z" transform="translate(-0.03 -181.33)"/><path class="cls-2" d="M239.44,192.65l0,0h0Z" transform="translate(-0.03 -181.33)"/><path class="cls-2" d="M239.22,192.88c.31-.45.29-.37.24-.26l.68-1.09C239.82,192,239.51,192.42,239.22,192.88Z" transform="translate(-0.03 -181.33)"/><path class="cls-2" d="M237.79,192.21l.18.54c.28,1,.18.66.44,1.46a5.52,5.52,0,0,1-.36-1.27l-.29-1.1.13.43s0,.12,0,.1c.28,1-.41-1.61-.31-1.4s.13.46.19.75l-.13-.63a3,3,0,0,1,.1.41l0-.28,0,.07c-.08-.37-.18-.92-.21-1.15.09.36,0,.24.11.54l-.07-.52a5.11,5.11,0,0,1,.18,1.07c.53,2.38-.08-.56.25.86l0,.27c.27,1.32.19.86.33,1.66-.05-.4-.39-2.06-.47-2.6,0,.19.07.28,0-.15.13.8.11.62.13.6l.16,1-.16-1.25c0,.13.15.91.24,1.57,0,.19-.18-1.27-.16-1.41.09.42.06,0,.08-.48,0,.36,0,.57.06.85l0-.72s0,.25,0,.36a10.78,10.78,0,0,1,0-1.13c0-1,.13,1.55.16.48,0,.26,0,.53,0,.87.08-.65.06-.47.18-1.34l0,.61a7.34,7.34,0,0,1,.25-1.86v-.74c.06-.1.12-.2.19-.3a5.18,5.18,0,0,1-.11.73L239,189a6,6,0,0,1-.14,1.19v-.53c-.08.46-.15,1-.19,1.47a.5.5,0,0,1,0-.19c0,.13,0,.24,0,.33a1.61,1.61,0,0,0,.05-.28l-.07.91,0-.35c0,.22,0,.43,0,.63.18-.82.51-2,.79-2.11a16,16,0,0,0-.44,1.62c.15-.77-.17.22-.18,0a2.83,2.83,0,0,1-.09.56,5.36,5.36,0,0,1,.24-.6,3.72,3.72,0,0,0-.13.7c.28-1.12.28-.66.43-.94-.11.36-.24.71-.26.58-.22.84.48-1.17.32-.44,0,0,0-.06-.07.11.14-.28.13.05,0,.32h0c0,.2.23.23.7-.5l-.64,1.05a17,17,0,0,1,1.78-2.26c-.43.6-1.39,2.09-1.69,2.37,0,.11-.1.22.09.05a8.88,8.88,0,0,1,.65-.93c-.43.71-.21.4-.59,1a5.12,5.12,0,0,1,.86-.94l-.83.94q.41-.39.84-.75a12.21,12.21,0,0,0-.86.94c.14-.18.1.12.22.08l.12-.25c0,.27,1.25-1,1.36-.81a6,6,0,0,0-1.06,1.17,21.88,21.88,0,0,1,2.52-2l-.21.26.37-.17c-.67.56-2.11,1.71-2.7,2.12-.12.25-.25.3-.15.36-.18.25-.37.29-.4.28l.06.34c.45-.5.62-.34,1-.76l-.7.3c.45-.49,1.44-1.26,1.5-1-.15.23-.85.84-1,1,.17-.15.44-.19.34-.06l-.31.2c-.1.26.74-.52.39,0,0,.07-.5.72-.22.44a35.89,35.89,0,0,1,2.55-2.71,9.38,9.38,0,0,1-.57,1c-.36.49-1.07,1-1.38,1.38a3.06,3.06,0,0,1,.38-.31c-.08.15-.41.4-.28.41.49-.48.11.19.44-.38.2-.07,0,.17.08.23a6.09,6.09,0,0,1,1.32-1.08,4,4,0,0,0-.32.39c.1.18,0,.48.11.62a2.54,2.54,0,0,1-.41.53c.1-.07.28-.22.34-.19-.33.5-.16,0-.59.55a1.86,1.86,0,0,1,.72-.41c.41-.46-.06-.22-.29-.1a5.9,5.9,0,0,1,1.71-1.3c.26-.05-.32.45-.22.38.11.31,1.17-.93.93-.33a10.72,10.72,0,0,1-1,1.11c-.23.07.08-.38,0-.42l-.1.26c-.15.1-.3.14-.23,0-.27.41.31.4.21.89a1.35,1.35,0,0,0,.43-.4l-.1,0c.22-.38.48-.38.54-.6.26-.17.63-.49.58-.22l-.36.5c.11-.15.16-.34,0-.22.2-.18-.35.78.18.18l.19-.39c.25-.2.71-.67.68-.46.31-.52-.06,0,.3-.57-.47.75-.17-.16-.65.63.44-.69.11-.35.48-1-.13.16-.22.32-.22.2l-.12.13v0s0,0,0,0-.1.17-.16.27c-.33.33-.43.23-.62.38,0-.1.17-.16.28-.34l-.28.23c.28-.35.38-.66.64-.78l-.07-.09c.12-.23.12-.36,0-.25,0-.11-.43.28-.16.05l-.32.09.08-.09c-.08-.15-.79.28-.39-.46-.13,0-.28.08-.27-.09l.25-.29c-.16,0,.08-.46-.23-.2.66-.82-.14-.45-.12-.69l-.36.36c-.06-.1-.23-.06-.46,0l-.31.32c-.33.19,0-.43-.15-.52.13-.11.13,0,.08.05.55-.88-.83.22-.46-.45-.15.09-.13,0-.08-.08h0s0,0,0,0l.11-.22a1,1,0,0,0-.12.22.32.32,0,0,0-.23,0l.31-.36h0c.09-.17-.19.13-.41.41l-.26.16c.51-.59-.28.09.25-.55-.3.28-.51-.07-1.08.57.07-.08.09-.14.12-.12s0-.26-.2-.12l.35-.52c-.21.18-.42.36-.62.55a1.8,1.8,0,0,1,.58-.92c-.62.41-.33.06-.87.54l.21-.34c-.07,0-.42.35-.29,0a.75.75,0,0,0-.23-.81,1.6,1.6,0,0,1-.49-1c-.26,1.36,0-.75-.29.25a2.22,2.22,0,0,1,.16-.78c-.26.13-.21-.81-.5,0,0-.36.12-.45.13-.66,0,.05-.11.22-.1,0a.58.58,0,0,1,.13-.36c-.24-.16-.39.87-.51,1.85,0-.55-.1-.53-.21.08,0-.36,0-.77.09-.78-.05-.1-.37-.88-.4,0,0-.24-.09-.15-.1-.06-.14-.18-.15-.27-.28-.32l0,.19c0,1-.1.14-.2.17v-.11c-.29-1-.07.31-.38-.87l.08.74c.12,1.55-.29-1.12-.38-.66l.1.48c0,.5-.49-2.42-.64-2.74a.48.48,0,0,1,0-.28c-.4-1.23.12,1,0,1.06a8.51,8.51,0,0,0-.33-1.6c-.16-.53,0,1.52-.39.26a5.42,5.42,0,0,1,.25,1.23,4.19,4.19,0,0,1-.33-.79c-.12-.29-.2-.44,0,.34l-.11-.39a8.2,8.2,0,0,0,.22,1.64c-.44-1.59-.45-1.37-.43-.95.1.73.27,1.61-.26-.13l0,.63-.1-.32c-.13.11.09.94.32,1.72a3.89,3.89,0,0,1-.22-.6c-.3-.16-.27.09.19,1.68l-.36-.79c.09.29-.08.11-.23.07s-.3,0-.14.67a2.44,2.44,0,0,1-.15-.35c.15.65-.16.46-.36.52s-.28.27.36,1.29l.26.72c.2-.17.56.82.82,1,0,.17-.51-.29-.52-.49l.07.06c-.68-.95-.38,0-.86-.53a1.32,1.32,0,0,1-.56.77,4,4,0,0,0-.37.33,2.41,2.41,0,0,0-.2.22.28.28,0,0,0-.1.09l.64.35-.1.09c-.17-.06-.51-.27-.44-.33-.37-.19.21.31.34.4-.34,0-.67-.52-.72-.48v.08l.08,0c.22.21.48.39.39.46s-.39-.22-.43-.22-.07,0,0,0l-.14.08.5.29c.19.22-.11.11.47.42-.88-.49-.66.28-1,.14.27.35.19.42.08.49.1.05.62.46.48.49-1-.9-.58-.23-1.35-.81.52.37-.08.32.66.86-.14,0-.37-.34-.64-.51.22.51-.56.08-.61.37a3.23,3.23,0,0,1,.46.53l-.69-.56c0,.09.64.79.17.39.1.1.27.26.28.32-.47-.15-.56.13-.72.36s-.4.37-1-.17c.24.25.22.3.18.34a4.13,4.13,0,0,1,.37.56l-.53-.45c.3.59-.17.16.12.71v-.13a23.86,23.86,0,0,0,1.44,2.19c-.34-.79,1,.89.49-.26.15.14.14.28.28.45-.18-.37-.17-.48,0-.4l0,.09c.23-.27.58,0,1.06-.06l-.31-.36c.11,0,.21.11.32.17-.37-.62-.22.12-.63-.56.68.69.46-.34,1.22.44.1-.09-.39-.39-.29-.48l.23.21-.23-.31c.1,0,.38.24.55.42,0,0,0,.09,0,.13.32.18.17-.31.27-.25l-.22,0c.08-.44.67-.48.47-1.15l-.18-.14c-.13-.47.32,0,.37-.32l0,0c-.13-.19-.17-.32-.1-.36.15.23.48.23.63.49-.15-.51-.17-.34-.7-1l.32.2c-.23-.26-.36-.37-.35-.54.18.29.5.28.75.64.83.27-.39-.84.64-.24-.75-.72-.6-.13-.74-.32-.3-.16-.55-.55-.42-.56s1.16.65,1.29.43c0,0,0,.07,0,.08.27.08-.2-.34.22-.2-.49-.39.1-.1-.55-.55l0,.28c-.11-.22-.83-.81-.35-.73a2.44,2.44,0,0,1,.36.36c.22.07-.08-.18.16-.11.66.44,0,.32.44.76.31.13-.34-.53.34,0-.43-.33-.37-.36-.28-.39s.1,0,.11-.06a.16.16,0,0,0,0-.09.69.69,0,0,1-.2-.11l.39.27c-.05,0-.23-.19-.21-.21l.49.38c-.4-.34.41.21.2,0,0,.07-.47-.34-.77-.51-.42-.54,1,.71.88.49.05.06-.23-.15-.39-.32a2.18,2.18,0,0,1,.42.32c0-.13-.36-.35-.56-.59.43.41-.15-.21-.26-.41l.35.38c.26.15-.69-.85-.37-.65l.43.6-.1-.19.37.48c-.25-.39-.17-.33-.06-.22a4,4,0,0,1-.54-.89c.2.23.28.45.27.32.18.31.41.68.12.28l.29.45c.21.28.07,0,.07,0l-.08-.09c-.12-.24-.25-.5-.37-.76a3.57,3.57,0,0,1,.28.49c0-.07-.15-.31-.16-.39l.56,1.07c-.08-.17-.16-.34-.23-.52.1.18.28.49.35.66s-.39-.93-.21-.63a1.81,1.81,0,0,1-.1-.27c.06,0,.31.66.06-.1l.35.93c-.07-.26-.45-1.16-.55-1.61a9.22,9.22,0,0,1,.39,1.08c-.17-.51-.48-1.64-.21-.85C237.82,192.26,237.77,192.11,237.79,192.21Zm.11-.8c0,.16.1.67,0,.18C237.73,190.66,237.83,191.13,237.9,191.41Zm1-.66c0,.18,0,.07,0-.18C238.87,190.53,238.89,190.57,238.88,190.75Zm6.81,1.85v0C245.76,192.44,245.72,192.51,245.69,192.6Zm0,.24a.67.67,0,0,0,.14-.15c-.09.09-.12.08-.12,0C245.6,192.82,245.55,192.9,245.65,192.84Zm-12.48-1.19.12,0C233.37,191.82,233.27,191.74,233.17,191.65Z" transform="translate(-0.03 -181.33)"/><path class="cls-2" d="M238.66,191.44l0-.34C238.67,191.2,238.66,191.32,238.66,191.44Z" transform="translate(-0.03 -181.33)"/><polygon class="cls-2" points="237.79 11.54 237.78 11.53 237.83 11.64 237.79 11.54"/><path class="cls-2" d="M241.22,194.29a.85.85,0,0,1,.13-.22C241.27,194.15,241.21,194.23,241.22,194.29Z" transform="translate(-0.03 -181.33)"/><path class="cls-2" d="M246.65,192.59l-.13.06s0,.09-.05.17A1.18,1.18,0,0,1,246.65,192.59Z" transform="translate(-0.03 -181.33)"/><path class="cls-2" d="M245.55,195.45s0,0,.07,0l.11-.2S245.54,195.34,245.55,195.45Z" transform="translate(-0.03 -181.33)"/><path class="cls-2" d="M245.75,193.92c-.24.33-.11.25,0,.23a0,0,0,0,1,0,0C246.06,193.69,245.91,193.81,245.75,193.92Z" transform="translate(-0.03 -181.33)"/><path class="cls-2" d="M245.75,194.14s.05,0,.05,0C245.93,194,245.81,194.12,245.75,194.14Z" transform="translate(-0.03 -181.33)"/><path class="cls-2" d="M245.94,192.74c0,.1.35-.39.25-.25C246.55,192.11,245.66,192.86,245.94,192.74Z" transform="translate(-0.03 -181.33)"/><polygon class="cls-2" points="244.97 13.7 245.24 13.28 244.97 13.58 244.97 13.7"/><path class="cls-2" d="M244.81,194.42v.18a.44.44,0,0,1,.12-.12S244.9,194.31,244.81,194.42Z" transform="translate(-0.03 -181.33)"/><path class="cls-2" d="M244.93,194.48s.06,0,.12,0A.2.2,0,0,0,244.93,194.48Z" transform="translate(-0.03 -181.33)"/><polygon class="cls-2" points="244.76 13.73 244.79 13.63 244.76 13.56 244.76 13.73"/><path class="cls-2" d="M244,193.61l-.19,0c-.12.11-.17.21-.1.19A.93.93,0,0,0,244,193.61Z" transform="translate(-0.03 -181.33)"/><path class="cls-2" d="M243.36,194.86a2.68,2.68,0,0,1,.22-.32l-.42.46Z" transform="translate(-0.03 -181.33)"/><path class="cls-2" d="M243,194.72c-.12.12-.47.24-.33.32C242.8,194.92,243,194.9,243,194.72Z" transform="translate(-0.03 -181.33)"/><polygon class="cls-2" points="242.24 11.6 242.26 11.62 242.96 10.88 242.24 11.6"/><path class="cls-2" d="M239.46,193.62c-.07.27.46-.43.34-.13.19-.15.1-.25.27-.37C239.83,193.24,239.9,193.11,239.46,193.62Z" transform="translate(-0.03 -181.33)"/><path class="cls-2" d="M240.07,193.12l.13-.09A.48.48,0,0,0,240.07,193.12Z" transform="translate(-0.03 -181.33)"/><polygon class="cls-2" points="229.55 12.99 229.38 12.84 229.59 13.12 229.55 12.99"/><path class="cls-2" d="M229.84,195.05l-.34-.56.25.54S229.75,194.93,229.84,195.05Z" transform="translate(-0.03 -181.33)"/><path class="cls-2" d="M238.31,193.62l0-.26c0-.27-.05-.3-.06-.35Z" transform="translate(-0.03 -181.33)"/><polygon class="cls-2" points="238.02 11.48 238.02 11.49 237.78 10.54 238.02 11.48"/><path class="cls-2" d="M238.36,194.07l0-.12C238.37,194.1,238,193.05,238.36,194.07Z" transform="translate(-0.03 -181.33)"/></g><g class="cls-4"><path class="cls-2" d="M35.46,205.05s.11-.37.13-.44A1.79,1.79,0,0,0,35.46,205.05Z" transform="translate(-0.03 -181.33)"/><polygon class="cls-2" points="34.58 24.44 34.66 24.29 34.41 24.64 34.58 24.44"/><path class="cls-2" d="M34.06,205.51c-.27.67.26,0,.25.27l-.05.16.27-.51C34.39,205.46,34.06,205.74,34.06,205.51Z" transform="translate(-0.03 -181.33)"/><path class="cls-2" d="M34.58,204c-.13.24-.17.18,0,.1l0-.06S34.58,204.06,34.58,204Z" transform="translate(-0.03 -181.33)"/><path class="cls-2" d="M34.61,204.07s.09-.22,0,0Z" transform="translate(-0.03 -181.33)"/><path class="cls-2" d="M34.33,204.08l.19-.17c.08-.15,0-.21.13-.3A1,1,0,0,0,34.33,204.08Z" transform="translate(-0.03 -181.33)"/><path class="cls-2" d="M34,204.48l.09-.07C34.11,204.35,34.11,204.32,34,204.48Z" transform="translate(-0.03 -181.33)"/><path class="cls-2" d="M34.26,204.27l-.19.14c0,.1-.18.29.08,0C34,204.53,34.15,204.37,34.26,204.27Z" transform="translate(-0.03 -181.33)"/><path class="cls-2" d="M34.24,204.38a.72.72,0,0,1-.25.44C34.17,204.82,34.4,204.37,34.24,204.38Z" transform="translate(-0.03 -181.33)"/><path class="cls-2" d="M33.69,206.15l0,.22.16-.18C33.74,206.28,33.79,206,33.69,206.15Z" transform="translate(-0.03 -181.33)"/><path class="cls-2" d="M34.21,203.54c-.1.12-.23.33-.35.49l.15-.11A1.16,1.16,0,0,1,34.21,203.54Z" transform="translate(-0.03 -181.33)"/><path class="cls-2" d="M33.86,204l-.22.15C33.67,204.26,33.76,204.16,33.86,204Z" transform="translate(-0.03 -181.33)"/><path class="cls-2" d="M33.52,205.12l.43-.37-.46.36Z" transform="translate(-0.03 -181.33)"/><polygon class="cls-2" points="33.98 22.01 34.24 21.77 33.83 22.13 33.98 22.01"/><path class="cls-2" d="M33.83,203.26c.22-.19.31-.39.45-.49a1.89,1.89,0,0,0-.46.29C33.94,203,34,203.05,33.83,203.26Z" transform="translate(-0.03 -181.33)"/><path class="cls-2" d="M33.54,203.24a3,3,0,0,0,.28-.18A1.68,1.68,0,0,0,33.54,203.24Z" transform="translate(-0.03 -181.33)"/><path class="cls-2" d="M33.57,204a2.35,2.35,0,0,0,.24-.37l-.26.34Z" transform="translate(-0.03 -181.33)"/><path class="cls-2" d="M33.54,204h0l0-.06Z" transform="translate(-0.03 -181.33)"/><path class="cls-2" d="M33.58,204h0S33.54,204.07,33.58,204Z" transform="translate(-0.03 -181.33)"/><path class="cls-2" d="M33.55,204.66c-.18.17-.44.29-.56.65C33.2,205.11,33.27,204.9,33.55,204.66Z" transform="translate(-0.03 -181.33)"/><path class="cls-2" d="M33.27,204.47v.14a1.81,1.81,0,0,1,.25-.3Z" transform="translate(-0.03 -181.33)"/><polygon class="cls-2" points="33.11 23.21 33.23 23.14 33.23 23.09 33.11 23.21"/><path class="cls-2" d="M33.37,203.62c-.16.11-.21.09-.26.08a.25.25,0,0,0,0,.2C33.23,203.81,33.42,203.65,33.37,203.62Z" transform="translate(-0.03 -181.33)"/><path class="cls-2" d="M33.42,203.84h0S33.37,203.9,33.42,203.84Z" transform="translate(-0.03 -181.33)"/><path class="cls-2" d="M32.77,203.33l-.05,0,.06,0Z" transform="translate(-0.03 -181.33)"/><path class="cls-2" d="M33.09,204c0,.09.06,0,.17-.05a.18.18,0,0,1-.13,0S33.06,204,33.09,204Z" transform="translate(-0.03 -181.33)"/><path class="cls-2" d="M33.31,203.28l-.12.21C33.27,203.38,33.4,203.21,33.31,203.28Z" transform="translate(-0.03 -181.33)"/><path class="cls-2" d="M33.47,203.76h0C33.54,203.67,33.51,203.71,33.47,203.76Z" transform="translate(-0.03 -181.33)"/><path class="cls-2" d="M33.47,203.76a2.12,2.12,0,0,0-.21.15.27.27,0,0,0,.14-.06Z" transform="translate(-0.03 -181.33)"/><path class="cls-2" d="M30.55,204.94c.32-.24.69-.37.44,0a9.27,9.27,0,0,0,1.73-1.56,1.18,1.18,0,0,1-.5.29c-.14.16-.23.51-.56.67s0-.19.14-.37c-.34.36-.68.3-1.23.78l.3-.05A1.57,1.57,0,0,0,30.55,204.94Z" transform="translate(-0.03 -181.33)"/><path class="cls-2" d="M32.81,203.55h.06a1.89,1.89,0,0,1,.32-.45,1.38,1.38,0,0,0-.41.25l.08.18Z" transform="translate(-0.03 -181.33)"/><path class="cls-2" d="M33,203.67a4.06,4.06,0,0,0-.83.69c.11.07.32-.18.51-.26-.21-.07.21-.13.29-.4a.25.25,0,0,1,.15,0,.8.8,0,0,1,.08-.21l0,0h0l0,0h0l-.12.11c0-.1.07-.09.12-.11l.05,0h0l-.3,0C32.86,203.61,32.9,203.64,33,203.67Z" transform="translate(-0.03 -181.33)"/><path class="cls-2" d="M32.32,206l.06-.09C32.33,205.93,32.31,206,32.32,206Z" transform="translate(-0.03 -181.33)"/><path class="cls-2" d="M32.41,205.71c.05,0,.17-.16.18-.09s-.13.16-.21.27a.65.65,0,0,0,.33-.4l-.05,0a2.41,2.41,0,0,1,.33-.7A9.52,9.52,0,0,0,32.41,205.71Z" transform="translate(-0.03 -181.33)"/><path class="cls-2" d="M32.57,204.74l-.28,0-.19.33.15-.16C32.27,205.07,32.44,204.86,32.57,204.74Z" transform="translate(-0.03 -181.33)"/><polygon class="cls-2" points="32.89 21.84 33.25 21.56 32.71 21.91 32.89 21.84"/><polygon class="cls-2" points="32.73 21.73 33.04 21.48 32.82 21.59 32.73 21.73"/><path class="cls-2" d="M26.2,201.55l0,.24Z" transform="translate(-0.03 -181.33)"/><path class="cls-2" d="M26.27,201.46l0-.4Z" transform="translate(-0.03 -181.33)"/><path class="cls-2" d="M30.34,193.44c.29-1,.74-2.5.38-1.49l-.35,1C30.44,192.93,30.41,193.15,30.34,193.44Z" transform="translate(-0.03 -181.33)"/><path class="cls-2" d="M27.79,194.52l-.06.37.24-1.32Z" transform="translate(-0.03 -181.33)"/><path class="cls-2" d="M27,199.21l.13-.81Z" transform="translate(-0.03 -181.33)"/><path class="cls-2" d="M25.85,203l.1.63S25.9,203.28,25.85,203Z" transform="translate(-0.03 -181.33)"/><path class="cls-2" d="M31.41,201a.73.73,0,0,0,.12-.45C31.37,200.89,31.09,201.2,31.41,201Z" transform="translate(-0.03 -181.33)"/><path class="cls-2" d="M26.79,190.1c0,.31-.07.61-.08.9C26.75,190.7,26.78,190.4,26.79,190.1Z" transform="translate(-0.03 -181.33)"/><path class="cls-2" d="M31.41,200.24l-.06.13a.25.25,0,0,1,.18.22C31.65,200.37,31.7,200.16,31.41,200.24Z" transform="translate(-0.03 -181.33)"/><path class="cls-2" d="M21.22,207.42l0,0S21.22,207.44,21.22,207.42Z" transform="translate(-0.03 -181.33)"/><path class="cls-2" d="M16.53,205.54s0-.06.06-.08S16.53,205.46,16.53,205.54Z" transform="translate(-0.03 -181.33)"/><path class="cls-2" d="M32.45,202.3s0,0,0,0Z" transform="translate(-0.03 -181.33)"/><path class="cls-2" d="M31.14,203.44a.88.88,0,0,0-.18.1A.9.9,0,0,1,31.14,203.44Z" transform="translate(-0.03 -181.33)"/><path class="cls-2" d="M29,201.48Z" transform="translate(-0.03 -181.33)"/><path class="cls-2" d="M32.32,202.46l.08-.11A.35.35,0,0,0,32.32,202.46Z" transform="translate(-0.03 -181.33)"/><path class="cls-2" d="M32.49,202.34l0,.06C32.53,202.36,32.57,202.33,32.49,202.34Z" transform="translate(-0.03 -181.33)"/><path class="cls-2" d="M32.4,202.27s0,0,0,.08l.05,0Z" transform="translate(-0.03 -181.33)"/><path class="cls-2" d="M23.85,203.12l0,0C23.91,203.27,23.91,203.23,23.85,203.12Z" transform="translate(-0.03 -181.33)"/><path class="cls-2" d="M27,201l0,0v0Z" transform="translate(-0.03 -181.33)"/><path class="cls-2" d="M26.87,201.5c.28-1,.25-.83.19-.58l.65-2.38Z" transform="translate(-0.03 -181.33)"/><path class="cls-2" d="M26,202.12l0,.62c0,1.13,0,.75,0,1.66-.07-2.3,0-.26,0-2.7v.49s0,.13,0,.11c0,1.15.05-1.84.1-1.6a6.2,6.2,0,0,1,0,.85l.07-.72s0,.5,0,.47l.06-.32v.08l.13-1.47c0,.36,0,.31-.05.65l.09-.76a12.44,12.44,0,0,1-.14,1.42c-.18,2.76.08-.78,0,.79l0,.41-.17,2.05.31-3.36c0,.21,0,.3.06-.34-.1,1.07-.06.78,0,.68l-.16,1.45.23-1.88c0,.09-.13,1.25-.25,2.22,0,.2.21-1.83.28-2.19-.05.52,0-.13.22-1.18l-.2,1.42.2-1.32-.09.62c.09-.54.23-1.62.33-2.15.14-.92.06-.31,0,.28s-.15,1.17,0,0l-.26,1.73.14-.87.39-2.15-.18,1.24c.21-1.36.47-2.8.69-3.88l.35-2.22.27-1.17L28,193.57l.12-.6-.29,1.72L27.55,196l.18-1.11L27.19,198l.08-.41-.12.69c0,.18,0-.18.11-.58l-.32,1.89.12-.73-.19,1.29c.34-1.73.84-4.16,1-4.51-.25,1.15-.4,2-.7,3.43.31-1.61-.14.5-.08.1,0,.21-.17.92-.22,1.16l.29-1.27c-.24,1.19-.17.93-.27,1.45a8.5,8.5,0,0,1,.48-2,9.72,9.72,0,0,1-.29,1.24c-.36,1.77.57-2.5.27-1,0,0,0-.13-.06.23.15-.59.05.07-.1.65h0c0,.39,0,.42.48-1.17l-.61,2.29.75-2.59,1-3.3-1.07,3.74c-.3,1.06-.58,2-.69,2.36s-.12.47,0,.06c.05-.2.54-2,.59-2l-.58,2.17c.08-.3.7-2.24.69-2.09l-.68,2.1c.21-.6.42-1.17.64-1.73-.12.29-.52,1.57-.7,2.11.12-.37,0,.13.07,0l.14-.46c-.07.39.92-2.28.93-1.92-.14.3-.83,2-.9,2.31.17-.4.58-1.35,1-2.2l.39-.8.38-.74a4.24,4.24,0,0,1,.53-.83l-.26.65c.12-.13.23-.24.35-.35L29,198.33l-.76,1.37c-.41.75-.8,1.55-1,2s-.23.55-.2.57a5.76,5.76,0,0,1-.29.63l-.11.35c.41-.89.44-.78.79-1.47a7.08,7.08,0,0,0-.47.73c.4-.93,1.18-2.39,1.16-2s-.76,1.41-.89,1.7c.14-.27.3-.41.2-.2l-.24.37c-.15.33.6-.91.21-.11,0,.09-.56,1-.29.58l1.28-2.08.8-1.27c.26-.4.47-.72.59-.87a14,14,0,0,1-.8,1.8,8.05,8.05,0,0,1-.73,1,8.87,8.87,0,0,0-.66.9,2.59,2.59,0,0,1,.35-.42c-.1.18-.4.52-.33.52.49-.62,0,.21.42-.5.17-.08-.07.22,0,.29A4.32,4.32,0,0,1,29.36,201c-.15.14-.32.36-.4.45.05.3-.15.63-.07.83a2,2,0,0,1-.52.46c.11,0,.32-.15.35-.11-.45.43-.12-.06-.68.42a1.24,1.24,0,0,1,.77-.22c.51-.34,0-.28-.23-.2a3.1,3.1,0,0,1,2-.73c.29.12-.43.36-.31.34.06.47,1.45-.4,1,.14a8.61,8.61,0,0,1-1.26.75c-.25,0,.18-.39.11-.47l-.16.24c-.18,0-.35,0-.24-.12-.38.32.22.61,0,1.1a1.17,1.17,0,0,0,.54-.23l-.11,0c.32-.3.59-.18.71-.38.32-.07.78-.24.66,0l-.48.37c.14-.1.24-.29.06-.22.26-.11-.54.68.16.27l.28-.34c.32-.08.91-.38.83-.16.45-.42-.07,0,.44-.48-.66.59-.15-.26-.83.37.62-.54.2-.33.71-.81-.16.11-.3.24-.27.11l-.16.08v0l0,0s0,0,0,0a1.6,1.6,0,0,1-.23.21c-.42.22-.5.06-.74.13.05-.1.22-.1.38-.24l-.35.11c.38-.24.55-.52.85-.54l-.05-.11c.18-.19.23-.33,0-.29.06-.1-.51.1-.17,0a.71.71,0,0,1-.37-.11l.1,0c-.05-.18-.29-.25-.44-.37s-.22-.35,0-.84c-.15-.07-.3-.12-.26-.45l.31-.34c-.16-.08.16-.92-.18-.69.8-1.16,0-1.33.1-1.95l-.41.57a.49.49,0,0,0-.36-.5l-.36.62c-.17.12-.12-.15-.05-.52a3.83,3.83,0,0,0,.14-1.05c.14-.25.12-.05,0,.2.39-1.09.21-1.15,0-1.06s-.44.32-.16-.66c-.14.19-.1,0,0-.33l0,0s0-.05,0-.06l.18-.69c-.08.29-.15.53-.18.66,0-.08-.08-.12-.18,0l.39-1.12h0c.13-.55-.19.39-.48,1.26a3.06,3.06,0,0,0-.26.47c.63-1.88-.24.27.42-1.84-.34.87-.31,0-1,2.16.09-.29.13-.46.14-.42.06-.37.13-.78-.07-.24l.48-1.72-.68,2a27.72,27.72,0,0,1,.84-3.07,19.94,19.94,0,0,0-.85,2.18l.32-1.19c0-.1-.46,1.37-.21.28a7.66,7.66,0,0,0,.26-2.29,13,13,0,0,1,.2-2.73c-.87,4.54.37-2.35-.31,1.05.2-1.1.31-1.82.5-2.61-.23.64.28-2.43-.3.34l.42-2.25c-.05.2-.19.83-.07.11s.18-.88.27-1.29a63,63,0,0,0-1.28,6.48c.27-1.75.22-1.65-.17.47.19-1.16.38-2.46.46-2.63s.07-.76.06-1,0-.14-.06,0-.13.67-.25,1.39c.08-.51.05-.44,0-.24l-.07.38c-.07.09,0-.14-.18.39l-.05.39c-.55,3.51-.18.95-.32,1.56l.05-.35c.08-1,0-.63,0-.35s-.09.52,0-.54l-.25,2c-.3,2.16-.24,1.6-.17.78s.15-1.88,0-1l-.09,1c-.12.76,0-.53.14-2s.28-3.1.26-3.23a8.77,8.77,0,0,1,.14-.93c0-1.68-.29,2.44-.49,3.35.09-1.16.36-3.27.26-3.18a9,9,0,0,0-.35,1.86c-.17,1.05-.32,1.89-.32,1a19.81,19.81,0,0,1-.18,2.39c-.06.28-.08-.36-.13-.66s-.12-.29-.23,1.07c0-.18,0-.37,0-.56a27.36,27.36,0,0,0-.4,3c0-2.22-.14-1.3-.26-.48s-.19,1.59-.24-.24l-.26.8v-.37a4.71,4.71,0,0,0-.19,2,3.27,3.27,0,0,1-.06-.65C25,195,25,195.28,25,197l-.15-.82c0,.3-.13.13-.28.11s-.35.12-.36.78a2.6,2.6,0,0,1-.06-.37c0,.72-.32.47-.56.54s-.4.26,0,1.34l.06.76c.27-.18.36.88.59,1.07,0,.2-.47-.29-.42-.52l.06.07c-.45-1-.44,0-.8-.58a2.84,2.84,0,0,1-.86.83c-.33.23-.76.52-.89.64l.6.43-.14.11c-.16-.08-.48-.32-.38-.4-.35-.22.14.39.25.49-.39,0-.58-.62-.65-.58l0,.11.08,0c.17.26.41.47.28.56s-.37-.26-.42-.25-.07,0-.05,0l-.19.12.48.32c.15.26-.16.14.4.49-.85-.55-.84.37-1.13.23.21.39.1.49-.05.57.11.06.6.5.43.55-.91-1-.61-.22-1.36-.83.52.38-.19.4.56.94-.17,0-.36-.36-.64-.52.15.58-.69.17-.83.54a2.71,2.71,0,0,1,.45.55l-.72-.54c0,.11.61.81.12.43.11.1.27.25.27.32-1.07-.21-.69,1.48-2.23.6.28.22.25.29.2.34a4.41,4.41,0,0,1,.4.54l-.63-.37c.34.58-.23.22.1.76v-.15a22,22,0,0,0,1.63,2.06c-.37-.78,1.07.78.57-.35.16.12.14.27.3.44-.19-.37-.18-.49.05-.43l0,.09c.27-.33.66-.11,1.2-.19l-.33-.35c.12,0,.23.09.34.15-.36-.63-.24.15-.66-.54.71.67.55-.43,1.32.35.12-.09-.39-.39-.27-.48l.23.2-.22-.32c.12,0,.4.23.57.42,0,0,0,.1,0,.13.33.18.21-.34.31-.28l-.23,0c.13-.49.79-.54.67-1.27l-.18-.14c-.07-.51.35,0,.46-.37l0,.05c-.1-.21-.12-.35,0-.4.13.25.48.25.61.53-.09-.55-.14-.37-.58-1.1l.3.22c-.19-.29-.31-.41-.27-.6.14.32.48.31.68.71.84.3-.23-.93.75-.25-.66-.81-.63-.16-.73-.38-.3-.17-.48-.61-.33-.62s1.1.73,1.28.5c0,0,0,.07,0,.09.27.09-.13-.39.28-.21-.42-.46.14-.1-.45-.63l0,.31c-.06-.25-.67-.95-.18-.84a2.36,2.36,0,0,1,.28.42c.23.1,0-.2.2-.11.59.53-.07.36.29.87.3.16-.24-.6.36,0-.76-.79.29-.13-.23-.81l.36.31c0-.06-.2-.23-.18-.24l.44.43c-.35-.39.41.23.22,0,0,.08-.42-.39-.71-.59-.31-.61.94.82.84.57,0,.06-.22-.17-.34-.37a1.73,1.73,0,0,1,.38.37c0-.15-.31-.4-.46-.68.37.47-.11-.25-.17-.47l.27.43c.25.18-.52-1-.22-.74.1.23.2.47.31.69l-.05-.22.27.55c-.17-.45-.1-.37,0-.26a3.42,3.42,0,0,1-.35-1c.16.27.18.52.21.36.11.36.26.78.05.33l.19.51c.16.33.08,0,.09,0a.28.28,0,0,1-.06-.1c-.07-.28-.13-.57-.19-.87a4.43,4.43,0,0,1,.17.56,3.35,3.35,0,0,1-.07-.44c.13.48.27,1,.32,1.22,0-.19-.08-.39-.11-.59.06.2.17.55.21.75s-.17-1.07-.06-.72c0-.11,0-.21,0-.3s.15.75.1-.12L26,203.5c0-.29-.14-1.33-.11-1.84s.07.93.1,1.23c0-.58,0-1.87,0-1C26,202.17,26,202,26,202.12Zm.4-1.34c0,.23-.1.93-.05.33C26.48,199.91,26.44,200.46,26.42,200.78Zm1-3.59c-.07.38,0,.15,0-.36C27.44,196.76,27.44,196.84,27.38,197.19Zm4.49,4.91h0C32,202,31.92,202,31.87,202.1Zm-.11.24a.52.52,0,0,0,.18-.1c-.11,0-.13,0-.12,0S31.65,202.35,31.76,202.34ZM21,201.45l.12.06C21.17,201.66,21.09,201.56,21,201.45Z" transform="translate(-0.03 -181.33)"/><path class="cls-2" d="M27.07,198.67l.12-.71Z" transform="translate(-0.03 -181.33)"/><polygon class="cls-2" points="25.8 21.54 25.8 21.53 25.82 21.65 25.8 21.54"/><path class="cls-2" d="M27.41,202.59a2.71,2.71,0,0,1,.16-.27A1.07,1.07,0,0,0,27.41,202.59Z" transform="translate(-0.03 -181.33)"/><path class="cls-2" d="M32.87,202.53h-.16s0,.1-.08.16S32.85,202.51,32.87,202.53Z" transform="translate(-0.03 -181.33)"/><path class="cls-2" d="M31.12,205.11c.06,0,0,0,.09,0l.16-.16C31.31,204.91,31.14,205,31.12,205.11Z" transform="translate(-0.03 -181.33)"/><path class="cls-2" d="M31.63,203.55c-.32.25-.17.22-.06.24h0C32,203.45,31.83,203.5,31.63,203.55Z" transform="translate(-0.03 -181.33)"/><path class="cls-2" d="M31.59,203.79s.05,0,.05.05C31.82,203.71,31.66,203.79,31.59,203.79Z" transform="translate(-0.03 -181.33)"/><path class="cls-2" d="M32.09,202.36c-.07.08.45-.26.32-.15C32.87,202,31.77,202.36,32.09,202.36Z" transform="translate(-0.03 -181.33)"/><polygon class="cls-2" points="30.57 23.07 30.95 22.75 30.6 22.95 30.57 23.07"/><path class="cls-2" d="M30.52,203.65l0,.19a.4.4,0,0,1,.16-.07C30.61,203.69,30.64,203.57,30.52,203.65Z" transform="translate(-0.03 -181.33)"/><path class="cls-2" d="M30.64,203.77s.05.07.13,0A.18.18,0,0,0,30.64,203.77Z" transform="translate(-0.03 -181.33)"/><polygon class="cls-2" points="30.33 23.01 30.39 22.92 30.37 22.82 30.33 23.01"/><path class="cls-2" d="M29.9,202.34l-.2-.07c-.15.08-.22.17-.14.19A.64.64,0,0,0,29.9,202.34Z" transform="translate(-0.03 -181.33)"/><path class="cls-2" d="M28.89,203.4a1.87,1.87,0,0,1,.31-.24l-.56.29Z" transform="translate(-0.03 -181.33)"/><path class="cls-2" d="M28.58,203.11c-.16.07-.5.09-.41.21C28.33,203.24,28.51,203.28,28.58,203.11Z" transform="translate(-0.03 -181.33)"/><polygon class="cls-2" points="28.5 19.43 28.51 19.45 29.3 18.29 28.5 19.43"/><path class="cls-2" d="M26.75,202.65c-.14.42.36-.92.19-.41.14-.34.14-.42.26-.71A5.51,5.51,0,0,0,26.75,202.65Z" transform="translate(-0.03 -181.33)"/><path class="cls-2" d="M27.2,201.53l.09-.2Z" transform="translate(-0.03 -181.33)"/><polygon class="cls-2" points="15.87 23.98 15.66 23.87 15.91 24.11 15.87 23.98"/><path class="cls-2" d="M16.16,206.05l-.38-.52.28.52S16.07,205.94,16.16,206.05Z" transform="translate(-0.03 -181.33)"/><path class="cls-2" d="M26.17,203.59l0-.35,0-.45Z" transform="translate(-0.03 -181.33)"/><polygon class="cls-2" points="26.1 21.47 26.11 21.49 26.13 20.39 26.1 21.47"/><path class="cls-2" d="M26.08,204.24v-.13C26.08,204.28,26,203.08,26.08,204.24Z" transform="translate(-0.03 -181.33)"/></g></svg>