<svg id="Layer_1" data-name="Layer 1" xmlns="http://www.w3.org/2000/svg" viewBox="0 0 1920 273"><defs><style>.cls-1{opacity:0.66;}.cls-2{fill:#0071bc;}</style></defs><g class="cls-1"><path class="cls-2" d="M1917.09,820.6c-37.3.64-72.95-5.52-108.79-9.77s-76.71-6.42-108.66,1.45c-12,3-22.36,7.26-35.81,8.92-26.34,3.25-52.3-4.56-78.68-7.76-76.8-9.32-154,21-233.3,16.16-55.81-3.38-104-23.87-159.58-20-29.42,2-54.12,10.78-83.59,12.68C1066,825,1026.25,813,983.45,810.56c-70.1-4-136.46,17.9-207,15.56-57.46-1.9-110.22-19.75-166.89-15.44-34.26,2.61-63.26,13.11-98,14.27-47.34,1.56-88-14.48-135.22-16.53-63.4-2.76-120,20-183.66,18.63-32.16-.69-61.39-7.47-92.4-11s-69.91-2.71-88.22,8.09L0,830.35V1080H1920V821l-3-.41" transform="translate(0 -807)"/></g></svg>