<svg id="Layer_1" data-name="Layer 1" xmlns="http://www.w3.org/2000/svg" viewBox="0 0 431.16 252.85"><defs><style>.cls-1{fill:#005780;opacity:0.8;}</style></defs><path class="cls-1" d="M1,198.89V432.54H432.11v-219a58.19,58.19,0,0,0-17.25-16c-16.49-9.94-33.12-8.35-39.32-7.68-13,1.43-23,6.44-31,10.47-9.73,4.87-8.81,6.08-15.87,9.06-16.44,7-31.94,4.87-36.56,4.19-6.05-.89-6.49-1.76-31.05-11.16-17.41-6.67-26.11-10-31-11.16-7.94-1.87-23.22-5.32-41.39-2.09-12,2.13-11.3,4.69-33.11,11.85-19.47,6.4-29.2,9.6-40,8.37-2.95-.33-6.5-1-32.42-13.25-27.93-13.21-29.52-15.14-35.87-16C36.75,178.58,21.52,181,1,198.89Z" transform="translate(-0.95 -179.69)"/></svg>