<svg id="Layer_1" data-name="Layer 1" xmlns="http://www.w3.org/2000/svg" xmlns:xlink="http://www.w3.org/1999/xlink" viewBox="0 0 862.08 337.51"><defs><style>.cls-1{fill:none;}.cls-2{clip-path:url(#clip-path);}.cls-3{fill:#0070b4;opacity:0.11;}.cls-4{opacity:0.36;}</style><clipPath id="clip-path" transform="translate(215.36 83.74)"><rect class="cls-1" width="432" height="432"/></clipPath></defs><g class="cls-2"><path class="cls-3" d="M-20,70.29A99.65,99.65,0,0,0-3.31,77.08l9.14,2.3c9.47,2.13,19.23,2.87,28.9,3.36,19.64,1,39.35-.59,59-1.33,18.4-.68,37-1,55.21,2.15,17.84,3,35.08,9.47,53.2,10.93,21.52,1.72,42.86-1.37,64.15-4.18,20.82-2.75,41.65-5.24,62.67-3.11,10.65,1.08,21.21,2.89,31.84,4.08A268.32,268.32,0,0,0,393.46,93,279.73,279.73,0,0,0,438,89q11.25-1.73,22.28-4.55,14.86-3.69,29.29-8.81a1.41,1.41,0,0,0,.88-1.91A6.4,6.4,0,0,0,487,70.92a76.06,76.06,0,0,0-7.62-3.51,6.47,6.47,0,0,0-4.42-.83q-14.21,4.35-28.76,7.36L431.63,76.6a312,312,0,0,1-43.81,3.84A332.49,332.49,0,0,1,348,78.54c-10.85-1.05-21.68-2.44-32.57-3-21-1.14-41.83,1.08-62.7,3.14-10.39,1-20.82,2-31.26,2.41a197.22,197.22,0,0,1-30.93-.89c-18.26-2.23-36-7.42-54.26-9.66s-36.7-2.23-55.11-2.1C64.12,68.53,47,68.72,30,67.17A179.62,179.62,0,0,1,3.4,62.92,86.66,86.66,0,0,1-9.1,59.2a146.43,146.43,0,0,1-14.33-7.06c-3.33-1.76-1.82,4.8-1.68,5.4a85.39,85.39,0,0,0,2.64,8.6A7.24,7.24,0,0,0-20,70.29Z" transform="translate(215.36 83.74)"/><path class="cls-3" d="M-29,63a101.56,101.56,0,0,0,16.54,6.83l9.06,2.34C6,74.31,15.7,75.1,25.3,75.65c19.55,1.11,39.17-.4,58.71-1.09,18.42-.65,37-.92,55.25,2.13,17.87,3,35.16,9.34,53.29,10.84C235,91,276.67,76.25,319.19,80.41c10.68,1,21.27,2.82,31.92,4a276.23,276.23,0,0,0,32.65,1.78,279.44,279.44,0,0,0,44.46-3.93,224.88,224.88,0,0,0,22.23-4.49q14.82-3.63,29.21-8.7a1.35,1.35,0,0,0,.93-1.89,7.06,7.06,0,0,0-3.65-3A81.47,81.47,0,0,0,469,60.25a7.06,7.06,0,0,0-4.62-1.06q-14.22,4.41-28.79,7.43L421,69.3a309,309,0,0,1-43.91,3.83,334.13,334.13,0,0,1-39.75-2c-10.8-1.06-21.59-2.46-32.43-3-21-1.13-41.92,1.14-62.83,3.22-10.46,1-21,2.05-31.46,2.4a197.92,197.92,0,0,1-31.08-1c-18.16-2.29-35.83-7.43-54-9.62C107.19,60.92,88.73,61,70.27,61.06c-17.33.09-34.67.2-51.93-1.62a172.86,172.86,0,0,1-27-4.85,87.7,87.7,0,0,1-12.63-4.08A148.32,148.32,0,0,1-35.78,43a1.25,1.25,0,0,0-1.92.87,9.28,9.28,0,0,0,1.23,5.32c1.28,3.18,2.71,6.31,4.28,9.36A9.16,9.16,0,0,0-29,63Z" transform="translate(215.36 83.74)"/><path class="cls-3" d="M-26.79,55.41a52.53,52.53,0,0,0,17.14,6.5,124.07,124.07,0,0,0,18.9,3.81c3.53.38,7.09.82,10.63,1.06a366.14,366.14,0,0,0,39.06.15C81.23,66,103.71,63.8,126,65.55a183.25,183.25,0,0,1,26.36,4c10.21,2.32,20.24,5.28,30.52,7.25a149.19,149.19,0,0,0,35.05,2.32c10.87-.5,21.72-1.92,32.49-3.37,14.07-1.9,28.16-4.26,42.36-5.08a196,196,0,0,1,31,.52c10.61,1.07,21.13,2.92,31.71,4.24a251.6,251.6,0,0,0,55,.61,269.19,269.19,0,0,0,30.76-4.62q7.47-1.64,14.9-3.41,14.93-3.81,29.41-9.07a2.27,2.27,0,0,0,1.21-3.25,7.08,7.08,0,0,0-1.87-1.75,1.4,1.4,0,0,0-1.72-.11,304,304,0,0,1-29.06,9l.83-.19L439.4,66.15l.84-.18L425.41,68.6A207.88,207.88,0,0,1,403.15,71a253,253,0,0,1-29.4.36c-9.68-.45-19.24-1.58-28.83-2.91-7.09-1-14.18-2.06-21.3-2.83-17.35-1.88-34.71-.64-51.95,1.63-16,2.09-31.85,4.78-47.91,6a172.77,172.77,0,0,1-21.22.39A138.31,138.31,0,0,1,179,70.43c-13.19-2.9-26.11-6.93-39.49-8.92-13.62-2-27.41-2.24-41.15-1.85C81.93,60.12,65.53,61.32,49.1,62l.84,0-10.66.18h.84L29.47,62l.85,0-10.59-.54.84.06L10.11,60.47l.84.09A118.23,118.23,0,0,1-7.68,56.81,39.93,39.93,0,0,1-24.82,50a2.82,2.82,0,0,0-3.39,1.13C-28.63,52.16-27.81,54.92-26.79,55.41Z" transform="translate(215.36 83.74)"/><path class="cls-3" d="M-21.07,58.85A130.58,130.58,0,0,0-4.59,65.52Q-2,66.21.54,66.86a148,148,0,0,0,24,4c15.79,1.41,31.68.86,47.5.29C94,70.38,116,68.9,137.84,71.4c19.49,2.23,38.1,8.85,57.54,11.39,22.85,3,45.78-.37,68.45-3.3,10.45-1.35,20.93-2.73,31.45-3.41a207,207,0,0,1,36.5.94c12.49,1.4,24.93,3.58,37.48,4.46a278.86,278.86,0,0,0,44-.31A294.07,294.07,0,0,0,443,77l14.77-3.23c10.18-2.6,19.17-5.41,29.13-8.66,1.25,0,1.65-.57,1.21-1.73a15.38,15.38,0,0,0-5.18-4.93q-5.46-4.09-11.18-7.78a15.31,15.31,0,0,0-6.42-3.14q-13.67,4.2-27.67,7.09l-14.07,2.57a301.51,301.51,0,0,1-42.85,3.73A347.45,347.45,0,0,1,340.94,59c-11.12-1-22.22-2.35-33.38-2.89-20.91-1-41.66,1-62.45,3-10,1-20.08,1.92-30.16,2.29a193.77,193.77,0,0,1-30.18-.86c-18.59-2.25-36.7-7.35-55.29-9.56-18.23-2.17-36.53-2.3-54.86-2.25-16.37.05-32.75.21-49.07-1.27A167,167,0,0,1,.21,43.41a74.72,74.72,0,0,1-11.93-3.67q-7.05-3.29-13.87-7c-.92-.77-1.6-.6-2,.52A14.08,14.08,0,0,0-27,40q1.38,6.33,3.22,12.56A14.15,14.15,0,0,0-21.07,58.85Z" transform="translate(215.36 83.74)"/><path class="cls-3" d="M-19.75,54.35a42.12,42.12,0,0,0,9.18,4.29q9,2.67,18.08,4.72c11.27,2.27,22.8,3,34.27,3.12,24.36.35,48.65-2.06,73-2.54h-.91c7.69.07,15.29.21,23,.9a170.54,170.54,0,0,1,22.12,3.51c7.32,1.66,14.55,3.7,21.85,5.44a184,184,0,0,0,22.63,4c12.6,1.36,25.42.36,38-1,9-1,17.87-2.35,26.79-3.62,10.49-1.5,21-2.76,31.52-3.72l-.93.06a177.86,177.86,0,0,1,20.39-.36q10.74.54,21.37,2.14c15.54,2.09,30.9,4.65,46.63,4.86a277.19,277.19,0,0,0,45.32-3,294.22,294.22,0,0,0,29.69-6.09Q477,63.1,491.37,57.81c1.76-.6,1.73-2.37.84-3.6s-3-3.55-4.71-2.94A294.86,294.86,0,0,1,459,60.38a215.41,215.41,0,0,1-21.85,4.77,206.7,206.7,0,0,1-22,3.2A248.34,248.34,0,0,1,386,69.54h.91l-14.44-.71-10.88-1.19c-9.05-1.07-18-2.63-27.07-3.78A187.89,187.89,0,0,0,313,62.28c-5.46-.06-10.88.14-16.33.48-14,.87-27.84,3.35-41.67,5.39-8.65,1.27-17.29,2.42-26,3.13a99.16,99.16,0,0,1-10.33.56,108.47,108.47,0,0,1-15.4-.32l.89.09A137.6,137.6,0,0,1,186,68.71l-8.94-2.15c-9-2.21-17.83-4.84-26.93-6.47-15.36-2.74-31.14-3-46.69-2.39-19,.73-37.85,2.77-56.82,2.8-8.09,0-16.15-.23-24.2-1A121.07,121.07,0,0,1,8.25,57.56Q-.64,55.4-9.52,53.17l.81.27-8.45-4.53c-1-.56-2.86-.5-3.51.68C-21.16,50.47-20.76,53.86-19.75,54.35Z" transform="translate(215.36 83.74)"/><path class="cls-3" d="M-32.81,63.88A168.55,168.55,0,0,0-6.69,72.32c9.61,2.15,19.56,2.79,29.38,3.2,19.81.82,39.65-.93,59.43-1.75,18.39-.76,37-1,55.2,2.2,17.78,3.17,34.92,9.72,53,11.09,21.65,1.65,43.09-1.67,64.48-4.59,20.83-2.84,41.62-5.33,62.64-3,10.61,1.15,21.13,3,31.73,4.25a260.7,260.7,0,0,0,32.7,1.71,279.32,279.32,0,0,0,44.71-4.25A227.45,227.45,0,0,0,449,76.43q14.94-3.8,29.42-9.05c1.06-.35,2.24-1.84,1.89-3-.28-1-2.67-2.65-3.71-2.31q-14.37,5.18-29.17,8.89l-14.79,3.33a288,288,0,0,1-44.58,5.33A245.27,245.27,0,0,1,348,78c-10.66-1.24-21.25-3.1-31.94-4.13a192.34,192.34,0,0,0-31.11-.48c-10.52.67-21,2.09-31.44,3.49-10.68,1.44-21.36,3-32.11,3.93-10.45.9-21.37,1.46-31.85.38a204.19,204.19,0,0,1-27.08-4.91c-8.71-2.11-17.38-4.58-26.23-6-18.24-3-36.69-3-55.1-2.21-17.89.71-35.78,1.93-53.7,1.5a188.38,188.38,0,0,1-29-2.72c-10.64-1.93-20.65-5.39-30.64-9.46A2.5,2.5,0,0,0-35.42,59C-35.63,60.3-34,63.39-32.81,63.88Z" transform="translate(215.36 83.74)"/><path class="cls-3" d="M-25.36,72.2A110.48,110.48,0,0,0-8.71,78.89a130.47,130.47,0,0,0,18.66,4,238,238,0,0,0,29.47,2c22.43.26,44.8-2,67.23-1.89a253.38,253.38,0,0,1,27.41,1.28,219.81,219.81,0,0,1,26.1,4.92c11.77,2.79,23.54,6.07,35.65,7.09a183.93,183.93,0,0,0,22.52.52c19.41-.73,38.65-4.13,57.93-6.33a242.74,242.74,0,0,1,36.05-1.93C323,89,333.53,90.5,344.09,91.9q10.67,1.53,21.4,2.49a192.63,192.63,0,0,0,21.88.69,255,255,0,0,0,38.44-2.84c10.45-1.66,18.41-3,28.7-5.51S473.92,81.29,484,78a1.93,1.93,0,0,0,1.19-3.37,22,22,0,0,0-8.55-3q-10.85,3.6-22,6.15-7.32,2-14.79,3.26a309.42,309.42,0,0,1-37.14,5,288.22,288.22,0,0,1-36.59.25c-9.61-.53-19.1-1.57-28.66-2.67-7.09-.81-14.18-1.64-21.29-2.18a207.44,207.44,0,0,0-26.15-.17c-19.85,1-39.59,3.86-59.37,5.72l1.24-.12-12,.8,1.25-.07-11.9.33h1.27l-11.81-.23,1.28,0a146.57,146.57,0,0,1-19.6-2.09L171.5,84c-8.82-1.74-17.54-3.93-26.38-5.61-19.6-3.74-39.57-3.86-59.45-3.54s-39.63,1-59.39-.77a181.23,181.23,0,0,1-28-4.51,93.88,93.88,0,0,1-13.1-3.92,130.09,130.09,0,0,1-14.75-7.14,1.6,1.6,0,0,0-1.9.91,4.68,4.68,0,0,0,.56,3.72,51.45,51.45,0,0,0,3,6.27A4.68,4.68,0,0,0-25.36,72.2Z" transform="translate(215.36 83.74)"/><path class="cls-3" d="M-15.26,59.41A152.47,152.47,0,0,0,1.12,65.85l9.07,2.3a154.33,154.33,0,0,0,24.41,3.1c16.12,1,32.28.33,48.4-.39,11.16-.49,22.34-1.09,33.52-1a232.29,232.29,0,0,1,27.41,1.34,233.27,233.27,0,0,1,26.31,5c8.81,2.13,17.59,4.45,26.55,5.9,20.78,3.35,41.78,1.22,62.51-1.44s41.51-5.84,62.54-5.27c10.74.29,21.39,2,32,3.37a359.29,359.29,0,0,0,36,3.22,263,263,0,0,0,51.81-4q11.22-1.71,22.22-4.52,14.82-3.66,29.2-8.75c1.06,0,1.5-.58,1.32-1.64a9.78,9.78,0,0,0-3.62-4.34q-4-3.56-8.31-6.74a9.76,9.76,0,0,0-5-2.65Q463.87,53.81,449.85,57l-14.09,2.87a284.74,284.74,0,0,1-42.91,4.38,292.88,292.88,0,0,1-39.72-1.9C342,61.19,331,59.59,319.82,58.88c-21-1.35-41.73.78-62.52,3.24-10.07,1.19-20.16,2.46-30.29,3.11-10,.64-20.39.92-30.33-.23-18.6-2.15-36.53-7.91-55.07-10.4-18.24-2.46-36.59-2.51-54.94-2-16.59.48-33.19,1.34-49.78.71a172.5,172.5,0,0,1-26.14-2.79A78.24,78.24,0,0,1-1.66,47.42a130.71,130.71,0,0,1-14-6.38c-3.13-1.54-2.62,3.62-2.54,5A85.18,85.18,0,0,0-17,55,7.16,7.16,0,0,0-15.26,59.41Z" transform="translate(215.36 83.74)"/><path class="cls-3" d="M-30.27,58.73c8.72,3.19,17.22,6.63,26.39,8.42,6.13,1.19,12.13,2,18.35,2.65,6.92.74,13.94.85,20.9.92,9.66.1,19.34-.34,29-.79,19.06-.88,38.13-2.07,57.21-.93,11.92.71,23.48,3,35,5.87,8.75,2.17,17.46,4.52,26.36,6,22.76,3.72,45.75.79,68.4-2.32,12.3-1.69,24.61-3.51,37-4.34a191,191,0,0,1,31.09.37c12.42,1.19,24.71,3.44,37.11,4.74a252.12,252.12,0,0,0,49.52.22A266.12,266.12,0,0,0,436.93,75q7.49-1.55,14.89-3.36,14.93-3.77,29.4-9a2.74,2.74,0,0,0,1.13-1.77,1.92,1.92,0,0,0-1-1.94,13.86,13.86,0,0,0-3.06-2,1.94,1.94,0,0,0-2.18-.11l-14.44,4.71.92-.26-15.53,4.22.93-.23-15.67,3.44.94-.2L418.46,71a209.2,209.2,0,0,1-22.21,2.17,257.12,257.12,0,0,1-29.25.17c-16.8-.88-33.32-3.91-50.05-5.54-33.66-3.28-66.68,5.36-100.11,7.37a177.67,177.67,0,0,1-21.15.1A150.13,150.13,0,0,1,172.29,72c-13.21-2.89-26.19-6.67-39.61-8.5-13.69-1.87-27.52-2-41.32-1.7-16.51.41-33,1.38-49.51,1.72l1,0-10.8,0,1,0L22.24,63l1,.06-10.68-.87,1,.11L3,60.94l1,.15-10.3-2,1,.2a72.61,72.61,0,0,1-13.23-4Q-24.16,53.2-29.69,51c-1.31-.5-3-.26-3.29,1.41a9.35,9.35,0,0,0,.92,3.35A9.39,9.39,0,0,0-30.27,58.73Z" transform="translate(215.36 83.74)"/><path class="cls-3" d="M-24.31,52.6A56.09,56.09,0,0,0-7.69,60.18l9.09,2.3c9.4,2.15,19.1,2.89,28.71,3.39,19.54,1,39.15-.6,58.67-1.35,18.4-.7,37-1,55.2,2.08,17.89,3,35.18,9.45,53.33,10.94,21.44,1.76,42.69-1.3,63.89-4.11,20.82-2.76,41.65-5.27,62.66-3.19,10.69,1.06,21.29,2.87,32,4.07a274.08,274.08,0,0,0,32.66,1.81,277,277,0,0,0,44.43-4,224.23,224.23,0,0,0,22.19-4.52q14.79-3.68,29.14-8.77c3.2-1.05-.4-4.22-1.47-5.2a73.52,73.52,0,0,0-6.62-5.17,6.41,6.41,0,0,0-4.1-1.82q-13.86,4.76-28.12,8.11l-14.3,3a282.92,282.92,0,0,1-43.44,4.62,276.64,276.64,0,0,1-39.76-1.9c-10.94-1.2-21.84-2.88-32.83-3.68a227,227,0,0,0-31.73,0c-10.35.7-20.65,2-30.94,3.29S230.35,62.73,220,63.43c-10.12.68-20.71,1-30.81-.2-18.39-2.15-36.07-8-54.38-10.53s-36.72-2.54-55.15-2c-17.09.53-34.19,1.41-51.28.61a174.91,174.91,0,0,1-27.1-3.21,87.36,87.36,0,0,1-12.9-3.36,41.45,41.45,0,0,1-15.13-8.33,1.47,1.47,0,0,0-2,.58,5.84,5.84,0,0,0,.09,4.27,65.24,65.24,0,0,0,2.18,7.64A5.85,5.85,0,0,0-24.31,52.6Z" transform="translate(215.36 83.74)"/><path class="cls-3" d="M-16.48,64.83A104.68,104.68,0,0,0,.1,71.6l9.1,2.31c9.41,2.16,19.13,2.9,28.76,3.4,19.58,1,39.22-.53,58.79-1.23,18.39-.67,37-.92,55.19,2.17,17.86,3,35.13,9.41,53.27,10.88,21.48,1.74,42.78-1.32,64-4.11,20.82-2.73,41.63-5.2,62.64-3.1,10.67,1.07,21.25,2.86,31.9,4a274.65,274.65,0,0,0,32.69,1.76,279.08,279.08,0,0,0,44.51-4Q452.23,82,463.24,79.2q14.82-3.67,29.22-8.79c3.79-1.23-2.23-5.16-3-5.74q-4.43-3.14-9.12-5.88A10,10,0,0,0,475,56.66Q461.21,61,447.06,64l-14.19,2.66a300.61,300.61,0,0,1-43.09,3.93A326,326,0,0,1,350,68.64c-11-1.07-22.08-2.49-33.18-3.09-20.94-1.12-41.72,1-62.52,3.12-10.12,1-20.27,2.1-30.44,2.56a187.93,187.93,0,0,1-30.38-.65C175,68.37,157,63,138.49,60.72c-18.24-2.27-36.58-2.34-54.93-2.11-16.57.21-33.16.62-49.7-.52A173,173,0,0,1,8,54.57a78.56,78.56,0,0,1-12.2-3.39,138.05,138.05,0,0,1-13.9-6.75c-3.36-1.76-2.33,4.59-2.21,5.67q.67,5,1.8,9.82A8.85,8.85,0,0,0-16.48,64.83Z" transform="translate(215.36 83.74)"/><path class="cls-3" d="M-33,66.38A121.92,121.92,0,0,0-16.47,73l9.26,2.4c9.6,2.26,19.5,3.15,29.33,3.74,19.92,1.21,39.93-.3,59.85-1,18.41-.68,37-1,55.25,2.07,17.74,3,34.86,9.38,52.86,10.88,42.81,3.57,84.74-11.55,127.55-7.2,10.57,1.07,21,2.89,31.59,4.08a269.93,269.93,0,0,0,32.66,1.79,283.42,283.42,0,0,0,44.85-4,216.78,216.78,0,0,0,22.56-4.61q15.09-3.75,29.74-9A2.58,2.58,0,0,0,480.61,69c-.5-1.07-3.53-2.7-4.7-2.33q-14.71,5.11-29.85,8.73L431,78.57a294.09,294.09,0,0,1-44.8,4.83,266.16,266.16,0,0,1-39.91-1.78c-10.58-1.19-21.11-2.92-31.73-3.81a207.62,207.62,0,0,0-31.15-.18c-10.59.71-21.14,2.08-31.67,3.38-10.78,1.33-21.59,2.72-32.43,3.44-10.54.7-21.51,1-32-.21a241.14,241.14,0,0,1-26.89-4.93c-8.66-2-17.3-4.28-26.11-5.58-18.34-2.72-36.84-2.58-55.32-2-18.13.52-36.27,1.33-54.4.25A189.37,189.37,0,0,1-4.55,68.1a104.81,104.81,0,0,1-13.73-3.66A101.7,101.7,0,0,1-34,57.52a2,2,0,0,0-3.11,1.78,12.81,12.81,0,0,0,1.63,3.78A13,13,0,0,0-33,66.38Z" transform="translate(215.36 83.74)"/><path class="cls-3" d="M-8.23,110.38a177.17,177.17,0,0,1,26-8.54A76.28,76.28,0,0,1,29.83,100a28.19,28.19,0,0,1,5.88-.08,35.69,35.69,0,0,1,8.54,1l-2.81-.81,8.24,2.46-2.77-1L54,104.65l-2.68-1.28,6.83,3.68-2.57-1.53c4.37,2.63,8.7,5.32,13.29,7.55a53.73,53.73,0,0,0,8.23,3.08c14,4.43,28.61,5.32,43.17,5.48,8.35.09,16.71-.3,25-.68,14.88-.67,29.77-1.12,44.65-1.7,29.48-1.16,58.95-2.31,88.46-2.17a723.7,723.7,0,0,1,76.35,4.13c13.31,1.48,26.6,2.82,40,2a115.27,115.27,0,0,0,17.83-2.42c6.66-1.47,13.17-3.42,19.67-5.45,5.13-1.61,10.23-3.29,15.38-4.8a108.79,108.79,0,0,1,11.21-2.83A72.21,72.21,0,0,1,469.78,106l-1.59.15a48,48,0,0,1,10.71-.06,51.23,51.23,0,0,1,10.59,1.45c4.59,1.06,9.09,2.44,13.56,3.92,13.12,4.36,25.77,10,39.12,13.64a97.9,97.9,0,0,0,33.15,3.41,78.56,78.56,0,0,0,17.66-3.2l7-2.58A70,70,0,0,0,613.65,115c2.92-1.87-2.2-3.91-3.13-4.29a73.3,73.3,0,0,0-7.82-2.36,6.14,6.14,0,0,0-4.38-.18,67.84,67.84,0,0,1-12.87,4.6,79.41,79.41,0,0,1-12.92,2.08,108.28,108.28,0,0,1-19.39-.36c-15.45-1.5-30.38-6.54-45.22-10.81-12.43-3.57-25.25-7.14-38.3-7a121.51,121.51,0,0,0-22.24,2.21c-8.81,1.7-17.46,4.14-26.17,6.31A187.7,187.7,0,0,1,395,110a192,192,0,0,1-31.17.4c-10.38-.63-20.75-1.52-31.12-2.35-22.65-1.8-45.33-2.52-68.05-2.57-44-.11-88,2-132,2.55-11.27.14-22.55.1-33.8-.8a185.85,185.85,0,0,1-18.79-2.37,129.67,129.67,0,0,1-18.21-4.56l1.56.58C57,98.34,50.54,95.68,43.84,93.94A62.77,62.77,0,0,0,20.51,92.5C12,93.51,3.85,96-4.24,98.66c-6.25,2.06-12.55,3.92-18.78,6a1.48,1.48,0,0,0-.49,2,5.58,5.58,0,0,0,3.64,2,61.94,61.94,0,0,0,7.5,1.78A5.53,5.53,0,0,0-8.23,110.38Z" transform="translate(215.36 83.74)"/><path class="cls-3" d="M-18,104a199.07,199.07,0,0,1,30.21-9.62l-1.59.32a78.94,78.94,0,0,1,15-1.39,24.46,24.46,0,0,1,5.79.49,33.21,33.21,0,0,1,8.37,2l-2.9-1.21,7.29,3.21-2.82-1.43c4.55,2.42,9,4.94,13.52,7.42a59.48,59.48,0,0,0,8.3,4c15.16,5.5,31.45,7,47.47,7,6.67,0,13.33-.16,20-.39,13.21-.46,26.42-1,39.64-1.47,32.77-1.22,65.53-2.66,98.33-2.52A725.29,725.29,0,0,1,345,114.39c14.75,1.63,29.71,3.16,44.55,1.77,13.95-1.31,27.12-5.68,40.43-9.77,5-1.54,10-3.06,15.13-4.34a76.78,76.78,0,0,1,11-2.11,57.09,57.09,0,0,1,10.77-.81h-1.67a53.08,53.08,0,0,1,10.82,1,43.39,43.39,0,0,1,7,1.42,174.46,174.46,0,0,1,17,5.32c11.75,4.2,23.43,9.14,35.61,12a102.3,102.3,0,0,0,29.94,2.74,79.11,79.11,0,0,0,17.47-3l6.95-2.46a68.88,68.88,0,0,0,13.5-7.46c3-1.89-2.24-4.07-3.24-4.5a79.38,79.38,0,0,0-8.24-2.85,6.85,6.85,0,0,0-4.64-.45,62.77,62.77,0,0,1-12.81,4.67,76.58,76.58,0,0,1-13,2A109.61,109.61,0,0,1,542,107c-15.88-1.72-31.21-7-46.5-11.38-11.4-3.25-22.78-5.86-34.63-6.45-17.14-.84-33.84,4.47-50.25,8.63a176.19,176.19,0,0,1-26.26,4.87,191.45,191.45,0,0,1-31.22.33c-10.36-.65-20.71-1.53-31.06-2.34-22.65-1.78-45.31-2.51-68-2.56-44.08-.09-88.12,2.1-132.2,2.54-11.36.11-22.73,0-34-.94A187.43,187.43,0,0,1,68.9,97.19a119.35,119.35,0,0,1-18-4.72l1.67.62c-7.12-2.76-14.23-5.66-21.7-7.29A62.6,62.6,0,0,0,10,85,106.08,106.08,0,0,0-4,87.67C-9.31,89-14.46,90.82-19.63,92.51c-4.73,1.53-9.55,2.79-14.32,4.2a1.4,1.4,0,0,0-.64,2,6.56,6.56,0,0,0,3.88,2.38,74.4,74.4,0,0,0,8.12,2.59A6.6,6.6,0,0,0-18,104Z" transform="translate(215.36 83.74)"/><path class="cls-3" d="M-12.93,93.62A40,40,0,0,0-.18,88.28l-.79.39c7.12-2.32,14.2-4.49,21.65-5.48a46.39,46.39,0,0,1,9-.6A43.81,43.81,0,0,1,41,84.27L40.11,84l6.27,2.31-.89-.35c5.68,3.41,11,7.41,16.7,10.77A53.34,53.34,0,0,0,75.91,102a128.15,128.15,0,0,0,19,3.1,208.69,208.69,0,0,0,25,.67c8.39-.14,16.75-.6,25.14-1,29.69-1.32,59.42-2.6,89.13-3.38,29.16-.76,58.49-1,87.6,1.17,9.29.69,18.55,1.55,27.79,2.65,7.29.87,14.56,1.67,21.88,2.07a133.2,133.2,0,0,0,32.94-1.88c13.41-2.64,26.31-7.69,39.31-11.78l-.82.26c8.49-2.32,16.81-4.44,25.65-4.62a66.92,66.92,0,0,1,21,3.11c15,4.5,29,11.82,44.12,16.26,10.8,3.18,22.45,5.15,33.72,4.19a116.58,116.58,0,0,0,14.31-1.93A74.28,74.28,0,0,0,596,106.07a71.58,71.58,0,0,0,13.87-8.35c1.15-.79,2-2,1.1-3.28-.64-.94-2.37-2.55-3.61-1.68l-6.49,4.53a50.09,50.09,0,0,1-10.18,5,35.53,35.53,0,0,1-6.94,2.37,56.09,56.09,0,0,1-10.5,2.24l.84-.09-7.82.71.84-.07a120.35,120.35,0,0,1-20.25-1.26,118.42,118.42,0,0,1-19.67-5.26c-7.05-2.42-13.93-5.3-20.87-8-6.71-2.64-13.64-5.45-20.68-7.11S471.33,83.07,464,83.74a106.89,106.89,0,0,0-22,4.56q-6.09,1.89-12.15,3.91-5.76,1.92-11.53,3.78a150.93,150.93,0,0,1-15.65,4.17l.83-.16a114.7,114.7,0,0,1-18.39,2,123.49,123.49,0,0,1-13.47-.25c-8.81-.48-17.55-1.54-26.3-2.6A584.85,584.85,0,0,0,283,95.44c-19.56-.24-39.11.06-58.66.67-19.74.61-39.46,1.56-59.19,2.37-13.24.55-26.47,1.28-39.71,1.74a259.22,259.22,0,0,1-29.76-.52,122.54,122.54,0,0,1-18.94-3.06,47.45,47.45,0,0,1-13.63-5.12l.78.48q-4.41-2.72-8.75-5.55A77.59,77.59,0,0,0,46.58,81,49.75,49.75,0,0,0,34.1,77.48c-8.26-1.15-16.57,0-24.62,1.93Q3.07,81-3.19,83.14a28.31,28.31,0,0,0-5.67,3.54l.74-.42L-15.34,88a2.67,2.67,0,0,0-1.85,3.07C-16.83,92.07-14,94-12.93,93.62Z" transform="translate(215.36 83.74)"/><path class="cls-3" d="M-11.32,100.36a165.58,165.58,0,0,1,27.37-9,76.54,76.54,0,0,1,12.23-1.86,28.27,28.27,0,0,1,6-.09,36.92,36.92,0,0,1,8.69,1l-2.35-.58,7.9,2.21-2.3-.74a93.31,93.31,0,0,1,11,5.14l-2.13-1.06q5.4,3,10.86,5.95a50.18,50.18,0,0,0,13.52,5c12.57,3.26,25.72,4,38.65,4.17,16.54.16,33.15-.86,49.67-1.44,26.27-.92,52.54-2.13,78.83-2.62,25.93-.48,52-.48,77.84,1.35l19.25,1.54q8.7,1,17.42,1.9c11.91,1.14,23.89,2,35.84.82a123.33,123.33,0,0,0,18.33-3.21c17.24-4.27,33.83-11.79,51.67-13.33A73,73,0,0,1,488.45,97c9.41,2,18.43,5.52,27.43,8.83s18,6.64,27.26,8.9a101.07,101.07,0,0,0,26.49,3,100.88,100.88,0,0,0,15.22-1.72,71.32,71.32,0,0,0,13.84-4.36A66.84,66.84,0,0,0,612,103.89a3,3,0,0,0-1.8-3,70.09,70.09,0,0,0-6.9-4.28q-4.37-2.58-8.9-4.85a15.16,15.16,0,0,0-6.67-2.44l-6.45,2.77,1.22-.45-6.68,2.1,1.25-.36a92.13,92.13,0,0,1-11.43,1.93,87.81,87.81,0,0,1-12,.14,135.4,135.4,0,0,1-27.76-4.75C505.55,85.24,485.15,78.62,464,78c-11.63-.36-23.06,1.3-34.41,3.82-9.5,2.11-18.87,4.83-28.42,6.69a161.2,161.2,0,0,1-31.07,2.88c-5.89,0-11.78-.37-17.65-.75-7.57-.49-15.15-1-22.71-1.58-24.26-2-48.56-2.84-72.89-2.91-26-.06-52,.68-78,1.37-20.72.56-41.48,1-62.22.88-14-.09-28.12-.79-42-3.27a146.55,146.55,0,0,1-18.61-4.48L50.9,78.83l-5.78-1.52a93.65,93.65,0,0,0-11.83-2.43,92.87,92.87,0,0,0-13-.82C10.16,74.2.19,76.39-9.48,79.25c-4.21,1.24-8.37,2.6-12.58,3.82a46.06,46.06,0,0,1-5.88,1.5A38,38,0,0,0-36,86.94c-4.51,1.51,5.22,5.86,5.2,5.85q6.16,3,12.54,5.64A15.61,15.61,0,0,0-11.32,100.36Z" transform="translate(215.36 83.74)"/><path class="cls-3" d="M-7.07,91.51C1,88.6,9,85.72,17.28,83.36l-1,.26a87,87,0,0,1,18.44-2.48,42.68,42.68,0,0,1,17.37,3.53c4.6,2.14,8.84,5.5,13,8.33a50.58,50.58,0,0,0,17.69,8c16.2,3.93,33,4.34,49.57,3.75,10-.35,19.88-.95,29.82-1.36,23.05-.95,46.1-2,69.15-2.82l-.92,0c32.52-.87,65-1.2,97.49.84q11.83.63,23.6,2.12l13,1.54c6,.62,12.06,1.22,18.11,1.35a132.14,132.14,0,0,0,18.56-.55,125.72,125.72,0,0,0,21-4.39c6.55-2,13-4.23,19.46-6.37l7.6-2.46a130.76,130.76,0,0,1,14.86-3.74l-1,.16A51.3,51.3,0,0,1,474,88a45.72,45.72,0,0,1,10.89.54,100.52,100.52,0,0,1,20.9,5.94c12.54,4.8,24.71,10.48,37.72,14,9.82,2.66,20.32,4.21,30.51,3.54a77.39,77.39,0,0,0,20.9-3.87l6.87-2.72a66.78,66.78,0,0,0,13.48-8.26c1.51-1,1.46-2.49.26-3.7-.91-.9-3.7-3.25-5.14-2.18a78.59,78.59,0,0,1-12,7.91,62.66,62.66,0,0,1-15.61,5.18,73.19,73.19,0,0,1-13,1.42,103.44,103.44,0,0,1-16.47-1.24l.87.13a159.64,159.64,0,0,1-19.71-5.31c-7.33-2.49-14.44-5.66-21.6-8.56C498.64,85,483.56,79.56,468,81.18c-13.15,1.36-25.45,5.8-37.87,10.1-6.18,2.15-12.35,4.26-18.71,5.81a71.43,71.43,0,0,1-12.59,2.24,127.61,127.61,0,0,1-17.7.57H382c-8.89-.5-17.61-1.35-26.46-2.42-9.4-1.14-18.82-2-28.26-2.71-19.4-1.43-39.05-1.8-58.5-1.64q-19.78.15-39.58.83c-13.22.46-26.43,1-39.64,1.61-14.69.66-29.4,1.16-44.08,2-8.07.47-16.15.93-24.23,1l-9.69,0a146.49,146.49,0,0,1-19.16-1.71l.87.12L84,95.08l-8.92-2.82c-4.21-1.69-8-4.47-11.73-7C60,83.1,56.62,81,53.11,79.15a42.11,42.11,0,0,0-15.42-4.64,75.91,75.91,0,0,0-25.9,2.27C8.21,77.67,4.7,78.8,1.2,80c-2,.65-4,1.33-5.95,2.06a49,49,0,0,1-8.43,2.45,2.36,2.36,0,0,0-1.24,1.71,2.47,2.47,0,0,0,1.23,2.24C-11.91,89.69-9.08,92.24-7.07,91.51Z" transform="translate(215.36 83.74)"/><path class="cls-3" d="M-18.18,102.12A22.8,22.8,0,0,0-7.37,96.83Q-2.69,95.21,2.1,94a83,83,0,0,1,9.23-2.17,61.17,61.17,0,0,1,12-1l-.94,0,6.73.54-.94-.08a23.71,23.71,0,0,1,9.74,3.06,27.66,27.66,0,0,1,8.13,4.58c3.07,2,6.14,4.12,9.32,6a53.78,53.78,0,0,0,14.24,5.44,138.66,138.66,0,0,0,23.92,3.39c18.37,1.12,36.75-.29,55.11-1,36.18-1.41,72.38-3.47,108.59-3.49,28.74,0,57.44.93,86,4.32,14.86,1.77,29.64,3.09,44.59,1.71,15.49-1.44,30.15-7.26,44.87-11.87a130.12,130.12,0,0,1,18.74-4.82l7.23-.92a59.05,59.05,0,0,1,14.24.58l-1-.18,7.87,1.66-1-.22c5.67,1.66,11.18,3.47,16.68,5.61,5.92,2.3,11.78,4.76,17.71,7,10.64,4.06,21.7,7.66,33.11,8.69a88.69,88.69,0,0,0,31.71-2.48,92.09,92.09,0,0,0,10.76-3.77c5.47-2.26,9.77-5.4,14.61-8.72a2.29,2.29,0,0,0,.46-3.42c-1-1-2.57-1.75-3.82-.92a67.33,67.33,0,0,1-13.51,7.87l.8-.33-7.78,2.94.81-.28a75.2,75.2,0,0,1-14.06,3.06,66.32,66.32,0,0,1-10.44.56,100.23,100.23,0,0,1-23.15-2.67c-13.75-3.22-26.71-9-39.91-13.85-11.67-4.3-23.62-7.4-36.14-6.44a110.27,110.27,0,0,0-22.08,4.52c-9,2.63-17.91,5.83-27,8.42a117.37,117.37,0,0,1-30.24,4.83,218.67,218.67,0,0,1-26.71-1.3q-6.52-.72-13-1.5-11.75-1.44-23.57-2.09c-22.64-1.54-45.33-1.8-68-1.53-39.49.48-79,2.49-118.42,4.11-10,.41-20,.65-29.94.31a164.65,164.65,0,0,1-19.45-1.81,95.4,95.4,0,0,1-18.15-4.58l.93.43a97,97,0,0,1-9-4.88c-4.05-2.48-7.94-5.43-12.21-7.58a35.82,35.82,0,0,0-9-2.82,50.28,50.28,0,0,0-8.84-1c-6.45-.34-13.09.87-19.33,2.41L-3.69,90a9.74,9.74,0,0,0-6.8,2.27c-.64.51-1.25,1.05-1.84,1.62a11.18,11.18,0,0,1-8.44,3.48c-1,.32-1.7,2.46-1.24,3.36S-19.22,102.48-18.18,102.12Z" transform="translate(215.36 83.74)"/><path class="cls-3" d="M-12.81,112.71C-5.95,110,1,107.43,8.09,105.34A78.24,78.24,0,0,1,17.25,103a65.53,65.53,0,0,1,11.86-1.29l-1.79,0,7.49.31L33,101.84l7.33,1.1-1.84-.28L52,108.5l4,2.39a104,104,0,0,0,10.35,5.56l8.85,2.87,9.25,2a146,146,0,0,0,20.15,2c6.69.3,13.39.29,20.09.16,4.82-.08,9.63-.29,14.45-.49,11.59-.48,23.19-.82,34.79-1.26,29.55-1.12,59.12-2.45,88.7-2.58,25.79-.11,51.73.46,77.4,3.09,11.64,1.2,23.26,2.83,35,3.22a148.13,148.13,0,0,0,28.23-1.71c14.56-2.3,28.47-8,42.64-11.8,9.49-2.59,19.13-4.42,29-3.74,10.58.73,20.55,4.18,30.42,7.88,17.3,6.5,34.51,13.53,53.21,14.47a94,94,0,0,0,18.89-.91,77.48,77.48,0,0,0,14.31-3.59,36.65,36.65,0,0,0,7.12-3,55,55,0,0,0,10.47-6,2,2,0,0,0-1.2-3.29,11.63,11.63,0,0,0-3.38-.93,15.28,15.28,0,0,0-4.42-.34l-8.07,3.83,1.08-.46-8.17,2.83,1.17-.35-8.21,2,1.22-.24-8.2,1.21,1.26-.16-8.17.56,1.28-.07h-6.8a143.57,143.57,0,0,1-25.84-3.78c-9.1-2.29-18-5.31-26.94-8.19s-18.14-5.86-27.53-7.27a85.61,85.61,0,0,0-28.91.91c-10.34,2-20.4,5.26-30.56,8a166.31,166.31,0,0,1-32.61,5.67c-11.89.74-23.79-.2-35.63-1.24-5.87-.52-11.73-1.09-17.61-1.59-16.08-1.4-32.2-2.14-48.33-2.5-50.76-1.11-101.51,1.75-152.24,2.89A342.16,342.16,0,0,1,93,113.58c-11.63-1.09-23.47-3-34.3-7.57-5.31-2.23-10.39-5-15.78-7.06a44.52,44.52,0,0,0-12.57-2.59c-8-.6-16,.65-23.74,2.7-9,2.36-17.71,5.65-26.43,8.76a2.08,2.08,0,0,0-.63,3.53,11.67,11.67,0,0,0,3.74,1.14A12,12,0,0,0-12.81,112.71Z" transform="translate(215.36 83.74)"/><path class="cls-3" d="M-5.07,99.54a185.36,185.36,0,0,1,27.45-8.88,76.11,76.11,0,0,1,12.19-1.8,28.09,28.09,0,0,1,5.94-.06,36.09,36.09,0,0,1,8.65,1.08l-1.92-.48,7.45,2.16L52.83,91a97.26,97.26,0,0,1,10.52,5.12l-1.66-.86c3.42,2,6.88,4,10.35,5.92a45.73,45.73,0,0,0,13.45,5.14c12.55,3.33,25.73,4.06,38.65,4.15,10,.06,20-.46,29.91-.86,26.33-1.08,52.68-2.09,79-2.88,41.86-1.25,83.7-1.19,125.36,3.39,11.77,1.3,23.61,2.58,35.47,2.28a126,126,0,0,0,30.15-4.54c18.43-5,36.8-13.37,56.24-13.06,17,.27,32.87,7.68,48.59,13.42,8.63,3.16,17.48,6.26,26.57,7.81a101.89,101.89,0,0,0,20.18,1.58,87.24,87.24,0,0,0,21-3.35,50.23,50.23,0,0,0,8.09-3,67.1,67.1,0,0,0,13.4-7.83,2.44,2.44,0,0,0-1.1-2.78A44.77,44.77,0,0,0,611.8,97c-2.22-1.48-4.49-2.85-6.83-4.13a9.8,9.8,0,0,0-5.28-2l-6.32,3.41,1.11-.49-6.59,2.7,1.14-.41-6.82,2,1.15-.33a92.92,92.92,0,0,1-11.87,1.81,86.29,86.29,0,0,1-12.35-.1,121.76,121.76,0,0,1-24.49-4.9c-21.82-6.35-43.43-15.26-66.51-15a126.79,126.79,0,0,0-30.05,4.47c-9.45,2.43-18.75,5.42-28.27,7.53a135,135,0,0,1-32,3.06c-13.51-.25-27-1.76-40.45-2.89-26-2.19-52.06-2.92-78.14-2.79s-52,1.21-78,2c-12.79.39-25.59.6-38.39,1-6.3.19-12.61.43-18.91.48-12.49.09-25.1-.31-37.42-2.5l-9.19-2-9.26-2.85L63.18,83,57.5,80.82l-5.73-2.13a83.45,83.45,0,0,0-9.22-2.19A69.13,69.13,0,0,0,29,75.18a99.93,99.93,0,0,0-26.7,4.09C-1.92,80.45-6.1,81.77-10.31,83a42.14,42.14,0,0,1-5.82,1.5A40.33,40.33,0,0,0-24,86.78c-4,1.29,3.07,5.28,3.55,5.58,3.18,1.92,6.45,3.71,9.78,5.36A10.68,10.68,0,0,0-5.07,99.54Z" transform="translate(215.36 83.74)"/><path class="cls-3" d="M-15.87,96.81A134.15,134.15,0,0,1,9.92,88.08a72.38,72.38,0,0,1,12.16-1.72,27.16,27.16,0,0,1,5.91,0,34.09,34.09,0,0,1,8.56,1.27l-1.29-.4L42,89.53l-1.25-.48a71.74,71.74,0,0,1,8.36,5q4.63,3,9.35,6c9.68,5.47,21.11,7.33,32.05,8.42,13.31,1.33,26.75.95,40.09.4q34.75-1.45,69.51-2.82c26.13-1,52.31-1.88,78.46-1.39,19.33.37,38.68,1.09,57.91,3.09,21.17,2.2,42.36,5.47,63.55,1.37,18.15-3.52,35-11.72,53.24-15a68.84,68.84,0,0,1,21.53-.67c9.35,1.3,18.24,4.74,27,8.17,9.09,3.58,18.09,7.37,27.46,10.2a103.34,103.34,0,0,0,25.69,4.56,88.39,88.39,0,0,0,22.3-1.79,74,74,0,0,0,14.38-4.65,69.66,69.66,0,0,0,13.87-8.14,2.8,2.8,0,0,0,1-1.86,1.89,1.89,0,0,0-1.13-1.83c-1.22-1-3.73-2.56-5.3-1.56a64.08,64.08,0,0,1-13.23,7.4,71.06,71.06,0,0,1-13.92,4.1l1-.14-8,1.14,1-.11a105.3,105.3,0,0,1-20.55-.29,111.36,111.36,0,0,1-15.67-3.21c-12.87-3.63-25.06-9-37.73-13.26a117,117,0,0,0-17.58-4.65,73.71,73.71,0,0,0-18.35-.73c-7.4.59-15,2.64-22.14,4.76-8,2.39-15.86,5-23.82,7.45l.93-.26-8.78,2.38.94-.22-8.6,1.78.95-.18a120.14,120.14,0,0,1-18.26,1.68q-8.92.12-17.82-.62c-8.81-.74-17.58-1.86-26.38-2.73-42-4.16-84.44-3.45-126.6-2q-34.48,1.22-69,2.6c-9.94.42-19.88.91-29.83.82A193.76,193.76,0,0,1,79.33,100a82.51,82.51,0,0,1-18.12-5,64.79,64.79,0,0,1-8.61-4.63l1.13.68C49,88.18,44.26,84.78,39,82.93a51.18,51.18,0,0,0-18-2.81c-14.64.27-28.62,5.73-42,11.07-1.52.61-2.52,2.39-1,3.67a10.41,10.41,0,0,0,3,1.73C-17.82,97.07-17,97.35-15.87,96.81Z" transform="translate(215.36 83.74)"/><path class="cls-3" d="M-13.81,93.75a167.52,167.52,0,0,1,24-8.27,86,86,0,0,1,12.33-2.37,57.31,57.31,0,0,1,12-.15l-1.62-.19,7.42,1.13-1.6-.27a27.65,27.65,0,0,1,7.9,2.64,56.33,56.33,0,0,1,6.66,3.39c3.67,2.09,7.27,4.28,11,6.19,1.2.62,2.41,1.24,3.63,1.84l8.85,2.89a92.38,92.38,0,0,0,14.07,2.59,118.74,118.74,0,0,0,14.6,1.32c8.31.32,16.61.23,24.92,0,11.57-.38,23.14-.89,34.71-1.31,36-1.31,72.08-3.1,108.16-2.93,16.17.07,32.38.39,48.51,1.53,10.81.77,21.55,1.89,32.32,3,16.35,1.71,33.14,3.19,49.44.07,13.19-2.52,25.77-7.2,38.62-11,7.07-2.1,14.74-4.12,22.13-4.66l7.15-.29a68.8,68.8,0,0,1,14.44,1.77l-1.54-.41,8.48,2.23L491.3,92l8.35,2.69-1.48-.52c19.09,6.93,38,15.71,58.47,17.37a84,84,0,0,0,27.64-2.11,69.13,69.13,0,0,0,13.81-5.09,76.56,76.56,0,0,0,10-5.94,1.4,1.4,0,0,0,1.09-1.8A6.43,6.43,0,0,0,606,93.42a73.1,73.1,0,0,0-7.21-4.32,6.38,6.38,0,0,0-4.3-1.31l-6.58,4,1-.59A83.73,83.73,0,0,1,577,95.71a66.07,66.07,0,0,1-15.72,2.12,101.1,101.1,0,0,1-28.43-3.39C512.09,89,492.29,79.53,470.8,77.25c-11.58-1.24-22.92.13-34.18,2.9-11,2.71-21.72,6.61-32.75,9.26a135.61,135.61,0,0,1-37.15,3.32c-15.17-.6-30.3-2.57-45.42-3.7C266,84.88,210.69,88,155.38,89.55c-17.68.51-35.42,1.53-53.12.87a177,177,0,0,1-19-1.64,99.27,99.27,0,0,1-13.85-2.67l-9-2.92c-5.73-2.4-11.17-5.39-17-7.5A68,68,0,0,0,30.89,72.4c-9.92-1.6-20-.68-29.7,1.6-5.4,1.26-10.67,3-16,4.66-4.64,1.45-9.29,2.67-13.91,4.21C-32.17,84-26.91,87.48-26.2,88a85.53,85.53,0,0,0,7.8,4.43A7.15,7.15,0,0,0-13.81,93.75Z" transform="translate(215.36 83.74)"/><path class="cls-3" d="M-5.68,105.23c7-2.78,14.11-5.27,21.37-7.34A83.58,83.58,0,0,1,25,95.61a67.18,67.18,0,0,1,12.09-1.24l-2,0,7.86.33-2-.14A44.37,44.37,0,0,1,52.15,97a76.79,76.79,0,0,1,8.66,4.32q5.13,3,10.37,5.8a46.31,46.31,0,0,0,13.43,5.07c12.58,3.3,25.76,4,38.71,4.11q10,0,20-.42,14.88-.7,29.78-1.14c52.2-1.9,104.52-4.8,156.72-1.34q14,.81,27.88,2.57,8.75,1,17.53,1.72c12.13.89,24.34.92,36.36-1.26,20.66-3.73,39.93-13.83,61-15.6,9.66-.82,19,.66,28.25,3.41s18.16,6.55,27.21,9.87c8.67,3.17,17.47,6.14,26.58,7.77a94.2,94.2,0,0,0,27.23,1,74,74,0,0,0,21.08-5.48,83.54,83.54,0,0,0,13.52-7.71,1.22,1.22,0,0,0,.91-1.9,9.85,9.85,0,0,0-4.55-3.37q-4.73-2.52-9.66-4.59a9.79,9.79,0,0,0-5.48-1.4,83.42,83.42,0,0,1-11.3,4.41,72.65,72.65,0,0,1-14.87,2.41,103.38,103.38,0,0,1-24.83-1.62c-10.28-1.85-20.3-5-30.32-7.93-10.17-2.94-20.41-5.89-30.9-7.48a109.74,109.74,0,0,0-34.93.35c-9.85,1.65-19.49,4.27-29.17,6.7a178.93,178.93,0,0,1-33.46,5.51c-13.34.76-26.67-.61-39.95-1.5-7.78-.52-15.54-1.22-23.32-1.75q-19.5-1.35-39-1.71c-29.3-.61-58.59.11-87.87,1-22.48.65-45,1.23-67.47,1.45C116.14,98.38,102,98.09,88,96a144,144,0,0,1-18.48-4,41,41,0,0,1-7.12-2.29,44.36,44.36,0,0,0-5.27-1.83,116.23,116.23,0,0,0-14.2-3.83,78,78,0,0,0-12.57-1.29c-8.78-.12-17.48,1.54-25.93,3.75C-.89,88-6.07,89.78-11.3,91.37A45.1,45.1,0,0,1-17.23,93a49.84,49.84,0,0,0-8.11,2.36,1.22,1.22,0,0,0-.76,2,10,10,0,0,0,4.81,3q4.92,2.18,10,3.9A9.92,9.92,0,0,0-5.68,105.23Z" transform="translate(215.36 83.74)"/><path class="cls-3" d="M-18.23,106.55A47.42,47.42,0,0,0-6.3,101.72Q-1.66,100,3.12,98.8a85.26,85.26,0,0,1,9.23-2.16,60.42,60.42,0,0,1,12-1l-1.06,0c6.7.5,12.5,1.19,18.53,4.68,3.13,1.81,6.13,3.85,9.2,5.75a63.2,63.2,0,0,0,18.35,8.06,138.55,138.55,0,0,0,23.87,3.58c18.43,1.3,36.87,0,55.29-.6,36.21-1.27,72.43-3.33,108.67-3.37,28.73,0,57.38.92,86,4.11,14.86,1.67,29.65,3.06,44.61,1.85,15.72-1.27,30.61-7,45.56-11.56a134.89,134.89,0,0,1,18.82-4.81l7.18-.93a59.39,59.39,0,0,1,14,.45l-1.16-.19,7.9,1.52-1.19-.24c5.57,1.51,11,3.18,16.4,5.19,5.95,2.21,11.83,4.62,17.78,6.85,10.59,4,21.54,7.55,32.84,8.75A90.69,90.69,0,0,0,578,122.9a68.33,68.33,0,0,0,12-4l6.5-3.26a45.21,45.21,0,0,0,7.91-5.1,3.42,3.42,0,0,0,.91-1.9,1.11,1.11,0,0,0-.49-1.25c-.5-.69-3.15-2.28-4-1.75l-8.1,4.84.8-.42-8.34,3.78.84-.38-7.54,2.45a60.36,60.36,0,0,1-11.21,2.1,89.06,89.06,0,0,1-14.14.54,119.89,119.89,0,0,1-28.69-4.84c-10.22-3-20.13-6.81-30.16-10.32A134.68,134.68,0,0,0,478,98.58a73.34,73.34,0,0,0-18.45-1.74c-11.41.45-22.4,3.68-33.26,7-12.23,3.69-24.34,7.62-37.08,9.11-13.48,1.57-27,.83-40.44-.51-5.82-.57-11.64-1.24-17.47-1.8-12.81-1.22-25.68-1.91-38.53-2.44-29.31-1.19-58.71-.45-88,.52-26.41.87-52.82,1.95-79.24,2.73-14.91.45-29.91.42-44.7-1.63a98.66,98.66,0,0,1-13.94-2.62L58,104.26a60.92,60.92,0,0,1-7.12-3.72c-3.86-2.25-7.54-4.85-11.66-6.63a39.44,39.44,0,0,0-8.65-2.42,60.58,60.58,0,0,0-21.73.28,126.6,126.6,0,0,0-12.42,3.1,23.15,23.15,0,0,0-8.83,3.48,20.55,20.55,0,0,1-9.73,3.39c-1.18.32-1.59,2.56-1,3.45C-22.31,106.27-19.44,107-18.23,106.55Z" transform="translate(215.36 83.74)"/><path class="cls-3" d="M-4.44,191.66l5.06-.44-13-2.51,21,7.39L.34,192.44q8.34,3.93,16.78,7.65Q37.25,203.8,57.6,206c25,2.61,50.14,3.22,75.22,3.22,48.23,0,96.41-2.79,144.56-5.2,44.94-2.25,90-4.14,134.63-10q18.14-2.34,36.13-5.62,14.81-3,29.58-6.09,14.37-3,28.9-5.21a229.94,229.94,0,0,1,27.86-2.5h-4.85l16.65.17-4.86-.13,16.5.8-4.87-.27c13.3.94,26.84,2.35,40.2,2.51l12.29-.05A170.89,170.89,0,0,0,631.27,175q4.14-1.17,3.3-5.38a20.21,20.21,0,0,0-9.75-9.83,237,237,0,0,0-22.07-13.53A20.2,20.2,0,0,0,589.58,142c-10.38.81-20.65,1.4-31.05,1.53-10.18.12-20.36,0-30.54,0a464.57,464.57,0,0,0-65.27,5.12c-22.37,3.33-44.56,7.8-67,10.64-29.39,3.72-58.93,5.89-88.51,7.51-58.85,3.21-117.81,5.81-176.75,6.34q-23.71.21-47.42-.25c-15.58-.31-31.2-.75-46.74-1.89-12.06-.88-24-2.15-36-3.59-9.69-1.17-18.9-2.5-28.55-3.08l4.86.3c-4.07-.3-8.13-.65-12.21-.8a72.8,72.8,0,0,0-11.33.67c-2.57,1.11-3.47,3-2.71,5.71a18.48,18.48,0,0,0,10.13,8.42,211.1,211.1,0,0,0,22.19,10.51A18.47,18.47,0,0,0-4.44,191.66Z" transform="translate(215.36 83.74)"/><path class="cls-3" d="M-40,171a83,83,0,0,1,8.78.81,15.75,15.75,0,0,1,6,1.73c3.67,1.46,7.23,3.18,10.88,4.68a18,18,0,0,0,7.3,1.85l17.59,3c18.14,2.89,36.66,4.21,55,5,35.08,1.5,70.26.64,105.33-.69,34.83-1.32,69.65-3.09,104.46-4.92,29.76-1.56,59.5-3.29,89.15-6.35,18-1.87,36.19-4.23,54-7.59,14.74-2.79,29.35-6.25,44.12-8.84A324,324,0,0,1,498,155.14a257.67,257.67,0,0,1,30.57.16c11.82.64,23.62,1.93,35.46,2.08l12.28,0a175.65,175.65,0,0,0,25.58-2.55c2.85-.7,4-2.49,3.34-5.36a22.11,22.11,0,0,0-10.29-10.28,263.27,263.27,0,0,0-23.16-14.43A22.17,22.17,0,0,0,558,120c-10.35.74-20.59,1.27-31,1.33-10.12,0-20.23-.12-30.36-.1a457.45,457.45,0,0,0-65.38,5.29c-14.58,2.14-29,5-43.57,7.41q-16.21,2.67-32.51,4.59c-32.35,3.88-64.93,5.68-97.46,7.31-62.54,3.13-125.21,6-187.85,5.4C39,150.94,8.06,150.08-22.54,146c-10.52-1.4-21-3.47-31.54-4.35-6.43-.53-12.86-.47-19.31-.44l5,.09-7.31-.83q-4.78-1.69-7.85,2Q-84.76,147-80.62,150A132.85,132.85,0,0,0-61,161.75,132.08,132.08,0,0,0-40,171Z" transform="translate(215.36 83.74)"/><path class="cls-3" d="M-35.57,130.56A84,84,0,0,0-8.06,145.13a11.21,11.21,0,0,0,4.33,1l-2.56-1c2.76,1.54,5.3,3.38,8,5a43.69,43.69,0,0,0,4.82,2.58L24.12,156q13.6,1.8,27.28,2.79,14,1.29,27.95,1.72c12.7.43,25.4.58,38.11.58,32.22,0,64.44-1.52,96.62-3.09,34.12-1.66,68.24-3.34,102.34-5.37,30-1.79,60-4.3,89.73-8.69,14.13-2.09,28.11-4.66,42.09-7.61,12.15-2.57,24.28-5.2,36.54-7.25,11.48-1.92,23.28-3.62,34.94-3.56,9.67.06,19.3.89,28.93,1.8s19.53,1.87,29.33,2.11l12.29,0a163,163,0,0,0,25.87-2.9,9.24,9.24,0,0,0,7.79-7.39,11.67,11.67,0,0,0-3.43-5.67,11.65,11.65,0,0,0-5.48-3.72l-13,2a137.27,137.27,0,0,1-18.79.92c-8.09,0-16.12-.42-24.17-1.09-9.83-.82-19.64-2-29.49-2.52a205.36,205.36,0,0,0-25.78.34c-11.93.87-23.86,3.17-35.58,5.53-12.17,2.45-24.25,5.38-36.43,7.7a788.28,788.28,0,0,1-80.56,10.7c-26.61,2.27-53.28,3.57-79.95,5-28.82,1.5-57.64,3.11-86.48,4.35s-57.59,2.14-86.39,1.72q-18.89-.28-37.74-1.44Q46.8,142,33,140.34a171.32,171.32,0,0,1-27-4.45l2.56,1.26-5-2.82a20.08,20.08,0,0,0-4.95-3c-4.41-2-8.33-2.79-13.36-4.15l2.7.92-22.4-13.31a4.9,4.9,0,0,0-5.78-.55,9.83,9.83,0,0,0-4,4.86,4.86,4.86,0,0,0,1.58,5.58A30,30,0,0,0-35.57,130.56Z" transform="translate(215.36 83.74)"/><path class="cls-3" d="M-6.93,160.51l2.71-2.29-3.69,1.27,4.54,1.09-6.93-2.25c3.78,1.44,7.48,3,11.19,4.6q6.69,2.91,13.41,5.76l17.87,2.75A536.23,536.23,0,0,0,87.49,176c12.68.46,25.36.66,38,.7,32.09.12,64.19-1.21,96.24-2.63,34-1.51,68.1-3.12,102.13-5.09,29.87-1.73,59.7-4.08,89.35-8.22q21-2.92,41.76-7.14c12.1-2.45,24.17-5,36.36-7,11.54-1.89,23.32-3.54,35-3.69,9.85-.14,19.68.37,29.51,1s19.84,1.4,29.77,1.55l12.34-.08a179.71,179.71,0,0,0,25.67-2.65q5.55.6,4.12-4.79a46,46,0,0,0-13.93-16.29q-15-13.83-31-26.58a45.93,45.93,0,0,0-18.2-11.31c-12.35,1-24.57,1.6-37,1.78-10.71.16-21.42.22-32.13.56a601.77,601.77,0,0,0-75.41,7.6c-14.13,2.26-28.19,5.1-42.37,7s-28.71,3.43-43.1,4.68c-32.06,2.81-64.23,4.37-96.38,5.83q-46.57,2.11-93.19,3.19c-37.57.89-75.25,1.16-112.79-.6-15.57-.73-31.1-1.77-46.62-3.22-11.66-1.09-23.31-2.28-35-3l-9.51-.46q-4.46-.18-8.89-.56l-4.52,0a18.48,18.48,0,0,0-6.75,3.07q-1,6,4.45,9.71a308.73,308.73,0,0,0,27.61,21.22,307.1,307.1,0,0,0,29.26,18.89Q-12.21,163.51-6.93,160.51Z" transform="translate(215.36 83.74)"/><path class="cls-3" d="M-9.2,130.26A63.27,63.27,0,0,0,6.07,138c1.42.54,2.84,1.05,4.28,1.55,3.77,1.33,7,3.78,10.42,5.82l4.6,2.68a154,154,0,0,0,26.26,5.15c15.33,2.1,30.81,3.26,46.28,3.84,42,1.58,84,.09,125.9-1.94,21.95-1.06,43.89-2.24,65.84-3.4,24.68-1.3,49.38-2.53,74-4.46q22.41-1.75,44.73-4.51c15-1.88,30.18-4,45-7,9.9-2,19.74-4.36,29.62-6.5q10.79-2.45,21.69-4.22,10.55-2,21.26-3l-2.86.28,13.83-.8a168,168,0,0,1,17.81.66c9.8.7,19.54,2,29.34,2.63,8.07.56,16.17,1,24.27.78q4.56-.12,9.12-.52a115.38,115.38,0,0,0,19.32-2.37,8.81,8.81,0,0,0,4.71-4.2,5.4,5.4,0,0,0-1.1-6.16,37,37,0,0,0-6.83-7.67,5.42,5.42,0,0,0-6-1.8,141.82,141.82,0,0,1-24.91,2.63l2.8-.09-12.26-.13q-9.13-.4-18.23-1.38c-8.13-.78-16.25-1.68-24.4-2.29a199.8,199.8,0,0,0-33,.11c-8.13.74-16.19,1.94-24.22,3.38-9.62,1.73-19.16,3.79-28.69,6-13.17,3-26.35,5.89-39.68,8.1-29.27,4.86-58.81,7.43-88.38,9.55l2.81-.18L319,129.73l2.81-.17q-38.21,2.17-76.42,4.23l2.79-.15q-29.94,1.59-59.88,2.94l2.78-.1-21.79.79,2.77-.09-21.76.56,2.77-.06c-18.9.22-37.79.37-56.68-.43q-14.07-.5-28.07-1.88a248.33,248.33,0,0,1-27.55-3.46L23.9,127.66q-5.61-3.1-11.21-6.24l-5-2.35a37.83,37.83,0,0,1-9.5-3.24l3.46,2.1L-18,106a5.73,5.73,0,0,0-6,1.54,5.74,5.74,0,0,0-1.65,6,35.92,35.92,0,0,0,7.21,9.38A36,36,0,0,0-9.2,130.26Z" transform="translate(215.36 83.74)"/><path class="cls-3" d="M-57.19,158.19a161.45,161.45,0,0,0,27.07,10.43q2.49.65,4.9,1.53l-3.25-1.74a62.58,62.58,0,0,0,8.65,5.77l4.51,2.52,2.87.84a187.58,187.58,0,0,0,26.62,4.31q13.67,1.68,27.43,2.52c15.74,1,31.5,1.4,47.27,1.48,32.18.16,64.35-1.06,96.5-2.59,34.37-1.64,68.75-3.33,103.1-5.3,29.93-1.73,59.86-3.87,89.58-7.91,14.65-2,29.23-4.39,43.7-7.41,12.26-2.55,24.49-5.29,36.8-7.6q10.62-2.13,21.39-3.23a156.3,156.3,0,0,1,20.75-1.51c9.68.06,19.31.91,28.94,1.82s19.55,2,29.33,2.12l12.28,0a162.88,162.88,0,0,0,25.86-2.91c3.37-.52,7-5.32,6.21-8.75a12.46,12.46,0,0,0-4.67-5.07,12.63,12.63,0,0,0-6.32-2.75l-13,1.94a145.7,145.7,0,0,1-18.79.91c-8,0-16-.35-24.06-.95-9.76-.74-19.51-1.8-29.28-2.25a211.59,211.59,0,0,0-25.68.47c-12,.89-23.9,3.15-35.66,5.46-12.21,2.4-24.36,5.24-36.6,7.5-26.72,4.92-53.69,8.17-80.76,10.42-26.63,2.21-53.33,3.48-80,4.82-28.86,1.46-57.71,3-86.58,4.19s-57.64,2-86.46,1.57q-18.86-.28-37.7-1.4-13.84-.84-27.61-2.4a177.23,177.23,0,0,1-26.88-4.21l2.87.84-4.91-2.57,3.46,2.05c-2.4-1.61-4.68-3.5-7.21-4.86a8.36,8.36,0,0,0-5.2-1.28l2.5.32A219.21,219.21,0,0,1-58,143.05a4.35,4.35,0,0,0-5.23.87,11.24,11.24,0,0,0-3,5.54,4.33,4.33,0,0,0,2.08,4.87A22.57,22.57,0,0,0-57.19,158.19Z" transform="translate(215.36 83.74)"/><path class="cls-3" d="M-24.88,196.78l13.33,2.15-5.52-1.08,3.83,1.2-7.52-3c5.88,2.36,11.61,4.74,17.41,7.22q3.81,1.65,7.71,3.11l17.34,3.32q13.43,2.25,27,3.22,13.91,1.36,27.88,1.82c12.68.49,25.36.7,38.05.76,32.21.15,64.43-1.2,96.61-2.64q51.24-2.28,102.46-5.17c30-1.73,60-4.07,89.8-8.17,14.19-2,28.26-4.34,42.31-7.19,12.22-2.47,24.41-5,36.71-7.09,11.52-1.93,23.27-3.66,35-3.88,9.67-.18,19.31.29,28.95,1s19.48,1.51,29.24,1.73h12.25a183.29,183.29,0,0,0,25.83-2.46,5.69,5.69,0,0,0,4.65-9.68,72.69,72.69,0,0,0-25.85-12.43,186.34,186.34,0,0,1-19,1.42q-6.13.36-12.28.24c-9.9,0-19.78-.4-29.67-.69s-19.74-.38-29.62.11c-11.48.56-22.87,1.84-34.23,3.54-25.85,3.87-51.36,9.64-77.32,12.9-29.71,3.72-59.56,6-89.46,7.62q-46,2.48-92.08,4.31c-28.88,1.16-57.76,2.15-86.66,2.43-31.32.29-62.72-.05-93.93-2.8a345.28,345.28,0,0,1-43-6.61l-8.94-2a75.19,75.19,0,0,0-12.54-1.17l5.54.94-17.38-3.17a5.66,5.66,0,0,0-5.48,3.67,5.65,5.65,0,0,0,1.68,6.37,53.39,53.39,0,0,0,13,6.43A53.26,53.26,0,0,0-24.88,196.78Z" transform="translate(215.36 83.74)"/><path class="cls-3" d="M6.89,159.31a8.36,8.36,0,0,1,8.54-.27l-5.61-1.9c3.72,1.48,7.32,3.1,10.94,4.8,4,1.89,8,3.7,12,5.46l17.84,3q13.56,2,27.24,3,13.95,1.32,27.95,1.79c12.67.47,25.34.67,38,.72,32.11.11,64.22-1.26,96.29-2.72,34.06-1.54,68.14-3.2,102.18-5.19,29.9-1.75,59.75-4.13,89.42-8.31,14-2,27.95-4.39,41.84-7.26,12.12-2.49,24.21-5.07,36.41-7.1,11.54-1.91,23.32-3.59,35-3.73,9.83-.12,19.64.42,29.45,1.11s19.8,1.52,29.73,1.7l12.32,0a174.5,174.5,0,0,0,25.7-2.63c3.17.21,4.67-1.26,4.5-4.43a28.87,28.87,0,0,0-9.2-14q-10.6-11.77-22.21-22.55a28.84,28.84,0,0,0-13.87-9.41,162.51,162.51,0,0,1-18.16,1.53q-9.28.55-18.61.37c-10.7-.08-21.39-.42-32.09-.48a415.9,415.9,0,0,0-75.78,6.6c-11.82,2.1-23.58,4.57-35.39,6.71-13.75,2.5-27.62,4.25-41.5,5.83-31.95,3.65-64.1,5.24-96.19,7q-46.33,2.49-92.73,4.07C156.54,124.12,122,125,87.53,124,72,123.52,56.46,122.76,41,121.37q-13.8-1.07-27.5-3.13l-19.21-2.72c-6.44-1.12-12.84-2.4-19.28-3.49l-5.74-1a13.71,13.71,0,0,0-11.46,2.08q-2.06,4.84,2,8.79a133.65,133.65,0,0,0,13.85,13.49q8.87,8.18,18.43,15.54A29.66,29.66,0,0,0,6.89,159.31Z" transform="translate(215.36 83.74)"/><path class="cls-3" d="M-49.25,142a154.18,154.18,0,0,0,23,10.13c2.74,1,5.5,1.86,8.29,2.69l-3.63-1.51c3.3,1.67,6.5,3.48,9.75,5.25q2.84,1.56,5.7,3.06L11,165.74a248.43,248.43,0,0,0,26.91,3.34q13.9,1.38,27.88,1.85c12.67.49,25.35.7,38,.74,32.2.1,64.41-1.36,96.58-2.89q51.24-2.44,102.45-5.39c30-1.76,59.94-4.18,89.69-8.44,14.18-2,28.2-4.53,42.22-7.5,12.19-2.6,24.36-5.25,36.65-7.36,11.53-2,23.32-3.75,35-3.88,9.75-.11,19.46.5,29.17,1.35s19.53,1.82,29.32,2.12l12.24.06A167.25,167.25,0,0,0,603,137.2a7.07,7.07,0,0,0,6.51-8.54,23.17,23.17,0,0,0-6.58-6.8,23,23,0,0,0-8.3-4.54,128.29,128.29,0,0,1-18.94,2,152.46,152.46,0,0,1-18.39.24c-8-.29-15.88-.89-23.81-1.49-12-.9-24.14-1.94-36.19-1.37a289.31,289.31,0,0,0-35.45,4.1c-12.23,2.11-24.35,4.72-36.5,7.25-13.89,2.88-27.81,5.26-41.85,7.21-32.48,4.5-65.17,6.81-97.89,8.61q-46.68,2.55-93.39,4.74c-32,1.48-64,2.65-96,2.65-18.77,0-37.74-.4-56.46-1.84l-18.33-1.61A117.8,117.8,0,0,1-4.37,143a29.15,29.15,0,0,1-10.57-3.31q-3.42-1.68-6.9-3.24L-25.69,135a17.91,17.91,0,0,1-9.65-2.47l3.77,1.36-20.7-9.55a6.72,6.72,0,0,0-7.19-.94A7.44,7.44,0,0,0-63,128.65,6.74,6.74,0,0,0-59.53,135,55,55,0,0,0-49.25,142Z" transform="translate(215.36 83.74)"/><path class="cls-3" d="M-22.3,139.34a96,96,0,0,0,11.41,2l-4.73-1C-8,143-.86,147,6.86,149.48q13.23,2.86,26.66,4.44,13.6,2,27.34,2.84c15.7,1.05,31.42,1.55,47.16,1.7,32.05.3,64.09-.78,96.11-2.21q51.48-2.31,102.92-5.17c29.8-1.71,59.61-3.72,89.22-7.55,14.53-1.88,29-4.15,43.37-7.05C451.86,134,464,131.31,476.28,129q10.62-2.11,21.38-3.29A175.84,175.84,0,0,1,518.55,124c9.9-.16,19.77.35,29.64,1.07s19.84,1.65,29.76,1.8h12.3a171.43,171.43,0,0,0,25.57-2.53q4.2-.39,4.32-4.6A18.76,18.76,0,0,0,613,108.48a217.36,217.36,0,0,0-18.1-17A18.81,18.81,0,0,0,583.25,85a148.12,148.12,0,0,1-18.33,1.56q-9.21.54-18.44.23c-8.29-.19-16.57-.6-24.86-.91a348.88,348.88,0,0,0-38.4.24c-12,.86-23.91,2.4-35.78,4.41s-23.85,4.52-35.75,6.91c-13.44,2.69-26.94,4.74-40.53,6.46-32.06,4.07-64.29,6.09-96.55,7.86Q228.32,114.3,182,116.2c-31.59,1.28-63.2,2.2-94.82,2-18.66-.1-37.57-.54-56.16-2.13l-18.3-1.76Q-.81,112.66-14.18,110a93,93,0,0,1-12.06-2.45q-4.52-1.19-9.08-2.14a155.7,155.7,0,0,0-16.2-2.49l4.79,1-7.94-2.06-4.82-1.08-3.13,1.52-.86,3.37a13.75,13.75,0,0,0,5.22,7.8A167.4,167.4,0,0,0-40,129.33a62.67,62.67,0,0,0,9,6.46A13.76,13.76,0,0,0-22.3,139.34Z" transform="translate(215.36 83.74)"/><path class="cls-3" d="M5.22,176.75,9,175.38l-5.8-1.18a23.49,23.49,0,0,1,6.65,2,63.43,63.43,0,0,1,6.46,2.91c3.81,1.82,7.61,3.55,11.58,5A55.79,55.79,0,0,0,48.46,188l18,2.19q13.89,1.44,27.83,2,14.15.87,28.32,1c32.07.48,64.12-.44,96.16-1.74,34.58-1.41,69.15-3.23,103.71-5.07,29.82-1.58,59.62-3.5,89.28-7,15.09-1.78,30.12-4,45.07-6.66,14.75-2.67,29.3-6.31,44.07-8.89a310.22,310.22,0,0,1,35.29-4.46,132.76,132.76,0,0,1,18.71-.25l11.68.64c11.82.72,23.62,2,35.47,2.16l12.32-.07a172.34,172.34,0,0,0,25.73-2.71c3.23-.05,4.57-1.68,4-4.86a30.39,30.39,0,0,0-11-13.33Q621.05,130,608,120.15a30.43,30.43,0,0,0-15.16-8.28q-9.15,1-18.34,1.32-9.32.5-18.64.47c-8.43.06-16.87,0-25.31.07a510.23,510.23,0,0,0-74.35,6.32c-11.89,1.85-23.71,4-35.56,6.11-13.38,2.34-26.82,4-40.32,5.51-32,3.48-64.16,5.26-96.31,6.9-62.14,3.16-124.43,5.71-186.67,5-18.69-.21-37.5-.74-56.15-2.08-15.47-1.11-30.87-2.83-46.29-4.5-9.27-1-18.47-2-27.78-2.7l-9.8-.68a40.47,40.47,0,0,0-6,3.31q-1.49,5,3,8.47A131.85,131.85,0,0,0-30.42,157.1q9.72,7,20,13.16A29.31,29.31,0,0,0,5.22,176.75Z" transform="translate(215.36 83.74)"/><path class="cls-3" d="M-52.72,174.93q11,3.54,22.1,6.43a23.6,23.6,0,0,1,4.89,1.48l-4.18-2,7.13,3.61-4.36-2.28q5,2.75,10,5.44a11.76,11.76,0,0,0,3.73,1.65,98,98,0,0,0,18.88,4.44l17.74,2.38c15.43,1.68,31,2.36,46.49,2.81,15.95.46,31.91.52,47.86.3,32.34-.45,64.65-2,97-3.61,30.72-1.54,61.46-2.84,92.16-4.83,30.21-2,60.48-4.46,90.39-9.27,11.18-1.81,22.29-3.9,33.39-6.16,12.26-2.49,24.48-5.13,36.82-7.19A256.74,256.74,0,0,1,502,164.49c9.51-.29,19.15.57,28.62,1.36,9.67.8,19.36,1.7,29.06,2l12.23,0a176.11,176.11,0,0,0,25.93-2.54c3.89-.52,6.7-5.92,5.11-9.44a26.33,26.33,0,0,0-15-8.13l-13,1.52a174.87,174.87,0,0,1-18.59.62c-7.91,0-15.79-.37-23.67-.86-9.64-.6-19.28-1.34-28.93-1.5a249.41,249.41,0,0,0-25.2,1c-12,1-23.94,3.27-35.75,5.51-12.46,2.37-24.89,5.06-37.39,7.2-27.14,4.65-54.48,7.73-81.93,9.85-26.79,2.06-53.64,3.29-80.48,4.59-29,1.39-58.08,2.86-87.13,3.88-28.82,1-57.68,1.62-86.52,1q-18.72-.41-37.42-1.57A250,250,0,0,1,5,176.3a114.29,114.29,0,0,1-24.9-5.24l3.57,1.19c-3.64-1.8-7.31-3.51-11-5.16a240.81,240.81,0,0,1-30.21-8.53,6,6,0,0,0-6.65.56,8.21,8.21,0,0,0-2.63,5.74,6,6,0,0,0,3.93,5.4A44.53,44.53,0,0,0-52.72,174.93Z" transform="translate(215.36 83.74)"/><path class="cls-3" d="M515.35,194.63A48.34,48.34,0,0,0,487,188.41q-7.72.38-15.46.12a197.16,197.16,0,0,1-31.25-4.17c-19.11-3.82-38.08-8.27-57.38-11a279,279,0,0,0-69-1.45c-29.62,3.16-58.65,9.87-87.68,16.32C197.65,194.55,169,200.8,139.69,203c-33.42,2.53-66.87-.33-100.24-2.31-35.74-2.13-71.5-4-107.23-6.18q-54.21-3.39-108.34-7.76c-3.55-.28-8.33,2.72-8.43,6.65a15,15,0,0,0,3.45,6.67,14.81,14.81,0,0,0,5.69,4.91C-94,211.56-12.57,215.91,68.91,220.6c22.14,1.27,44.4,2.66,66.58,1.32a417.22,417.22,0,0,0,47.91-5.75c17.14-3,34.11-6.94,51.1-10.72q16.6-3.76,33.26-7.3T301.28,192l-2.63.35L318,189.82l-2.64.31c9.51-.74,19-1.59,28.55-1.61,7.8,0,15.64.36,23.41,1,16.78,1.46,33.38,4.45,49.87,7.73,14.37,2.86,28.7,6.09,43.22,8.09a155.22,155.22,0,0,0,22.18,1.45q5.3,0,10.59-.15,16.54-1.32,31.43,8.38a6.84,6.84,0,0,0,6.47-8.57,34.7,34.7,0,0,0-15.71-11.86Z" transform="translate(215.36 83.74)"/><path class="cls-3" d="M488.52,175.6a41.68,41.68,0,0,1-15.3,3.15,110.41,110.41,0,0,1-15.75.49,242.05,242.05,0,0,1-31.11-3c-17.78-2.7-35.41-6.23-53.2-8.82-24.62-3.59-49.57-4.83-74.37-2.47-31.06,2.94-61.51,9.69-92,16.12-13.62,2.87-27.26,5.65-41,8.07A398.08,398.08,0,0,1,118.15,195c-33.94,1.79-67.95-.75-101.85-2.4C-53,189.28-122.22,185.41-191.37,180q-4.66-.56-4.77,4.14a27.67,27.67,0,0,0,8.07,14.28q9.62,12.15,20.3,23.36a27.64,27.64,0,0,0,13,10c67.69,4.69,135.45,8.19,203.27,10.07q28.59.78,57.19,1.11,14.76.21,29.53-.11,14.63,0,29.21-1.22c29.49-2.68,58.61-8.17,87.69-13.65,28-5.26,56.13-10.71,84.64-11.81,12.75-.49,25.53-.63,38.28.07,9.84.54,19.65,1.37,29.46,2.32,22.15,2.15,44.28,4.86,66.54,5.62,12.13.42,24.24.18,36.35-.47l11.45-.67a55.12,55.12,0,0,0,19.37-2.8q4.83-.36,3.75-5.08a30.47,30.47,0,0,0-11.66-12.72q-12.69-10.28-26.23-19.41A30.45,30.45,0,0,0,488.52,175.6Z" transform="translate(215.36 83.74)"/><path class="cls-3" d="M486.52,134.89l-10.41,2.36,4.37-.72a153.42,153.42,0,0,1-21,1.08,195.64,195.64,0,0,1-20.37-1.45c-10.23-1.19-20.4-3-30.55-4.78-23.26-4-46.74-8.2-70.36-9.29-36.49-1.67-72.59,4.91-108.14,12.41-16.66,3.51-33.27,7.26-50,10.51q-16.14,3.21-32.43,5.59-15.71,2.29-31.56,3.23l4.6-.18-23.47.77,4.62-.11q-18.66.08-37.3-.78-20.49-.89-41-2-35.73-1.85-71.45-3.77-72.33-4-144.54-9.6-4.14.81-3.84,5A18.7,18.7,0,0,0-188,153.63a214.61,214.61,0,0,0,19.68,15.09A18.77,18.77,0,0,0-156.16,174c69.76,4.49,139.63,7.79,209.53,8.84,34.43.52,69.05,1.2,103.4-1.64,16-1.33,32.15-3.93,48-6.49,16.3-2.64,32.55-5.63,48.84-8.29s32.64-5.32,49.08-6.94c13.28-1.3,26.55-2.06,39.89-2.25,21.95-.32,43.76,1,65.64,2.69,20.56,1.59,41.24,3.76,61.88,3.46,10.9-.16,21.72-1,32.55-2.09l10.25-1.1q7.17-1.12,14.28-2.63a4.56,4.56,0,0,0,2.29-5.89,16.13,16.13,0,0,0-9.76-7.32,180.16,180.16,0,0,0-21.07-8.21A16.11,16.11,0,0,0,486.52,134.89Z" transform="translate(215.36 83.74)"/><path class="cls-3" d="M517.19,169.2a82.67,82.67,0,0,1-16.29,2.53,108.69,108.69,0,0,1-15.83.59,246,246,0,0,1-31.26-2.72c-17.81-2.57-35.48-6-53.3-8.48-24.62-3.47-49.54-4.67-74.33-2.36-31,2.89-61.4,9.48-91.83,15.8-13.62,2.83-27.26,5.58-41,8a409.82,409.82,0,0,1-47.75,5.86c-34,1.84-68.07-.59-102-2.17-69.32-3.21-138.59-7-207.78-12.35-3.34-.14-4.74,1.44-4.17,4.74A34,34,0,0,0-157,193q12.52,12,26,22.91a34,34,0,0,0,15.67,9.44c67.26,4.17,134.61,7.2,202,8.14q28.15.39,56.32.14,14.55-.08,29.11-.65,14.51-.32,29-1.66c29.59-3,58.87-8.34,88.2-13.16,28.73-4.72,57.6-9,86.77-9.43,22.69-.37,45.26.72,67.89,2.27,21.32,1.46,42.69,3,64.07,2.72,11.58-.17,23.08-1,34.6-2.1l11.15-1.12a181.85,181.85,0,0,0,20.79-2.69q4.86-.94,3-5.54A32.35,32.35,0,0,0,563.76,191q-14.46-8.73-29.62-16.21A32.45,32.45,0,0,0,517.19,169.2Z" transform="translate(215.36 83.74)"/><path class="cls-3" d="M512.61,130.64a217.07,217.07,0,0,0-25.09,1.94l-10.36.23c-10,0-20.17-1.33-30.05-2.83-20.91-3.19-41.59-7.77-62.63-10.1a309.92,309.92,0,0,0-34.58-2.23c-7.48,0-14.93.32-22.4.78-28.65,1.78-56.71,7.36-84.77,13.21-29.26,6.1-58.52,12.44-88.25,15.8-35.74,4-71.89,1.33-107.69-.42C-25.12,143.5-97,139.71-168.76,134.19a5.82,5.82,0,0,0-6.71,2.2,5.83,5.83,0,0,0,1.11,7,76.61,76.61,0,0,0,14,10.22,77,77,0,0,0,15.49,7.79Q-45.7,168,53.62,170.78c18.08.51,36.17.93,54.26,1.11q14,.2,28-.23Q150,171.51,164,170.3c30-2.79,59.66-8.45,89.31-13.78,30.43-5.48,61.12-10.86,92.08-11.93,13.18-.46,26.37-.54,39.54.14,9.4.49,18.78,1.21,28.15,2.07,19.3,1.77,38.57,4.28,57.93,5.32A229.43,229.43,0,0,0,501.7,152l10.45-1a86.64,86.64,0,0,1,27-1.15,5.56,5.56,0,0,0,3.1-10.28,85,85,0,0,0-29.68-9Z" transform="translate(215.36 83.74)"/><path class="cls-3" d="M468.53,158.39A48.29,48.29,0,0,1,453,161.27a108.8,108.8,0,0,1-15.74.39,227.16,227.16,0,0,1-30.78-3.43c-17.58-3-35-6.79-52.64-9.53a293.91,293.91,0,0,0-74.3-2.52C248.25,149.3,217.63,156.34,187,163c-13.65,2.94-27.33,5.78-41.09,8.24A381.81,381.81,0,0,1,98.21,177C64.38,178.7,30.48,176-3.3,174.17c-69.13-3.66-138.24-7.6-207.26-13.07a4.72,4.72,0,0,0-4.8,4.11,14.89,14.89,0,0,0,4.78,10.64,164.17,164.17,0,0,0,14,16.37,14.83,14.83,0,0,0,9.77,6.38q101,7.46,202.22,11.27c18.88.72,37.76,1.36,56.65,1.79q14.63.41,29.25.2,14.48.09,28.9-1c29.67-2.56,58.89-8.27,88-14.13,28.45-5.73,57.14-12,86.19-13.54a343.46,343.46,0,0,1,38.37-.23c9.73.58,19.43,1.5,29.11,2.64,21.6,2.53,43.1,6.08,64.8,7.66a306.08,306.08,0,0,0,35.45.59l11.35-.6a69.61,69.61,0,0,0,19.37-2.45,4.49,4.49,0,0,0,3.68-5.13,16.47,16.47,0,0,0-7.78-9.61,186,186,0,0,0-18.67-13.38A16.5,16.5,0,0,0,468.53,158.39Z" transform="translate(215.36 83.74)"/><path class="cls-3" d="M494.07,195.25q-13.89-8.19-28.45-3.93a127.28,127.28,0,0,1-21.56-.66c-10.45-1.26-20.76-3.39-31.06-5.5-23.14-4.74-46.24-9.52-69.86-11.11a262.86,262.86,0,0,0-32.37-.3A408.59,408.59,0,0,0,260,180.11c-17.08,3.12-34,7-50.95,10.75q-16.51,3.7-33.11,7.1-16.06,3.3-32.29,5.69l2.67-.33-18.58,2.28,2.67-.33-15.74,1.2-19,.51c-15.49.18-31.07-.85-46.53-1.72Q9,203-31.13,200.73c-54.13-3-108.22-6.49-162.27-10.82a6.94,6.94,0,0,0-5.55,1.28,6.89,6.89,0,0,0-3.5,4.49,14.15,14.15,0,0,0,2.66,6.83,14.15,14.15,0,0,0,5.06,5.3q72.57,5.9,145.25,10.06c24,1.41,48.06,2.72,72.09,4.15,24.86,1.49,49.77,3.54,74.69,3.53q17.73.07,35.38-1.6,8-1,16-1.95c17-2.11,33.82-5.84,50.54-9.51,22.05-4.84,44-10.24,66.2-14.41q16.56-3.21,33.34-5.1,14.21-1.53,28.5-1.63l-2.64,0q11.75,0,23.44,1.06,11.38,1,22.68,2.84c12.81,2,25.51,4.64,38.21,7.25,12.93,2.67,25.89,5.7,39,7.18a133.31,133.31,0,0,0,23.8.74Q477,209.3,482.12,208l-2.66.6,22.87,8.54a6.61,6.61,0,0,0,7.18-8,38.64,38.64,0,0,0-15.44-13.87Z" transform="translate(215.36 83.74)"/><path class="cls-3" d="M536.71,163.09a66.4,66.4,0,0,0-30.26-1.25,171.77,171.77,0,0,1-20.67-.2c-10.19-.77-20.29-2.27-30.36-4-23.24-3.92-46.33-8.47-69.88-10.12a298.63,298.63,0,0,0-33.58-.79,412,412,0,0,0-50.17,5.39c-17,2.84-33.91,6.5-50.8,10.08q-16.59,3.6-33.24,6.93-16.17,3.24-32.48,5.68l3.87-.51-19.79,2.54,3.87-.48-15.67,1.39-18.79.72c-15.48.36-31.08-.43-46.55-1.13q-40.2-1.81-80.38-3.93c-54.16-2.78-108.28-6.06-162.35-10.21a5.82,5.82,0,0,0-6.84,1.64,5.83,5.83,0,0,0,.49,7,75.28,75.28,0,0,0,13,11.27,75.13,75.13,0,0,0,14.65,9q72.49,5,145.08,8.09,35.91,1.51,71.84,2.61c24.81.73,49.7,1.62,74.51.72,40.63-1.48,80.42-9.89,120.28-17.17,22.06-4,44.23-7.92,66.6-9.72a455.32,455.32,0,0,1,55.41-.63l-4-.22c15,1,29.83,2.45,44.72,4.23,10.7,1.28,21.39,2.67,32.12,3.72a301.46,301.46,0,0,0,31.8,1.7q10.71-.12,21.37-1.14a61.78,61.78,0,0,1,31.89,2.34,5.47,5.47,0,0,0,4.47-9.76,97.15,97.15,0,0,0-30.12-13.81Z" transform="translate(215.36 83.74)"/><path class="cls-3" d="M478.66,147.05a35.75,35.75,0,0,1-15,3.27,111.62,111.62,0,0,1-15.84.43,235.44,235.44,0,0,1-30.77-3.29c-17.57-2.88-35-6.51-52.64-9.14-24.64-3.66-49.63-4.78-74.45-2.3-31.25,3.12-61.88,10-92.54,16.53-13.66,2.9-27.33,5.71-41.08,8.12a389.43,389.43,0,0,1-47.66,5.77c-33.85,1.68-67.76-1-101.56-2.68C-62,160.26-131.12,156.38-200.16,151q-4.64-.09-4.38,4.55a26.31,26.31,0,0,0,9,13.2q10.35,11,21.68,20.89a26.38,26.38,0,0,0,13.53,8.49c67.45,4.36,135,7.55,202.57,8.71q28.29.5,56.6.38,14.61,0,29.2-.5,14.5-.22,29-1.5c29.5-2.86,58.69-8.18,87.89-13.1,28.52-4.8,57.2-9.4,86.16-10.16,12.87-.34,25.76-.39,38.63.2,9.8.45,19.58,1.11,29.36,1.84,21.61,1.59,43.25,3.44,64.94,3.35,11.64-.06,23.22-.76,34.8-1.8l11.16-1.05a35.07,35.07,0,0,0,18.25-3.7c2.93-.81,3.93-2.67,3-5.56a25,25,0,0,0-11.83-10.07q-12.53-7.53-25.75-13.81A24.93,24.93,0,0,0,478.66,147.05Z" transform="translate(215.36 83.74)"/><path class="cls-3" d="M501.77,146.17a43.76,43.76,0,0,1-20,3.8,176.2,176.2,0,0,1-21.06-.47l6.41.64-16.77-1.69,6.42.85c-10.85-1.48-21.6-3-32.38-4.88-8.86-1.54-17.71-3.15-26.59-4.56-18.8-3-37.8-5.22-56.86-5.23-54.94,0-107.8,16.78-161.56,25.68-10.63,1.77-21.3,3.32-32,4.49a394.49,394.49,0,0,1-53.47,1.68c-27.38-.75-54.74-2.41-82.1-3.76C-51.52,159.6-114.8,155.92-178,151q-5.27-.15-3.92,5a39.3,39.3,0,0,0,13.22,14.65q14.24,12.18,29.36,23.26a39.35,39.35,0,0,0,17.29,9.51c67.26,3.88,134.62,6.63,202,6.85,18.72.06,37.44-.17,56.15-.55q14.49-.27,29-1,14.46-.48,28.85-1.89c29.51-3.09,58.77-8.2,88.11-12.5,28.93-4.25,58-7.69,87.23-7.92,22.78-.18,45.49.79,68.23,1.81,21.21.94,42.46,1.67,63.68.54,11.31-.6,22.53-1.84,33.77-3.24l11-1.37a47.91,47.91,0,0,0,18.83-3.82q4.88-1.34,2.51-5.8a34.69,34.69,0,0,0-15.38-10.23q-15.76-7.6-32.11-13.9A34.61,34.61,0,0,0,501.77,146.17Z" transform="translate(215.36 83.74)"/><path class="cls-3" d="M532,181.15a60.81,60.81,0,0,0-32.79-4,113.64,113.64,0,0,1-15.44-.15,247.77,247.77,0,0,1-30.56-4c-23-4.19-45.84-9.32-69.17-11.47-24-2.2-48-1-71.81,2-17.14,2.21-34.08,5.89-51,9.48-22.14,4.7-44.2,9.66-66.44,13.9l3.23-.58c-13.29,2.17-26.48,4.21-39.89,5.36a411.34,411.34,0,0,1-45.24,1.08c-15.37-.38-30.73-1.3-46.08-2.14q-22.18-1.22-44.37-2.39c-60.09-3.25-120.15-6.85-180.16-11.56a5.68,5.68,0,0,0-6,1.89,5.67,5.67,0,0,0-1,6.2,39.49,39.49,0,0,0,8.42,9.22A40.06,40.06,0,0,0-146,201.17q63.5,4.76,127.08,8.12,36,1.92,72.09,3.54c21.45,1,42.9,2.08,64.36,2.59,21.13.5,42.15.3,63.17-2.11,14.63-1.67,29.12-4.22,43.58-6.93,19.26-3.62,38.39-7.83,57.61-11.61q16.57-3.35,33.27-6,16.25-2.6,32.67-3.64l-3.28.18,19.09-.82-3.29.1q11.73-.3,23.44.37,11.4.66,22.73,2c14.66,1.71,29.2,4.22,43.76,6.56,14.26,2.29,28.57,4.56,43,5.17a179.19,179.19,0,0,0,21.49-.33A60,60,0,0,1,549.63,204a5.83,5.83,0,0,0,5.44-9.25A63.56,63.56,0,0,0,532,181.15Z" transform="translate(215.36 83.74)"/><path class="cls-3" d="M470.44,172.51a54.36,54.36,0,0,1-15.73,2.86,98.08,98.08,0,0,1-15.8.44,225,225,0,0,1-31.07-3.52c-17.68-3.09-35.21-7-52.94-9.8A287.15,287.15,0,0,0,280.6,160c-31.18,3.2-61.72,10.37-92.29,17-13.63,3-27.28,5.83-41,8.29a376.82,376.82,0,0,1-47.69,5.84c-33.92,1.65-67.89-1.17-101.75-3-69.2-3.76-138.38-7.75-207.47-13.26a5.3,5.3,0,0,0-5.06,3.77,11.57,11.57,0,0,0,3.1,9.63,120.19,120.19,0,0,0,11,14.78,11.63,11.63,0,0,0,8.35,5.71C-124.89,214-57.5,218,9.94,221.31c18.88.94,37.76,1.88,56.65,2.6q14.66.65,29.32.64,14.5.33,29-.65c29.72-2.28,58.89-8.08,88-14.46,13.18-2.9,26.35-5.87,39.58-8.57,15.4-3.14,31.15-6,46.85-7.13a284.94,284.94,0,0,1,38.54-.65c9.74.6,19.43,1.63,29.1,2.95,21.64,3,43.08,7.39,64.78,9.94a269.19,269.19,0,0,0,35.89,2l11.59-.33a165.47,165.47,0,0,0,20.61-1.89A4.71,4.71,0,0,0,503.9,201a14.79,14.79,0,0,0-6.4-9.75,163.12,163.12,0,0,0-16.41-14A14.91,14.91,0,0,0,470.44,172.51Z" transform="translate(215.36 83.74)"/><g class="cls-4"><path class="cls-3" d="M1.15,209q17.45,2.12,34.73,5.31Q54.63,217,73.5,218.68c24.92,2.42,49.9,4.18,74.7,7.66q17.79,2.4,35.33,6.24,11,2.71,22,5.48c13.43,3.3,26.82,6.19,40.63,7.33,16.19,1.34,32.13.1,48.12-2.73,19.8-3.51,39.15-9.2,58.36-15,18.2-5.53,36.28-11.51,54.71-16.21q12.54-3.28,25.31-5.45a198.14,198.14,0,0,1,27.62-2.62l-6.42.18a162.76,162.76,0,0,1,22.41.71,162.65,162.65,0,0,1,21.65,2.66l14,3a231.06,231.06,0,0,1,26.83,8.42l6.47,1.3,4.14-2.11,1-4.53a18.4,18.4,0,0,0-7.23-10.27,226.11,226.11,0,0,0-24.89-20.59,83.93,83.93,0,0,0-12.29-8.36,18.35,18.35,0,0,0-11.73-4.49c-7.57-1.19-15.1-2.33-22.72-3.13A316.47,316.47,0,0,0,433,164.3c-10.36.19-20.77.59-31.09,1.53-11.5,1-22.84,2.94-34.17,5.1-19.28,3.67-38.43,8-57.75,11.37-21.32,3.75-43.08,6.71-64.77,6.63-8.3,0-16.59-.36-24.86-1-9.79-.8-19.55-2.43-29.22-4.13s-19.5-3.68-29.3-5.2c-8.2-1.27-16.43-2.39-24.63-3.65q-13.45-2.4-27-4.28-9-1.37-18.12-2.52c-15.11-2-30.26-3.83-45.35-6-11.82-1.71-23.64-3.51-35.36-5.84a217,217,0,0,1-24.11-6.09A78.14,78.14,0,0,0-33.65,146q-5.73-.76-6.84,4.9a27.71,27.71,0,0,0,7.05,17.36A327.31,327.31,0,0,0-13,196.73,27.69,27.69,0,0,0,1.15,209Z" transform="translate(215.36 83.74)"/><path class="cls-3" d="M-37.09,179.23A312.54,312.54,0,0,0-2,186.07q18.59,2.87,37.29,4.67c24.84,2.57,49.76,4.39,74.51,7.84q17.85,2.4,35.46,6.17,11.16,2.64,22.3,5.32c15.42,3.65,30.89,7,46.76,7.85,18.76,1,37.38-1.6,55.67-5.51,19.35-4.14,38.28-9.93,57.21-15.63,17.63-5.3,35.26-10.79,53.28-14.69a235.72,235.72,0,0,1,24.63-4.15,191.55,191.55,0,0,1,30.76-.95l-6.73-.29,21.59,1.46-6.75-.47a227.09,227.09,0,0,1,28.62,4.72,234.91,234.91,0,0,1,27.23,8.07l6.77,1.5,4.22-2,.92-4.61a20.4,20.4,0,0,0-7.86-10.7,254,254,0,0,0-26.57-21.73A93.92,93.92,0,0,0,464.26,144a20.38,20.38,0,0,0-12.34-4.91l-14.86-2.26q-11.31-1.53-22.7-2c-10.3-.55-20.57-.61-30.88-.26a334.81,334.81,0,0,0-39.12,3.26c-8.36,1.27-16.68,3-25,4.71C297.62,147,276,152.33,254,155.67c-19.62,3-39.28,4.77-59.14,4-8.34-.32-16.6-1-24.87-2.14-9.77-1.31-19.46-3.07-29.16-4.86-7.76-1.44-15.52-2.91-23.33-4.11-11.14-1.7-22.33-3.05-33.47-4.82-27.24-4.32-54.66-7.3-81.94-11.33-11.93-1.76-23.85-3.72-35.67-6.18-16.42-3.42-32.14-8.73-48-14.2q-6.06-.75-6.49,5.35a33.79,33.79,0,0,0,9.6,18.54q11.76,15.77,25,30.33A33.79,33.79,0,0,0-37.09,179.23Z" transform="translate(215.36 83.74)"/><path class="cls-3" d="M-43,115.89A178.71,178.71,0,0,0-3.34,153.33q17.77,1.24,35.6,1.13,19.13,1.68,38.27,3.25l19,1.58c24.16,2.12,48.63,4.67,72.25,10.37,12.77,3.09,25.25,7.16,38.1,9.9,14.28,3.05,29,4.84,43.59,3.85a238.7,238.7,0,0,0,25.31-3c17.85-3.11,35.23-8.06,52.49-13.53,18.93-6,37.69-12.54,56.64-18.49l-3.28,1c12.69-3.59,25.51-7.36,38.58-9.32l12-1.56a133.41,133.41,0,0,1,23-.68,90.36,90.36,0,0,1,14.79,1,142.47,142.47,0,0,1,21.4,3.49l13.71,3.63a217.53,217.53,0,0,1,26.21,9.83,12.59,12.59,0,0,0,11.11-9,14.93,14.93,0,0,0-3.85-7.75,14.92,14.92,0,0,0-6.79-5.35l-13.66-5.43A168.81,168.81,0,0,0,490,121.75a109.32,109.32,0,0,0-14.54-3.21,102.39,102.39,0,0,0-14.89-2.18,142.79,142.79,0,0,0-22.93-1.25l-15.77.91a213.11,213.11,0,0,0-30.79,5.6c-21.38,5.36-42.15,12.74-63,19.78-9.39,3.16-18.79,6.28-28.28,9.15q-10.68,3.33-21.61,5.74a189.85,189.85,0,0,1-21.55,4.21l3.37-.35-17.36,1.72,3.37-.28a145.54,145.54,0,0,1-25.39-.73,195.67,195.67,0,0,1-23.19-4.21q-11-2.73-21.9-5.88a244.17,244.17,0,0,0-28.41-6.44C122.75,140,98.12,138,73.52,136q-18.93-1.56-37.85-3.21A298.91,298.91,0,0,1,1,132.71l2.85,2L-32.72,99.58a5.1,5.1,0,0,0-6.09-1.73,18,18,0,0,0-7.25,4.28,5.09,5.09,0,0,0-1.44,6.16A20.66,20.66,0,0,0-43,115.89Z" transform="translate(215.36 83.74)"/><path class="cls-3" d="M.36,166.86l15.37-.37-5.15-.39q18,3.59,36.23,5.79L65.49,174c18.65,2,37.34,3.55,56,5.68,18,2,35.89,4.73,53.58,8.54,13.11,2.83,26,6.46,39.18,9.11a196.64,196.64,0,0,0,36.6,4.13q5.84.18,11.69-.05a147.53,147.53,0,0,0,21.08-2.17c31.28-4.71,61.41-15.12,91.55-24.37l-5,1.47c13-3.69,25.91-7.41,39.11-10.16s26.73-4.77,40.08-4.94a223.05,223.05,0,0,1,44.53,3.55l14.18,3a245.28,245.28,0,0,1,27.38,8.45q7.26,1.36,6-5.92a60.48,60.48,0,0,0-16.62-23q-18.3-19.86-38-38.39A60.56,60.56,0,0,0,464,92l-17-2q-12.72-1.29-25.49-1.52-21-.67-42,.42c-10.8.59-21.62,1.31-32.35,2.78C337,93.1,326.91,95,316.81,96.85c-17.36,3.18-34.69,6.61-52.16,9.19-18.2,2.68-36.78,4.62-55.21,3.83-17.31-.74-34.34-3.58-51.4-6.49-10.4-1.77-20.81-3.23-31.25-4.73-10.28-1.48-20.51-3.24-30.76-4.9-14.86-2.41-29.79-4.39-44.69-6.47-14.44-2-28.95-3.91-43.27-6.62-10.78-2-21.43-4.43-32-7.35A39.54,39.54,0,0,0-40.57,68.8q-7.8-.6-15.61-1.14-4.68,6.44-.29,13.94a384.25,384.25,0,0,0,20.7,40.14,386.34,386.34,0,0,0,24,38.27Q-7.57,167.6.36,166.86Z" transform="translate(215.36 83.74)"/><path class="cls-3" d="M-6.62,117.09l27.67,29.42,2.77,2.76,3.41.42q13.08-.15,26.15.53a184.9,184.9,0,0,1,19.53,1.3q9.6.91,19.2,1.76c15.59,1.42,31.18,2.67,46.75,4.13l-3.53-.41c18,2.16,36,4.45,53.74,8.51,11,2.52,21.71,6.18,32.69,8.78,21.62,5.12,44.05,7.38,66.13,4,29.78-4.55,57.95-15,86.25-24.89,11.19-3.93,22.39-7.82,33.75-11.26q9.57-3,19.34-5.31a192.68,192.68,0,0,1,24.55-4.26L448,133a176.18,176.18,0,0,1,30.64-.51,144.93,144.93,0,0,1,22.17,2.87,148.74,148.74,0,0,1,21.41,5,238.1,238.1,0,0,1,27.61,10.11c4.77,1.92,11.53-3.2,11.84-8a24.27,24.27,0,0,0-4.6-10.15,24.11,24.11,0,0,0-7.73-8,203,203,0,0,0-23.08-8.56,180.75,180.75,0,0,0-23.09-6.42,158.9,158.9,0,0,0-23.65-3.59,160,160,0,0,0-23.68-1.22,218.22,218.22,0,0,0-25.67,2.34A233.33,233.33,0,0,0,392.68,116c-24.26,7.92-47.55,18.5-71.74,26.6-12.55,4.21-25.33,8.34-38.45,10.36l-12.61,1.59a118.29,118.29,0,0,1-23.87-.46l3.5.5a190.3,190.3,0,0,1-23.2-4.22q-11.1-2.78-22.06-6.05a232.67,232.67,0,0,0-29.17-6.74q-13.5-2.48-27.15-3.89c-16.37-1.92-32.77-3.12-49.2-4.5q-19-1.68-38-3.66a162,162,0,0,0-34.38,1.35l6.18,3.18L-2.6,90.34a8.45,8.45,0,0,0-7.78,0A8.44,8.44,0,0,0-15.74,96a26.42,26.42,0,0,0,2.82,11.28A26.39,26.39,0,0,0-6.62,117.09Z" transform="translate(215.36 83.74)"/><path class="cls-3" d="M-70.35,156.71-31.49,184l3.54,1.85q13,1.13,26.12,1.36a161.71,161.71,0,0,1,18.41,1.11c25.18,2.23,50.42,3.93,75.52,7q13.58,1.5,27,3.93l17.37,3.53c7.23,1.74,14.34,3.94,21.51,5.86,7.37,2,14.8,3.87,22.32,5.24l11.91,1.79a114,114,0,0,0,19.27.88,81.81,81.81,0,0,0,13.9-.76,100.62,100.62,0,0,0,14.66-1.95c10.12-1.72,20.08-4,30-6.72,22.1-6,43.67-13.59,65.46-20.53,17.16-5.47,34.49-10.54,52.26-13.58a140.24,140.24,0,0,1,19.82-2,86.77,86.77,0,0,1,15.29-.21,89.48,89.48,0,0,1,14.8,1,142.9,142.9,0,0,1,21.41,3.53l-3.82-.94,17.53,4.59L469,178a222.65,222.65,0,0,1,26.25,9.59,5.8,5.8,0,0,0,7.07.22,15,15,0,0,0,5.4-6.47,5.8,5.8,0,0,0-1.47-6.92,30.32,30.32,0,0,0-8.22-6.86,304.41,304.41,0,0,0-29.2-10.15q-11.56-3.19-23.37-5.2a155.75,155.75,0,0,0-22.17-2.72L408,149.2l-15.71,1-12.09,1.58a265,265,0,0,0-31.69,7.31c-11.28,3.15-22.43,6.7-33.58,10.28-21.28,6.84-42.52,13.79-64.4,18.49-20,4.31-40.69,6.61-61.12,3.95-7.79-1-15.54-2.44-23.19-4.21-9.17-2.12-18.22-4.77-27.33-7.12-10.51-2.7-21.19-4.61-31.91-6.29-15.21-2.38-30.5-4.1-45.83-5.55-12.61-1.19-25.23-2.24-37.83-3.41a136.85,136.85,0,0,0-27.4-1.75q-12.6.27-25.17-.66l3.54,1.86-40.21-29a6.8,6.8,0,0,0-7.7-2.15A12.56,12.56,0,0,0-80,139.09,6.81,6.81,0,0,0-78.84,147,44.41,44.41,0,0,0-70.35,156.71Z" transform="translate(215.36 83.74)"/><path class="cls-3" d="M-25.78,213.46a171.69,171.69,0,0,0,20.54,5c3,.56,5.93,1.1,8.91,1.6,8.33,1.46,16.72,2.68,25.12,3.75,31.26,4,62.78,5.62,94,9.9,13.73,1.89,27.39,4.21,40.89,7.33,9.19,2.13,18.34,4.5,27.56,6.52a255.91,255.91,0,0,0,25.82,4.57c9.39,1.05,18.84,1.93,28.3,1.55,45.91-1.85,89.08-19.08,133-31,10.62-2.88,21.31-5.48,32.15-7.44a189.11,189.11,0,0,1,34.82-2.84,203.74,203.74,0,0,1,36,3.26l13.66,3a221.17,221.17,0,0,1,26.2,8.51,7.51,7.51,0,0,0,7.82-12,75.44,75.44,0,0,0-15.55-12.4,75.56,75.56,0,0,0-17.62-9.23A263,263,0,0,0,468,187.9a252.87,252.87,0,0,0-29-2.6,266.27,266.27,0,0,0-57.62,4.34c-17.8,3.32-35.33,7.92-52.93,12.14q-14.1,3.47-28.32,6.47-16.77,3.54-33.76,5.85l4.88-.71-19.35,2.17,5-.46-19.19,1.19,5.05-.19-18.89.15,5.12.08-18.5-.85,5.15.31c-8.15-.82-16.24-1.66-24.32-3-7.68-1.27-15.3-2.89-22.92-4.42-20.6-4.15-41.37-7.77-62.17-10.72-24.63-3.49-49.38-6-74-9.15C20,186.92,7.82,185.15-4.27,182.76A158.8,158.8,0,0,1-21,179a129,129,0,0,1-25.15-8.34,7.74,7.74,0,0,0-9.32.51,7.74,7.74,0,0,0-1.14,9.26,97.55,97.55,0,0,0,14,17.8A97.39,97.39,0,0,0-25.78,213.46Z" transform="translate(215.36 83.74)"/><path class="cls-3" d="M17.44,162.84q17.31,3.71,34.81,6.43Q66.07,171.43,80,172.8c18.7,2,37.45,3.56,56.17,5.5,21.06,2.18,42.23,4.67,62.9,9.4,11.2,2.56,22.3,5.53,33.52,8a217.47,217.47,0,0,0,35.8,5.3,198.62,198.62,0,0,0,27.06-.89c11.32-1,22.48-3.27,33.54-5.81,19.26-4.42,38.08-10.76,56.88-16.74L381.26,179c13.33-4.09,26.66-8.18,40.16-11.68q12.48-3.24,25.18-5.4a146.78,146.78,0,0,1,19.83-2.14,141,141,0,0,1,22.88-.27,164.49,164.49,0,0,1,22,2.38,167.71,167.71,0,0,1,21.36,4.23A236.55,236.55,0,0,1,560,174.84q6.21.94,6.53-5.32a36.88,36.88,0,0,0-10.17-19.38q-12.3-16.59-26.09-32a36.88,36.88,0,0,0-16.94-13.85,332.1,332.1,0,0,0-34-5.85q-17-2-34.06-2.38c-18.49-.44-37,.12-55.32,3.1-31.37,5.1-61.95,14.22-92.76,21.88l4.67-1.16-15.93,3.55,4.7-1-15.9,3,4.73-.8L263.47,127l4.75-.62-11.23,1a110.62,110.62,0,0,1-17-.07,208.05,208.05,0,0,1-22.68-2.65c-10-1.67-20-3.76-29.94-5.55-11.61-2.08-23.27-4-34.89-6-26.75-4.66-53.75-7.33-80.69-10.6-11.36-1.38-22.72-2.84-34-4.82C23,95.13,8.51,90.7-6,86.76q-5.6-2.37-7.74,3.31a33.15,33.15,0,0,0,3.92,20.26Q-3,128.56,5.48,146A33.05,33.05,0,0,0,17.44,162.84Z" transform="translate(215.36 83.74)"/><path class="cls-3" d="M-55,136.43q17.22,15,35.51,28.72a150.88,150.88,0,0,0,18.66,0H-4.78q18.88,2.7,37.87,4.3l28.62,2.47c18.59,1.61,37.14,3.39,55.6,6.15q13.31,1.8,26.43,4.68,11.16,2.52,22.24,5.35c11.28,2.82,22.53,5.69,34.08,7.21,19.64,2.58,39.28,1.24,58.73-2.09,15.24-2.62,30.15-7,44.93-11.51,19-5.77,37.81-12.37,56.77-18.38l-3.67,1.13c12.74-3.69,25.61-7.56,38.73-9.74l12.1-1.77a136.64,136.64,0,0,1,22.87-.9,185.89,185.89,0,0,1,36.36,3.85l13.81,3.36a219.81,219.81,0,0,1,26.4,9.3,9.33,9.33,0,0,0,9.93-10.3,31.28,31.28,0,0,0-7.74-10.1,31.49,31.49,0,0,0-10.38-7.37L485,136l-14.28-3.91a208.57,208.57,0,0,0-37.35-5.58A115.86,115.86,0,0,0,418,126a98.22,98.22,0,0,0-15.43.62,93,93,0,0,0-13.92,1.58,174.26,174.26,0,0,0-18.78,3.62c-19.16,4.61-37.91,10.75-56.71,16.62-11.66,3.64-23.33,7.21-35.14,10.36q-7.08,2-14.28,3.52-10.58,2.58-21.37,4.11l3.85-.46-17.8,2,3.87-.31-17.43.8,3.89-.17-12.57-.46-12-1.34c-7.64-1.1-15.22-2.77-22.74-4.52s-15.13-3.71-22.74-5.4q-19.27-4.29-38.82-7.13c-24.72-3.58-49.62-5.62-74.48-7.94-12.4-1.15-24.78-2.48-37.14-4.08A43.81,43.81,0,0,0-12.6,136.3q-7.43,0-14.84,0l8.16,3.43-40.39-34.21a7.85,7.85,0,0,0-8,1.19,7.87,7.87,0,0,0-3.66,7.17,38.09,38.09,0,0,0,6.58,12.4A38,38,0,0,0-55,136.43Z" transform="translate(215.36 83.74)"/><path class="cls-3" d="M-22.18,131.25.26,144l17,2.62c15.43,2.29,30.92,3.94,46.44,5.37,27.73,2.56,55.57,4.68,83,9.41,19.17,3.31,37.88,8.56,56.9,12.55,18.64,3.9,37.73,5.67,56.73,3.42,41-4.84,79.51-20.37,119-31.37a316.41,316.41,0,0,1,31.75-7.41l12.12-1.72,15.6-1.09,15.19.19a165.54,165.54,0,0,1,22.23,2.32A110.51,110.51,0,0,1,490.73,141a170.58,170.58,0,0,1,21.07,5.56l-5.95-2,19.53,6.84c3.73,0,5.84-1.85,6.34-5.55a24.49,24.49,0,0,0-7.87-15.62,281.26,281.26,0,0,0-21.49-24.53,24.39,24.39,0,0,0-14.44-9.86L472,92l-16.13-2.93A288.89,288.89,0,0,0,415,85.69q-8.13-.36-16.26.07a118.68,118.68,0,0,0-16.1,1,147.72,147.72,0,0,0-20.51,2.85l-12.42,2.61c-18.73,4.24-37.11,9.9-55.56,15.15-8.18,2.33-16.38,4.55-24.64,6.55a242,242,0,0,1-30.63,5.8,181,181,0,0,1-24.18,1.19,195.2,195.2,0,0,1-23-2.26c-9.69-1.42-19.3-3.66-28.89-5.61-8.17-1.66-16.38-3.1-24.6-4.55C124,106,109.9,103.57,95.67,101.7c-12.15-1.59-24.33-2.88-36.51-4.19-15-1.61-30-3.14-44.9-5.28q-8.56-1-17-2.85A170.81,170.81,0,0,1-25.56,83.9L-20.28,87-41.79,72.7-47,69.34l-4.56.45-2.79,3.65A16.33,16.33,0,0,0-52.15,85a195.41,195.41,0,0,0,13.79,26.7,72,72,0,0,0,7.54,11.59A16.29,16.29,0,0,0-22.18,131.25Z" transform="translate(215.36 83.74)"/><path class="cls-3" d="M14.52,188.31a130.9,130.9,0,0,1,25.22,2.78q9.06,1.75,18.22,2.8c15.61,2.1,31.27,3.55,46.95,5,15.51,1.46,31,2.91,46.47,4.85,14.87,1.87,29.85,4,44.46,7.38,16.86,3.93,33.52,8.71,50.66,11.31a172.77,172.77,0,0,0,31.56,2l14.11-1.07q8.47-.93,16.83-2.59c37.41-7.21,73-21.13,109.86-30.43,22.14-5.58,45-9.18,67.94-7.65a257.13,257.13,0,0,1,29.14,3.63,171.58,171.58,0,0,1,20.87,5.21A177.2,177.2,0,0,1,557,198.42q6.42.48,6-5.94a39.93,39.93,0,0,0-12.71-19q-14.55-16-30.45-30.59a40,40,0,0,0-18.91-12.8l-16.56-2.48q-12.4-1.64-24.9-2.11c-11-.59-22-.69-33-.4A362.61,362.61,0,0,0,386.2,128c-8.2,1.14-16.37,2.72-24.51,4.25-36.94,6.94-73.75,16.64-111.52,17.5a203.08,203.08,0,0,1-22.88-.74c-9.63-.86-19.15-2.33-28.67-4-8.06-1.41-16.1-2.94-24.18-4.23-11.52-1.84-23.07-3.45-34.57-5.41-26.72-4.54-53.64-7.49-80.47-11.3-11.35-1.61-22.7-3.35-33.95-5.61a220.72,220.72,0,0,1-22.69-5.84A43.43,43.43,0,0,0-17,109.79q-5.89-2.17-7.46,3.9a37,37,0,0,0,6.07,21Q-9.71,153.47.7,171.33A37,37,0,0,0,14.52,188.31Z" transform="translate(215.36 83.74)"/><path class="cls-3" d="M-58.5,183.75l28.35,14.73,16.57,2.21c12.66,1.67,25.32,3.18,38,4.41,28.15,2.72,56.37,4.71,84.35,8.92,10.69,1.61,21.34,3.5,31.87,6,7.31,1.71,14.6,3.53,21.89,5.34,17.83,4.42,36.16,7.82,54.62,7.33,20.42-.55,40.6-4.12,60.39-9,20.19-5,39.91-11.73,59.78-17.84,19.31-5.94,38.79-11.65,58.86-14.35a100.27,100.27,0,0,1,13.63-1.29,90.55,90.55,0,0,1,15-.37,93.83,93.83,0,0,1,14.41.81,148.83,148.83,0,0,1,20.9,3l-4.74-1.05,18.2,4.27-4.78-1.25,17.83,5.31-4.81-1.46L494.48,204l4.83,1.68,3.64-1,3.08-3a6.38,6.38,0,0,0,1.68-5.77A3.71,3.71,0,0,0,506,192a14.37,14.37,0,0,0-4.31-4.23,26.05,26.05,0,0,0-5.72-4.06,20.15,20.15,0,0,0-7.83-3.53c-6.61-2.14-13.17-4.17-19.91-5.87a231.35,231.35,0,0,0-27.74-5.24,215.64,215.64,0,0,0-36-1.7,237,237,0,0,0-27.23,2.9c-10.85,1.73-21.59,4.46-32.2,7.26-11.81,3.13-23.53,6.58-35.28,9.93-10.09,2.87-20.19,5.81-30.39,8.3a361.81,361.81,0,0,1-37.63,7.2c-20.27,2.74-40.83,3.16-61.08-.13-17.18-2.78-34-7.32-51.07-10.79-26.08-5.3-52.45-8.46-78.91-11.21-12.68-1.32-25.37-2.54-38-3.94-17.37-1.92-34.58-4.54-51.82-7.34l4.91,2.83-35.92-21.37a7.65,7.65,0,0,0-8.06,2,7.65,7.65,0,0,0-2.23,8,48.54,48.54,0,0,0,9.61,12.69A48.81,48.81,0,0,0-58.5,183.75Z" transform="translate(215.36 83.74)"/></g><g class="cls-4"><path class="cls-3" d="M423.74,47.33A148,148,0,0,0,388.62,28a60.88,60.88,0,0,0-11.8-2.34q-6.72-2.43-13.31-5.2a44.23,44.23,0,0,0-10.28-3.07,41,41,0,0,0-15.67-1,240.65,240.65,0,0,0-26.23,3.15c-10.11,1.7-20.19,3.63-30.26,5.53l3.5-.66c-12.86,2.27-25.66,4.39-38.67,5.43C229,31.16,212,30,195.19,28.14c-16.29-1.83-32.43-5.06-48.5-8.27C127.6,16.05,108.6,11.8,89.49,8.09,14.68-6.44-61.73-10.9-137.75-13.53A9.14,9.14,0,0,0-145-11.3a9.12,9.12,0,0,0-4.16,6.38,19.64,19.64,0,0,0,4.37,9,19.72,19.72,0,0,0,7.4,6.68c40.26,1.37,80.46,3.39,120.59,7C4.36,19.66,25.55,21.88,46.61,25c17.33,2.55,34.57,5.59,51.77,9,33.26,6.58,66.32,14.4,100,18.58a283.94,283.94,0,0,0,51.73,1.64c18.55-1.1,36.89-5.16,55.1-8.59l-3.5.64,16.65-3-3.51.61,13.11-2,12.89-1.2,12.05.23a49.65,49.65,0,0,1,10.89,2.73c5.13,1.7,10.15,3.71,15.31,5.34a8.17,8.17,0,0,0,5.64,1.08,17.37,17.37,0,0,1,11.17,2.62L391.61,51l32.57,18.8a7.66,7.66,0,0,0,8.58,1.32,11.29,11.29,0,0,0,5.3-6.55A7.65,7.65,0,0,0,435,56.41,54.86,54.86,0,0,0,423.74,47.33Z" transform="translate(215.36 83.74)"/><path class="cls-3" d="M377.24,15.19l-6.71,1.38A31.84,31.84,0,0,1,361.08,15c-4.38-1.18-8.68-2.63-13-4a92.73,92.73,0,0,0-17.65-4L318,6.77l-12.82.94c-11,1-22,3.07-32.86,5s-21.61,3.88-32.48,5.11a276.47,276.47,0,0,1-29.89,1.89l-16.87-.52q-12.54-.66-25-2.29c-25-3-49.63-7.76-74.31-12.46C68.09-.5,42.41-5.14,16.49-8.62-41.54-16.41-100-20-158.5-22.25q-6.18-.86-6.48,5.38A36.41,36.41,0,0,0-154.75,2.29q12.34,16.37,26.15,31.52a36.4,36.4,0,0,0,16.95,13.58C-57,50.1-2.46,54.16,51.85,61c57.34,7.18,114.17,18.62,172,21.8,25.08,1.37,50.25,1.92,75.21-1.21,18.38-2.31,36.65-5.43,55.11-7a235.46,235.46,0,0,1,24.63-.89,97.6,97.6,0,0,1,14.79.92l8.67.91q8.75.9,17.49,1.67A94.58,94.58,0,0,0,431,78a23.45,23.45,0,0,0,9.47-1q6.44-.23,5.28-6.55A40,40,0,0,0,431,52.92q-16.21-14.28-33.6-27.08A40,40,0,0,0,377.24,15.19Z" transform="translate(215.36 83.74)"/><path class="cls-3" d="M375-39.31l-7.13.88L373.8-39a52.9,52.9,0,0,1-12.71-2.43q-6.3-2-12.61-3.88c-10.63-3-21.34-3.76-32.38-3.41-17.69.58-35.2,4.33-52.59,7.33q-13,2.35-26,4a239.18,239.18,0,0,1-29.91,1.81l6.17,0q-12.6,0-25.14-1.1-12.39-.78-24.68-2.53c-10.88-1.48-21.72-3.27-32.54-5.15-32.72-5.7-65.17-12.87-98-17.85-63.88-9.66-128.5-13.53-193-15.92q-5.56.9-5.3,6.53a25.24,25.24,0,0,0,10.65,14.27,292.76,292.76,0,0,0,25.81,20.94,25.22,25.22,0,0,0,16.16,7.48C-63.42-26.14-14.56-22.47,34.16-17c43.94,4.93,87.63,12,131.6,16.58,20.09,2.12,40.22,3.59,60.43,4q17.25.29,34.5-.24,15.06-.52,30-2.54c17.05-2,34-4.54,51.17-5.91a340.76,340.76,0,0,1,44.62-.67l-6.14-.35c8.57.58,17.13,1,25.72,1.21q4.81.17,9.63,0,6.4-.63,12.79-1.38,4.84-2.44,3.41-7.69a21.86,21.86,0,0,0-12.72-10.43,245.53,245.53,0,0,0-27.91-12.39A21.84,21.84,0,0,0,375-39.31Z" transform="translate(215.36 83.74)"/><path class="cls-3" d="M415.74,7a68.61,68.61,0,0,1-14.68-.38l8.09,1.47C396.25,5.3,383.65.9,370.6-1.09c-7.4-1.13-15-.77-22.41-.22-8.73.64-17.36,1.8-26,3.16-19.36,3.05-38.68,7-58.25,8.38-25.35,1.85-50.93-.54-76-4.14C165.73,2.9,143.7-1.36,121.65-5.45c-25.88-4.8-51.82-9.12-77.93-12.38-55.09-6.89-110.54-10.26-166-12.47q-6.69-.43-5.7,6.19A45.49,45.49,0,0,0-113.25-4.59Q-96.87,11.79-79.2,26.78A45.51,45.51,0,0,0-58.56,39.87c54.8,3.26,109.47,7.87,164,14.34,56.22,6.68,112.26,15.56,169,16.72q17.72.36,35.43,0c13.08-.28,26-1.21,39-2.74,18.7-2.21,37.36-4.67,56.17-5.78,8.21-.48,16.4-.72,24.62-.69,7.46,0,14.9.39,22.36.46,12.75.13,25.46-.33,38.19-.91q6.51-1,4.31-7.23a43.15,43.15,0,0,0-17.83-15.72q-18.82-12.33-38.63-23A43.12,43.12,0,0,0,415.74,7Z" transform="translate(215.36 83.74)"/><path class="cls-3" d="M410.53-44.39q-9.63-1.34-19.34-1.94l8.12,1.45L385-47.8,393.29-46l-20.53-5.57-6.53-1.7a84.55,84.55,0,0,0-19.32-1.53l-12.83.8-13.22,1.59c-8.95,1.23-17.85,2.84-26.77,4.32-18.55,3.07-37.09,5.85-55.94,6a329.29,329.29,0,0,1-33.23-1.6c-13.56-1.26-27-3.31-40.47-5.59C142.61-53,120.9-57.42,99.1-61.37Q64.42-67.65,29.42-71.8C-22.85-78-75.38-81.16-127.95-83.26Q-133.51-85-137-80.58q-2.51,5,1.38,9.37A105,105,0,0,0-116.95-57a105.41,105.41,0,0,0,20.76,11C-41-43,14.17-38.75,69.09-32.11c28.67,3.47,57.18,8,85.77,12,24.74,3.46,49.5,6.59,74.47,7.81,24,1.17,48,.84,71.84-2.21,19.59-2.51,39.09-5.72,58.81-7.12a210.5,210.5,0,0,1,24.61-.44c6.54.29,13,1.05,19.49,1.71,4.35.44,8.71.8,13.08,1a86.77,86.77,0,0,0,9,0A53.87,53.87,0,0,1,445.88-17,7.64,7.64,0,0,0,453.53-22a7.65,7.65,0,0,0-3-8.6,86.29,86.29,0,0,0-19.4-8.71A86,86,0,0,0,410.53-44.39Z" transform="translate(215.36 83.74)"/><path class="cls-3" d="M350.87-8l-7,1,5.88.82L337.62-7.88l5.9.87c-4.33-1.19-8.6-2.47-12.87-3.84-5.39-1.73-10.78-3.24-16.25-4.65a49.53,49.53,0,0,0-6.48-1.4,30.75,30.75,0,0,0-9.85-.8,99.14,99.14,0,0,0-19,.82l-13.13,1.75c-19.64,2.93-39,7.31-58.79,9.27-24.43,2.42-49.21.69-73.45-2.91C111.72-12,90-16.5,68.18-20.86,42.63-26,17.06-30.72-8.76-34.23-66.82-42.14-125.37-45.56-183.9-47.71a6.33,6.33,0,0,0-6.52,5.32,19.39,19.39,0,0,0,5.93,14.19,212.47,212.47,0,0,0,17.93,22,19.42,19.42,0,0,0,12.71,8.67C-99.07,4.85-44.36,8.53,10,15.52c56.61,7.27,112.42,20.56,169.4,24.85,24.79,1.87,49.78,2.63,74.48-.65,18.61-2.48,37.08-6,55.78-7.83a107.13,107.13,0,0,1,12.14-.81,77.11,77.11,0,0,1,12.44,0,73.8,73.8,0,0,1,14.45,1.4l8.33,1.33c5.61.88,11.21,1.71,16.84,2.45a97.48,97.48,0,0,0,10.91,1.16,33.54,33.54,0,0,0,9.54-.29q5.31-1.16,5.23-6.59a21.8,21.8,0,0,0-9.69-13.26A244.78,244.78,0,0,0,366-1.6,21.81,21.81,0,0,0,350.87-8Z" transform="translate(215.36 83.74)"/><path class="cls-3" d="M394,48.25q-12.8-7.86-26.09-14.79A60.33,60.33,0,0,0,354,29.35q-6.74-2.52-13.41-5.17a61.36,61.36,0,0,0-13.83-3.66,92.36,92.36,0,0,0-15.69.07,238,238,0,0,0-26.22,3.13Q271.48,26,258.13,28.59q-13,2.49-26.11,4.2l3.55-.35L219.46,34l3.55-.34a183.49,183.49,0,0,1-25.79.28,216.44,216.44,0,0,1-24.92-1.86c-13.59-1.68-27.07-4-40.51-6.56C101.57,19.7,71.57,12.64,41.17,7.76-25.61-3-93.31-6.9-160.84-9.27a9.29,9.29,0,0,0-7.42,1.54,9.27,9.27,0,0,0-4.83,5.85,18.36,18.36,0,0,0,3.26,9.09,18.51,18.51,0,0,0,6.52,7.13C-113.91,16-64.54,18.54-15.39,24c18,2,36,4.33,53.82,7.3,22.71,3.78,45.22,8.66,67.75,13.36,22.15,4.62,44.41,9.47,66.92,12,17.18,1.92,34.57,3.22,51.85,1.76q8.09-.76,16.16-1.57,13-1.71,25.8-4.22Q280,50,293.09,47.7A231,231,0,0,1,319,44.55l-3.54.25a52.18,52.18,0,0,1,19.4,1.71q5.82,1.73,11.46,4,5.83,2.26,11.81,4.16a29.9,29.9,0,0,1,15.78,5l-4.32-2.28,23.93,14.34a8.56,8.56,0,0,0,9,2.6,10.3,10.3,0,0,0,5.85-6,8.57,8.57,0,0,0-2.93-8.9A67.64,67.64,0,0,0,394,48.25Z" transform="translate(215.36 83.74)"/><path class="cls-3" d="M441.65-1.14a52,52,0,0,0-25.91-6,87.75,87.75,0,0,1-12.25-3.16q-6.42-2-13-3.63a70.62,70.62,0,0,0-19.29-1.85c-14.92,0-29.63,2.06-44.32,4.48Q313.71-9,300.46-6.84q-12.72,2.1-25.57,3.19l5.2-.45a195.36,195.36,0,0,1-25.6.57q-12.53-.09-25-1.33c-16.36-1.47-32.69-4-48.86-6.85-30.52-5.42-60.86-11.79-91.51-16.46C23.53-38.15-42.78-42.48-109-45.06a6.54,6.54,0,0,0-5.08,6.71,18,18,0,0,0,8.59,12A194.56,194.56,0,0,0-83.92-10,18,18,0,0,0-70-5C-26.93-2.68,16.05.51,59,4.85l-5.44-.6,23.51,2.6-5.44-.61c29.1,3.54,58.09,7.75,87.05,12.29C189.31,23.34,220,28.14,250.92,30c23.81,1.41,47.7,1.34,71.39-1.54,10.84-1.32,21.62-3,32.44-4.46l13-1.73q12.68-1.62,25.45-2.17l-5.26.18c8-.09,16-.22,24,.69,5.87.67,11.7,1.74,17.55,2.51a133.48,133.48,0,0,0,13.68,1.27q3.09.12,6.19.14a49.25,49.25,0,0,1,25.3,6.55,7.71,7.71,0,0,0,8.44-3.78,7.71,7.71,0,0,0-2-9A93.31,93.31,0,0,0,462.22,7,93.28,93.28,0,0,0,441.65-1.14Z" transform="translate(215.36 83.74)"/><path class="cls-3" d="M363.83-23.4l-5.48,1.95,7.28.89-6.51-.89-6.49-1.7q-4.81-1.52-9.64-2.93-5.07-1.59-10.27-2.71a68.42,68.42,0,0,0-10.67-2.35,31.24,31.24,0,0,0-9.84-.66,109.32,109.32,0,0,0-19,1L280-29c-19.63,3-39,7.24-58.81,9.14-24.48,2.34-49.25.67-73.54-2.87-22-3.19-43.72-7.54-65.49-11.78-25.59-5-51.2-9.6-77-13C-53-55.29-111.54-58.79-170.09-61q-6.16-.27-6,5.89a34.93,34.93,0,0,0,11.43,17.92q13.32,15,28,28.62A35,35,0,0,0-119,3.23C-61.22,6.41-3.55,11,53.89,18.16,110.54,25.22,167.1,34.8,224.31,35.79c11.76.2,23.55.29,35.31,0,12.24-.31,24.29-1.65,36.41-3.12,18.58-2.26,37.13-4.71,55.8-5.95a279.26,279.26,0,0,1,29.22-.56c6.88.27,13.75.55,20.63.69,5.25.1,10.51.29,15.76.34a8.33,8.33,0,0,0,8.2-1.35q3-1.77,5.85-3.74,1.86-6.39-3.83-10.65A146.9,146.9,0,0,0,408.51-2q-12.19-8-25.12-14.79A33.09,33.09,0,0,0,363.83-23.4Z" transform="translate(215.36 83.74)"/><path class="cls-3" d="M394.27-24.43l-4.81,2.12,8.46.81-6.63-.79-6.7-1.61q-4.9-1.39-9.84-2.72-5.46-1.56-11-2.62a85.47,85.47,0,0,0-11.42-2.28,33,33,0,0,0-9.86-.58,112.83,112.83,0,0,0-19,1.06l-13.1,1.78c-19.57,2.94-38.91,7.13-58.64,9-24.64,2.33-49.54.72-74-2.73-22.11-3.12-44-7.38-66-11.56C86-39.45,60.32-44,34.39-47.43c-58.08-7.64-116.6-11.18-175.11-13.41-4.69-.27-6.5,1.87-5.41,6.45A52.79,52.79,0,0,0-129-34.29Q-110.39-17.43-90.56-2A52.73,52.73,0,0,0-67.8,11.38Q14.47,16.66,96.38,25.82c29.76,3.31,59.49,7.07,89.32,9.7,26.56,2.34,53.12,3.88,79.79,3.94,11.72,0,23.43-.18,35.14-.54,13-.39,25.9-1.37,38.83-2.77,18.84-2,37.66-4.07,56.59-5.2q12.48-.73,25-1.14c7.41-.23,14.83-.33,22.24-.73,5.19-.29,10.36-.73,15.55-1.08,3.5-.1,7-.33,10.46-.68a11,11,0,0,0,7.52-2.49q6.6-1.48,3.67-7.57A46.68,46.68,0,0,0,460.42,2.7Q439.69-8.39,418.14-17.75A46.71,46.71,0,0,0,394.27-24.43Z" transform="translate(215.36 83.74)"/><path class="cls-3" d="M445.05,27.28Q428.54,20,411.63,13.65a107,107,0,0,1-11.53-2.06q-6.35-2.12-12.66-4.32a87.8,87.8,0,0,0-13.72-3.56,112.57,112.57,0,0,0-24.89-.06q-8.74.75-17.44,2.06Q318.06,7.8,304.8,10.29q-13,2.43-26.13,4.23L283,13.9a157.13,157.13,0,0,1-21.22,1.71,183.31,183.31,0,0,1-25.35-.13,422.18,422.18,0,0,1-49.24-5.79C157,4.49,127.06-2.31,96.86-7.63c-69.3-12.2-139.76-16.54-210-19.23a7.61,7.61,0,0,0-8.06,2.41,7.6,7.6,0,0,0-1.48,8.27A53.51,53.51,0,0,0-111.54-3.7,53.55,53.55,0,0,0-97.9,5.94c43.13,1.87,86.22,4.45,129.16,8.88q31.35,3.24,62.51,8c19.88,3.05,39.65,6.69,59.44,10.29,16.7,3,33.41,6,50.22,8.46q16.89,2.46,33.91,3.73t34.25,1.08a305.63,305.63,0,0,0,34.32-3c17.32-2.52,34.55-5.58,51.89-8l-4.34.49,16.92-1.67-4.34.41a105.66,105.66,0,0,1,24,.71q7.14,1.35,14.16,3.21t14.12,3.21a72.54,72.54,0,0,1,12.7,1.58l-6.38-2.44L452.82,52.5A11.48,11.48,0,0,0,464,54.38a8.38,8.38,0,0,0,4.5-7.11A11.47,11.47,0,0,0,462,38,106,106,0,0,0,445.05,27.28Z" transform="translate(215.36 83.74)"/><path class="cls-3" d="M353.62,11.13a45,45,0,0,1-13.8-.17l5.44,1c-4.45-1.26-8.84-2.59-13.23-4-5.39-1.76-10.78-3.32-16.24-4.82a40.27,40.27,0,0,0-6.24-1.42,30.26,30.26,0,0,0-9.86-.85,94.12,94.12,0,0,0-19,.81L267.63,3.43c-19.6,3-38.93,7.44-58.68,9.42-24.51,2.44-49.41.66-73.72-3C113.16,6.47,91.31,1.9,69.44-2.56c-25.57-5.2-51.17-10-77-13.55-58-7.95-116.59-11.3-175.1-13.39a7.21,7.21,0,0,0-6.85,4.89,15,15,0,0,0,3.72,12.73,153.07,153.07,0,0,0,14,19.62A15,15,0,0,0-161,15.39C-103.09,17.52-45.18,21,12.19,29.1c26.69,3.79,53.14,8.87,79.6,14,29.58,5.71,59.36,11.5,89.45,13.83,11.81.91,23.68,1.59,35.53,1.64a236.61,236.61,0,0,0,36.55-3.11c18.56-2.83,36.95-7,55.66-8.73a89.1,89.1,0,0,1,18.47-.25,40.52,40.52,0,0,1,10.36,1.1c7.08,1.31,14.06,3.05,21.1,4.52,3.77.79,7.55,1.56,11.34,2.26a46.88,46.88,0,0,0,8.65,1.26q5.82.44,11.6,1.32a6.31,6.31,0,0,0,5.73-6.17,19.58,19.58,0,0,0-7.87-13.29A217,217,0,0,0,367.46,18,19.6,19.6,0,0,0,353.62,11.13Z" transform="translate(215.36 83.74)"/></g></g></svg>