<svg id="Layer_1" data-name="Layer 1" xmlns="http://www.w3.org/2000/svg" viewBox="0 0 1920 669.75"><defs><style>.cls-1{fill:#29abe2;}</style></defs><path class="cls-1" d="M1917.09,443.62c-37.3,1.57-72.95-13.54-108.79-24s-76.71-15.74-108.66,3.56c-12,7.26-22.36,17.81-35.81,21.88-26.34,8-52.3-11.17-78.68-19-76.8-22.87-154,51.46-233.3,39.65-55.81-8.32-104-58.58-159.58-49.07-29.42,5-54.12,26.44-83.59,31.09C1066,454.46,1026.25,425,983.45,419c-70.1-9.82-136.46,43.92-207,38.19C719,452.5,666.23,408.7,609.56,419.28c-34.26,6.4-63.26,32.18-98,35-47.34,3.85-88-35.51-135.22-40.55-63.4-6.76-120,49-183.66,45.71-32.16-1.68-61.39-18.33-92.4-27s-69.91-6.63-88.22,19.86L0,467.54V1080H1920V444.53l-3-1" transform="translate(0 -410.25)"/></svg>