<svg id="Layer_1" data-name="Layer 1" xmlns="http://www.w3.org/2000/svg" viewBox="0 0 431.16 155.52"><defs><style>.cls-1{fill:#005780;opacity:0.89;}</style></defs><path class="cls-1" d="M1,288.83V432.54H432.11V297.84A56.19,56.19,0,0,0,414.86,288c-16.49-6.11-33.12-5.13-39.32-4.71-13,.87-23,3.95-31,6.43-9.73,3-8.81,3.74-15.87,5.58-16.44,4.28-31.94,3-36.56,2.57-6.05-.55-6.49-1.08-31.05-6.86-17.41-4.1-26.11-6.15-31-6.87-7.94-1.15-23.22-3.27-41.39-1.28-12,1.31-11.3,2.88-33.11,7.29-19.47,3.93-29.2,5.9-40,5.15-2.95-.21-6.5-.61-32.42-8.15-27.93-8.13-29.52-9.31-35.87-9.87C36.75,276.34,21.52,277.82,1,288.83Z" transform="translate(-0.95 -277.03)"/></svg>