<svg id="Layer_1" data-name="Layer 1" xmlns="http://www.w3.org/2000/svg" viewBox="0 0 1920 430"><defs><style>.cls-1{opacity:0.48;}.cls-2{fill:#00a7bf;}.cls-3{opacity:0.75;}.cls-4{fill:#20b2c7;}</style></defs><g class="cls-1"><path class="cls-2" d="M1917.09,671.42c-37.3,1-72.95-8.69-108.79-15.39s-76.71-10.11-108.66,2.28c-12,4.66-22.36,11.43-35.81,14.05-26.34,5.12-52.3-7.17-78.68-12.21-76.8-14.69-154,33-233.3,25.45-55.81-5.33-104-37.6-159.58-31.5-29.42,3.23-54.12,17-83.59,20-42.7,4.32-82.43-14.61-125.23-18.46-70.1-6.3-136.46,28.2-207,24.52C719,677.12,666.23,649,609.56,655.8c-34.26,4.1-63.26,20.65-98,22.47-47.34,2.47-88-22.8-135.22-26-63.4-4.35-120,31.48-183.66,29.34-32.16-1.08-61.39-11.77-92.4-17.35S30.37,660,12.06,677L0,686.78V1080H1920V672l-3-.64" transform="translate(0 -650)"/></g><g class="cls-3"><path class="cls-4" d="M1732.08,844.47c.91-.21.37-.6-2.14-.32l-1.74.8Z" transform="translate(0 -650)"/><path class="cls-4" d="M1715.07,844.85c-2.91.7-6.22,1.7-4.22,2.06,2.81-1,3.55-.84,6.6-2a19.82,19.82,0,0,1,3.09-.3c.74,0,1.11.14.91.27.88-.24,3.92-.15,5.24-.67a37.76,37.76,0,0,0-5.52,0,49.39,49.39,0,0,0-6.23,1.08C1714,845.29,1714.87,845,1715.07,844.85Z" transform="translate(0 -650)"/><path class="cls-4" d="M1474.05,853.77l1.48.62C1475.13,854.2,1474.63,854,1474.05,853.77Z" transform="translate(0 -650)"/><path class="cls-4" d="M1324.19,826.76a5.86,5.86,0,0,0,1.69-.39C1324.8,826.57,1323.92,826.74,1324.19,826.76Z" transform="translate(0 -650)"/><path class="cls-4" d="M1298.38,832.52l1.49-.47A8.27,8.27,0,0,0,1298.38,832.52Z" transform="translate(0 -650)"/><path class="cls-4" d="M1474.05,853.77l-3.79-1.58C1469.92,852.3,1472.19,853.05,1474.05,853.77Z" transform="translate(0 -650)"/><path class="cls-4" d="M1682,852.83c.82-.23,1.5-.46,2.11-.69l-2,.56A.5.5,0,0,1,1682,852.83Z" transform="translate(0 -650)"/><path class="cls-4" d="M1538.83,871.91l1.23.18c.37,0,.72-.06,1-.11Z" transform="translate(0 -650)"/><path class="cls-4" d="M1590.09,871.67a3.14,3.14,0,0,0-1.9,1.07,9.54,9.54,0,0,1,2.47-.75C1590.67,871.88,1590.5,871.77,1590.09,871.67Z" transform="translate(0 -650)"/><path class="cls-4" d="M1670.12,853.47l1.4-.45Z" transform="translate(0 -650)"/><path class="cls-4" d="M1503,863.05a1,1,0,0,0-.39-.33C1502.62,862.79,1502.78,862.9,1503,863.05Z" transform="translate(0 -650)"/><path class="cls-4" d="M97.84,832.45s0-.06,0-.1C97.54,832.35,97.45,832.38,97.84,832.45Z" transform="translate(0 -650)"/><path class="cls-4" d="M38.71,822.24h.83c.09-.1.19-.2.19-.3Z" transform="translate(0 -650)"/><path class="cls-4" d="M1253.71,850.29l.2-.08C1255,849.66,1254.39,850,1253.71,850.29Z" transform="translate(0 -650)"/><path class="cls-4" d="M826.54,808.73c5-.62-7.8,2.44-.33,1.31C825.47,810,832.71,807.66,826.54,808.73Z" transform="translate(0 -650)"/><path class="cls-4" d="M1680.63,853.08l-2.06.5C1679.51,853.37,1680.14,853.22,1680.63,853.08Z" transform="translate(0 -650)"/><path class="cls-4" d="M826.21,810h0l.77-.13Z" transform="translate(0 -650)"/><path class="cls-4" d="M1147.45,861a6.21,6.21,0,0,0,1,.48C1148.46,861.36,1148.23,861.24,1147.45,861Z" transform="translate(0 -650)"/><path class="cls-4" d="M1227.89,860.92l-2,.5C1226.72,861.24,1227.34,861.08,1227.89,860.92Z" transform="translate(0 -650)"/><path class="cls-4" d="M1106.44,850a27.9,27.9,0,0,0-2.81-1l.41.21A12.67,12.67,0,0,1,1106.44,850Z" transform="translate(0 -650)"/><path class="cls-4" d="M1064.81,834.47c.21.13.49.27.73.4l1.32.48Z" transform="translate(0 -650)"/><path class="cls-4" d="M230.59,858.44a11.44,11.44,0,0,1-2-.71C229.23,858.19,222.67,857.68,230.59,858.44Z" transform="translate(0 -650)"/><path class="cls-4" d="M1681.85,852.53a3.1,3.1,0,0,1-1.22.55l1.42-.38C1682.16,852.59,1682.17,852.5,1681.85,852.53Z" transform="translate(0 -650)"/><path class="cls-4" d="M1103.27,853.55l-6.65-2.45C1098.46,851.83,1100.89,852.7,1103.27,853.55Z" transform="translate(0 -650)"/><path class="cls-4" d="M544.31,811.09h-1.59A10.31,10.31,0,0,0,544.31,811.09Z" transform="translate(0 -650)"/><path class="cls-4" d="M1076.89,843.84a38.51,38.51,0,0,0-3.58-1.78,6.86,6.86,0,0,0-.82-.16Z" transform="translate(0 -650)"/><path class="cls-4" d="M228.57,857.72s0,0,0,0S228.59,857.72,228.57,857.72Z" transform="translate(0 -650)"/><path class="cls-4" d="M182.2,851.59c6.63,1.35,3.26-.08,4.74-.21,7.95,1.34,3.56,1.24,6.19,2.13,2.49.38,4.73.56,6.8.72s4,.35,5.82.65c.26.17,1,.32.1.34,5.34.33,15.67,2.31,21.93,2.24a3.08,3.08,0,0,1,.79.26c-1-.47-1.07-.86-.84-1.1,3,.29,5.63.09,6.72.68a9.56,9.56,0,0,0-2.9.05l3.18.1c1.39.44.31.45-1.13.34s-3.23-.27-3.25,0c6.19.45,13.42.3,18.15.71,1,.73-11.1-.33-4.8.59-2.45-.18-4.89-.52-7.32-.77,5.52,1.49-4.46-.42.6,1.12,4.83.5,7.56.52,10.27.57s5.43,0,10.27.21c2.18-.39-.72-.55,1.46-.94,6.86-.33,9.56-.11,11.84.22s4.1.52,9.12-.27c1.29-.35,2.16-.78,3.61-1.14a43,43,0,0,1,7.07-.92l-2.34,1.09c9.33-1.2,5.16-1.76,14.93-2.88-1.66.6-7.23,1.47-5.81,1.33,6.38-.45,4.38-1.14,9.17-2.07l1.12.48c9.79-2,20.34-5.12,30.92-8.16-.53.36-2.3,1.06.25.58,13.31-4,28.46-8.23,41.38-11.57l4.73-2c1.14-.32,2.18-.35,1,.11,5.06-1.2.16-.43,2.5-1.33,2.83-.85,3.84-.74,2.09-.06,2.17-.75,4.81-1.59,7.7-2.5s6.05-1.8,9.22-2.68a172.39,172.39,0,0,1,17.63-3.9l-1.81.57c7.39-1.34,8.05-3,15-3.76l-1.29.36c16.05-2.9,33.84-6,46.31-6.44,2.26-1.14,16.09-1.25,17-2.44,4.67-.07,6.34,0,8.48.05s4.76,0,11.31-.1c3.49-.13,5.18-.94,9.5-1.22l.13.61c2-.29,3.9-.53,5.84-.78l3.11.73c1.34,0,2.67-.07,4-.08-1.59-.09-3.39-.35-3.14-.53a52,52,0,0,1,9.95.68,18.6,18.6,0,0,1,5.19,1.34,48.7,48.7,0,0,1,13.77,4c-.4.08-2.58-.93-4.41-1.42,3.64,1.13,3.86,1.55,4,1.8s.27.44,3.46,1.95c-.74-.61.62,0,.82-.06,1.43,1.06,3.8,2.75,6.4,4.73l7.91,6.07-1.2-.41c2.18,1.76,4.45,3.57,6.86,5.34s5,3.4,7.68,5.06a106,106,0,0,0,17.2,8.14c-4.24-1.83-3-2.12.55-.86l1.18,1.15c2.39.47-3.57-1.62,1.23-.33,4.51,1.48,2.84,1.66.14,1l5.62,1.52c.27.28-1.06,0-1.47.11,2.36.39,9.6,3.19,13.15,3.05l.29.26c1.57.33,3.05.5,4.44.69l3.95.51,6.91.53,6.47.19c2.2,0,4.51,0,7.1,0,.19-.54,4.24-.61,7.29-1.19a161.67,161.67,0,0,0,25-2.69c3.14-.72,3.55-1,3.56-1.1s-.43-.17.93-.64c.29.2,2.65-.2,4.37-.48s2.8-.51.55.24l6.8-1.75,5.57-1.58c3.68-1.12,7.7-2.38,14.2-4.65-1.48.26-3.12.65-2.34.23,2.37-.81,5.48-1.53,5.22-1.17l-.62.25c14.48-5.45,34.15-10.23,45.4-15.09l-.64.27c4-1.53,7.9-3,11.88-4.47,5.59-1.65-3.22,1.41,1,.43,3.19-1.24,6.09-2.19,8.8-3s5.26-1.43,7.72-2.07,4.85-1.26,7.32-1.84,5-1.18,7.69-1.94c1.11-.06,2.4-.21,3.84-.43s3.06-.42,4.78-.72,3.54-.62,5.43-1,3.84-.77,5.84-1.07c4-.63,8.06-1.38,11.89-1.87s7.4-.77,10.33-.87l-.7-.27c3-.72,3.66-.16,5.89-.27-.34-.25-3.31-.06-1.45-.4l9.67-.87c3.24-.27,6.52-.33,9.81-.48l5-.18h5c3.32,0,6.65,0,10,.12,13.33.38,26.68,1.71,39.7,3.37a26.87,26.87,0,0,0,7.89.28,16.93,16.93,0,0,1,3.25,0,49.27,49.27,0,0,1,6.4,1.27l-3.5.07c2.41.31,4.82.65,7.25,1l3.64.56,3.62.71c4.84,1,9.7,1.93,14.47,3.2l7.17,1.79c2.38.64,4.73,1.34,7.08,2l7,2,6.91,2a14.38,14.38,0,0,1-3-.59,87.66,87.66,0,0,0,8.46,2.93c3.08,1,5.73,1.66,5.83,1.48,2.78,1,.53.57,2.19,1.37,3.71,1.61,9.75,2.89,11.6,4.09.31.2-1.12-.26-1.83-.48,2.55.69,11.48,4.38,9.32,3,6.61,2.79,12.91,4.68,18.15,7,3.71.76,11.41,4.66,12.83,4.25-.8.67,11.58,5.09,16,6.15-1.54-.24,3.64,1.59,1.83,1.35,2.47.84,4.85,1.6,6.52,2.06s2.65.59,2.29.23c8.8,4,18.69,4.81,23.58,7.49,7.59,1.69,15,3,22.18,4a198.6,198.6,0,0,0,21.29,1.9c-.14.22-1.17.27-2.64.25-.74,0-1.58,0-2.47-.09l-2.76-.23c-3.73-.28-7.28-.78-7-.26a161.55,161.55,0,0,0,17.13.79l3.94-.06,2,0,2-.08,4.32-.13,4.7-.24c3.42-.09-1.9.51-3.06.73a185.13,185.13,0,0,0,19.22-2.39,114,114,0,0,0,17.62-4.68,13.23,13.23,0,0,1-2.34.95c2.25-.65,5.21-1.52,4.83-1.82l-2.12.83c-1.85.29.26-.72,2.83-1.88a52,52,0,0,0,5.75-2.75c-1.65,1.21,1.12.33,3.58-.53s4.69-1.56,2.06.27c1.39-.63,3.1-1.51,2.67-1.64,2.11-.79,2.84-.92.84.25,7.57-3.39,4.68-2.67,11.56-5.62,0,.19-1.3.87-1.92,1.39a98.92,98.92,0,0,1,12.49-6.15c-.3.27.44.11-1.29.87,5-2.2,9.07-4.28,13.38-6.26,2.16-1,4.34-2,6.72-2.91s4.9-1.85,7.73-2.74c-1.51,1-.53.72.91.27s3.41-1,3.82-.72c2-.73,4-1.35,6-2l-2.54.32c1.33-.37,2.62-.75,3.88-1.14s2.51-.67,3.72-1a66.8,66.8,0,0,1,7.16-1.57c-1.34.34-2.65.77-4,1.15,3.36-.88,6.8-1.33,10.22-1.88l-5.87.56c5.51-1.19-.76-.84,6.63-1.71-.74.16.64-.06,2.58-.27a58,58,0,0,1,5.92-.11h0c1.37-.21,2.75-.48,4.32-.63s3.31-.15,5.38-.1c1.08.22-.85.84-.15,1a35.82,35.82,0,0,1,8-.37c3.36.08,6.8.09,8.54,0-1.16.05-1.24.44-.87.55l2.31-.31c2.57.38,2.93.49,2.49.77,3.86.37,3.27.09,2.86-.15-.21-.11-.37-.22.09-.22a25.25,25.25,0,0,1,3.82.54c-.72-.06-.39.06-1.9-.06,4.58.73,9,1.13,13.37,1.89,2.16.35,4.31.64,6.43,1.05s4.2.89,6.27,1.39c2.3,1.25-7.32-1.35-4.63-.14,12,2.27,25,4.92,36.31,8.63l-2.1-.72c1.9-.58,8.32,3.12,14.2,4.51-1.43-.4-2,0-1.61,0,7.69,2.74,15.9,5.06,27.66,8.95l-1.54-.26c4.45,1.84,11.88,4.43,16.76,6.27,1.55.27,4.35,1.28,2.77.31a128.28,128.28,0,0,0,21.9,7.47c7.22,1.88,14.26,3.4,21.14,5.45-1.67-.34-4-.59-2.71-.32,4,.76,8,1.46,12,2-.88-.62-1.55-.47-4-1.29.78,0,2,.1,3.45.21s3,.35,4.51.5c-5.45-.43-.06.77,2.27,1.28-.38-.19.45-.25.26-.41,3.12.77,3.42.5,4,.3a3.64,3.64,0,0,1,1.47-.22c.82,0,2.11.07,4.27.26l-.47.23c3.25,0,6.24-.19,9.73-.13.73.23-.13.36-1.21.4a6.88,6.88,0,0,0-2.47.23,26.39,26.39,0,0,0,3.67-.1l3.58-.42a35.71,35.71,0,0,1,6.89-.28c-2.08.23-5.08.34-7.16.56,2.43.23,3.79.29,5,.3a37.24,37.24,0,0,0,4-.17l-.35,0,8.34-.52-2.14,0a46.62,46.62,0,0,1,4.59-1.14c1.56-.33,3.17-.59,4.85-.84s3.43-.5,5.26-.81,3.71-.86,5.7-1.47c-7.74,2.36-1.22.74-1.71,1.45,2.11-.23,5.32-.65,4.45-.31,3.77-1.17,6.49-1,11.74-2.89.29.15,4.09-.92,3.34-.25,4.9-1.4-1.25,0-.89-.38,3.72-1.29,8.25-2.18,13.16-3.31a128.63,128.63,0,0,0,15.53-4.36c9.26-2.93,10.8-4.08,19.43-6.71,3-.47-2.23,1.32-2.23,1.32,4.82-.94,8.35-2,12.79-3.29-.87.39.11.3,1.52.18,3.59-.92,2.24-1.29,7.06-2.13a27.48,27.48,0,0,1-3.42,1.62l3.14-.93,3.15-.88c2.1-.59,4.23-1.18,6.42-1.74,1.24.08-2.56,1.07-4.07,1.63,4.9-1.32,12.82-2.78,14.28-3.6l-3.24.38c1.82-.35,1,.29-.31.62-4.2,1.16-6.2.92-6.48.8,1-.28,2.09-.5,3.14-.72-1.74-.32-4.9.44-8.41,1.37-1.75.48-3.6,1-5.4,1.5s-3.54,1-5.11,1.4l2.43-1.45-6.3,2.24c-1.43.13-2.48-.09.6-1-4.62.7-3.91,1.31-7.9,1.86-.45.05-.26,0,.12-.18l-4.33,1.4c.82-.4-.88-.38,1.85-1-8,1.62-12.53,4.05-15.66,4.25l.64-.23c-10.83,3.28-.89.88-8.89,3.82l-5.9,0-.92.88c-1.13.28-3.37.83-3,.49-4.09,1.53.78.06-1.56,1.1-5.57.88-14.95,4-16.42,3.32-1.87.9,5.31-.83-.46.8-1.9-.65-6.71,1.78-11.86,2.2,1.44-.82,6.26-1.46,1.14-1a23.07,23.07,0,0,1-6.52,1.51c-2.63.31-5.43.45-7.55.87,0,.18-.61.38-1.59.6a34.46,34.46,0,0,1-4,.62l-10.9,1.09a67.47,67.47,0,0,0-7.48,0c-1.08,0-2.21.06-3.35,0l-3.42-.19-6-.37.2-.11c-1.34.78-8.25,0-13.28-.56.26-.41,1.18-.42,3.92-.31-1.57-.18-3.14-.38-4.69-.63a26.1,26.1,0,0,1-5.67-.48l1.27-.33c-6.2-1-12.61-1.82-20.38-4.31-.58.37,5.91,3.09-2.53,1.13-.23-.35-.41-.89,1.8-.4a28.77,28.77,0,0,1-4-1c1.14.18,2.3.32,3.44.48-3.52-1.19-2-.13-4.81-1,.16-.36-2-.89-1.53-1.07a36.4,36.4,0,0,0,3.57,1.06c-1.6-.5-3.35-1.1-4.85-1.66a29.81,29.81,0,0,1-3.33-1.44c.21.3-.16.52-2.51-.19-6-1.94-1.92-1.1-5.36-2.47-1.54-.23-5.27-1.8-5.56-1.29a8,8,0,0,1-2.61-1.37c-3.19-.82-14.48-5.08-11.21-3.24l.78.33-.51-.16h0c-10.34-3.09-21-7.9-31.21-11l.08-.19c-6.14-1.8-13.58-4.25-18.09-5.11-1.81-.54-4.17-1.62-3.33-1.62-4.75-1.17-5.33-1.11-12.08-3.24,4.85.9-1.55-.76,4.94,1l-3.83-1.18c-1.1-.32-2-.59-3-.84a67.23,67.23,0,0,0-7.36-1.48c2.4,0-4.55-1.62-7.55-2.09l4.29,1.27c-3.34-.61-6.23-1.34-9.21-1.85l1.73-.37c-3.18-.76-6.25-1.32-9.2-1.74s-5.81-.53-8.56-.76c-1.37-.13-2.72-.15-4.05-.22s-2.64-.15-3.93-.26-2.56-.26-3.82-.41-2.51-.27-3.75-.49c-3.48.34,7.09.6,4,1-3-.16-6-.52-8.6-.86-1.27-.2-2.42-.28-3.37-.35s-1.7-.12-2.17-.11a29.41,29.41,0,0,0-8,.59,45.62,45.62,0,0,1-8.25,1.08c1.13.17,2.2.54-4.11,1.7-5.93.77-7.47.08-3.74-.65,1.43-.23,2.14-.26,2.09-.17,1.91-.36,4.43-.83,2-.74l-.74.34c-.75,0-1.83.16-3,.29s-2.43.24-3.51.48c-2.17.39-3.75.63-2.83.24-4.43,1.18-1.83.79,1.5.2-7.66,1.24-11.84,2.6-19.47,4.87,1.25-.25,2.44-.34,1.24,0-5.57,1.72-6.73,2.29-7.44,2.72s-.94.76-4.6,2.21c-4.28,1.32,1.16-1.41-6.07,1.84-4.54,1.66-1.2-.2.52-1.1-6.5,3.19-12.52,5-16.31,6.6l3.39-1.7c-2,1-3.72,1.76-5.45,2.52l2.17-.43c-2.07.82-3.79,1.57-3.83,1.37-2,1.21,1.92,0-2.07,2.24-2.8,1-8.16,3.8-9.35,3.6,8.63-3.42-1.19-.17,6-3.35-1.36.66-3.06,1.41-5.13,2.18-.34.06.24-.24.78-.5-8.4,2.86-3.47,2.26-12,5.57,1-.73-2.23.1-3.6.68,3.46-1.27,1.87,0-1.24,1.36a54.38,54.38,0,0,0-5.48,1.81c-1.16.43-2,.79-3.47,1.21l3.4-.87a13.59,13.59,0,0,1-2.81,1.15l-2.25.72-2.74.76c-.41-.18,3.56-1.09,2.11-.85a23.56,23.56,0,0,1-3.47,1c-.62.14-1.26.27-1.92.4s-1.34.19-2,.28c-1.39.19-2.83.38-4.3.63s-3,.41-4.55.76c-2.93.2-.37-.58-2.93-.42a36.58,36.58,0,0,1-7.35.69c-2,0-4,0-7.66.27,2.15.43,2.54.31-2.7.88,2-.11,4.08-.18,6.11-.31l6.09-.55-3.89.59c-1.3.2-2.6.42-3.91.54,1.85,0,3.79-.28,5.55-.43l2.47-.25c.74-.09,1.41-.17,2-.21-1.84.4-2.67.54-2.82.61s.4.14,1.3.23a48.34,48.34,0,0,0-7.67.36,44.36,44.36,0,0,1-8.27.12l.2-1.18c-2.19-.18-4.26-.22-6.3-.35s-4.09-.09-6.2-.23-4.32-.19-6.69-.48c-1.18-.12-2.42-.26-3.7-.43s-2.63-.43-4-.69l3.6.79c-1.59.21-7-1-10.67-1.6.41-.33-1.84-.87-3.33-1.47a26.77,26.77,0,0,1-4.19-.72c-2.21-.45-4.57-.94-5.17-.67-1.62-.56-3.23-1.17-4.83-1.79-8.87-2.64-10.51-1.77-19-4.61,2.69.41-1.09-1.07,4.7.43-2.84-.86-5.36-1.81-5.49-1.55-1.58-.75-8-2.11-10.48-3.38a17.56,17.56,0,0,1-4.92-1.15c-.31-.2.08-.18.08-.18-.08.19-5-1.54-2.42-.13-8.23-4.26-24.13-8.94-31.24-12.81L1046.42,828c.39,0,.08-.18,1.12.24-7.56-3.16-5.1-.69-13.74-4.19-4.28-2.17,4.79,1.31,2.07.1-.39-.83-3.07-1.7-6.35-2.73a91.05,91.05,0,0,1-10.09-3.39l1.47.38a49.66,49.66,0,0,0-8.29-2.44c-3.24-.74-6.83-1.62-10.61-2.66,0,0,.4,0,.09-.17-2.69-.33-6.51-1.05-10.57-1.89s-8.44-1.53-12.14-2.24c2.4,0,3.41.44,2.11-.36-3.33-.6.81,1-5.83-.18-2.1-.64-6.86-1.71-7.4-2.36l6.28,1c-3.09-1.25-8.13-1.4-11.43-2l.48-.25c-4.86-.61-7.34-.72-9.91-.86l-4.23-.28c-1.64-.09-3.61-.25-6.21-.52l1,.34a18.34,18.34,0,0,1-5.25-.37c-.59-.12-1.18-.26-2-.36a24.67,24.67,0,0,0-3.25,0l-1.67-.89-8.9-.08c-3.69.08-7.75.15-11.14.14a164.07,164.07,0,0,1,16.72-.59c-3.74-.36-12.75-.48-14.71-.14a40.23,40.23,0,0,1,4.91,0q-3.46.38-8,.48c-3,.11-6.4.26-10.13.27,1.3-1.69-19.46.12-24.94-.37-6.59.7-13.1,1.54-19.91,2.2l-10.42,1.39-2.7.38-2.72.49-5.59,1.06c5.61.15-4.42.87-3.24,1.89-3.5.78-4.82,1.13-5.16,1.1-3.58.59-7.18,1.09-10.76,1.75-1.29.16-.48-.12.6-.47s2.47-.68,2.27-.79c-1.93.39-3.08.69-3.83.83a5.76,5.76,0,0,1-1.35.14,8.6,8.6,0,0,0-3.28.35c1.14.15-2.49,1.3-6.87,2.32l6.26-1.1c-2.62.87-4.52,1.38-6,1.76s-2.71.6-3.89.82a47.12,47.12,0,0,0-9.92,2.87l3.22-1.42c-5.38,1.87-19.9,6.57-24.8,9.35-1,.2-2.36.32,0-.59-12.82,4.34-28,10.93-38.25,13.37l.89-.59c-2.37.82-4,1.84-7.12,2.41.12-.17.89-.57-.23-.26a76.88,76.88,0,0,1-9.53,3l2.66-1.07c-3.18.79-6,1.43-8.56,2.14s-4.95,1.29-7.24,1.93-4.54,1.18-6.88,1.73-4.79,1-7.51,1.42c0-.45-2.62-.41-5.82-.26s-7,.3-9.58.28l.17-.13c-3.77.2-7.25.16-10.58.24-3.32-.09-6.5,0-9.63-.24a112.13,112.13,0,0,1-19.24-2.38c-1-.38-2.24-.78-3.6-1.2l-4.41-1.55c-.79-.29-1.64-.52-2.46-.87l-2.55-1-2.66-1c-.9-.37-1.77-.82-2.68-1.23a85.85,85.85,0,0,1-19.84-12.39c1.6,1.43-.69.35-2.72-1.14-2.47-2.21-7.61-5.25-6.71-5.55l.94.75c-1.49-2.17-7.16-6.32-12.1-9l-1.31.48a37,37,0,0,0-11.13-4.94,62.45,62.45,0,0,0-13-1.93c-8.55-.41-16.12.16-20-.42-3.37.36-7.56.55-10.9,1l.15-.58c-9.37.39-14.06.59-25.6,1.82l2.32-.62a28.4,28.4,0,0,0-7.23,1.52,32.68,32.68,0,0,1-6.81,1.62l-1.9-.62c-11.31,1.38-22.87,2.38-33.83,5.15.16-.16.45-.46,2.26-.82-5.31.84-20.53,3.4-18.37,4.17-.29-.73-11.53,2.38-17.41,4.23l.8-.77a88.2,88.2,0,0,1-12,4.16c-1.68.38-1.58,0,.67-.49-5.6,1.21-4.17,1.66-10.93,3.24l2.39-1a37.71,37.71,0,0,0-8.18,2.91c-3.49,1.25-10.74,3-11.71,2.78a27.09,27.09,0,0,1-7,2.68c-.5-.05.68-.52,1.27-.76-9.53,2.44-13.82,4.78-20.47,6.11a1.86,1.86,0,0,0-1.18,0c7.5-2.11,13.53-3.89,13-3.68-.14-.49-6.21,1.21-1.6-.89-4.74,1.8-12.8,5-18.79,6.37a4.88,4.88,0,0,1-.83,0l.6-.22a34,34,0,0,0-3.72,1.1c-1.91.41-3.13.65-4.95,1.11-.8-.2-7,1.5-10.08,2.2.38.5-3.64,1.28.21.91-.49.08.56-.2,2.58-.71.45-.12,1-.26,1.28-.36L321,848l3.42-.83,4.13-1.08a35,35,0,0,1-8.23,2.26c-1.48.72-3.12,1.5-4.06,1.87-2.19.06-5.31.48-8.05.74a38.78,38.78,0,0,1-5.7.35c-2.33.49-4.88.95-7.48,1.44L287.18,854c-2.56.34-5,.69-7.19,1.07a55.27,55.27,0,0,0-5.58,1,9.5,9.5,0,0,1-4.15-.25,40.06,40.06,0,0,0,4.25-.47l-2.24.24-2.56.15-5.4.3c-3.5.1-6.49.27-7.15.64-6.84-.49,3.86-.59-5.55-.69l1.28-.19c-9.21-.86-16.71-.93-24.5-1.34a131.45,131.45,0,0,1-25.85-3.6,12.25,12.25,0,0,1,2.35.67c-23-4.52-47.52-9.08-69.9-15.3-6.38-1.69-7.19-1.37-11.19-1.91l-1.27-.9-6.87-.79c-9.65-1.54-16.26-5-28.64-6.15l1.5.67c-4.36-.89-13.93-2-13.13-2.35a8.58,8.58,0,0,1-3.19-.24l-.09-.33c-3.63-.36-7.28-.57-10.91-.83-4.2-.53-3.84-.81-4-1.12-.07-.15-.25-.31-1.19-.52a45.85,45.85,0,0,0-5.73-.68c-1.15-.06-2.55-.09-4-.1s-2.87.06-4.12.12c-2.49.11-4.19.28-3.33.43,1.85.11,4.72.44,4.84.76l-4.2,0c-.81.9-4,1.69,6.14,2.86l7.15,0c.75.2,1.5.43,2.24.65-2-.2-4-.3-6-.46a23.2,23.2,0,0,0,4.33.49c1.26,0,2.41,0,3.63,0a10.09,10.09,0,0,0,2.91.79c2.35-.07,4.7,0,7.06-.06.79.46-3.21.33,1.43,1.1,3.3,0-3-1.24,2.4-.77,3.33.91,2.29,1.09,6.31,1.32.52.33-.34.32-1.93.22,3.57.24,9.34,1.32,11.24,1.18,3.42,1.09,11.88,2,11.37,2.83a82.86,82.86,0,0,1,9.53,1.17c-6.08-.21,12,2.6,10.22,3.4,4.54,0,15.75,3.09,23.54,4.36a9.15,9.15,0,0,1-2-.28c4.31,1.08,5.5,1.64,8.24,2.46.73-.63,7.5.74,11.24,1.1,5.14,1.94-3.42.17-1.92,1.25-.13-.67,9.37,1.46,7.68.54,4,1.37,3.45,1,5.41,2.1.92-.81,3.82.67,7.33.79,5.81,1.71,1.33,1.24,7.89,2.26C188.06,852.42,182.2,851.59,182.2,851.59Zm156.38-4.83h0l-3.14.88Zm12.73-3.62-5.52,1.57c-.5-.06-.07-.39,1.22-.75C346.35,844.29,349.37,843.53,351.31,843.14Zm-27.95,3.56a10.21,10.21,0,0,1,3-.61l-3.51.95-.23.12A2.57,2.57,0,0,1,323.36,846.7Z" transform="translate(0 -650)"/><path class="cls-4" d="M319.89,848.28l-.83.24,1.24-.16L321,848Z" transform="translate(0 -650)"/><path class="cls-4" d="M1475.78,854.49l-.25-.1a4.77,4.77,0,0,1,.52.27C1475.88,854.57,1475.89,854.55,1475.78,854.49Z" transform="translate(0 -650)"/><polygon class="cls-4" points="529.78 161.37 529.76 161.23 528.61 161.39 529.78 161.37"/><path class="cls-4" d="M1545.44,875.38a4.24,4.24,0,0,0,.94.26A6.09,6.09,0,0,0,1545.44,875.38Z" transform="translate(0 -650)"/><path class="cls-4" d="M1577,875.93l4.47-.23C1579.57,875.77,1578.17,875.85,1577,875.93Z" transform="translate(0 -650)"/><path class="cls-4" d="M1601.16,873a1.19,1.19,0,0,0,.42-.33h0Z" transform="translate(0 -650)"/><path class="cls-4" d="M1230.55,864.06l-.9.29C1227.55,865.08,1229,864.61,1230.55,864.06Z" transform="translate(0 -650)"/><path class="cls-4" d="M1338.09,827.29c-1.2.2-2.37.4-3.62.56C1336.49,827.73,1338.05,827.62,1338.09,827.29Z" transform="translate(0 -650)"/><path class="cls-4" d="M1104,853.82s0,0,0,0l-.75-.26Z" transform="translate(0 -650)"/><path class="cls-4" d="M1329.23,828.45c1-.09,1.92-.21,2.78-.33s1.68-.17,2.46-.27c-.83,0-1.73.08-2.63.17S1330.05,828.28,1329.23,828.45Z" transform="translate(0 -650)"/><path class="cls-4" d="M1702.93,848.41l1.14-.18s0-.08.12-.12Z" transform="translate(0 -650)"/><path class="cls-4" d="M1704.19,848.11l1.26-.28A6.45,6.45,0,0,0,1704.19,848.11Z" transform="translate(0 -650)"/><path class="cls-4" d="M1708.09,847.21l-2.64.62A13.93,13.93,0,0,0,1708.09,847.21Z" transform="translate(0 -650)"/><path class="cls-4" d="M1671.8,855.17l-.31.29C1671.67,855.37,1671.78,855.27,1671.8,855.17Z" transform="translate(0 -650)"/><path class="cls-4" d="M1662.43,857.72c2.24-.58,5.72-1.08,8.81-2l.25-.23C1670.1,856.15,1664.46,856.79,1662.43,857.72Z" transform="translate(0 -650)"/><path class="cls-4" d="M1622.6,865.8l7.92-1.83c-1.43.14-3.31.31.26-.64C1620.68,865.2,1633,863.28,1622.6,865.8Z" transform="translate(0 -650)"/><path class="cls-4" d="M1597.91,870.77c4.26-.92-.1-.3.1-.46C1595.33,871,1594.67,871.09,1597.91,870.77Z" transform="translate(0 -650)"/><path class="cls-4" d="M1421.78,836l.57-.38C1419.06,834.84,1422.27,835.84,1421.78,836Z" transform="translate(0 -650)"/><polygon class="cls-4" points="1387.22 180.72 1390.38 181.59 1392 181.4 1387.22 180.72"/><polygon class="cls-4" points="1367.22 174.43 1368.71 174.49 1363.02 174.19 1367.22 174.43"/><path class="cls-4" d="M1072.38,836.84l.72.95C1075.27,838.5,1076,838,1072.38,836.84Z" transform="translate(0 -650)"/><path class="cls-4" d="M944.46,802.94a28.73,28.73,0,0,0-7.44-1C940,802.33,942.94,802.87,944.46,802.94Z" transform="translate(0 -650)"/><path class="cls-4" d="M565.26,810.11c.89.29,1.8.54,2.68.86-.81-.34-1.66-.61-2.48-.91s-1.69-.53-2.53-.78Z" transform="translate(0 -650)"/></g><g class="cls-3"><path class="cls-4" d="M1785.67,929.72c.57-.47,0-.62-1.75.25l-1,1.18Z" transform="translate(0 -650)"/><path class="cls-4" d="M1772.78,933.81c-2.09,1.09-4.48,2.54-2.85,2.6,2-1.39,2.63-1.33,4.72-2.88,1.88-.7,3.31-1.13,3.11-.74.58-.45,2.91-1.13,3.72-1.95a25.18,25.18,0,0,0-4.14,1.39l-1.09.5-1.15.47q-1.14.49-2.31,1.08C1772,934.39,1772.66,934,1772.78,933.81Z" transform="translate(0 -650)"/><path class="cls-4" d="M1582.27,916.27l1.19.4C1583.14,916.54,1582.73,916.41,1582.27,916.27Z" transform="translate(0 -650)"/><path class="cls-4" d="M1462.66,904.57a4.1,4.1,0,0,0,1.32-.37C1463.14,904.38,1462.45,904.54,1462.66,904.57Z" transform="translate(0 -650)"/><path class="cls-4" d="M1442.23,908.07l1.2-.24A4.59,4.59,0,0,0,1442.23,908.07Z" transform="translate(0 -650)"/><path class="cls-4" d="M1582.27,916.27l-3.08-1C1578.92,915.42,1580.76,915.82,1582.27,916.27Z" transform="translate(0 -650)"/><path class="cls-4" d="M1747.12,942.3a8.39,8.39,0,0,0,1.71-.47,13,13,0,0,1-1.62.35A.31.31,0,0,1,1747.12,942.3Z" transform="translate(0 -650)"/><path class="cls-4" d="M1633.75,929.56l1,.24a5.77,5.77,0,0,0,.85-.06Z" transform="translate(0 -650)"/><path class="cls-4" d="M1673.56,937.87a2.21,2.21,0,0,0-1.7.53,5.82,5.82,0,0,1,2-.07C1673.94,938.23,1673.84,938.08,1673.56,937.87Z" transform="translate(0 -650)"/><path class="cls-4" d="M1737.72,941.35c.38-.05.75-.13,1.12-.21C1738.55,941.2,1738.06,941.3,1737.72,941.35Z" transform="translate(0 -650)"/><path class="cls-4" d="M1605.59,921.9a.78.78,0,0,0-.3-.3C1605.27,921.67,1605.39,921.78,1605.59,921.9Z" transform="translate(0 -650)"/><path class="cls-4" d="M496.28,930.38s0-.06,0-.1C496,930.4,496,930.46,496.28,930.38Z" transform="translate(0 -650)"/><path class="cls-4" d="M450,940.6l.62-.21a.6.6,0,0,0,.05-.34Z" transform="translate(0 -650)"/><path class="cls-4" d="M1405.63,917.47l.17,0C1406.73,917.1,1406.2,917.27,1405.63,917.47Z" transform="translate(0 -650)"/><path class="cls-4" d="M1070.29,869.59c2,.12.41.36-.93.67s-2.41.65.57.56C1069.34,870.63,1075.26,869.58,1070.29,869.59Z" transform="translate(0 -650)"/><path class="cls-4" d="M1746.05,942.38l-1.67.25C1745.15,942.54,1745.66,942.46,1746.05,942.38Z" transform="translate(0 -650)"/><path class="cls-4" d="M1069.93,870.82Z" transform="translate(0 -650)"/><path class="cls-4" d="M1321.07,929.41a3.84,3.84,0,0,0,.85.3C1321.9,929.65,1321.71,929.56,1321.07,929.41Z" transform="translate(0 -650)"/><path class="cls-4" d="M1384.62,924.3l-1.57.3C1383.68,924.5,1384.18,924.4,1384.62,924.3Z" transform="translate(0 -650)"/><path class="cls-4" d="M1288.08,925a15.06,15.06,0,0,0-2.27-.58,2,2,0,0,0,.33.15A7.23,7.23,0,0,1,1288.08,925Z" transform="translate(0 -650)"/><path class="cls-4" d="M1254.57,915.54c.16.1.38.2.57.31l1.07.3Z" transform="translate(0 -650)"/><path class="cls-4" d="M599.66,907.38a7,7,0,0,1-1.66-.27C598.59,907.43,593.55,908.32,599.66,907.38Z" transform="translate(0 -650)"/><path class="cls-4" d="M1747.05,942a2,2,0,0,1-1,.39l1.16-.2C1747.3,942.08,1747.31,942,1747.05,942Z" transform="translate(0 -650)"/><path class="cls-4" d="M1285.7,929l-5.44-1.37C1281.77,928,1283.75,928.5,1285.7,929Z" transform="translate(0 -650)"/><path class="cls-4" d="M846.25,934.61l-1.28-.07A7.59,7.59,0,0,0,846.25,934.61Z" transform="translate(0 -650)"/><path class="cls-4" d="M1264.23,923.21a25.58,25.58,0,0,0-2.9-1.26,4.46,4.46,0,0,0-.66-.06C1261.85,922.35,1263.05,922.77,1264.23,923.21Z" transform="translate(0 -650)"/><path class="cls-4" d="M598,907.11h0Z" transform="translate(0 -650)"/><path class="cls-4" d="M562.34,914.83c5.16-1,2.28-1.2,3.29-1.84,6.13-1.47,3,0,5.14-.11,3.81-1,6.67-2.1,9.56-2.6.23.08.8,0,.17.29a72,72,0,0,1,8.15-1.78,80.88,80.88,0,0,0,8.68-1.77,1.92,1.92,0,0,1,.65.09c-.83-.25-1-.61-.88-.9,2.34-.35,4.28-1.1,5.23-.75a5.93,5.93,0,0,0-2.18.66l2.43-.57c2.3.36-3.32.73-3.25,1.24,2.38-.47,4.94-1,7.37-1.56a53.46,53.46,0,0,1,6.61-.92c.85.59-8.58,1.21-3.6,1.25-1.91.1-3.81.31-5.71.51,4.48.42-3.45.43.68,1,3.73-.49,5.82-.73,7.9-1.08s4.15-.64,7.89-1c1.65-.57-.61-.49,1-1.06,1.32-.23,2.45-.4,3.42-.51s1.79-.11,2.5-.11a21.74,21.74,0,0,1,3.28.27,16.78,16.78,0,0,0,7.07-.22c1-.3,1.68-.68,2.81-1a13.7,13.7,0,0,1,2.14-.37,31.54,31.54,0,0,1,3.39,0l-1.86.84c7.28-.18,4.11-1.25,11.76-1-1.35.35-5.72.45-4.61.5,5,.44,3.48-.55,7.28-.69l.8.66,12.13-.28,6.34-.15q3.19.09,6.42.23c-.48.18-2,.3,0,.63A138.51,138.51,0,0,1,701.26,904l8.42,1.17c1.37.23,2.75.35,4.07.66l3.91.81,4,.09c.91.16,1.65.54.64.49,4,.9.27-.33,2.24-.23,2.29.34,3,.84,1.47.77a136.2,136.2,0,0,1,27.44,5.69l-1.47-.2c5.65,1.72,6.76.53,11.92,2.51l-1-.18c12.33,3.65,26.14,7.07,35.48,10.34,2-.34,12.34,3.43,13.43,2.39,3.54,1.1,4.8,1.55,6.43,2,.81.26,1.72.52,3.06.87s3.13.74,5.69,1.29c2.75.51,4.23-.12,7.65.26v.63c1.58,0,3.15,0,4.73-.06l2.39,1,3.24.18c-1.28-.17-2.7-.56-2.49-.72,1.26.06,2.66.2,4,.38s2.76.29,4,.46a18.71,18.71,0,0,1,4.33.89c2,.05,4,0,6,0s4,0,6-.14a4.12,4.12,0,0,1-1.43.29l-2.42.14c3.19-.2,3.48-.11,3.7.07s.38.35,3.31,0c-.79-.13.42-.37.55-.49,2.92.42,9.56.13,14.46-.32l-.92.5A255.62,255.62,0,0,0,912.49,932c-3.56.38-2.87-.47,0-1l1.26.41c1.77-.75-3,.35.67-.88,3.64-.64,2.59.25.53.87l4.39-1.09c.3.13-.72.44-.94.73,1.75-.67,7.78-1,10.23-2.33l.3.13c1.21-.27,2.33-.57,3.39-.88l3-.84c1.87-.55,3.57-1,5.18-1.54l4.79-1.6c1.63-.54,3.36-1.08,5.26-1.79,0-.59,3-1.54,5.1-2.77,2.83-.91,5.78-2,8.89-3.09s6.26-2.51,9.54-4c4.44-2.4,1.13-1.06,3-2.33.57.33,6.93-2.92,3.78-.93,7.63-3.93,9.71-5.1,19-10.54-1.13.37-2.34.91-1.82.43,1.69-1,4-1.9,3.9-1.55l-.43.29a130.15,130.15,0,0,1,17.63-8.64c6.13-2.56,12-4.7,16.28-6.83l-.48.24c1.5-.67,3-1.32,4.55-1.91l2.29-.9,2.34-.79c4.4-1.11-2.51,1.09.81.51,2.5-.89,4.75-1.68,6.89-2.21s4.16-.84,6.11-1.2c1-.17,1.93-.36,2.89-.51l2.92-.36c2-.25,4-.56,6.11-1a41.82,41.82,0,0,0,6.79.17c2.7-.18,5.78-.18,8.93-.25,1.57,0,3.17-.13,4.75-.06l4.64.18c1.5.08,3,.15,4.31.28s2.61.39,3.74.62l-.49-.41c2.39-.12,2.83.48,4.55.72-.21-.3-2.52-.56-1-.61a189.08,189.08,0,0,1,30.41,5.34c10.14,2.61,20.2,5.79,30,9.07a16.83,16.83,0,0,0,6.12,1.2c1.37.08,3,.27,7.34,2.27l-2.78-.27c14.74,4.21,29.44,10.8,43.8,15.42a7.94,7.94,0,0,1-2.37-.51c2.81,1.58,11,4.11,11.23,3.76,2.19.85.39.52,1.68,1.2,2.91,1.36,7.77,2.13,9.21,3.15.25.17-.9-.15-1.46-.32,2,.52,9.18,3.22,7.46,2.06,5.27,2.12,10.39,3.16,14.6,4.86,3,.24,9.24,3.06,10.39,2.45-.63.73,9.43,3.37,13.06,3.66-1.23,0,3,1,1.53,1,4,1,7.75,1.47,7.14.89a38.66,38.66,0,0,0,5.47,1.43c1.81.36,3.63.48,5.32.67s3.28.34,4.69.59a16.14,16.14,0,0,1,3.7,1,202.73,202.73,0,0,0,34.57.08c-.17.46-3.21.63-6.15.8-1.47.12-2.91.08-4,.15s-1.7.18-1.58.42l3.74-.12c1.19-.08,2.32-.22,3.42-.33L1349,934l13.27-1.77c2.67-.26-1.45.61-2.33.89,10.29-1.78,19.89-3.44,28.73-6.18a9,9,0,0,1-1.85.7c1.77-.44,4.14-.91,3.84-1.25l-1.69.56c-3,.16,6.66-3.05,6.89-3.43-2.66,2,8.83-2.15,4.52.59,1.13-.39,2.52-1,2.18-1.17,1.73-.4,2.32-.4.67.38,6.19-2,3.85-1.78,9.5-3.39,0,.19-1.08.6-1.6,1a58.63,58.63,0,0,1,10.33-3.61c-.25.2.35.19-1.08.59,8.17-2.4,13.69-5,22.84-6.87-2.47,1.47,3.15-.45,3.8.17,1.61-.45,3.21-.93,4.83-1.32-.68,0-1.36,0-2,.06,4.29-.88,8-2.26,11.74-2.6l-3.15.85c2.68-.5,5.37-1,8.06-1.5-1.54.11-3.08.32-4.63.48,4.32-1.11-.63-.91,5.19-1.58-1.17.23,4.36-.58,6.68-.42h0a41.78,41.78,0,0,1,7.6-.93c.85.17-.62.88-.06,1a10.59,10.59,0,0,1,2.51-.5c1.1-.08,2.4-.15,3.72-.21a52.54,52.54,0,0,0,6.7-.59c-.91.14-1,.53-.65.62l1.79-.48c2,.2,2.33.29,2,.59,6.11.21-1.92-1,5.33-.44-.57,0-.3.11-1.49.17,1.82.05,3.6.21,5.37.29l5.23.23c3.44.2,6.8.53,10.12,1,1.88,1-5.84-.41-3.66.45l3.64.3c1.22.09,2.44.25,3.67.36,2.46.26,4.94.47,7.41.76,4.92.65,9.81,1.29,14.38,2.34l-1.7-.42c1.48-.79,6.75,1.83,11.46,2.41-1.15-.17-1.61.25-1.28.2,3.11.77,6.33,1.41,9.94,2.17l5.78,1.16,6.63,1.42-1.24,0c3.61,1.14,9.6,2.66,13.52,3.82,1.24.06,3.49.72,2.22,0,11.77,4.79,23.42,5.59,33.92,9.69-1.3-.34-3.15-.59-2.12-.32q4.63,1.13,9.31,2.16c-.62-.64-1.15-.58-3-1.42a35.45,35.45,0,0,1,6.19,1.06c-4.23-.75-.15.73,1.59,1.44-.26-.22.39-.21.27-.39,4.66,2,1-.71,7.53,1.38l-.41.16c2.51.48,4.87.64,7.54,1.28,1,.76-2.7-.32-3,.07,3.8.75,7.65.65,11,1.78-.82-.08-1.81-.23-2.8-.38s-2-.34-2.78-.44a30.61,30.61,0,0,0,6.83,1.93l-.27-.06,6.39,1.48c-.54-.14-1.08-.31-1.62-.47a29.66,29.66,0,0,1,7.58.47c1.32.21,2.69.45,4.14.62a42.41,42.41,0,0,0,4.63.22c-6.39.05-1.11.36-1.66.9,1.63.38,4.12.89,3.38,1,3.11-.06,5.09,1,9.5.66.18.21,3.29.32,2.55.75,4,.19-.92-.41-.56-.64,1.55,0,3.23,0,5,.17s3.68.32,5.67.51,4.06.24,6.19.28c1.07,0,2.15,0,3.25,0l1.65-.08c.55,0,1.1-.12,1.66-.2,3.83-.33,6.09-.67,8.27-1s4.28-.89,7.79-1.36c2.41.1-1.89.88-1.89.88a45.75,45.75,0,0,0,10.35-1.28c-.7.27.07.31,1.21.36,2.9-.47,1.82-1,5.66-1.48a15.59,15.59,0,0,1-2.73,1.37c1.69-.45,3.35-.93,5-1.42l2.52-.73,1.27-.36,1.27-.43c.5,0,0,.3-.75.64s-1.82.61-2.41.87c2-.43,4.46-1.29,6.61-2a21.91,21.91,0,0,0,4.45-1.84l-2.53.51c1.4-.42.86.24-.16.63-3.21,1.34-4.85,1.16-5.08,1l2.42-.81c-2.76-.27-9.86,2.62-14.94,3.44.65-.38,1.31-.72,2-1.16-1.67.55-3.37,1-5.06,1.48-1.14,0-2-.4.52-.89-3.67.11-3.16.79-6.33.73-.35,0-.2-.09.12-.16l-3.53.57c.68-.24-.64-.53,1.55-.61a57.36,57.36,0,0,0-7.82.73,17,17,0,0,1-4.86.12l.53-.07c-4.42.3-4.63.46-4.57.66s.42.51-2.93.82l-4.47-1.55-.88.6c-.92,0-2.73-.1-2.39-.35-3.42.23.58.3-1.42.58a70.49,70.49,0,0,0-7.84-.62c-2.61-.2-4.79-.46-5.24-1-1.62.31,4.17.74-.55.63-.62-.58-2-.67-3.68-.71a27,27,0,0,1-5.71-.63c1.3-.38,5,.39,1.11-.6a14.43,14.43,0,0,1-5.25-.41c-2-.41-4.17-1-5.87-1.2-.13.35-2,.13-4.48-.25s-5.67-1.09-8.5-1.49c.2-.08-2.42-.66-5.71-1.49s-7.28-1.76-9.83-2.52l.18-.08c-1.16.47-6.47-.87-10.36-1.74.25-.39,1-.38,3.13,0l-3.63-.92a20.8,20.8,0,0,1-4.46-.67l1.06-.3c-4.84-1.22-9.89-1.92-16-4-.48.4,4.56,2.72-2.09,1.26-.17-.33-.29-.85,1.46-.49a20.47,20.47,0,0,1-3.17-.75l2.74.26c-2.77-1-1.58,0-3.82-.68.15-.37-1.6-.73-1.19-.94a24.5,24.5,0,0,0,2.83.78,42.47,42.47,0,0,1-6.48-2.4c.16.27-.14.51-2,.05-4.82-1.3-1.52-.91-4.28-1.88-1.24-.05-4.24-1.16-4.48-.62a5.23,5.23,0,0,1-2.1-1c-2.56-.43-11.7-3-9-1.69l.63.21-.42-.08h0c-4.17-.82-8.42-2-12.65-3.16s-8.46-2.39-12.61-3.14l.05-.19c-2.48-.42-5.21-1-7.79-1.49s-5-.84-6.79-1c-1.46-.3-3.39-1-2.72-1.11a72.06,72.06,0,0,1-9.71-1.58c3.88.25-1.27-.54,3.95.39l-3.09-.66c-.88-.17-1.64-.32-2.42-.44a46,46,0,0,0-5.89-.52c.94-.12,0-.41-1.42-.69s-3.45-.42-4.64-.47l3.46.72c-2.68-.2-5-.48-7.36-.77l1.34-.53a46.54,46.54,0,0,0-7.33-.71c-1.18,0-2.32,0-3.45,0h-1.67l-1.64.08a72.15,72.15,0,0,1-12.28-.23c-2.71.55,5.59.16,3.16.78-4.7.08-9.69-.83-11.17-.61a24.46,24.46,0,0,0-6.27.83,37.2,37.2,0,0,1-6.44,1.17c.89.13,1.77.64-3.19,1.53-4.64.71-5.88,0-3-.69,1.11-.21,1.66-.23,1.63-.14,1.48-.38,3.47-.69,1.57-.71l-.57.32c-2.35.16-8.77,1.29-7.34.65-3.46.94-1.43.64,1.2.31-6,.8-9.3,1.83-15.41,3.06,1-.1,2,0,1,.19-9,1.88-3.8,1.41-9.76,3-3.48.57,1-1.17-4.93.77-3.72.77-.94-.39.47-1-5.36,1.92-10.28,2.58-13.41,3.38l2.81-1c-1.69.59-3.08,1-4.51,1.41l1.76,0c-1.7.41-3.12.82-3.14.62-1.65.8,1.54.38-1.78,1.78-2.3.41-6.74,2.2-7.69,1.82,7.1-1.81-1-.39,5-2.19a40.64,40.64,0,0,1-4.24,1.2c-.27,0,.21-.19.65-.36-6.88,1.38-2.89,1.56-9.88,3.5.79-.58-1.8-.21-2.92.16,2.82-.74,1.51.21-1,1.16-4.56.93-4.83,1.46-7.2,2l2.72-.53c-.82.57-3.09,1.07-6.21,2-.33-.21,2.81-.89,1.66-.73a20.86,20.86,0,0,1-5.89,1.3,54.81,54.81,0,0,0-7,1.23c-2.32.18-.35-.62-2.37-.41a23.18,23.18,0,0,1-5.76.92,43.24,43.24,0,0,0-6,.74c1.73.3,2,.15-2,1,3.2-.37,6.36-1,9.52-1.57l-6,1.58c2.9-.42,6.06-1.18,7.79-1.36-2.86.82-2.58.65-1.13.84a24.54,24.54,0,0,0-6,.75,32.9,32.9,0,0,1-6.47.74l0-1.19c-.86,0-1.7.09-2.52.12s-1.63,0-2.44.11c-1.61.1-3.2.26-4.85.43-.83.08-1.68.2-2.55.24l-2.71.08c-1.88,0-3.9,0-6.14-.05l2.88.23a13,13,0,0,1-3.6.19c-1.6-.12-3.41-.29-4.87-.28.29-.38-1.52-.63-2.74-.95a11.85,11.85,0,0,1-3.33-.09c-1.76-.14-3.65-.23-4.11.12l-3.93-1c-7.13-1.36-8.4,0-15.26-1.59,2.16,0-.91-.9,3.74-.3-2.29-.45-4.33-.93-4.42-.67a28.22,28.22,0,0,0-4-.67,23.55,23.55,0,0,1-4.5-1,11.06,11.06,0,0,1-4-.36c-.26-.14,0-.18,0-.18-.06.22-4-.79-1.93.23-6.69-3-19.5-5.35-25.16-8.37-2.46-.7-5.14-1.58-7.78-2.41s-5.21-1.68-7.4-2.46c.32,0,.08-.18.9.15-5.92-2.51-4.12-.22-10.84-3.13-3.29-1.89,3.76,1,1.66,0-.5-1.57-8.34-2.87-12.68-5.32l1.14.35c-3.37-1.73-8.76-2.77-14.49-5,0,0,.32,0,.11-.17-4.17-.86-11.71-3.44-17.34-5.27,1.9.15,2.62.67,1.74-.21-2.53-.83.45,1-4.59-.61-1.53-.83-5.06-2.32-5.35-3l4.73,1.62c-2.19-1.51-6.12-2.14-8.58-3.08l.42-.19c-7.33-2.31-7.65-1.65-15.51-4.11l.74.48c-4.52-.59-3.48-1.54-8-2.2l-1.09-1.13c-2.9-.68-10.26-2-15.47-3a48.67,48.67,0,0,1,6.23.8c2.39.42,4.9.84,6.8,1.23-2.84-.83-9.75-2.43-11.32-2.45a26.43,26.43,0,0,1,3.78.8,114.92,114.92,0,0,1-14.1-2.29c.67-.66-3.09-1.44-7.51-2.3-2.2-.47-4.6-.77-6.69-1.16a25.31,25.31,0,0,1-4.91-1.23c-5.24-.23-10.38-.89-15.79-1.15l-4.1-.29c-1.38-.06-2.79,0-4.21-.08a88.23,88.23,0,0,0-8.85.17c4.39.9-3.56.27-2.73,1.44a26.71,26.71,0,0,1-4.15.26l-8.62.38c-2.09-.08,2.64-.62,2.34-.85a16,16,0,0,1-4.19.23,5.62,5.62,0,0,0-2.63,0c.91.26-2,1-5.57,1.58l5-.43a51.09,51.09,0,0,1-8,1.54,33.14,33.14,0,0,0-8,2l2.59-1.12c-1.08.37-2.64.78-4.38,1.43l-2.77,1-2.88,1.12c-2,.74-3.83,1.64-5.49,2.42a28.83,28.83,0,0,0-3.93,2.27c-.79.18-1.88.31-.11-.57-9.94,4.21-20.92,11.47-28.48,14.82l.57-.64c-1.71,1-2.78,2.12-5.11,3,.06-.17.57-.64-.25-.23a53.31,53.31,0,0,1-6.81,4l1.83-1.32c-4.68,2.19-8.11,4.14-11.37,6-1.62,1-3.23,1.79-4.9,2.7s-3.4,1.83-5.39,2.68c-.16-.41-2.15.07-4.56.82-1.21.37-2.52.84-3.78,1.24l-3.43,1.08.09-.17c-2.82,1-5.4,2-7.9,2.78s-4.84,1.76-7.21,2.52l-7.1,2.34c-2.43.72-4.94,1.41-7.62,2.14-1.73.2-4,.44-6.69.88l-4.2.72-4.58.67c-1.57.23-3.17.49-4.77.7l-4.82.54c-1.59.16-3.16.36-4.67.45s-3,.16-4.36.2c1.69,0-.22.71-2.18,1-1.3,0-3.08.28-4.49.41s-2.46.18-2.27-.23l.92,0a16.5,16.5,0,0,0-4.91-.36l-6.54.05-.69,1.06c-5.45-.75-12.56-.88-19.07-1.22s-12.41-.9-15.24-2.06c-1.32-.06-2.78-.2-4.25-.35s-2.91-.37-4.22-.46l.24-.53c-7.13-1.46-10.68-2.25-19.49-4.22l1.89,0a21.45,21.45,0,0,0-5.74-.57,18.41,18.41,0,0,1-5.48-.51l-1.15-1.18c-8.62-2.26-17.11-5.45-25.84-7.08.18-.08.49-.24,1.9.11-2-.58-5.92-1.8-9.16-2.68s-5.84-1.4-5.25-.65c.1-.77-8.94-2.41-13.73-3.19l.86-.37c-2.07-.12-3.16-.13-4.42-.25s-2.7-.36-5.52-.84c-1.31-.35-1.07-.68.66-.17-4.36-1.22-3.54-.21-8.88-1.42h2.08a23.42,23.42,0,0,0-6.83-.58c-2.91-.25-8.65-1.67-9.28-2.13a17.05,17.05,0,0,1-5.94-.09c-.34-.23.66-.24,1.17-.24a84.35,84.35,0,0,0-9.31-.93l-1.88-.11-1.85-.06a32.18,32.18,0,0,1-3.77-.39c-.1-.19-.44-.3-.88-.38l4.33.26c1.32.08,2.5.16,3.47.3,1.94.23,3.06.38,2.83.37.05-.51-4.91-1.16-.89-1.42-1,0-2.19,0-3.48,0l-4.1.13a67.36,67.36,0,0,1-8.18-.22,4,4,0,0,1-.64-.22l.51,0a23.43,23.43,0,0,0-3.08-.09l-2-.23c-.62,0-1.24-.06-2-.07-.56-.43-5.71-.29-8.2-.33.2.56-3.05.44,0,.93-.39,0,.47-.06,2.12-.06.38,0,.82,0,1.06,0l-.17,0,6.18,0a24.33,24.33,0,0,1-6.77.15c-1.28.34-2.68.7-3.47.87-1.69-.41-4.17-.74-6.35-1a26.54,26.54,0,0,1-4.52-.59c-3.79.29-8.25.5-12.36.79a58.12,58.12,0,0,0-10.16,1.65,7,7,0,0,1-3.31-.22c1.23-.2,2.71-.3,3.37-.5-2.14.3-5.32.57-8.08.86s-5.1.8-5.57,1.22c-5.42.28,3-1-4.44-.06l1-.34a80.54,80.54,0,0,0-10.14,1c-3.13.56-6.1,1.22-9.11,1.88s-6.08,1.27-9.39,1.92a98.9,98.9,0,0,1-11,1.53,7.26,7.26,0,0,1,1.94-.08c-18.36,2.66-37.27,8.12-55.2,11.62-5.1,1-5.52,1.64-8.5,2.8l-1.23-.3-5.07,2c-7.29,2.41-13.22,2-22.34,5.52l1.32.06c-3.4.83-10.58,3.23-10.15,2.61a5.26,5.26,0,0,1-2.35.89l-.19-.28-8.1,2.87c-6.45,1.62.65-1.5-8.68,1.13-3.43,1.12-9.61,3.74-8.25,3.56,1.4-.38,3.63-.84,3.82-.56l-3.12,1.07c-.32,1.06-2.48,2.68,5.47,1.06l5.25-2.11,1.87-.07-4.55,1.34a18.61,18.61,0,0,0,6-2,6.42,6.42,0,0,0,2.41-.18l5.08-2.37c.74.17-2.19,1.38,1.43.56,2.38-1.11-2.61-.11,1.44-1.54,2.71-.33,2.05.22,5-1,.5.11-.11.44-1.29.89,2.64-1,7.14-2.16,8.41-3,2.85-.24,9.13-2.65,9.09-1.73a53.78,53.78,0,0,1,7.09-2.69c-4.3,2.22,9.37-2.4,8.45-1a42.21,42.21,0,0,1,8-2.74c3.37-.9,7.09-1.81,10-2.81a5.42,5.42,0,0,1-1.49.55c3.4-.75,4.45-.72,6.67-1.08.24-.9,5.48-2.3,8.23-3.4,4.33-.21-2.32,1.47-.85,1.88-.36-.57,7.08-2.26,5.55-2.46,3.28-.26,2.79-.4,4.57-.14.35-1.09,2.92-.84,5.45-1.95,4.72-.48,1.38.65,6.39-.68C566.78,913.57,562.34,914.83,562.34,914.83ZM684.4,901.94h0l-2.54-.12Zm10.33.6-4.48-.29c-.35-.21,0-.39,1.09-.32C690.77,902,693.2,902.28,694.73,902.54ZM673,897.6a5.62,5.62,0,0,1,2.43.17l-2.9,0-.19.06A1.9,1.9,0,0,1,673,897.6Z" transform="translate(0 -650)"/><path class="cls-4" d="M670,898.31c-.24,0-.37,0-.68,0l1,.14.59-.17Z" transform="translate(0 -650)"/><path class="cls-4" d="M1583.67,916.74l-.21-.07a2.81,2.81,0,0,1,.42.2A2.13,2.13,0,0,1,1583.67,916.74Z" transform="translate(0 -650)"/><polygon class="cls-4" points="834.61 283.56 834.61 283.42 833.69 283.41 834.61 283.56"/><path class="cls-4" d="M1638.48,933.4a2.76,2.76,0,0,0,.7.32A3.19,3.19,0,0,0,1638.48,933.4Z" transform="translate(0 -650)"/><path class="cls-4" d="M1662.67,938.79l3.41.85C1664.61,939.25,1663.53,939,1662.67,938.79Z" transform="translate(0 -650)"/><path class="cls-4" d="M1681.45,942.14a.85.85,0,0,0,.41-.19h0Z" transform="translate(0 -650)"/><path class="cls-4" d="M1386.79,927.64l-.71.2C1384.42,928.36,1385.56,928,1386.79,927.64Z" transform="translate(0 -650)"/><path class="cls-4" d="M1473.66,905.17c-.94.21-1.85.45-2.82.63C1472.42,905.64,1473.64,905.48,1473.66,905.17Z" transform="translate(0 -650)"/><path class="cls-4" d="M1286.29,929.11h0l-.61-.14Z" transform="translate(0 -650)"/><path class="cls-4" d="M1466.71,906.34a30.65,30.65,0,0,0,4.13-.54C1469.54,905.94,1468,906.08,1466.71,906.34Z" transform="translate(0 -650)"/><path class="cls-4" d="M1763.83,938.49l.9-.23s0-.07.08-.11Z" transform="translate(0 -650)"/><path class="cls-4" d="M1764.81,938.15l1-.35A3.85,3.85,0,0,0,1764.81,938.15Z" transform="translate(0 -650)"/><path class="cls-4" d="M1767.81,937.05c-.66.31-1.36.5-2,.75A6.54,6.54,0,0,0,1767.81,937.05Z" transform="translate(0 -650)"/><path class="cls-4" d="M1738.89,943.3l-.27.24Q1738.86,943.45,1738.89,943.3Z" transform="translate(0 -650)"/><path class="cls-4" d="M1731.22,944.07c1.83-.12,4.64,0,7.18-.33l.22-.2C1737.45,944,1732.92,943.57,1731.22,944.07Z" transform="translate(0 -650)"/><path class="cls-4" d="M1699.28,941.55l6.36.5c-1.1-.27-2.55-.65.35-.54C1698,940.43,1707.62,942.08,1699.28,941.55Z" transform="translate(0 -650)"/><path class="cls-4" d="M1679.64,939.11c3.41.33,0-.32.2-.42C1677.66,938.59,1677.13,938.55,1679.64,939.11Z" transform="translate(0 -650)"/><path class="cls-4" d="M1540,906.36l.43-.45C1537.77,905.54,1540.35,906.11,1540,906.36Z" transform="translate(0 -650)"/><path class="cls-4" d="M1512.45,905.36c.84.17,1.68.38,2.52.57l1.26-.34Z" transform="translate(0 -650)"/><polygon class="cls-4" points="1496.38 251.01 1497.56 250.96 1493.08 251.06 1496.38 251.01"/><path class="cls-4" d="M1260.62,917l.57.84C1262.93,918.24,1263.5,917.68,1260.62,917Z" transform="translate(0 -650)"/><path class="cls-4" d="M1162.27,882.91a16.35,16.35,0,0,0-5.58-1.89C1159,881.67,1161.1,882.65,1162.27,882.91Z" transform="translate(0 -650)"/><polygon class="cls-4" points="862.52 280.68 864.59 280.53 860.69 280.59 862.52 280.68"/></g><g class="cls-3"><path class="cls-4" d="M1844.74,984c1,.15.58-.42-2-1.11l-2,.09Z" transform="translate(0 -650)"/><path class="cls-4" d="M1827.57,978.38a28.64,28.64,0,0,0-4.38-.15c-1.08.11-1.52.35-.55.78,3.17-.14,3.85.33,7.31.19,2.66.47,4.53,1.29,4,1.4,1,.08,4,1.07,5.5,1.15a29.79,29.79,0,0,0-5.57-1.86c-1-.26-2.1-.51-3.21-.71s-2.25-.29-3.41-.4C1826.34,978.45,1827.32,978.46,1827.57,978.38Z" transform="translate(0 -650)"/><path class="cls-4" d="M1567.29,1002.83l1.66.34C1568.5,1003.06,1567.93,1002.94,1567.29,1002.83Z" transform="translate(0 -650)"/><path class="cls-4" d="M1406.7,972.88a6.62,6.62,0,0,0,1.84-.13C1407.37,972.79,1406.42,972.82,1406.7,972.88Z" transform="translate(0 -650)"/><path class="cls-4" d="M1378.59,974.1c.6-.07,1.1-.15,1.65-.19A6.56,6.56,0,0,0,1378.59,974.1Z" transform="translate(0 -650)"/><path class="cls-4" d="M1567.29,1002.83l-4.27-.9C1562.69,1002.1,1565.2,1002.44,1567.29,1002.83Z" transform="translate(0 -650)"/><path class="cls-4" d="M1791.43,977.4c.9-.06,1.66-.15,2.34-.25l-2.2.14Z" transform="translate(0 -650)"/><path class="cls-4" d="M1638.74,1003.31l1.31-.17a9,9,0,0,0,1-.43C1640.31,1002.93,1639.52,1003.11,1638.74,1003.31Z" transform="translate(0 -650)"/><path class="cls-4" d="M1692.75,992.28a3.4,3.4,0,0,0-1.92,1.27,10.78,10.78,0,0,1,2.56-1C1693.38,992.42,1693.19,992.34,1692.75,992.28Z" transform="translate(0 -650)"/><path class="cls-4" d="M1779,975.9l1.54-.23Z" transform="translate(0 -650)"/><path class="cls-4" d="M1599.51,1005.34a1.18,1.18,0,0,0-.49-.22C1599,1005.19,1599.21,1005.26,1599.51,1005.34Z" transform="translate(0 -650)"/><path class="cls-4" d="M81.6,997.17c.05,0,0-.07,0-.1C81.29,997.13,81.19,997.17,81.6,997.17Z" transform="translate(0 -650)"/><path class="cls-4" d="M29.48,1025.23l.3-.84c-.06-.12-.12-.25-.22-.29Z" transform="translate(0 -650)"/><path class="cls-4" d="M1328.45,985.41l.22,0C1329.94,984.89,1329.21,985.13,1328.45,985.41Z" transform="translate(0 -650)"/><path class="cls-4" d="M867.54,993.77c5.32-.41-8.41,2.11-.43,1.3C866.34,995,874.12,993,867.54,993.77Z" transform="translate(0 -650)"/><path class="cls-4" d="M1790,977.38l-2.25.08C1788.78,977.43,1789.47,977.42,1790,977.38Z" transform="translate(0 -650)"/><path class="cls-4" d="M867.11,995.07h0l.82-.09Z" transform="translate(0 -650)"/><path class="cls-4" d="M1215.05,1012.27a6.7,6.7,0,0,0,1.19.21C1216.2,1012.42,1215.93,1012.36,1215.05,1012.27Z" transform="translate(0 -650)"/><path class="cls-4" d="M1300.19,995.68l-2.09.59C1298.94,996.06,1299.61,995.86,1300.19,995.68Z" transform="translate(0 -650)"/><path class="cls-4" d="M1170,1010.1a26,26,0,0,0-3.14-.5l.47.14A12.8,12.8,0,0,1,1170,1010.1Z" transform="translate(0 -650)"/><path class="cls-4" d="M1123.52,1001.33c.24.1.56.2.83.3l1.47.29Z" transform="translate(0 -650)"/><path class="cls-4" d="M218.67,1036.87a11.73,11.73,0,0,1-2.13-.8C217.23,1036.56,210.24,1035.76,218.67,1036.87Z" transform="translate(0 -650)"/><path class="cls-4" d="M1791.39,977.09a3.57,3.57,0,0,1-1.38.29l1.56-.09C1791.7,977.21,1791.73,977.13,1791.39,977.09Z" transform="translate(0 -650)"/><path class="cls-4" d="M1167.41,1014.21c-2.5-.37-5-.81-7.48-1.24C1162,1013.36,1164.73,1013.85,1167.41,1014.21Z" transform="translate(0 -650)"/><path class="cls-4" d="M552.67,980.4l-1.71.1A11.73,11.73,0,0,0,552.67,980.4Z" transform="translate(0 -650)"/><path class="cls-4" d="M1137.85,1008.94c-1.29-.46-2.66-.87-4.09-1.25a7.33,7.33,0,0,0-.89,0Z" transform="translate(0 -650)"/><path class="cls-4" d="M216.52,1036.06h0Z" transform="translate(0 -650)"/><path class="cls-4" d="M167.48,1025.9c6.9,2.32,3.48.39,5.08.48,8.27,2.53,3.63,1.78,6.32,3.08,5.28,1.3,9.48,1.62,13.36,2.69.26.2,1,.44.08.35,2.86.32,7,1.1,11.3,1.93a63.78,63.78,0,0,0,6.39.91c2.07.22,4,.38,5.68.42a3.39,3.39,0,0,1,.83.3c-1-.51-1.13-.91-.88-1.14,3.19.49,6,.17,7.16.77a10.56,10.56,0,0,0-3.1.08l3.4.06c3,.93-4.63-.12-4.69.37,3.31.18,6.9.25,10.28.38s6.57.06,9.1.27c.51.35-2.45.32-4.7.31-1.12,0-2.07,0-2.31,0s.2.2,1.89.38c-2.61-.19-5.21-.56-7.81-.83,5.9,1.55-4.76-.46.65,1.13,2.58.25,4.6.43,6.33.52s3.18,0,4.63,0,2.9,0,4.62,0,3.75.12,6.33.08c2.31-.42-.77-.55,1.54-1a79.08,79.08,0,0,1,8.13-.18c1.94,0,3.26.13,4.47.27a31.16,31.16,0,0,0,9.69-.3c2.74-.74,3.72-1.7,11.37-2l-2.51,1a31.52,31.52,0,0,0,7.79-1.39c1.44-.42,2.94-.79,8.16-1.24-1.8.55-7.74,1.31-6.23,1.2a19.41,19.41,0,0,0,5.54-.75,22,22,0,0,1,4.28-1.11l1.17.5,8-1.49c2.72-.51,5.47-1.17,8.26-1.78,5.6-1.18,11.28-2.6,17-3.91-.59.34-2.51,1,.22.59,14.37-3.55,30.73-7.29,44.62-10.58l5.1-2c1.23-.32,2.34-.36,1,.11,5.43-1.23.19-.43,2.7-1.35,3-.86,4.12-.77,2.23-.07,9.33-3.05,26.64-8.39,36.76-10.43l-1.9.69c7.81-1.86,8.45-3.47,15.79-4.83l-1.35.46c8.46-2.05,17.33-4.34,25.76-6.26,4.2-1,8.31-1.86,12.18-2.6,1.93-.38,3.81-.72,5.61-1s3.54-.52,5.19-.73c1.16-.65,5.4-1.39,9.46-2.08s8-1.25,8.43-1.93c4.94-.55,6.73-.53,9-.67,1.14-.06,2.4-.15,4.25-.31s4.26-.46,7.74-.67c3.7-.31,5.44-1.28,10-1.87l.16.61,6.19-1,3.36.53c1.43-.13,2.86-.3,4.3-.4-1.72,0-3.66-.06-3.41-.27.84-.08,1.73-.16,2.64-.22s1.84,0,2.77,0c1.86,0,3.71,0,5.35.08,3.29.13,5.75.3,5.83.5l8-.06c2.65,0,5.31-.08,8,.09-.37.23-3,0-5.14.21a22,22,0,0,1,3.94,0,1.81,1.81,0,0,1,1,.26c.29.19.48.38,4.38.38-1-.22.59-.32.77-.43,1.92.35,5.09.58,8.56,1.08l5.36.63,5.18.68-1.31.24c11.65,1.81,24.56,4.16,37.52,7.23-4.6-1.27-3.37-1.74.45-.93l1.38,1c2.54.2-3.92-1.19,1.23-.46,4.83,1.24,3.09,1.51.26,1l5.94,1.2c.3.27-1.11,0-1.52.19,2.51.19,10,3.13,13.66,3.31l.28.27c13,3.19,18.94,4.43,29.62,6.73.33-.49,4.49.48,7.77.69,7.84,1.69,16.56,3.76,26.23,4.81,6.82.46,2-.26,5.12-.28.22.28,2.75.63,4.59.91s3,.38.48.41c5.82.33,9.54.57,13.64.59s8.6,0,16-.26c-1.6-.17-3.39-.23-2.46-.42,2.66-.14,6.06.08,5.69.34l-.71.07c16.44-1,38.13-1,51-3.84l-.72.15,6.69-1.18,6.69-1.27c6.19-.82-3.66.93,1,.57,14.36-3,22.87-3.55,34.65-6.16,9.45-.11,32.55-5.82,45.11-6.78l-.77-.23c3.14-.86,3.9-.4,6.28-.68-.38-.22-3.53.21-1.57-.28,13.55-2.28,27.63-4,41.81-5a393.82,393.82,0,0,1,42.45-.58,32.42,32.42,0,0,0,8.37-.39c1.81-.29,4-.41,10.36.57-1.24.08-2.48.23-3.71.34a247,247,0,0,1,31.21,3.67c10.39,1.79,20.68,3.94,30.69,5.79a14.23,14.23,0,0,1-3.23-.35c4.09,1.37,15.51,3.47,15.67,3.12,3.09.76.64.51,2.5,1.14,4.15,1.24,10.7,1.85,12.84,2.83.36.17-1.22-.12-2-.26,2.79.41,12.78,3,10.27,1.86,7.42,2,14.36,3,20.29,4.58,4,.25,12.83,2.91,14.25,2.27-.35.4,2.92,1.22,6.91,1.92,2,.38,4.16.7,6.14,1s3.76.46,5,.52c-1.65,0,4.15.88,2.21,1,2.75.41,5.41.7,7.26.82s2.89.09,2.43-.2a62.22,62.22,0,0,0,7.56,1.14c2.5.2,4.94.29,7.24.38s4.46.08,6.4.21a26.55,26.55,0,0,1,5.11.67q12.43-.08,24-1.27l5.75-.69c1.91-.21,3.78-.59,5.66-.87l5.58-.9,5.48-1.12c-.08.25-1.14.57-2.66.92-.76.18-1.63.36-2.56.55s-1.93.3-2.91.46c-3.94.59-7.72,1.16-7.35,1.58,3.5-.58,6.62-1.15,9.55-1.69s5.62-1.3,8.32-1.91l2-.47,2-.53,4.18-1.06c2.87-.66,5.88-1.48,9.27-2.31s-1.88.9-3,1.35c13.55-3.84,26.16-7.42,37.87-11.72a15.77,15.77,0,0,1-2.44,1.05c2.32-.78,5.47-1.64,5.08-1.94l-2.24.84c-3.91.65,8.88-4.2,9.2-4.62-3.6,2.4,11.79-3.5,6,0,1.51-.58,3.38-1.36,3-1.51,2.3-.64,3.07-.71.86.31,8.29-2.83,5.19-2.35,12.8-4.6,0,.2-1.48.73-2.2,1.18,1.87-.75,3.74-1.51,6-2.3s4.81-1.5,8.07-2.3c-.36.22.43.16-1.5.69l7.82-2.18c2.48-.69,4.86-1.44,7.31-2s4.93-1.23,7.59-1.78,5.51-.92,8.64-1.33c-1.77.73-.7.62.9.43s3.77-.33,4.14,0c2.23-.3,4.45-.7,6.69-.93-.91-.07-1.82-.09-2.73-.1,1.47-.19,2.9-.3,4.3-.44l4.1-.42a74.16,74.16,0,0,1,7.82-.27c-1.47.09-2.93.28-4.4.41,3.7-.2,7.4-.18,11.11-.19-2.09-.15-4.19-.22-6.29-.33,6-.34-.65-1,7.28-.66-1.62,0,6,.17,9,.9h0a58.59,58.59,0,0,1,10.37.59c1.11.37-1,.72-.28,1a57,57,0,0,1,8.49.65c1.78.23,3.58.46,5.17.63a29.82,29.82,0,0,0,3.9.31c-1.24,0-1.37.33-1,.48l2.49-.11c2.7.6,3.07.79,2.58,1,8.14,1.59-2.42-1.43,7.19.79-.77-.11-.42,0-2-.2,9.68,2.06,18.8,3.57,27.61,5.91,2.44,1.34-7.79-1.63-4.94-.32,12.81,2.83,26.63,5.56,39,8.74l-2.28-.65c2-.61,9.08,2.76,15.48,3.7-1.55-.28-2.15.11-1.71.09,8.47,2.11,17.47,3.7,30.56,5.64l-1.66,0c2.51.59,5.86,1.13,9.26,1.68s6.87,1,9.63,1.34c1.68-.08,4.83.33,3-.29a109.61,109.61,0,0,0,24.65,1.68c4-.07,7.88-.4,11.74-.56s7.69-.42,11.5-.53c-1.81.18-4.3.67-2.85.53l6.45-.78,6.42-.95c-1.08-.33-1.73-.06-4.47-.08,1.59-.48,5.18-1.12,8.34-1.64-5.7,1.18.16.73,2.69.61-.44-.08.39-.37.16-.48,6.8-.3,1-1.07,10.14-2.14l-.44.33c3.37-.79,6.43-1.68,10.08-2.39,1.62.2-3.54,1-3.69,1.47,2.56-.54,5-1.33,7.46-2a40.32,40.32,0,0,1,7.15-1.62c-2.13.62-5.25,1.33-7.38,1.94a61.67,61.67,0,0,0,9.47-1.54l-.37.08,8.69-1.76-2.23.37c6-2.88,12.88-3.39,21.21-6.39-8.1,2.89-1.25.83-1.74,1.57,2.22-.38,5.58-1,4.68-.61,3.92-1.47,6.83-1.28,12.37-3.35.3.13,4.33-1,3.53-.3,5.22-1.38-1.32,0-.94-.38,8-2.56,19.24-3.62,30.83-6.57,10.1-2.08,11.9-3,21.42-4.37,3.25,0-2.56,1-2.56,1,2.61-.1,4.88-.3,7.12-.48s4.43-.39,6.88-.64c-1,.2,0,.31,1.54.48a17,17,0,0,0,3.43-.45,14.72,14.72,0,0,1,4.38-.14,37.91,37.91,0,0,1-3.92.82c4.62-.27,9.2-.58,14-.48,1.25.39-2.92.38-4.6.52,2.68.07,6.17.06,9.18.27,1.51.08,2.9.13,4,.14a14.59,14.59,0,0,0,2.4,0c-1.13-.22-2.27-.46-3.41-.61,2,.15,1,.55-.5.52a26.45,26.45,0,0,1-5.07-.41,5.29,5.29,0,0,1-1.8-.53c1.15,0,2.28.05,3.42.12-1.7-.79-5.16-.83-9-.84l-11.59.57,2.85-.93c-2.35.33-4.71.57-7.05,1-1.51-.11-2.57-.51.83-.86-5-.05-4.36.53-8.65.48-.47,0-.26-.08.17-.16l-4.8.73c.92-.27-.87-.51,2.11-.68-1.09,0-2.13.11-3.11.2s-1.91.23-2.79.35c-1.76.26-3.33.52-4.72.78a31.06,31.06,0,0,1-6.56,1l.71-.16c-11.86,2.33-1.06.76-9.83,3.08l-6.27-.31-1,.84c-1.23.23-3.65.7-3.25.36-4.45,1.37.83.1-1.72,1-6,.72-16,3.91-17.58,3.3-2,1,5.65-1-.49.82-2-.6-7.14,1.91-12.57,2.75,1.51-.92,6.61-1.88,1.18-1-3,1.67-10.39,2.36-14.83,3.62,0,.76-9.67,2.68-17.16,4.62.21-.18-3.36.54-7.88,1.4s-10,1.83-13.54,2.37l.19-.16c-.62.48-2.76,1-5.41,1.54s-5.82,1-8.48,1.5c.15-.47,1.09-.79,3.94-1.42l-5,.76a38.7,38.7,0,0,1-6,1.21l1.2-.71c-6.67.83-13.43,2.15-22.11,2-.49.53,7,1.18-2.24,1.85-.34-.26-.69-.72,1.71-.92l-1.89.18a20.85,20.85,0,0,1-2.5,0c1.22-.16,2.44-.29,3.66-.51-4-.12-2.06.41-5.23.39.06-.39-2.34-.28-1.88-.59.8,0,2.75.16,4,0-1.78,0-3.74-.09-5.44-.22a34.47,34.47,0,0,1-3.82-.5c.3.23,0,.53-2.63.5-6.73-.38-2.27-.62-6.18-1.06-1.64.18-5.89-.52-6.06.07a8.38,8.38,0,0,1-3-.75c-3.5,0-16.16-2-12.36-.87l.89.16-.57,0h0c-11.44-1.1-23.39-4.46-34.54-6.72l.07-.19c-6.68-1.29-14.76-3.33-19.57-4.08-2-.47-4.53-1.48-3.63-1.5a121.18,121.18,0,0,1-12.92-3.14c5.16.91-1.68-.74,5.26,1-6.52-1.78-7.93-2.46-15.11-3.63,2.52.07-4.81-1.81-8-2.38l4.53,1.43c-3.53-.76-6.6-1.52-9.73-2.26l1.84-.26a133,133,0,0,0-18.67-3.71A126.26,126.26,0,0,1,1442.8,975c-1.85,0,0,.32,1.91.68s3.83.82,2.17.82c-3.14-.55-6.33-1.25-9-1.87s-4.79-1.07-5.79-1.19c-8.71-1.2-8.23.13-17.37-.57,1.17.29,2.23.94-4.59.95-6.37-.12-7.86-1-3.82-1.21,1.54,0,2.28.07,2.22.15,2.07-.11,4.79-.08,2.26-.43l-.84.23c-1.59-.12-4.59-.22-6.94-.26s-4,0-3-.27c-4.86.37-2.06.45,1.53.47-2.06,0-3.9,0-5.62,0l-5,.32c-3.24.25-6.49.73-10.72,1.06,1.36,0,2.63.12,1.29.26-1.55.12-2.78.3-3.79.46s-1.77.28-2.37.4a12.51,12.51,0,0,0-2.16.53,12.72,12.72,0,0,1-1.4.48c-.7.2-1.82.42-3.87.89-4.73.6,1.51-1.19-6.71.8-5.09.91-1.22-.42.77-1-1.88.47-3.68,1-5.41,1.37s-3.4.76-5,1.07c-3.13.62-5.84,1.21-8,1.73l3.87-1.26c-2.31.75-4.23,1.27-6.19,1.8l2.37-.15c-2.33.54-4.27,1.09-4.27.9-2.27,1,2,.22-2.53,2-1.55.34-3.84,1.09-5.9,1.71s-3.86,1.2-4.47,1.06c9.56-2.76-1.26-.31,6.79-2.86-1.55.53-3.45,1.11-5.74,1.75-.36,0,.28-.23.89-.46-9.26,2.33-4,2-13.36,5,1.08-.72-2.39.07-3.89.63,3.78-1.21,2,0-1.39,1.36-6.09,1.69-6.46,2.33-9.62,3.3l3.63-1c-1.11.74-4.13,1.65-8.28,3.1-.44-.15,3.75-1.4,2.21-1-4.46,2.09-10.7,2.72-17.09,5-3.09.64-.48-.56-3.18,0-1.79.63-3.19,1.08-4.4,1.39s-2.24.5-3.27.7-2.08.41-3.35.71-2.73.72-4.66,1.24c2.35-.05,2.72-.26-2.65,1.45,4.25-1,8.45-2.28,12.65-3.5l-8,2.8c3.84-1,8-2.39,10.34-2.94-3.78,1.42-3.42,1.18-1.47,1.09a45.33,45.33,0,0,0-8,2,63.44,63.44,0,0,1-8.6,2l-.06-1.19c-9.29,1.35-16.27,3.88-28.47,4.66l3.92-.18a20.58,20.58,0,0,1-4.84.68c-2.17.11-4.63.26-6.6.43.35-.41-2.13-.47-3.82-.66.22.36-8.91.09-10,.83l-5.44-.67a100.49,100.49,0,0,0-10.53-.15c-1.39,0-2.77.08-4.4,0s-3.49-.19-5.86-.47c2.9-.13-1.36-.85,5-.51-3.15-.33-6-.68-6-.43a47.41,47.41,0,0,0-5.44-.55,38.3,38.3,0,0,1-6.2-.83,18.22,18.22,0,0,1-5.36-.27c-.37-.14,0-.19,0-.19,0,.19-5.56-.63-2.55.3-9.46-2.74-27-5-35.06-8-6.81-1.39-15-3.15-21.16-4.55.42,0,.07-.18,1.22.13-8.4-2.32-5.47-.11-15-2.73-4.8-1.75,5.21.84,2.18-.1-1-1.59-11.71-2.49-18.08-4.62l1.6.26c-4.91-1.49-12.29-2.13-20.49-3.73,0,0,.42,0,.09-.18-5.74-.4-16.43-2-24.42-2.78,2.54-.2,3.65.21,2.21-.52-3.59-.37.93,1-6.21.22-2.29-.55-7.42-1.3-8.06-1.92l6.76.66a28,28,0,0,0-6.09-.9c-2.22-.11-4.45-.12-6.23-.33l.48-.27c-5.21-.32-7.86-.17-10.6-.13s-5.58.2-11.17.16l1.15.23a20.4,20.4,0,0,1-5.6.17,20,20,0,0,0-5.6.11l-1.86-.74c-4,.23-14.07,1.42-21.24,2.14,2-.44,5.12-.89,8.38-1.33l9.28-1c-2,.09-5.39.3-8.54.53a64.26,64.26,0,0,0-7.07.88,46,46,0,0,1,5.21-.53c-2.43.49-5.24.92-8.43,1.34s-6.76.81-10.71,1.27c.31-.42-.82-.51-2.79-.42s-4.78.37-7.8.74l-9.1,1.08a51.5,51.5,0,0,1-6.78.43c-13.83,2.62-27.6,4.16-43.7,7.06,5.92.18-4.69.86-3.49,1.89a48.11,48.11,0,0,1-5.53.94l-11.49,1.23c-2.75.11,3.52-.87,3.13-1.08-8.23,1.3-3.53.08-9,.67,1.19.25-2.75,1.09-7.46,1.69l6.68-.53a54.24,54.24,0,0,1-10.74,1.55,64.28,64.28,0,0,0-10.83,1.44l3.61-.92c-1.48.28-3.59.62-6,1l-7.89,1.17c-5.46.79-10.91,1.64-13.78,2.41-1.08,0-2.5-.21.11-.58-7.13.75-15,1.62-22.6,2.31-3.78.28-7.46.58-10.9.69s-6.62.18-9.4,0l1.08-.3c-2.66.07-4.65.55-8,.22.18-.12,1.08-.28-.15-.32-.71,0-2.48.1-4.52.13a46.09,46.09,0,0,1-6.1-.2c1,0,2-.07,3-.17-3.48-.27-6.54-.49-9.38-.6s-5.43-.33-8-.43c-5.06-.3-9.87-.55-15.68-1.41.08-.43-2.58-1.12-5.91-2l-10-2.34.21-.08c-15.9-3.42-27.15-5.49-42-8.75-4.45-1.6-12.18-3.59-20.66-5.57s-17.75-3.82-25.23-5.33c2.26.58-.48.57-3.17.29-1.75-.35-4.22-.57-6.15-.78s-3.37-.34-3-.71l1.26.16a31.24,31.24,0,0,0-6.64-1.37c-2.88-.33-6.16-.48-9-.72l-1,1a80.44,80.44,0,0,0-12.56-1.1l-3.42-.1-1.72,0-1.72,0-6.84.25-3.32.13c-1.08,0-2.15.08-3.19.18-2.08.15-4.06.29-5.88.4-3.66.2-6.71.25-8.77.15-3.57.64-8,1-11.56,1.71l.12-.58-12.72,1.56c-4,.63-8.28,1.34-14.37,2.44.8-.3,1.61-.54,2.42-.82-6.89,1.18-8.36,3.24-14.66,4.45-.68-.16-1.37-.28-2.06-.43-5.93,1.29-12,2.34-17.9,3.68-3,.66-5.95,1.31-8.88,2.07s-5.84,1.59-8.7,2.5c.16-.17.45-.49,2.35-1-5.57,1.3-21.54,5-19.24,5.55-.33-.68-12.11,3.15-18.32,5.21l.83-.81a86.34,86.34,0,0,1-12.64,4.59c-1.79.41-1.67,0,.71-.51-5.95,1.32-4.43,1.76-11.63,3.41l2.56-1.06a42.93,42.93,0,0,0-8.75,2.94c-3.74,1.25-11.51,2.91-12.53,2.65a29.46,29.46,0,0,1-7.56,2.56c-.53-.06.74-.5,1.38-.73-5.12,1.1-8.85,2.2-12.19,3.18a76.35,76.35,0,0,1-9.87,2.34,2.09,2.09,0,0,0-1.26,0l10.25-2.39c2.56-.63,4-1,3.74-.88-.13-.5-6.65,1-1.65-1-2.56.87-6,2-9.67,3.08a91,91,0,0,1-10.66,2.69,5.24,5.24,0,0,1-.88,0l.65-.2a38.45,38.45,0,0,0-4,1c-2.05.35-3.36.59-5.32,1-.84-.27-7.58,1.23-10.86,1.85.38.5-3.93,1.24.17.92-.52.06.61-.19,2.79-.63.49-.12,1.07-.24,1.39-.33l-.22.09,8.15-1.63a42.35,42.35,0,0,1-8.89,2c-1.61.68-3.4,1.41-4.42,1.78-4.66,0-13.4,1-14.69.72l-8,1.28-4.21.64-4.17.52c-2.74.35-5.36.71-7.7,1.09s-4.38.63-6,1A12.11,12.11,0,0,1,261,1034c1.66-.21,3.65-.32,4.54-.53-1.44.16-3.23.31-5.13.47l-2.89.22-2.87.11c-3.73.15-6.92.36-7.61.74-3.65-.1-2.62-.31-1.94-.41s1-.1-4-.21l1.36-.18c-9.83-.76-17.81-.86-26.08-1.39s-16.85-1.55-27.26-5a13.64,13.64,0,0,1,2.44.91q-4.5-1.31-9.06-2.55c-1.53-.37-3-.93-4.52-1.43l-4.52-1.51c-6.08-1.86-12-4.28-17.94-6.74-11.84-5-23.41-10.52-34.88-15.38-6.57-2.65-7.49-2.37-11.71-3.3l-1.32-1c-2.43-.47-4.9-.79-7.34-1.12-2.6-.37-5-.89-7.35-1.3s-4.72-.78-7.18-1a46.76,46.76,0,0,0-16.82,1.18c.6,0,1.18.05,1.77.1a66.13,66.13,0,0,0-9,2.12c-3,.89-5.19,1.77-4.91,1.4-.21.13-.54.37-1,.64a9.89,9.89,0,0,1-2.06.89l-.27-.23a54.85,54.85,0,0,0-9.88,6.45c-1.85,1.34-2.71,2-3.17,2.2s-.53.1-.69,0-.43,0-1.26.63A27.07,27.07,0,0,0,34,1013.4a33.4,33.4,0,0,0-4.21,7.86,22.58,22.58,0,0,0-.93,3.08c-.16.67-.15.9.07.49.71-1.89,2.22-4.64,2.61-4.59a39.35,39.35,0,0,0-1.71,4.15c.28.55.35,1.69.9,1.46a4.14,4.14,0,0,0,1.29-1.56c.61-1,1.5-2.5,3-4.64a36.94,36.94,0,0,1,3.86-6.14c.63-.49,1.27-1,1.94-1.39a38.54,38.54,0,0,0-4,4.61c2.39-2.49,3.65-4.25,5.3-6.12a6.15,6.15,0,0,0,1.1-.57c.44-.27,1-.59,1.55-1a51,51,0,0,1,5.48-4.73c.46-.06-.15.51-.33.81s0,.27,2.18-.76c2.81-1.92-3.29.75,1.62-2,3.43-1.07,2.56-.37,6.35-2.14.63.05-.17.44-1.66,1.13a42.73,42.73,0,0,1,6.11-2.21c2.13-.64,4.09-1.11,5-1.53,1.87-.11,5-.6,7.59-.78s4.74-.17,4.57.28a29.86,29.86,0,0,1,4.12-.4,39.77,39.77,0,0,1,5.83.14c-1.58.09-1.57.23-.71.4s2.57.37,4.43.72c3.72.65,8,1.74,7,2.09,2.36.05,6.44,1.09,10.89,2.49s9.24,3.29,13.2,4.63a9.83,9.83,0,0,1-2-.62c2.16.9,3.52,1.59,4.68,2.19l3.47,1.83c.87-.5,7.65,2.31,11.47,3.51,5,3.06-3.59-.6-2.22.81,0-.7,9.46,3.53,7.88,2.24,3.88,2.21,3.41,1.75,5.27,3.25,1.1-.59,3.89,1.47,7.56,2.29a15.59,15.59,0,0,1,3.66,2.06c.41.31.94.55,4.38,1.52C173.62,1027.58,167.48,1025.9,167.48,1025.9Zm166.6.27h0l-3.38.76Zm13.74-3.2-6,1.38c-.53-.08-.05-.39,1.33-.71C342.47,1023.94,345.73,1023.29,347.82,1023Zm-29.9,2.59a10.59,10.59,0,0,1,3.23-.48l-3.79.81c-.06,0-.19.08-.25.12A3,3,0,0,1,317.92,1025.56Z" transform="translate(0 -650)"/><path class="cls-4" d="M314.14,1027.05c-.31.07-.48.13-.89.21l1.32-.13.74-.32Z" transform="translate(0 -650)"/><path class="cls-4" d="M1569.24,1003.23l-.29-.06a5.48,5.48,0,0,1,.61.17A2.8,2.8,0,0,1,1569.24,1003.23Z" transform="translate(0 -650)"/><polygon class="cls-4" points="537.14 331.55 537.11 331.41 535.91 331.65 537.14 331.55"/><path class="cls-4" d="M1646.5,1004.75a5.29,5.29,0,0,0,1,0A6.25,6.25,0,0,0,1646.5,1004.75Z" transform="translate(0 -650)"/><path class="cls-4" d="M1679.45,998.3l4.67-.88C1682.09,997.78,1680.62,998.06,1679.45,998.3Z" transform="translate(0 -650)"/><path class="cls-4" d="M1704.57,992.53a1.3,1.3,0,0,0,.44-.36h0Z" transform="translate(0 -650)"/><path class="cls-4" d="M1303,998.72l-.94.33C1299.9,999.86,1301.4,999.34,1303,998.72Z" transform="translate(0 -650)"/><path class="cls-4" d="M1421.26,975.54c-1.29,0-2.57,0-3.91,0C1419.5,975.72,1421.17,975.86,1421.26,975.54Z" transform="translate(0 -650)"/><path class="cls-4" d="M1168.23,1014.34h0l-.84-.12Z" transform="translate(0 -650)"/><path class="cls-4" d="M1411.71,975.33a55.36,55.36,0,0,0,5.64.22C1415.58,975.45,1413.5,975.31,1411.71,975.33Z" transform="translate(0 -650)"/><path class="cls-4" d="M1814.14,978.11l1.22.14s.06-.07.15-.08Z" transform="translate(0 -650)"/><path class="cls-4" d="M1815.51,978.17c.46,0,.91,0,1.37.07A5.5,5.5,0,0,0,1815.51,978.17Z" transform="translate(0 -650)"/><path class="cls-4" d="M1819.74,978.5l-2.86-.26A15.11,15.11,0,0,0,1819.74,978.5Z" transform="translate(0 -650)"/><path class="cls-4" d="M1780.39,977.84l-.37.24C1780.23,978,1780.36,977.94,1780.39,977.84Z" transform="translate(0 -650)"/><path class="cls-4" d="M1770.16,979c2.44-.3,6.16-.28,9.56-.74l.3-.19C1778.45,978.54,1772.43,978.32,1770.16,979Z" transform="translate(0 -650)"/><path class="cls-4" d="M1727.26,984.51c2.83-.62,5.67-1.17,8.51-1.76-1.53.12-3.55.27.3-.65C1725.23,983.88,1738.38,982.07,1727.26,984.51Z" transform="translate(0 -650)"/><path class="cls-4" d="M1701,990.54c4.51-1.21-.13-.29.08-.47C1698.26,991,1697.57,991.19,1701,990.54Z" transform="translate(0 -650)"/><path class="cls-4" d="M1510,990.19l.58-.39C1507.1,989,1510.53,990,1510,990.19Z" transform="translate(0 -650)"/><polygon class="cls-4" points="1473.26 334.11 1476.6 335.19 1478.33 335.09 1473.26 334.11"/><path class="cls-4" d="M1452.4,976.24l1.57.21c-2-.32-4-.54-6-.82Z" transform="translate(0 -650)"/><path class="cls-4" d="M1131.85,1002.64l.93.84C1135.18,1003.88,1135.82,1003.29,1131.85,1002.64Z" transform="translate(0 -650)"/><path class="cls-4" d="M992.61,979.94a32.67,32.67,0,0,0-8-.17C987.81,979.8,991,980,992.61,979.94Z" transform="translate(0 -650)"/><polygon class="cls-4" points="574.41 325.66 577.28 325.52 571.88 325.56 574.41 325.66"/></g><g class="cls-3"><path class="cls-4" d="M62.94,766.36c-.89.45-.25.66,2.32-.18L66.92,765Z" transform="translate(0 -650)"/><path class="cls-4" d="M80.76,762.39c3-1.18,6.36-2.68,4.21-2.73-2.87,1.45-3.69,1.39-6.73,3.09-2.58.84-4.59,1.13-4.22.77-.87.43-4.08,1.05-5.36,1.86a57.11,57.11,0,0,0,12.17-3.47C81.83,761.77,80.94,762.21,80.76,762.39Z" transform="translate(0 -650)"/><path class="cls-4" d="M341.43,722h-1.7C340.19,722,340.78,722,341.43,722Z" transform="translate(0 -650)"/><path class="cls-4" d="M504.89,728.52a6.39,6.39,0,0,0-1.83-.07C504.21,728.54,505.16,728.61,504.89,728.52Z" transform="translate(0 -650)"/><path class="cls-4" d="M532.54,732.65l-1.63-.26A8.81,8.81,0,0,0,532.54,732.65Z" transform="translate(0 -650)"/><path class="cls-4" d="M341.43,722c1.46,0,2.92,0,4.38.07C346.11,721.87,343.56,722,341.43,722Z" transform="translate(0 -650)"/><path class="cls-4" d="M115.61,751.41c-.88.26-1.61.51-2.27.76l2.15-.63A.68.68,0,0,1,115.61,751.41Z" transform="translate(0 -650)"/><path class="cls-4" d="M269.49,727.58l-1.33.13a10.32,10.32,0,0,0-1.07.38Z" transform="translate(0 -650)"/><path class="cls-4" d="M214.59,734.76a3.42,3.42,0,0,0,2-1.09,10.52,10.52,0,0,1-2.65.78C214,734.56,214.15,734.66,214.59,734.76Z" transform="translate(0 -650)"/><path class="cls-4" d="M128.23,750.7l-1.5.43Z" transform="translate(0 -650)"/><path class="cls-4" d="M309,724.37a1.27,1.27,0,0,0,.51.16C309.5,724.46,309.3,724.41,309,724.37Z" transform="translate(0 -650)"/><path class="cls-4" d="M1826.61,731.66s0,.07,0,.1C1826.94,731.73,1827.05,731.69,1826.61,731.66Z" transform="translate(0 -650)"/><path class="cls-4" d="M1888.68,748.91l-.84-.3c-.13.06-.26.12-.3.22Z" transform="translate(0 -650)"/><path class="cls-4" d="M582.93,741.2l-.22-.05C581.37,741,582.12,741.1,582.93,741.2Z" transform="translate(0 -650)"/><path class="cls-4" d="M1042.65,757.44c-5-1.81,8.55,1.54.93-1C1044.24,756.84,1036.3,755.48,1042.65,757.44Z" transform="translate(0 -650)"/><path class="cls-4" d="M117,751.12c.72-.2,1.46-.37,2.21-.55C118.21,750.8,117.54,751,117,751.12Z" transform="translate(0 -650)"/><path class="cls-4" d="M1043.58,756.44h0l-.79-.26Z" transform="translate(0 -650)"/><path class="cls-4" d="M697.86,766.87a6.78,6.78,0,0,0-1.11-.54C696.78,766.4,697,766.53,697.86,766.87Z" transform="translate(0 -650)"/><path class="cls-4" d="M612.64,745.74l2.12.5C613.92,746,613.24,745.87,612.64,745.74Z" transform="translate(0 -650)"/><path class="cls-4" d="M743.12,774.59a20.94,20.94,0,0,0,3.23.26l-.5-.09A12.43,12.43,0,0,1,743.12,774.59Z" transform="translate(0 -650)"/><path class="cls-4" d="M790.79,771.09l-.89.06-1.48.31Z" transform="translate(0 -650)"/><path class="cls-4" d="M1690.7,774.65a16.3,16.3,0,0,1,2.11-.32c-.4-.05.91-.75,1.38-1.09S1694.38,773.16,1690.7,774.65Z" transform="translate(0 -650)"/><path class="cls-4" d="M115.71,751.71a3.43,3.43,0,0,1,1.31-.59l-1.53.42C115.38,751.66,115.37,751.74,115.71,751.71Z" transform="translate(0 -650)"/><path class="cls-4" d="M745.38,770.31l3.69.26,3.7.15-3.48-.17C748,770.49,746.7,770.38,745.38,770.31Z" transform="translate(0 -650)"/><path class="cls-4" d="M1355.67,733.05l1.73-.24A11.27,11.27,0,0,0,1355.67,733.05Z" transform="translate(0 -650)"/><path class="cls-4" d="M774.7,769.31c1.34,0,2.75-.07,4.2-.2a7.61,7.61,0,0,0,.83-.26Z" transform="translate(0 -650)"/><path class="cls-4" d="M1692.83,774.33h0Z" transform="translate(0 -650)"/><path class="cls-4" d="M1735.18,748.23c-6.67,3-2.81,2.09-4,3.11-7.59,4.22-3.8,1.4-6.6,2.46-4.78,2.64-7.88,5.56-11.33,7.66-.32.06-1,.44-.32-.17-2.32,1.71-5.78,4.17-9.31,6.58s-7.19,4.66-9.93,6.3a2.89,2.89,0,0,1-.83.16c1.08-.07,1.4.2,1.31.53-2.85,1.34-5.34,2.53-6.62,2.35a7.45,7.45,0,0,0,2.76-1.17,31.53,31.53,0,0,1-3.08,1.12c-1.51,0-.42-.29,1-.71s3.12-1.08,3-1.32a31.91,31.91,0,0,1-9.42,2.51,30.79,30.79,0,0,1-8.8-.34c-.46-.41,2.4,0,4.56,0a14.25,14.25,0,0,0,2.21,0c.23-.06-.21-.11-1.81-.33a33.87,33.87,0,0,0,7.4-.17c-1.44,0-1.87-.14-1.8-.2a8.86,8.86,0,0,1,1.2-.22,4.05,4.05,0,0,0,1.27-.28c.12-.1-.24-.15-1.52-.24a39.13,39.13,0,0,1-5.78.29c-1.6,0-3-.12-4.32-.23a55,55,0,0,1-10.3-2c-2.3-.22.58.73-1.72.51-14.21-3.23-10.59-4.73-21.18-6.68-2.79-.29-4,.25-11.31-2.16l2.71-.07c-9.6-2.65-5.77-.4-15.74-3.54,1.87.18,7.64,1.73,6.21,1.26-6.39-2.29-4.73-.79-9.77-2.09l-.87-.92c-10.3-2.54-21.78-4.83-33.25-7.37.68,0,2.69.19.06-.62-14.52-3-30.89-6.91-44.89-9.92l-5.49-.41c-1.25-.24-2.27-.69-.9-.55-5.45-1.22-.35.31-3,.06-3.13-.49-4.07-1-2.06-.87-9.77-1.27-27.83-3.4-38-5.25l2,.08c-8-1.27-9.19.1-16.57-1.26l1.43,0c-4.34-.57-8.83-.92-13.29-1.36s-9-.67-13.29-1L1432.6,731c-4-.2-7.68-.52-11-.79-1.28.41-5.62.24-9.78.14s-8.16,0-8.71.58l-9.11-.46c-1.15-.06-2.43-.1-4.31-.13s-4.34,0-7.88.13c-3.77.12-5.57,1.08-10.2,1.55l-.17-.61c-2.08.39-4.17.72-6.25,1.17l-3.42-.39-4.34.6c1.74-.14,3.71-.1,3.47.1-1.69.25-3.58.43-5.45.61s-3.74.37-5.41.49a36.87,36.87,0,0,1-6,.17c-5.3,1-10.62,1.92-15.88,3.12.31-.31,3-.88,5-1.42-8.39,2.17-1.66-.36-9.35,1.64,1.07-.06-.49.46-.65.61a148.2,148.2,0,0,0-19.15,4l1.14-.71c-11.74,2.66-24.41,6.78-37.2,10.78,4.65-1.25,3.82-.22.09,1l-1.7-.16c-2.3,1.14,4-1-.83,1-4.8,1.42-3.43.3-.76-.77l-5.73,2c-.4-.08.93-.6,1.21-.95-2.26,1.13-10.2,2.53-13.43,4.23l-.38-.08c-12.77,3.86-18.52,5.72-29,8.34,0,.3-1.09.66-2.52,1.11s-3.23.89-4.76,1.46c-7.83,1.48-16.59,2.59-26.08,3.53-6.66.82-1.91.63-4.9,1.21-.52-.35-10.06,0-5.13-.54-5.72.33-9.39.28-13.43.34-2,0-4.14-.06-6.66-.07s-5.45-.14-9.09-.31c1.56.32,3.33.54,2.4.65-2.65-.11-6-.64-5.58-.88h.7a173.78,173.78,0,0,1-26.36-3.78c-8.83-1.89-17.2-3.88-23.69-4.79l.73.1c-4.45-.76-8.88-1.64-13.33-2.48-6-1.56,3.73.51-.68-.89-14.42-2.62-22.4-5.74-34.23-8.19-8.66-3.82-32.18-8.13-44.39-11.61l.64.5c-3.28-.32-3.83-1-6.18-1.57.28.34,3.41,1,1.38.81-13.62-2.58-27.75-5.07-42.15-6.49s-29.06-2-43.39-.57c-5.23.58-6.67,1.13-8.41,1.83a20.87,20.87,0,0,1-3.4,1c-.78.16-1.71.32-2.86.48l-1.89.24-2.25.35c1.18-.48,2.35-1,3.56-1.36-10.34,2.32-20.77,5-31,8s-20.31,6.32-29.93,9.77a14.66,14.66,0,0,1,3-1.33,86.13,86.13,0,0,0-9.18,2.82c-3.26,1.13-6,2.21-6,2.4-3,.91-.81-.11-2.73.28a70.28,70.28,0,0,0-7,2.22c-1.16.4-2.26.79-3.21,1.08a12.9,12.9,0,0,1-2.36.49c-.4,0,1.12-.47,1.87-.7-1.32.47-4.48,1.3-7,2s-4.31,1.14-2.94,1.13c-7.45,1.53-14.15,3.43-20.19,4a28.7,28.7,0,0,1-3.64.75c-1.41.19-2.93.44-4.38.5-2.9.2-5.46.41-6,.9.12-.24-.65-.34-2-.33s-3.11-.09-5.1,0c-4,.12-8.6.16-11,.18,1.61-.18-4.13-.54-2.23-.81-5.42-.4-10.4-.93-9.52-.34-4.92-1.2-9.94-1.87-14.42-2.58s-8.41-1.48-11-2.8c-8-1.65-15.7-3.5-23.2-5.31l-22-5.21c.74-.75,15.91,3.94,15.53,2.86-6.87-1.55-12.31-2.63-17.72-3.78s-10.83-2.21-17.59-3.92c-3.49-.95,2.08.09,3.3.22-13.76-2.82-26.5-6-38.86-8a16.47,16.47,0,0,1,2.65.29c-2.42-.46-5.59-1.27-5.39-.81l2.37.37c3.74,1.35-9.82-.73-10.32-.44,4.32-.39-12.08-2.54-5.28-2.79-1.61-.22-3.65-.4-3.33-.06-2.35-.52-3.08-.81-.62-.67-8.72-1.4-5.71-.39-13.59-1.74.06-.19,1.67,0,2.52-.09a110,110,0,0,1-14.76-1.87c.42-.05-.33-.34,1.65,0-5.73-.91-10.66-1.34-15.72-1.91l-7.8-.93c-2.72-.32-5.58-.72-8.72-1.23,3.83-.36-4.26-.86-4.83-1.69-2.27-.22-4.54-.48-6.82-.65.9.23,1.79.44,2.68.69-5.95-.73-11.27-.79-16.36-1.63l4.46.21c-3.73-.37-7.45-.82-11.18-1.13,2.1.29,4.19.65,6.29,1-6.07-.29.54,1-7.36-.06,1.62.09-6-.6-9-1.34h0a91.22,91.22,0,0,1-10.42-.69c-1.13-.33,1-.74.26-1-3,.38-14-1-17.75-.61,1.24-.06,1.34-.44.94-.56l-2.49.34c-2.76-.34-3.16-.45-2.68-.73-8.33-.62,2.58,1.12-7.28.08.78,0,.41-.09,2-.07-9.92-.92-19.22-.74-28.34-1.42-2.67-.88,8,.18,4.93-.59-6.59-.29-13.43-.22-20.2-.22s-13.5.07-19.88-.09l2.38.11c-1.78,1.07-9.5-.69-16-.07,1.58-.1,2.07-.61,1.64-.49-4.37-.05-8.84.06-13.87.23s-10.61.58-17.23.9l1.64-.31c-5.16-.17-13.56.38-19.13.48-1.64.34-4.82.44-2.87.75a122.4,122.4,0,0,0-12.6.18c-4.1.26-8.12.56-12.06,1-7.9.88-15.55,1.68-23.18,1.83,1.81-.18,4.3-.66,2.85-.52L268.37,725c1.07.36,1.72.12,4.47.22a79.93,79.93,0,0,1-8.42,1.34c5.76-1-.13-.73-2.66-.7.44.09-.4.35-.17.47-6.82-.06-1,1-10.27,1.54l.46-.29c-3.43.48-6.54,1.25-10.25,1.66-1.6-.33,3.62-.73,3.8-1.19-5.2.71-10.12,2.35-14.89,2.44,2.18-.44,5.36-.86,7.54-1.3a63.38,63.38,0,0,0-9.59.71l.37,0-8.82,1,2.26-.17a48.79,48.79,0,0,1-10,2.26,105.31,105.31,0,0,0-11.72,2.34c8.32-2.26,1.32-.72,1.87-1.43-2.26.21-5.67.59-4.74.26a37,37,0,0,1-5.7,1A42.35,42.35,0,0,0,185,736.7c-.29-.14-4.4.79-3.56.14-5.31,1.14,1.33.1.92.42-4.05,1.1-8.93,1.75-14.23,2.68-2.65.45-5.42.93-8.25,1.51a88.29,88.29,0,0,0-8.6,2.12c-5,1.3-8,2.21-10.84,3.1s-5.61,1.77-10.25,3.06c-3.23.45,2.43-1.31,2.43-1.31a131.71,131.71,0,0,0-13.75,3.27c.93-.39-.11-.31-1.62-.15-3.83,1-2.4,1.35-7.53,2.38a25.82,25.82,0,0,1,3.64-1.75c-4.48,1.34-8.86,2.84-13.5,4.22-1.33,0,2.69-1.23,4.29-1.87-5.25,1.45-13.52,4-15,4.93l3.42-.74c-1.91.55-1.11-.18.28-.66,4.38-1.65,6.52-1.61,6.83-1.49l-3.29,1c3.69.11,13.34-3.66,20.07-5.35l-2.59,1.53c2.23-.81,4.47-1.64,6.73-2.4,1.52-.14,2.63.07-.66,1,4.92-.76,4.2-1.31,8.46-1.86.48,0,.28,0-.14.19l4.66-1.37c-.88.39.92.38-2,1,2.14-.39,4.06-.83,5.78-1.27s3.26-.82,4.63-1.19a31.6,31.6,0,0,1,6.48-1.37l-.7.21c11.74-2.87,1-.88,9.72-3.47l6.29.26,1-.83c1.23-.23,3.65-.67,3.25-.34,4.47-1.33-.82-.11,1.74-1,1.5-.16,3.26-.47,5.08-.8l5.46-1c3.5-.66,6.43-1.16,7.18-.8,2-.85-5.71.69.54-.8,1,.35,2.8,0,5.05-.56a56.55,56.55,0,0,1,7.7-1.34c-1.57.81-6.74,1.38-1.25.95,3.11-1.42,10.55-1.6,15.09-2.44.11-.74,9.89-1.81,17.54-3.13-.23.15,3.41-.23,8-.72s10.13-1.14,13.73-1.39l-.2.15c1.3-.89,8.72-1.59,14.08-2.35-.16.46-1.11.74-4,1.27l5.06-.57a37.35,37.35,0,0,1,6-1l-1.23.66c6.75-.67,13.53-2,22.26-2.26.45-.55-7-.88,2.14-1.94.37.24.74.69-1.66,1a36.9,36.9,0,0,1,4.4-.46l-3.64.76c4-.11,2-.55,5.21-.76,0,.4,2.37.1,1.93.45-.8.1-2.77,0-4,.3,1.79-.1,3.76-.18,5.47-.21a30.84,30.84,0,0,1,3.89.15c-.33-.21,0-.54,2.58-.75,6.76-.44,2.34.34,6.3.3,1.62-.38,5.95-.36,6-.95a9.27,9.27,0,0,1,3.14.29c3.49-.41,16.37-.79,12.39-1.24h-.9l.57-.06h0c11.48-1,23.9-.4,35.3-.69v.2c6.81-.34,15.16-.12,20-.5,2,0,4.75.41,3.89.63a99.43,99.43,0,0,1,13.31.26c-5.25.2,1.79.36-5.37.11,6.76.36,8.27.71,15.55.38-2.49.4,5.06.85,8.28.86l-4.72-.58c3.62.09,6.77.28,10,.47l-1.77.59c3.45.37,6.73.51,9.88.62s6.17.17,9.09.22,5.72.1,8.46.28a56.15,56.15,0,0,1,8,1.08c3.69-.17-7.46-.94-4.16-1.22,6.34.61,12.88,2.1,14.86,2.27,8.65,1.13,8.19-.2,17.25.94-1.14-.36-2.18-1.1,4.64-.64,6.33.79,7.68,1.88,3.66,1.6-1.52-.16-2.24-.32-2.17-.39-2.06-.14-4.76-.29-2.27.21l.85-.15c3.11.57,11.82,1.59,9.73,1.73,4.8.33,2.09-.15-1.44-.69,8.07,1.29,12.68,1.45,21,2.84-1.31-.31-2.49-.75-1.17-.57,12.19,1.94,5.45.26,13.75,1.3,4.64,1.07-1.81.6,6.55,1.56,5.05,1,1,.78-1.06.67,7.64.7,14.11,2.41,18.4,3.26l-4-.48c2.39.29,4.34.62,6.32,1l-2.19-.86c2.32.48,4.3.81,4.22,1,2.46.1-1.71-1.09,3.14-.7,3.08.75,9.54,1.35,10.5,2.2-9.75-2,1,.77-7.33-.55,1.61.21,3.57.51,5.88,1,.34.13-.35.07-1,0,9.24,2.29,4.42.1,14.11,1.91-1.3.12,2.12,1.08,3.71,1.3-3.9-.73-1.75-.94,1.88-.52,6.14,1.52,6.77,1.16,10,1.85l-3.68-.88c1.33-.09,4.42.58,8.76,1.35.32.34-4-.61-2.44-.18a42,42,0,0,1,8,1.69,77.14,77.14,0,0,0,9.4,2.26c3,.91.15.72,2.83,1.47,7.57,1.17,8,2.31,15.87,3.77-2.15-1-2.57-1,3.05-.13l-12.94-2.71,8.41,1.27c-3.88-.91-8.25-1.68-10.57-2.24,4,.49,3.59.55,1.82-.28,5.16,1.94,10.63,2.08,16.66,4l-.46,1.11c4.56,1.31,8.65,2.27,13.13,3.2s9.29,1.92,15.21,3.66L682,761.89c1.72,0,7.37,1.88,11.29,2.72-.46.29,1.92,1,3.51,1.72-.14-.31,8.77,2.26,10,1.74l5.27,1.77a60.12,60.12,0,0,0,10.54,1.72c2.81.23,5.57.45,10.32,1.18-2.93,0,1.36,1-5.08.25,3.18.56,6,1,6.14.73a37.76,37.76,0,0,0,5.52.54,57.75,57.75,0,0,1,6.34.5,25.38,25.38,0,0,1,5.45-.31c.39.09,0,.2,0,.2a22.44,22.44,0,0,1,2.44-.22c1-.11,1.64-.25.07-.44a85.73,85.73,0,0,0,8.64.35c3.19-.14,6.59-.49,10-.78,3.35-.47,6.65-1,9.66-1.35a77.53,77.53,0,0,1,7.85-1.06c1.73-.34,3.51-.81,5.33-1.27l5.51-1.37L811,765.65c-.36.23,0,.21-1.13.48a24.89,24.89,0,0,0,6.82-2.39,36.08,36.08,0,0,1,7.66-2.7c5-.91-4.94,1.91-1.84,1.2.85.41,3.71-.53,7.17-1.74a88.23,88.23,0,0,1,10.82-3.4l-1.52.57c5-1.16,11.7-4.34,19.69-6.72,0,0-.35.22,0,.2,1.31-.58,2.94-1.21,4.76-1.89s3.84-1.38,5.94-2l6.41-2,6.18-1.7c-2.3,1.1-3.46,1.14-1.86,1.28,3.46-.93-1.23-.58,5.71-2.41,2.34-.21,7.45-1,8.22-.64l-6.59,1.42a27.29,27.29,0,0,0,6-1c1.06-.29,2.13-.53,3.16-.73s2-.4,2.88-.51l-.4.38,10.3-1.94c1.34-.24,2.69-.54,4.42-.75s3.81-.37,6.58-.55l-1.16-.16a17.1,17.1,0,0,1,5.57-.42,22.74,22.74,0,0,0,5.58-.15c.61.25,1.22.53,1.83.8a191,191,0,0,1,21.25,0c-2.06.14-5.18.05-8.45.13l-4.89,0c-1.58,0-3.08.13-4.38.19l3.81,0,4.67.16,4.32.08a23.64,23.64,0,0,0,2.75,0c-1.6-.06-3.62,0-5.19-.2a102.6,102.6,0,0,1,19.22.84c-.79.64,4.31,1.44,10.29,2.38,3,.54,6.2,1,9,1.65a47,47,0,0,1,6.53,1.76c13.87,2.15,27.12,6.17,43,10.11-5.34-2.58,4.64,1.14,4-.29a49.57,49.57,0,0,1,5.43,1.42l11,3.6c2.57,1-3.59-.64-3.32-.29,8.08,2.17,3.27,1.37,8.56,3.06-1-.7,3,.12,7.56,1.44l-6.38-2.19c11.51,2.22,9.56,3.49,21.2,5.6l-3.73-.48c1.49.31,3.6.75,6,1.29s5.14,1.15,7.88,1.68a100.82,100.82,0,0,0,14,2.11c1,.34,2.37.92-.28.53,7.13,1.38,15.14,2.56,22.8,3.3s14.91,1.28,20.53,2l-1.12.22c2.72.15,4.75-.33,8.14.13-.18.11-1.11.25.15.32,1.45,0,7.24-.4,10.84-.23l-3.08.33c1.78,0,3.46.12,5.05.05s3.11-.13,4.56-.22,2.84-.16,4.18-.33l3.94-.51,3.81-.53c1.27-.2,2.53-.45,3.81-.67l4-.67c1.35-.26,2.75-.53,4.21-.78.11.94,11.2-.73,16.66-1.9l-.16.16c8.08-1.8,14.82-3.77,21.34-5.9s12.82-4.34,20-6.78c9.3-1.89,30.55-9.33,45.27-12.53-2.26.44.19-.78,2.78-1.48,3.48-.65,9.37-2.91,9-2-.41.08-.83.16-1.23.26a32.39,32.39,0,0,0,6.65-.82c1.4-.27,2.89-.59,4.37-.91s3-.57,4.38-.82l.73-1.21c1.86-.14,3.85-.37,5.93-.65s4.25-.53,6.47-.85c4.41-.69,9-1.32,13.42-2,2.19-.35,4.35-.6,6.4-.83s4-.45,5.82-.63a53.39,53.39,0,0,1,8.69-.2c3.55-.58,8-.77,11.53-1.22l-.17.57c9.93-.31,14.88-.34,27.16-.49-.84.11-1.67.26-2.51.4a38.57,38.57,0,0,0,7.78-.72,30.93,30.93,0,0,1,7.39-.7l1.9.91c6,.16,12.11.71,18.16,1.13s12.07,1,18,1.16c-.2.11-.58.32-2.53.17,5.68.46,21.83,2.85,19.91,1.5,0,.38,3.12.79,7,1.16l11.88,1.09-1.09.41a77.2,77.2,0,0,1,13.42.94c1.8.35,1.51.68-.86.17,6,1.25,4.77.26,12,1.78l-2.77-.11a46.89,46.89,0,0,0,9.18,1.05c3.93.47,11.67,2.34,12.48,3a28.33,28.33,0,0,1,7.93,1c.45.29-.89.13-1.57,0,10.19,2.47,15.4,2.58,22.32,4.67.11.22.54.41,1.12.6-8.13-1.84-14.68-3.26-14.06-3.18-.1.5,6.44,2,1.07,1.58,2.68.38,6.31.86,10.08,1.45s7.64,1.35,10.81,2.2a4.62,4.62,0,0,1,.8.37l-.67-.1c1.46.39,2.79.66,4,.87,2,.57,3.29.94,5.25,1.41.66.57,7.44,2.05,10.69,2.87-.13-.61,4.11.53.23-.91.5.17-.64-.09-2.81-.6-.49-.1-1.07-.23-1.4-.28h.23l-8.11-1.93a41.83,41.83,0,0,1,8.92,1.94c1.76.06,3.69.16,4.77.24,4.27,1.88,12.74,4.47,13.81,5.26,10,2.25,23.39,6,29.88,6.67a12.3,12.3,0,0,1,4.16,1.64c-1.65-.35-3.58-.9-4.49-1,5.69,1.27,16.66,4.54,18.23,4.15,3.54,1.07,2.51,1,1.8.92-.35,0-.62,0-.17.08s1.6.43,4.12.91l-1.4-.06a40.12,40.12,0,0,0,14.13,1.58,32.62,32.62,0,0,0,12.56-3.75,101.09,101.09,0,0,0,11.15-7c1.88-1.31,3.83-2.66,5.92-4s4.39-2.54,6.8-3.83a12.57,12.57,0,0,1-2.33,1.15c5.3-3.3,11-6.17,16.59-9.13l8.7-4c.72-.35,1.46-.66,2.21-.94l2.23-.88,4.48-1.76a157,157,0,0,1,36.71-9.06c7-.61,7.65-1.24,11.88-2l1.56.51,7.26-1.14c.64-.07,1.28-.14,1.91-.19l1.86,0c1.23,0,2.43,0,3.62.09s2.36.11,3.54.18,2.37.12,3.57.3c4.81.65,9.94,1,16.48,1.44l-1.63-.61c1.17.17,2.68.34,4.28.52l2.43.28c.81.1,1.6.27,2.35.4,3,.54,5.31,1,4.88,1.16a9.83,9.83,0,0,1,3.38.41l.07.34c3.8.65,7.57,1.49,11.38,2.23,8.51,2.85-1.67.75,10.73,4.76,4.56,1.58,13.19,4.2,11.59,3.32-1.82-.74-4.6-2-4.62-2.38l4.22,1.49c1.11-.56,4.77-.14-5.35-4.84l-3.71-1.15-3.77-.92-2.24-1.2c2.07.67,4.16,1.3,6.22,2a33.76,33.76,0,0,0-8.32-2.47,12.25,12.25,0,0,0-3-1.47l-7.61-1c-.81-.58,3.49.12-1.43-1.32-3.55-.46,3.13,1.63-2.64.46-3.55-1.08-2.43-1.23-6.76-1.66-.56-.35.37-.33,2.09-.12-1.94-.21-4.46-.65-6.76-1a35.46,35.46,0,0,1-9-.92,41.48,41.48,0,0,0-4.24-.44c-2.73-.17-4.93-.36-4.72-.79-.61.07-2.32.15-4.32.18s-4.29.25-6.06.25c3.24-.54-.08-.55-4-.57-1,0-2,0-3,0s-1.87.07-2.62.08c-1.52,0-2.45-.09-2-.39-2.38.64-6.72.87-11.48,1.62-2.38.33-4.89.62-7.31,1s-4.74,1-6.8,1.49a10,10,0,0,1,2.09-.56c-4.73.81-6.18.68-9.2,1.3-.22.46-2.12,1.18-4.45,2l-3.63,1.2c-1.2.43-2.32.93-3.25,1.33-5.81,1,3.14-1.95,1.18-2.1.46.53-9.57,3.67-7.5,3.57a38.24,38.24,0,0,0-3.81.93,13.14,13.14,0,0,1-2.3.34c-.39,1.2-3.87,1.64-7.11,3.56-6.1,2.26-1.89-.14-8.28,3.1C1729.52,751.21,1735.18,748.23,1735.18,748.23ZM1579.12,753h0l3.39.75Zm-13.79-3.09,6,1.34c.44.3-.13.37-1.51,0C1570.58,751.33,1567.35,750.51,1565.33,749.9Zm28.2,10.52a11.32,11.32,0,0,1-3.16-.91l3.81.85h.27A3,3,0,0,1,1593.53,760.42Z" transform="translate(0 -650)"/><path class="cls-4" d="M1597.6,760.66l.9.18-1.26-.44h-.81Z" transform="translate(0 -650)"/><path class="cls-4" d="M339.43,722h.3a4.49,4.49,0,0,1-.63-.06A2.93,2.93,0,0,1,339.43,722Z" transform="translate(0 -650)"/><polygon class="cls-4" points="1371.38 81.29 1371.41 81.44 1372.64 81.22 1371.38 81.29"/><path class="cls-4" d="M261.76,725.85a5.13,5.13,0,0,0-1,0A5.71,5.71,0,0,0,261.76,725.85Z" transform="translate(0 -650)"/><path class="cls-4" d="M228.39,729.89l-4.73.5C225.71,730.2,227.2,730,228.39,729.89Z" transform="translate(0 -650)"/><path class="cls-4" d="M202.8,733.56a1.2,1.2,0,0,0-.46.32h0Z" transform="translate(0 -650)"/><path class="cls-4" d="M611.64,741.7l1,.17C614.94,742.23,613.38,742,611.64,741.7Z" transform="translate(0 -650)"/><path class="cls-4" d="M490.52,724.91c1.3,0,2.59.05,3.94.12C492.3,724.77,490.61,724.59,490.52,724.91Z" transform="translate(0 -650)"/><path class="cls-4" d="M744.57,770.25h0l.83.06Z" transform="translate(0 -650)"/><path class="cls-4" d="M500.12,725.6a56.07,56.07,0,0,0-5.66-.57C496.23,725.24,498.32,725.51,500.12,725.6Z" transform="translate(0 -650)"/><path class="cls-4" d="M93.29,757.21l-1.21.31s0,.07-.12.12Z" transform="translate(0 -650)"/><path class="cls-4" d="M92,757.64l-1.31.43A6.69,6.69,0,0,0,92,757.64Z" transform="translate(0 -650)"/><path class="cls-4" d="M87.88,759l2.77-.92A14.91,14.91,0,0,0,87.88,759Z" transform="translate(0 -650)"/><path class="cls-4" d="M126.52,749l.33-.29C126.65,748.78,126.53,748.87,126.52,749Z" transform="translate(0 -650)"/><path class="cls-4" d="M136.62,746.51c-2.42.52-6.15,1-9.49,1.94l-.28.24C128.37,748,134.41,747.38,136.62,746.51Z" transform="translate(0 -650)"/><path class="cls-4" d="M179.6,740.16c-2.86.48-5.73.92-8.58,1.46,1.54-.09,3.55-.2-.32.64C181.58,740.8,168.38,742.16,179.6,740.16Z" transform="translate(0 -650)"/><path class="cls-4" d="M206.21,735.81c-4.59.87.1.3-.12.47C209,735.59,209.68,735.43,206.21,735.81Z" transform="translate(0 -650)"/><path class="cls-4" d="M400.26,721.82l-.48.51C403.38,722.29,399.82,722.13,400.26,721.82Z" transform="translate(0 -650)"/><polygon class="cls-4" points="437.61 70.47 434.12 69.99 432.43 70.38 437.61 70.47"/><path class="cls-4" d="M459.37,725.42l-1.57,0c2,.08,4,.11,6,.23C462.32,725.52,460.85,725.48,459.37,725.42Z" transform="translate(0 -650)"/><path class="cls-4" d="M782.51,773.18c-.39-.14-.79-.31-1.19-.46C778.91,773.17,778.5,774,782.51,773.18Z" transform="translate(0 -650)"/><path class="cls-4" d="M919.17,738.51a35,35,0,0,0,3.63.12,28.36,28.36,0,0,0,4.28-.26c-1.57,0-3.15,0-4.54,0A29.32,29.32,0,0,0,919.17,738.51Z" transform="translate(0 -650)"/><path class="cls-4" d="M1334.77,740.81c-.92.2-1.83.46-2.75.69,1.73-.39,3.48-.72,5.23-1Z" transform="translate(0 -650)"/></g></svg>